%FSLAX45Y45*%
G04 Gerber Fmt 4.5, Leading zero omitted, Abs format (unit mm)*
G04 Created by KiCad (PCBNEW (5.1.2)-2) date 2019-08-11 20:23:40*
%MOMM*%
%LPD*%
G04 APERTURE LIST*
%ADD10C,0.050000*%
%ADD11C,0.200000*%
%ADD12C,0.300000*%
G04 APERTURE END LIST*
D10*
X11353800Y-4495800D02*
X15925800Y-4495800D01*
X16179800Y-4749800D02*
X16179800Y-9321800D01*
X11099800Y-4749800D02*
X11099800Y-9321800D01*
X11353800Y-9575800D02*
X15925800Y-9575800D01*
X11099800Y-4749800D02*
G75*
G02X11353800Y-4495800I254000J0D01*
G01*
X11353800Y-9575800D02*
G75*
G02X11099800Y-9321800I0J254000D01*
G01*
X16179800Y-9321800D02*
G75*
G02X15925800Y-9575800I-254000J0D01*
G01*
X15925800Y-4495800D02*
G75*
G02X16179800Y-4749800I0J-254000D01*
G01*
D11*
X12228200Y-7072000D02*
X12308200Y-7152000D01*
X12308200Y-7072000D02*
X12228200Y-7152000D01*
X12990200Y-7072000D02*
X13070200Y-7152000D01*
X13070200Y-7072000D02*
X12990200Y-7152000D01*
X12660000Y-7834000D02*
X12740000Y-7914000D01*
X12740000Y-7834000D02*
X12660000Y-7914000D01*
X12660000Y-8088000D02*
X12740000Y-8168000D01*
X12740000Y-8088000D02*
X12660000Y-8168000D01*
X12660000Y-8342000D02*
X12740000Y-8422000D01*
X12740000Y-8342000D02*
X12660000Y-8422000D01*
X13676000Y-7834000D02*
X13756000Y-7914000D01*
X13756000Y-7834000D02*
X13676000Y-7914000D01*
X13676000Y-8088000D02*
X13756000Y-8168000D01*
X13756000Y-8088000D02*
X13676000Y-8168000D01*
X13676000Y-8342000D02*
X13756000Y-8422000D01*
X13756000Y-8342000D02*
X13676000Y-8422000D01*
X12228200Y-7326000D02*
X12308200Y-7406000D01*
X12308200Y-7326000D02*
X12228200Y-7406000D01*
X12990200Y-7326000D02*
X13070200Y-7406000D01*
X13070200Y-7326000D02*
X12990200Y-7406000D01*
X11582400Y-6858000D02*
G75*
G03X11582400Y-6858000I-50800J0D01*
G01*
X11582400Y-7112000D02*
G75*
G03X11582400Y-7112000I-50800J0D01*
G01*
X11582400Y-7366000D02*
G75*
G03X11582400Y-7366000I-50800J0D01*
G01*
X11582400Y-7620000D02*
G75*
G03X11582400Y-7620000I-50800J0D01*
G01*
X11582400Y-7874000D02*
G75*
G03X11582400Y-7874000I-50800J0D01*
G01*
X11582400Y-8128000D02*
G75*
G03X11582400Y-8128000I-50800J0D01*
G01*
X11582400Y-8382000D02*
G75*
G03X11582400Y-8382000I-50800J0D01*
G01*
X11836400Y-6858000D02*
G75*
G03X11836400Y-6858000I-50800J0D01*
G01*
X11836400Y-7112000D02*
G75*
G03X11836400Y-7112000I-50800J0D01*
G01*
X11836400Y-7366000D02*
G75*
G03X11836400Y-7366000I-50800J0D01*
G01*
X11836400Y-7620000D02*
G75*
G03X11836400Y-7620000I-50800J0D01*
G01*
X11836400Y-7874000D02*
G75*
G03X11836400Y-7874000I-50800J0D01*
G01*
X11836400Y-8128000D02*
G75*
G03X11836400Y-8128000I-50800J0D01*
G01*
X11836400Y-8382000D02*
G75*
G03X11836400Y-8382000I-50800J0D01*
G01*
X14859000Y-6523600D02*
X14859000Y-6633600D01*
X14804000Y-6578600D02*
X14914000Y-6578600D01*
X15113000Y-6523600D02*
X15113000Y-6633600D01*
X15058000Y-6578600D02*
X15168000Y-6578600D01*
X15367000Y-6523600D02*
X15367000Y-6633600D01*
X15312000Y-6578600D02*
X15422000Y-6578600D01*
X15412962Y-8275562D02*
X15412962Y-8183638D01*
X15321038Y-8183638D01*
X15321038Y-8275562D01*
X15412962Y-8275562D01*
X15412962Y-8775562D02*
X15412962Y-8683638D01*
X15321038Y-8683638D01*
X15321038Y-8775562D01*
X15412962Y-8775562D01*
X11983962Y-5329162D02*
X11983962Y-5237238D01*
X11892038Y-5237238D01*
X11892038Y-5329162D01*
X11983962Y-5329162D01*
X12483962Y-5329162D02*
X12483962Y-5237238D01*
X12392038Y-5237238D01*
X12392038Y-5329162D01*
X12483962Y-5329162D01*
X15412962Y-7132562D02*
X15412962Y-7040638D01*
X15321038Y-7040638D01*
X15321038Y-7132562D01*
X15412962Y-7132562D01*
X15412962Y-7632562D02*
X15412962Y-7540638D01*
X15321038Y-7540638D01*
X15321038Y-7632562D01*
X15412962Y-7632562D01*
X13126962Y-5329162D02*
X13126962Y-5237238D01*
X13035038Y-5237238D01*
X13035038Y-5329162D01*
X13126962Y-5329162D01*
X13626962Y-5329162D02*
X13626962Y-5237238D01*
X13535038Y-5237238D01*
X13535038Y-5329162D01*
X13626962Y-5329162D01*
X15925800Y-9431800D02*
X16035800Y-9321800D01*
X15925800Y-9211800D01*
X15815800Y-9321800D01*
X15925800Y-9431800D01*
X11353800Y-9431800D02*
X11463800Y-9321800D01*
X11353800Y-9211800D01*
X11243800Y-9321800D01*
X11353800Y-9431800D01*
X15925800Y-4859800D02*
X16035800Y-4749800D01*
X15925800Y-4639800D01*
X15815800Y-4749800D01*
X15925800Y-4859800D01*
X11353800Y-4859800D02*
X11463800Y-4749800D01*
X11353800Y-4639800D01*
X11243800Y-4749800D01*
X11353800Y-4859800D01*
X14938000Y-4737600D02*
X15288000Y-5087600D01*
X15288000Y-4737600D02*
X14938000Y-5087600D01*
X15288000Y-4912600D02*
G75*
G03X15288000Y-4912600I-175000J0D01*
G01*
D12*
X11383728Y-10044014D02*
X11383728Y-9744014D01*
X11455157Y-9744014D01*
X11498014Y-9758300D01*
X11526586Y-9786872D01*
X11540871Y-9815443D01*
X11555157Y-9872586D01*
X11555157Y-9915443D01*
X11540871Y-9972586D01*
X11526586Y-10001157D01*
X11498014Y-10029729D01*
X11455157Y-10044014D01*
X11383728Y-10044014D01*
X11683728Y-10044014D02*
X11683728Y-9844014D01*
X11683728Y-9901157D02*
X11698014Y-9872586D01*
X11712300Y-9858300D01*
X11740871Y-9844014D01*
X11769443Y-9844014D01*
X11869443Y-10044014D02*
X11869443Y-9844014D01*
X11869443Y-9744014D02*
X11855157Y-9758300D01*
X11869443Y-9772586D01*
X11883728Y-9758300D01*
X11869443Y-9744014D01*
X11869443Y-9772586D01*
X12055157Y-10044014D02*
X12026586Y-10029729D01*
X12012300Y-10001157D01*
X12012300Y-9744014D01*
X12212300Y-10044014D02*
X12183728Y-10029729D01*
X12169443Y-10001157D01*
X12169443Y-9744014D01*
X12555157Y-10044014D02*
X12555157Y-9744014D01*
X12655157Y-9958300D01*
X12755157Y-9744014D01*
X12755157Y-10044014D01*
X13026586Y-10044014D02*
X13026586Y-9886872D01*
X13012300Y-9858300D01*
X12983728Y-9844014D01*
X12926586Y-9844014D01*
X12898014Y-9858300D01*
X13026586Y-10029729D02*
X12998014Y-10044014D01*
X12926586Y-10044014D01*
X12898014Y-10029729D01*
X12883728Y-10001157D01*
X12883728Y-9972586D01*
X12898014Y-9944014D01*
X12926586Y-9929729D01*
X12998014Y-9929729D01*
X13026586Y-9915443D01*
X13169443Y-9844014D02*
X13169443Y-10144014D01*
X13169443Y-9858300D02*
X13198014Y-9844014D01*
X13255157Y-9844014D01*
X13283728Y-9858300D01*
X13298014Y-9872586D01*
X13312300Y-9901157D01*
X13312300Y-9986872D01*
X13298014Y-10015443D01*
X13283728Y-10029729D01*
X13255157Y-10044014D01*
X13198014Y-10044014D01*
X13169443Y-10029729D01*
X13440871Y-10015443D02*
X13455157Y-10029729D01*
X13440871Y-10044014D01*
X13426586Y-10029729D01*
X13440871Y-10015443D01*
X13440871Y-10044014D01*
X13440871Y-9858300D02*
X13455157Y-9872586D01*
X13440871Y-9886872D01*
X13426586Y-9872586D01*
X13440871Y-9858300D01*
X13440871Y-9886872D01*
X11017300Y-10498300D02*
X11097300Y-10578300D01*
X11097300Y-10498300D02*
X11017300Y-10578300D01*
X11440871Y-10374014D02*
X11469443Y-10374014D01*
X11498014Y-10388300D01*
X11512300Y-10402586D01*
X11526586Y-10431157D01*
X11540871Y-10488300D01*
X11540871Y-10559729D01*
X11526586Y-10616872D01*
X11512300Y-10645443D01*
X11498014Y-10659729D01*
X11469443Y-10674014D01*
X11440871Y-10674014D01*
X11412300Y-10659729D01*
X11398014Y-10645443D01*
X11383728Y-10616872D01*
X11369443Y-10559729D01*
X11369443Y-10488300D01*
X11383728Y-10431157D01*
X11398014Y-10402586D01*
X11412300Y-10388300D01*
X11440871Y-10374014D01*
X11669443Y-10645443D02*
X11683728Y-10659729D01*
X11669443Y-10674014D01*
X11655157Y-10659729D01*
X11669443Y-10645443D01*
X11669443Y-10674014D01*
X11855157Y-10502586D02*
X11826586Y-10488300D01*
X11812300Y-10474014D01*
X11798014Y-10445443D01*
X11798014Y-10431157D01*
X11812300Y-10402586D01*
X11826586Y-10388300D01*
X11855157Y-10374014D01*
X11912300Y-10374014D01*
X11940871Y-10388300D01*
X11955157Y-10402586D01*
X11969443Y-10431157D01*
X11969443Y-10445443D01*
X11955157Y-10474014D01*
X11940871Y-10488300D01*
X11912300Y-10502586D01*
X11855157Y-10502586D01*
X11826586Y-10516872D01*
X11812300Y-10531157D01*
X11798014Y-10559729D01*
X11798014Y-10616872D01*
X11812300Y-10645443D01*
X11826586Y-10659729D01*
X11855157Y-10674014D01*
X11912300Y-10674014D01*
X11940871Y-10659729D01*
X11955157Y-10645443D01*
X11969443Y-10616872D01*
X11969443Y-10559729D01*
X11955157Y-10531157D01*
X11940871Y-10516872D01*
X11912300Y-10502586D01*
X12155157Y-10374014D02*
X12183728Y-10374014D01*
X12212300Y-10388300D01*
X12226586Y-10402586D01*
X12240871Y-10431157D01*
X12255157Y-10488300D01*
X12255157Y-10559729D01*
X12240871Y-10616872D01*
X12226586Y-10645443D01*
X12212300Y-10659729D01*
X12183728Y-10674014D01*
X12155157Y-10674014D01*
X12126586Y-10659729D01*
X12112300Y-10645443D01*
X12098014Y-10616872D01*
X12083728Y-10559729D01*
X12083728Y-10488300D01*
X12098014Y-10431157D01*
X12112300Y-10402586D01*
X12126586Y-10388300D01*
X12155157Y-10374014D01*
X12383728Y-10674014D02*
X12383728Y-10474014D01*
X12383728Y-10502586D02*
X12398014Y-10488300D01*
X12426586Y-10474014D01*
X12469443Y-10474014D01*
X12498014Y-10488300D01*
X12512300Y-10516872D01*
X12512300Y-10674014D01*
X12512300Y-10516872D02*
X12526586Y-10488300D01*
X12555157Y-10474014D01*
X12598014Y-10474014D01*
X12626586Y-10488300D01*
X12640871Y-10516872D01*
X12640871Y-10674014D01*
X12783728Y-10674014D02*
X12783728Y-10474014D01*
X12783728Y-10502586D02*
X12798014Y-10488300D01*
X12826586Y-10474014D01*
X12869443Y-10474014D01*
X12898014Y-10488300D01*
X12912300Y-10516872D01*
X12912300Y-10674014D01*
X12912300Y-10516872D02*
X12926586Y-10488300D01*
X12955157Y-10474014D01*
X12998014Y-10474014D01*
X13026586Y-10488300D01*
X13040871Y-10516872D01*
X13040871Y-10674014D01*
X13626586Y-10359729D02*
X13369443Y-10745443D01*
X14012300Y-10374014D02*
X14040871Y-10374014D01*
X14069443Y-10388300D01*
X14083728Y-10402586D01*
X14098014Y-10431157D01*
X14112300Y-10488300D01*
X14112300Y-10559729D01*
X14098014Y-10616872D01*
X14083728Y-10645443D01*
X14069443Y-10659729D01*
X14040871Y-10674014D01*
X14012300Y-10674014D01*
X13983728Y-10659729D01*
X13969443Y-10645443D01*
X13955157Y-10616872D01*
X13940871Y-10559729D01*
X13940871Y-10488300D01*
X13955157Y-10431157D01*
X13969443Y-10402586D01*
X13983728Y-10388300D01*
X14012300Y-10374014D01*
X14240871Y-10645443D02*
X14255157Y-10659729D01*
X14240871Y-10674014D01*
X14226586Y-10659729D01*
X14240871Y-10645443D01*
X14240871Y-10674014D01*
X14440871Y-10374014D02*
X14469443Y-10374014D01*
X14498014Y-10388300D01*
X14512300Y-10402586D01*
X14526586Y-10431157D01*
X14540871Y-10488300D01*
X14540871Y-10559729D01*
X14526586Y-10616872D01*
X14512300Y-10645443D01*
X14498014Y-10659729D01*
X14469443Y-10674014D01*
X14440871Y-10674014D01*
X14412300Y-10659729D01*
X14398014Y-10645443D01*
X14383728Y-10616872D01*
X14369443Y-10559729D01*
X14369443Y-10488300D01*
X14383728Y-10431157D01*
X14398014Y-10402586D01*
X14412300Y-10388300D01*
X14440871Y-10374014D01*
X14640871Y-10374014D02*
X14826586Y-10374014D01*
X14726586Y-10488300D01*
X14769443Y-10488300D01*
X14798014Y-10502586D01*
X14812300Y-10516872D01*
X14826586Y-10545443D01*
X14826586Y-10616872D01*
X14812300Y-10645443D01*
X14798014Y-10659729D01*
X14769443Y-10674014D01*
X14683728Y-10674014D01*
X14655157Y-10659729D01*
X14640871Y-10645443D01*
X15112300Y-10674014D02*
X14940871Y-10674014D01*
X15026586Y-10674014D02*
X15026586Y-10374014D01*
X14998014Y-10416872D01*
X14969443Y-10445443D01*
X14940871Y-10459729D01*
X15226586Y-10374014D02*
X15226586Y-10431157D01*
X15340871Y-10374014D02*
X15340871Y-10431157D01*
X15783728Y-10788300D02*
X15769443Y-10774014D01*
X15740871Y-10731157D01*
X15726586Y-10702586D01*
X15712300Y-10659729D01*
X15698014Y-10588300D01*
X15698014Y-10531157D01*
X15712300Y-10459729D01*
X15726586Y-10416872D01*
X15740871Y-10388300D01*
X15769443Y-10345443D01*
X15783728Y-10331157D01*
X16055157Y-10674014D02*
X15883728Y-10674014D01*
X15969443Y-10674014D02*
X15969443Y-10374014D01*
X15940871Y-10416872D01*
X15912300Y-10445443D01*
X15883728Y-10459729D01*
X16240871Y-10374014D02*
X16269443Y-10374014D01*
X16298014Y-10388300D01*
X16312300Y-10402586D01*
X16326586Y-10431157D01*
X16340871Y-10488300D01*
X16340871Y-10559729D01*
X16326586Y-10616872D01*
X16312300Y-10645443D01*
X16298014Y-10659729D01*
X16269443Y-10674014D01*
X16240871Y-10674014D01*
X16212300Y-10659729D01*
X16198014Y-10645443D01*
X16183728Y-10616872D01*
X16169443Y-10559729D01*
X16169443Y-10488300D01*
X16183728Y-10431157D01*
X16198014Y-10402586D01*
X16212300Y-10388300D01*
X16240871Y-10374014D01*
X16698014Y-10674014D02*
X16698014Y-10374014D01*
X16826586Y-10674014D02*
X16826586Y-10516872D01*
X16812300Y-10488300D01*
X16783728Y-10474014D01*
X16740871Y-10474014D01*
X16712300Y-10488300D01*
X16698014Y-10502586D01*
X17012300Y-10674014D02*
X16983728Y-10659729D01*
X16969443Y-10645443D01*
X16955157Y-10616872D01*
X16955157Y-10531157D01*
X16969443Y-10502586D01*
X16983728Y-10488300D01*
X17012300Y-10474014D01*
X17055157Y-10474014D01*
X17083728Y-10488300D01*
X17098014Y-10502586D01*
X17112300Y-10531157D01*
X17112300Y-10616872D01*
X17098014Y-10645443D01*
X17083728Y-10659729D01*
X17055157Y-10674014D01*
X17012300Y-10674014D01*
X17283728Y-10674014D02*
X17255157Y-10659729D01*
X17240871Y-10631157D01*
X17240871Y-10374014D01*
X17512300Y-10659729D02*
X17483728Y-10674014D01*
X17426586Y-10674014D01*
X17398014Y-10659729D01*
X17383728Y-10631157D01*
X17383728Y-10516872D01*
X17398014Y-10488300D01*
X17426586Y-10474014D01*
X17483728Y-10474014D01*
X17512300Y-10488300D01*
X17526586Y-10516872D01*
X17526586Y-10545443D01*
X17383728Y-10574014D01*
X17640871Y-10659729D02*
X17669443Y-10674014D01*
X17726586Y-10674014D01*
X17755157Y-10659729D01*
X17769443Y-10631157D01*
X17769443Y-10616872D01*
X17755157Y-10588300D01*
X17726586Y-10574014D01*
X17683728Y-10574014D01*
X17655157Y-10559729D01*
X17640871Y-10531157D01*
X17640871Y-10516872D01*
X17655157Y-10488300D01*
X17683728Y-10474014D01*
X17726586Y-10474014D01*
X17755157Y-10488300D01*
X17869443Y-10788300D02*
X17883728Y-10774014D01*
X17912300Y-10731157D01*
X17926586Y-10702586D01*
X17940871Y-10659729D01*
X17955157Y-10588300D01*
X17955157Y-10531157D01*
X17940871Y-10459729D01*
X17926586Y-10416872D01*
X17912300Y-10388300D01*
X17883728Y-10345443D01*
X17869443Y-10331157D01*
X11097300Y-10934300D02*
G75*
G03X11097300Y-10934300I-50800J0D01*
G01*
X11540871Y-11070014D02*
X11369443Y-11070014D01*
X11455157Y-11070014D02*
X11455157Y-10770014D01*
X11426586Y-10812872D01*
X11398014Y-10841443D01*
X11369443Y-10855729D01*
X11669443Y-11041443D02*
X11683728Y-11055729D01*
X11669443Y-11070014D01*
X11655157Y-11055729D01*
X11669443Y-11041443D01*
X11669443Y-11070014D01*
X11869443Y-10770014D02*
X11898014Y-10770014D01*
X11926586Y-10784300D01*
X11940871Y-10798586D01*
X11955157Y-10827157D01*
X11969443Y-10884300D01*
X11969443Y-10955729D01*
X11955157Y-11012872D01*
X11940871Y-11041443D01*
X11926586Y-11055729D01*
X11898014Y-11070014D01*
X11869443Y-11070014D01*
X11840871Y-11055729D01*
X11826586Y-11041443D01*
X11812300Y-11012872D01*
X11798014Y-10955729D01*
X11798014Y-10884300D01*
X11812300Y-10827157D01*
X11826586Y-10798586D01*
X11840871Y-10784300D01*
X11869443Y-10770014D01*
X12083728Y-10798586D02*
X12098014Y-10784300D01*
X12126586Y-10770014D01*
X12198014Y-10770014D01*
X12226586Y-10784300D01*
X12240871Y-10798586D01*
X12255157Y-10827157D01*
X12255157Y-10855729D01*
X12240871Y-10898586D01*
X12069443Y-11070014D01*
X12255157Y-11070014D01*
X12383728Y-11070014D02*
X12383728Y-10870014D01*
X12383728Y-10898586D02*
X12398014Y-10884300D01*
X12426586Y-10870014D01*
X12469443Y-10870014D01*
X12498014Y-10884300D01*
X12512300Y-10912872D01*
X12512300Y-11070014D01*
X12512300Y-10912872D02*
X12526586Y-10884300D01*
X12555157Y-10870014D01*
X12598014Y-10870014D01*
X12626586Y-10884300D01*
X12640871Y-10912872D01*
X12640871Y-11070014D01*
X12783728Y-11070014D02*
X12783728Y-10870014D01*
X12783728Y-10898586D02*
X12798014Y-10884300D01*
X12826586Y-10870014D01*
X12869443Y-10870014D01*
X12898014Y-10884300D01*
X12912300Y-10912872D01*
X12912300Y-11070014D01*
X12912300Y-10912872D02*
X12926586Y-10884300D01*
X12955157Y-10870014D01*
X12998014Y-10870014D01*
X13026586Y-10884300D01*
X13040871Y-10912872D01*
X13040871Y-11070014D01*
X13626586Y-10755729D02*
X13369443Y-11141443D01*
X14012300Y-10770014D02*
X14040871Y-10770014D01*
X14069443Y-10784300D01*
X14083728Y-10798586D01*
X14098014Y-10827157D01*
X14112300Y-10884300D01*
X14112300Y-10955729D01*
X14098014Y-11012872D01*
X14083728Y-11041443D01*
X14069443Y-11055729D01*
X14040871Y-11070014D01*
X14012300Y-11070014D01*
X13983728Y-11055729D01*
X13969443Y-11041443D01*
X13955157Y-11012872D01*
X13940871Y-10955729D01*
X13940871Y-10884300D01*
X13955157Y-10827157D01*
X13969443Y-10798586D01*
X13983728Y-10784300D01*
X14012300Y-10770014D01*
X14240871Y-11041443D02*
X14255157Y-11055729D01*
X14240871Y-11070014D01*
X14226586Y-11055729D01*
X14240871Y-11041443D01*
X14240871Y-11070014D01*
X14440871Y-10770014D02*
X14469443Y-10770014D01*
X14498014Y-10784300D01*
X14512300Y-10798586D01*
X14526586Y-10827157D01*
X14540871Y-10884300D01*
X14540871Y-10955729D01*
X14526586Y-11012872D01*
X14512300Y-11041443D01*
X14498014Y-11055729D01*
X14469443Y-11070014D01*
X14440871Y-11070014D01*
X14412300Y-11055729D01*
X14398014Y-11041443D01*
X14383728Y-11012872D01*
X14369443Y-10955729D01*
X14369443Y-10884300D01*
X14383728Y-10827157D01*
X14398014Y-10798586D01*
X14412300Y-10784300D01*
X14440871Y-10770014D01*
X14798014Y-10870014D02*
X14798014Y-11070014D01*
X14726586Y-10755729D02*
X14655157Y-10970014D01*
X14840871Y-10970014D01*
X15012300Y-10770014D02*
X15040871Y-10770014D01*
X15069443Y-10784300D01*
X15083728Y-10798586D01*
X15098014Y-10827157D01*
X15112300Y-10884300D01*
X15112300Y-10955729D01*
X15098014Y-11012872D01*
X15083728Y-11041443D01*
X15069443Y-11055729D01*
X15040871Y-11070014D01*
X15012300Y-11070014D01*
X14983728Y-11055729D01*
X14969443Y-11041443D01*
X14955157Y-11012872D01*
X14940871Y-10955729D01*
X14940871Y-10884300D01*
X14955157Y-10827157D01*
X14969443Y-10798586D01*
X14983728Y-10784300D01*
X15012300Y-10770014D01*
X15226586Y-10770014D02*
X15226586Y-10827157D01*
X15340871Y-10770014D02*
X15340871Y-10827157D01*
X15783728Y-11184300D02*
X15769443Y-11170014D01*
X15740871Y-11127157D01*
X15726586Y-11098586D01*
X15712300Y-11055729D01*
X15698014Y-10984300D01*
X15698014Y-10927157D01*
X15712300Y-10855729D01*
X15726586Y-10812872D01*
X15740871Y-10784300D01*
X15769443Y-10741443D01*
X15783728Y-10727157D01*
X16055157Y-11070014D02*
X15883728Y-11070014D01*
X15969443Y-11070014D02*
X15969443Y-10770014D01*
X15940871Y-10812872D01*
X15912300Y-10841443D01*
X15883728Y-10855729D01*
X16312300Y-10870014D02*
X16312300Y-11070014D01*
X16240871Y-10755729D02*
X16169443Y-10970014D01*
X16355157Y-10970014D01*
X16698014Y-11070014D02*
X16698014Y-10770014D01*
X16826586Y-11070014D02*
X16826586Y-10912872D01*
X16812300Y-10884300D01*
X16783728Y-10870014D01*
X16740871Y-10870014D01*
X16712300Y-10884300D01*
X16698014Y-10898586D01*
X17012300Y-11070014D02*
X16983728Y-11055729D01*
X16969443Y-11041443D01*
X16955157Y-11012872D01*
X16955157Y-10927157D01*
X16969443Y-10898586D01*
X16983728Y-10884300D01*
X17012300Y-10870014D01*
X17055157Y-10870014D01*
X17083728Y-10884300D01*
X17098014Y-10898586D01*
X17112300Y-10927157D01*
X17112300Y-11012872D01*
X17098014Y-11041443D01*
X17083728Y-11055729D01*
X17055157Y-11070014D01*
X17012300Y-11070014D01*
X17283728Y-11070014D02*
X17255157Y-11055729D01*
X17240871Y-11027157D01*
X17240871Y-10770014D01*
X17512300Y-11055729D02*
X17483728Y-11070014D01*
X17426586Y-11070014D01*
X17398014Y-11055729D01*
X17383728Y-11027157D01*
X17383728Y-10912872D01*
X17398014Y-10884300D01*
X17426586Y-10870014D01*
X17483728Y-10870014D01*
X17512300Y-10884300D01*
X17526586Y-10912872D01*
X17526586Y-10941443D01*
X17383728Y-10970014D01*
X17640871Y-11055729D02*
X17669443Y-11070014D01*
X17726586Y-11070014D01*
X17755157Y-11055729D01*
X17769443Y-11027157D01*
X17769443Y-11012872D01*
X17755157Y-10984300D01*
X17726586Y-10970014D01*
X17683728Y-10970014D01*
X17655157Y-10955729D01*
X17640871Y-10927157D01*
X17640871Y-10912872D01*
X17655157Y-10884300D01*
X17683728Y-10870014D01*
X17726586Y-10870014D01*
X17755157Y-10884300D01*
X17869443Y-11184300D02*
X17883728Y-11170014D01*
X17912300Y-11127157D01*
X17926586Y-11098586D01*
X17940871Y-11055729D01*
X17955157Y-10984300D01*
X17955157Y-10927157D01*
X17940871Y-10855729D01*
X17926586Y-10812872D01*
X17912300Y-10784300D01*
X17883728Y-10741443D01*
X17869443Y-10727157D01*
X11042300Y-11275300D02*
X11042300Y-11385300D01*
X10987300Y-11330300D02*
X11097300Y-11330300D01*
X11540871Y-11466014D02*
X11369443Y-11466014D01*
X11455157Y-11466014D02*
X11455157Y-11166014D01*
X11426586Y-11208871D01*
X11398014Y-11237443D01*
X11369443Y-11251729D01*
X11669443Y-11437443D02*
X11683728Y-11451729D01*
X11669443Y-11466014D01*
X11655157Y-11451729D01*
X11669443Y-11437443D01*
X11669443Y-11466014D01*
X11969443Y-11466014D02*
X11798014Y-11466014D01*
X11883728Y-11466014D02*
X11883728Y-11166014D01*
X11855157Y-11208871D01*
X11826586Y-11237443D01*
X11798014Y-11251729D01*
X12155157Y-11166014D02*
X12183728Y-11166014D01*
X12212300Y-11180300D01*
X12226586Y-11194586D01*
X12240871Y-11223157D01*
X12255157Y-11280300D01*
X12255157Y-11351729D01*
X12240871Y-11408871D01*
X12226586Y-11437443D01*
X12212300Y-11451729D01*
X12183728Y-11466014D01*
X12155157Y-11466014D01*
X12126586Y-11451729D01*
X12112300Y-11437443D01*
X12098014Y-11408871D01*
X12083728Y-11351729D01*
X12083728Y-11280300D01*
X12098014Y-11223157D01*
X12112300Y-11194586D01*
X12126586Y-11180300D01*
X12155157Y-11166014D01*
X12383728Y-11466014D02*
X12383728Y-11266014D01*
X12383728Y-11294586D02*
X12398014Y-11280300D01*
X12426586Y-11266014D01*
X12469443Y-11266014D01*
X12498014Y-11280300D01*
X12512300Y-11308871D01*
X12512300Y-11466014D01*
X12512300Y-11308871D02*
X12526586Y-11280300D01*
X12555157Y-11266014D01*
X12598014Y-11266014D01*
X12626586Y-11280300D01*
X12640871Y-11308871D01*
X12640871Y-11466014D01*
X12783728Y-11466014D02*
X12783728Y-11266014D01*
X12783728Y-11294586D02*
X12798014Y-11280300D01*
X12826586Y-11266014D01*
X12869443Y-11266014D01*
X12898014Y-11280300D01*
X12912300Y-11308871D01*
X12912300Y-11466014D01*
X12912300Y-11308871D02*
X12926586Y-11280300D01*
X12955157Y-11266014D01*
X12998014Y-11266014D01*
X13026586Y-11280300D01*
X13040871Y-11308871D01*
X13040871Y-11466014D01*
X13626586Y-11151729D02*
X13369443Y-11537443D01*
X14012300Y-11166014D02*
X14040871Y-11166014D01*
X14069443Y-11180300D01*
X14083728Y-11194586D01*
X14098014Y-11223157D01*
X14112300Y-11280300D01*
X14112300Y-11351729D01*
X14098014Y-11408871D01*
X14083728Y-11437443D01*
X14069443Y-11451729D01*
X14040871Y-11466014D01*
X14012300Y-11466014D01*
X13983728Y-11451729D01*
X13969443Y-11437443D01*
X13955157Y-11408871D01*
X13940871Y-11351729D01*
X13940871Y-11280300D01*
X13955157Y-11223157D01*
X13969443Y-11194586D01*
X13983728Y-11180300D01*
X14012300Y-11166014D01*
X14240871Y-11437443D02*
X14255157Y-11451729D01*
X14240871Y-11466014D01*
X14226586Y-11451729D01*
X14240871Y-11437443D01*
X14240871Y-11466014D01*
X14440871Y-11166014D02*
X14469443Y-11166014D01*
X14498014Y-11180300D01*
X14512300Y-11194586D01*
X14526586Y-11223157D01*
X14540871Y-11280300D01*
X14540871Y-11351729D01*
X14526586Y-11408871D01*
X14512300Y-11437443D01*
X14498014Y-11451729D01*
X14469443Y-11466014D01*
X14440871Y-11466014D01*
X14412300Y-11451729D01*
X14398014Y-11437443D01*
X14383728Y-11408871D01*
X14369443Y-11351729D01*
X14369443Y-11280300D01*
X14383728Y-11223157D01*
X14398014Y-11194586D01*
X14412300Y-11180300D01*
X14440871Y-11166014D01*
X14798014Y-11266014D02*
X14798014Y-11466014D01*
X14726586Y-11151729D02*
X14655157Y-11366014D01*
X14840871Y-11366014D01*
X14926586Y-11166014D02*
X15112300Y-11166014D01*
X15012300Y-11280300D01*
X15055157Y-11280300D01*
X15083728Y-11294586D01*
X15098014Y-11308871D01*
X15112300Y-11337443D01*
X15112300Y-11408871D01*
X15098014Y-11437443D01*
X15083728Y-11451729D01*
X15055157Y-11466014D01*
X14969443Y-11466014D01*
X14940871Y-11451729D01*
X14926586Y-11437443D01*
X15226586Y-11166014D02*
X15226586Y-11223157D01*
X15340871Y-11166014D02*
X15340871Y-11223157D01*
X15783728Y-11580300D02*
X15769443Y-11566014D01*
X15740871Y-11523157D01*
X15726586Y-11494586D01*
X15712300Y-11451729D01*
X15698014Y-11380300D01*
X15698014Y-11323157D01*
X15712300Y-11251729D01*
X15726586Y-11208871D01*
X15740871Y-11180300D01*
X15769443Y-11137443D01*
X15783728Y-11123157D01*
X15869443Y-11166014D02*
X16055157Y-11166014D01*
X15955157Y-11280300D01*
X15998014Y-11280300D01*
X16026586Y-11294586D01*
X16040871Y-11308871D01*
X16055157Y-11337443D01*
X16055157Y-11408871D01*
X16040871Y-11437443D01*
X16026586Y-11451729D01*
X15998014Y-11466014D01*
X15912300Y-11466014D01*
X15883728Y-11451729D01*
X15869443Y-11437443D01*
X16412300Y-11466014D02*
X16412300Y-11166014D01*
X16540871Y-11466014D02*
X16540871Y-11308871D01*
X16526586Y-11280300D01*
X16498014Y-11266014D01*
X16455157Y-11266014D01*
X16426586Y-11280300D01*
X16412300Y-11294586D01*
X16726586Y-11466014D02*
X16698014Y-11451729D01*
X16683728Y-11437443D01*
X16669443Y-11408871D01*
X16669443Y-11323157D01*
X16683728Y-11294586D01*
X16698014Y-11280300D01*
X16726586Y-11266014D01*
X16769443Y-11266014D01*
X16798014Y-11280300D01*
X16812300Y-11294586D01*
X16826586Y-11323157D01*
X16826586Y-11408871D01*
X16812300Y-11437443D01*
X16798014Y-11451729D01*
X16769443Y-11466014D01*
X16726586Y-11466014D01*
X16998014Y-11466014D02*
X16969443Y-11451729D01*
X16955157Y-11423157D01*
X16955157Y-11166014D01*
X17226586Y-11451729D02*
X17198014Y-11466014D01*
X17140871Y-11466014D01*
X17112300Y-11451729D01*
X17098014Y-11423157D01*
X17098014Y-11308871D01*
X17112300Y-11280300D01*
X17140871Y-11266014D01*
X17198014Y-11266014D01*
X17226586Y-11280300D01*
X17240871Y-11308871D01*
X17240871Y-11337443D01*
X17098014Y-11366014D01*
X17355157Y-11451729D02*
X17383728Y-11466014D01*
X17440871Y-11466014D01*
X17469443Y-11451729D01*
X17483728Y-11423157D01*
X17483728Y-11408871D01*
X17469443Y-11380300D01*
X17440871Y-11366014D01*
X17398014Y-11366014D01*
X17369443Y-11351729D01*
X17355157Y-11323157D01*
X17355157Y-11308871D01*
X17369443Y-11280300D01*
X17398014Y-11266014D01*
X17440871Y-11266014D01*
X17469443Y-11280300D01*
X17583728Y-11580300D02*
X17598014Y-11566014D01*
X17626586Y-11523157D01*
X17640871Y-11494586D01*
X17655157Y-11451729D01*
X17669443Y-11380300D01*
X17669443Y-11323157D01*
X17655157Y-11251729D01*
X17640871Y-11208871D01*
X17626586Y-11180300D01*
X17598014Y-11137443D01*
X17583728Y-11123157D01*
X11078262Y-11772262D02*
X11078262Y-11680338D01*
X10986338Y-11680338D01*
X10986338Y-11772262D01*
X11078262Y-11772262D01*
X11540871Y-11862014D02*
X11369443Y-11862014D01*
X11455157Y-11862014D02*
X11455157Y-11562014D01*
X11426586Y-11604871D01*
X11398014Y-11633443D01*
X11369443Y-11647729D01*
X11669443Y-11833443D02*
X11683728Y-11847729D01*
X11669443Y-11862014D01*
X11655157Y-11847729D01*
X11669443Y-11833443D01*
X11669443Y-11862014D01*
X11783728Y-11562014D02*
X11969443Y-11562014D01*
X11869443Y-11676300D01*
X11912300Y-11676300D01*
X11940871Y-11690586D01*
X11955157Y-11704871D01*
X11969443Y-11733443D01*
X11969443Y-11804871D01*
X11955157Y-11833443D01*
X11940871Y-11847729D01*
X11912300Y-11862014D01*
X11826586Y-11862014D01*
X11798014Y-11847729D01*
X11783728Y-11833443D01*
X12155157Y-11562014D02*
X12183728Y-11562014D01*
X12212300Y-11576300D01*
X12226586Y-11590586D01*
X12240871Y-11619157D01*
X12255157Y-11676300D01*
X12255157Y-11747729D01*
X12240871Y-11804871D01*
X12226586Y-11833443D01*
X12212300Y-11847729D01*
X12183728Y-11862014D01*
X12155157Y-11862014D01*
X12126586Y-11847729D01*
X12112300Y-11833443D01*
X12098014Y-11804871D01*
X12083728Y-11747729D01*
X12083728Y-11676300D01*
X12098014Y-11619157D01*
X12112300Y-11590586D01*
X12126586Y-11576300D01*
X12155157Y-11562014D01*
X12383728Y-11862014D02*
X12383728Y-11662014D01*
X12383728Y-11690586D02*
X12398014Y-11676300D01*
X12426586Y-11662014D01*
X12469443Y-11662014D01*
X12498014Y-11676300D01*
X12512300Y-11704871D01*
X12512300Y-11862014D01*
X12512300Y-11704871D02*
X12526586Y-11676300D01*
X12555157Y-11662014D01*
X12598014Y-11662014D01*
X12626586Y-11676300D01*
X12640871Y-11704871D01*
X12640871Y-11862014D01*
X12783728Y-11862014D02*
X12783728Y-11662014D01*
X12783728Y-11690586D02*
X12798014Y-11676300D01*
X12826586Y-11662014D01*
X12869443Y-11662014D01*
X12898014Y-11676300D01*
X12912300Y-11704871D01*
X12912300Y-11862014D01*
X12912300Y-11704871D02*
X12926586Y-11676300D01*
X12955157Y-11662014D01*
X12998014Y-11662014D01*
X13026586Y-11676300D01*
X13040871Y-11704871D01*
X13040871Y-11862014D01*
X13626586Y-11547729D02*
X13369443Y-11933443D01*
X14012300Y-11562014D02*
X14040871Y-11562014D01*
X14069443Y-11576300D01*
X14083728Y-11590586D01*
X14098014Y-11619157D01*
X14112300Y-11676300D01*
X14112300Y-11747729D01*
X14098014Y-11804871D01*
X14083728Y-11833443D01*
X14069443Y-11847729D01*
X14040871Y-11862014D01*
X14012300Y-11862014D01*
X13983728Y-11847729D01*
X13969443Y-11833443D01*
X13955157Y-11804871D01*
X13940871Y-11747729D01*
X13940871Y-11676300D01*
X13955157Y-11619157D01*
X13969443Y-11590586D01*
X13983728Y-11576300D01*
X14012300Y-11562014D01*
X14240871Y-11833443D02*
X14255157Y-11847729D01*
X14240871Y-11862014D01*
X14226586Y-11847729D01*
X14240871Y-11833443D01*
X14240871Y-11862014D01*
X14440871Y-11562014D02*
X14469443Y-11562014D01*
X14498014Y-11576300D01*
X14512300Y-11590586D01*
X14526586Y-11619157D01*
X14540871Y-11676300D01*
X14540871Y-11747729D01*
X14526586Y-11804871D01*
X14512300Y-11833443D01*
X14498014Y-11847729D01*
X14469443Y-11862014D01*
X14440871Y-11862014D01*
X14412300Y-11847729D01*
X14398014Y-11833443D01*
X14383728Y-11804871D01*
X14369443Y-11747729D01*
X14369443Y-11676300D01*
X14383728Y-11619157D01*
X14398014Y-11590586D01*
X14412300Y-11576300D01*
X14440871Y-11562014D01*
X14812300Y-11562014D02*
X14669443Y-11562014D01*
X14655157Y-11704871D01*
X14669443Y-11690586D01*
X14698014Y-11676300D01*
X14769443Y-11676300D01*
X14798014Y-11690586D01*
X14812300Y-11704871D01*
X14826586Y-11733443D01*
X14826586Y-11804871D01*
X14812300Y-11833443D01*
X14798014Y-11847729D01*
X14769443Y-11862014D01*
X14698014Y-11862014D01*
X14669443Y-11847729D01*
X14655157Y-11833443D01*
X15112300Y-11862014D02*
X14940871Y-11862014D01*
X15026586Y-11862014D02*
X15026586Y-11562014D01*
X14998014Y-11604871D01*
X14969443Y-11633443D01*
X14940871Y-11647729D01*
X15226586Y-11562014D02*
X15226586Y-11619157D01*
X15340871Y-11562014D02*
X15340871Y-11619157D01*
X15783728Y-11976300D02*
X15769443Y-11962014D01*
X15740871Y-11919157D01*
X15726586Y-11890586D01*
X15712300Y-11847729D01*
X15698014Y-11776300D01*
X15698014Y-11719157D01*
X15712300Y-11647729D01*
X15726586Y-11604871D01*
X15740871Y-11576300D01*
X15769443Y-11533443D01*
X15783728Y-11519157D01*
X15940871Y-11690586D02*
X15912300Y-11676300D01*
X15898014Y-11662014D01*
X15883728Y-11633443D01*
X15883728Y-11619157D01*
X15898014Y-11590586D01*
X15912300Y-11576300D01*
X15940871Y-11562014D01*
X15998014Y-11562014D01*
X16026586Y-11576300D01*
X16040871Y-11590586D01*
X16055157Y-11619157D01*
X16055157Y-11633443D01*
X16040871Y-11662014D01*
X16026586Y-11676300D01*
X15998014Y-11690586D01*
X15940871Y-11690586D01*
X15912300Y-11704871D01*
X15898014Y-11719157D01*
X15883728Y-11747729D01*
X15883728Y-11804871D01*
X15898014Y-11833443D01*
X15912300Y-11847729D01*
X15940871Y-11862014D01*
X15998014Y-11862014D01*
X16026586Y-11847729D01*
X16040871Y-11833443D01*
X16055157Y-11804871D01*
X16055157Y-11747729D01*
X16040871Y-11719157D01*
X16026586Y-11704871D01*
X15998014Y-11690586D01*
X16412300Y-11862014D02*
X16412300Y-11562014D01*
X16540871Y-11862014D02*
X16540871Y-11704871D01*
X16526586Y-11676300D01*
X16498014Y-11662014D01*
X16455157Y-11662014D01*
X16426586Y-11676300D01*
X16412300Y-11690586D01*
X16726586Y-11862014D02*
X16698014Y-11847729D01*
X16683728Y-11833443D01*
X16669443Y-11804871D01*
X16669443Y-11719157D01*
X16683728Y-11690586D01*
X16698014Y-11676300D01*
X16726586Y-11662014D01*
X16769443Y-11662014D01*
X16798014Y-11676300D01*
X16812300Y-11690586D01*
X16826586Y-11719157D01*
X16826586Y-11804871D01*
X16812300Y-11833443D01*
X16798014Y-11847729D01*
X16769443Y-11862014D01*
X16726586Y-11862014D01*
X16998014Y-11862014D02*
X16969443Y-11847729D01*
X16955157Y-11819157D01*
X16955157Y-11562014D01*
X17226586Y-11847729D02*
X17198014Y-11862014D01*
X17140871Y-11862014D01*
X17112300Y-11847729D01*
X17098014Y-11819157D01*
X17098014Y-11704871D01*
X17112300Y-11676300D01*
X17140871Y-11662014D01*
X17198014Y-11662014D01*
X17226586Y-11676300D01*
X17240871Y-11704871D01*
X17240871Y-11733443D01*
X17098014Y-11762014D01*
X17355157Y-11847729D02*
X17383728Y-11862014D01*
X17440871Y-11862014D01*
X17469443Y-11847729D01*
X17483728Y-11819157D01*
X17483728Y-11804871D01*
X17469443Y-11776300D01*
X17440871Y-11762014D01*
X17398014Y-11762014D01*
X17369443Y-11747729D01*
X17355157Y-11719157D01*
X17355157Y-11704871D01*
X17369443Y-11676300D01*
X17398014Y-11662014D01*
X17440871Y-11662014D01*
X17469443Y-11676300D01*
X17583728Y-11976300D02*
X17598014Y-11962014D01*
X17626586Y-11919157D01*
X17640871Y-11890586D01*
X17655157Y-11847729D01*
X17669443Y-11776300D01*
X17669443Y-11719157D01*
X17655157Y-11647729D01*
X17640871Y-11604871D01*
X17626586Y-11576300D01*
X17598014Y-11533443D01*
X17583728Y-11519157D01*
X10987300Y-12232300D02*
X11097300Y-12122300D01*
X10987300Y-12012300D01*
X10877300Y-12122300D01*
X10987300Y-12232300D01*
X11369443Y-11986586D02*
X11383728Y-11972300D01*
X11412300Y-11958014D01*
X11483728Y-11958014D01*
X11512300Y-11972300D01*
X11526586Y-11986586D01*
X11540871Y-12015157D01*
X11540871Y-12043729D01*
X11526586Y-12086586D01*
X11355157Y-12258014D01*
X11540871Y-12258014D01*
X11669443Y-12229443D02*
X11683728Y-12243729D01*
X11669443Y-12258014D01*
X11655157Y-12243729D01*
X11669443Y-12229443D01*
X11669443Y-12258014D01*
X11798014Y-11986586D02*
X11812300Y-11972300D01*
X11840871Y-11958014D01*
X11912300Y-11958014D01*
X11940871Y-11972300D01*
X11955157Y-11986586D01*
X11969443Y-12015157D01*
X11969443Y-12043729D01*
X11955157Y-12086586D01*
X11783728Y-12258014D01*
X11969443Y-12258014D01*
X12155157Y-11958014D02*
X12183728Y-11958014D01*
X12212300Y-11972300D01*
X12226586Y-11986586D01*
X12240871Y-12015157D01*
X12255157Y-12072300D01*
X12255157Y-12143729D01*
X12240871Y-12200871D01*
X12226586Y-12229443D01*
X12212300Y-12243729D01*
X12183728Y-12258014D01*
X12155157Y-12258014D01*
X12126586Y-12243729D01*
X12112300Y-12229443D01*
X12098014Y-12200871D01*
X12083728Y-12143729D01*
X12083728Y-12072300D01*
X12098014Y-12015157D01*
X12112300Y-11986586D01*
X12126586Y-11972300D01*
X12155157Y-11958014D01*
X12383728Y-12258014D02*
X12383728Y-12058014D01*
X12383728Y-12086586D02*
X12398014Y-12072300D01*
X12426586Y-12058014D01*
X12469443Y-12058014D01*
X12498014Y-12072300D01*
X12512300Y-12100871D01*
X12512300Y-12258014D01*
X12512300Y-12100871D02*
X12526586Y-12072300D01*
X12555157Y-12058014D01*
X12598014Y-12058014D01*
X12626586Y-12072300D01*
X12640871Y-12100871D01*
X12640871Y-12258014D01*
X12783728Y-12258014D02*
X12783728Y-12058014D01*
X12783728Y-12086586D02*
X12798014Y-12072300D01*
X12826586Y-12058014D01*
X12869443Y-12058014D01*
X12898014Y-12072300D01*
X12912300Y-12100871D01*
X12912300Y-12258014D01*
X12912300Y-12100871D02*
X12926586Y-12072300D01*
X12955157Y-12058014D01*
X12998014Y-12058014D01*
X13026586Y-12072300D01*
X13040871Y-12100871D01*
X13040871Y-12258014D01*
X13626586Y-11943729D02*
X13369443Y-12329443D01*
X14012300Y-11958014D02*
X14040871Y-11958014D01*
X14069443Y-11972300D01*
X14083728Y-11986586D01*
X14098014Y-12015157D01*
X14112300Y-12072300D01*
X14112300Y-12143729D01*
X14098014Y-12200871D01*
X14083728Y-12229443D01*
X14069443Y-12243729D01*
X14040871Y-12258014D01*
X14012300Y-12258014D01*
X13983728Y-12243729D01*
X13969443Y-12229443D01*
X13955157Y-12200871D01*
X13940871Y-12143729D01*
X13940871Y-12072300D01*
X13955157Y-12015157D01*
X13969443Y-11986586D01*
X13983728Y-11972300D01*
X14012300Y-11958014D01*
X14240871Y-12229443D02*
X14255157Y-12243729D01*
X14240871Y-12258014D01*
X14226586Y-12243729D01*
X14240871Y-12229443D01*
X14240871Y-12258014D01*
X14440871Y-11958014D02*
X14469443Y-11958014D01*
X14498014Y-11972300D01*
X14512300Y-11986586D01*
X14526586Y-12015157D01*
X14540871Y-12072300D01*
X14540871Y-12143729D01*
X14526586Y-12200871D01*
X14512300Y-12229443D01*
X14498014Y-12243729D01*
X14469443Y-12258014D01*
X14440871Y-12258014D01*
X14412300Y-12243729D01*
X14398014Y-12229443D01*
X14383728Y-12200871D01*
X14369443Y-12143729D01*
X14369443Y-12072300D01*
X14383728Y-12015157D01*
X14398014Y-11986586D01*
X14412300Y-11972300D01*
X14440871Y-11958014D01*
X14712300Y-12086586D02*
X14683728Y-12072300D01*
X14669443Y-12058014D01*
X14655157Y-12029443D01*
X14655157Y-12015157D01*
X14669443Y-11986586D01*
X14683728Y-11972300D01*
X14712300Y-11958014D01*
X14769443Y-11958014D01*
X14798014Y-11972300D01*
X14812300Y-11986586D01*
X14826586Y-12015157D01*
X14826586Y-12029443D01*
X14812300Y-12058014D01*
X14798014Y-12072300D01*
X14769443Y-12086586D01*
X14712300Y-12086586D01*
X14683728Y-12100871D01*
X14669443Y-12115157D01*
X14655157Y-12143729D01*
X14655157Y-12200871D01*
X14669443Y-12229443D01*
X14683728Y-12243729D01*
X14712300Y-12258014D01*
X14769443Y-12258014D01*
X14798014Y-12243729D01*
X14812300Y-12229443D01*
X14826586Y-12200871D01*
X14826586Y-12143729D01*
X14812300Y-12115157D01*
X14798014Y-12100871D01*
X14769443Y-12086586D01*
X14926586Y-11958014D02*
X15126586Y-11958014D01*
X14998014Y-12258014D01*
X15226586Y-11958014D02*
X15226586Y-12015157D01*
X15340871Y-11958014D02*
X15340871Y-12015157D01*
X15783728Y-12372300D02*
X15769443Y-12358014D01*
X15740871Y-12315157D01*
X15726586Y-12286586D01*
X15712300Y-12243729D01*
X15698014Y-12172300D01*
X15698014Y-12115157D01*
X15712300Y-12043729D01*
X15726586Y-12000871D01*
X15740871Y-11972300D01*
X15769443Y-11929443D01*
X15783728Y-11915157D01*
X16026586Y-12058014D02*
X16026586Y-12258014D01*
X15955157Y-11943729D02*
X15883728Y-12158014D01*
X16069443Y-12158014D01*
X16412300Y-12258014D02*
X16412300Y-11958014D01*
X16540871Y-12258014D02*
X16540871Y-12100871D01*
X16526586Y-12072300D01*
X16498014Y-12058014D01*
X16455157Y-12058014D01*
X16426586Y-12072300D01*
X16412300Y-12086586D01*
X16726586Y-12258014D02*
X16698014Y-12243729D01*
X16683728Y-12229443D01*
X16669443Y-12200871D01*
X16669443Y-12115157D01*
X16683728Y-12086586D01*
X16698014Y-12072300D01*
X16726586Y-12058014D01*
X16769443Y-12058014D01*
X16798014Y-12072300D01*
X16812300Y-12086586D01*
X16826586Y-12115157D01*
X16826586Y-12200871D01*
X16812300Y-12229443D01*
X16798014Y-12243729D01*
X16769443Y-12258014D01*
X16726586Y-12258014D01*
X16998014Y-12258014D02*
X16969443Y-12243729D01*
X16955157Y-12215157D01*
X16955157Y-11958014D01*
X17226586Y-12243729D02*
X17198014Y-12258014D01*
X17140871Y-12258014D01*
X17112300Y-12243729D01*
X17098014Y-12215157D01*
X17098014Y-12100871D01*
X17112300Y-12072300D01*
X17140871Y-12058014D01*
X17198014Y-12058014D01*
X17226586Y-12072300D01*
X17240871Y-12100871D01*
X17240871Y-12129443D01*
X17098014Y-12158014D01*
X17355157Y-12243729D02*
X17383728Y-12258014D01*
X17440871Y-12258014D01*
X17469443Y-12243729D01*
X17483728Y-12215157D01*
X17483728Y-12200871D01*
X17469443Y-12172300D01*
X17440871Y-12158014D01*
X17398014Y-12158014D01*
X17369443Y-12143729D01*
X17355157Y-12115157D01*
X17355157Y-12100871D01*
X17369443Y-12072300D01*
X17398014Y-12058014D01*
X17440871Y-12058014D01*
X17469443Y-12072300D01*
X17583728Y-12372300D02*
X17598014Y-12358014D01*
X17626586Y-12315157D01*
X17640871Y-12286586D01*
X17655157Y-12243729D01*
X17669443Y-12172300D01*
X17669443Y-12115157D01*
X17655157Y-12043729D01*
X17640871Y-12000871D01*
X17626586Y-11972300D01*
X17598014Y-11929443D01*
X17583728Y-11915157D01*
X18126586Y-12372300D02*
X18112300Y-12358014D01*
X18083728Y-12315157D01*
X18069443Y-12286586D01*
X18055157Y-12243729D01*
X18040871Y-12172300D01*
X18040871Y-12115157D01*
X18055157Y-12043729D01*
X18069443Y-12000871D01*
X18083728Y-11972300D01*
X18112300Y-11929443D01*
X18126586Y-11915157D01*
X18240871Y-12058014D02*
X18240871Y-12258014D01*
X18240871Y-12086586D02*
X18255157Y-12072300D01*
X18283728Y-12058014D01*
X18326586Y-12058014D01*
X18355157Y-12072300D01*
X18369443Y-12100871D01*
X18369443Y-12258014D01*
X18555157Y-12258014D02*
X18526586Y-12243729D01*
X18512300Y-12229443D01*
X18498014Y-12200871D01*
X18498014Y-12115157D01*
X18512300Y-12086586D01*
X18526586Y-12072300D01*
X18555157Y-12058014D01*
X18598014Y-12058014D01*
X18626586Y-12072300D01*
X18640871Y-12086586D01*
X18655157Y-12115157D01*
X18655157Y-12200871D01*
X18640871Y-12229443D01*
X18626586Y-12243729D01*
X18598014Y-12258014D01*
X18555157Y-12258014D01*
X18740871Y-12058014D02*
X18855157Y-12058014D01*
X18783728Y-11958014D02*
X18783728Y-12215157D01*
X18798014Y-12243729D01*
X18826586Y-12258014D01*
X18855157Y-12258014D01*
X19183728Y-12058014D02*
X19183728Y-12358014D01*
X19183728Y-12072300D02*
X19212300Y-12058014D01*
X19269443Y-12058014D01*
X19298014Y-12072300D01*
X19312300Y-12086586D01*
X19326586Y-12115157D01*
X19326586Y-12200871D01*
X19312300Y-12229443D01*
X19298014Y-12243729D01*
X19269443Y-12258014D01*
X19212300Y-12258014D01*
X19183728Y-12243729D01*
X19498014Y-12258014D02*
X19469443Y-12243729D01*
X19455157Y-12215157D01*
X19455157Y-11958014D01*
X19740871Y-12258014D02*
X19740871Y-12100871D01*
X19726586Y-12072300D01*
X19698014Y-12058014D01*
X19640871Y-12058014D01*
X19612300Y-12072300D01*
X19740871Y-12243729D02*
X19712300Y-12258014D01*
X19640871Y-12258014D01*
X19612300Y-12243729D01*
X19598014Y-12215157D01*
X19598014Y-12186586D01*
X19612300Y-12158014D01*
X19640871Y-12143729D01*
X19712300Y-12143729D01*
X19740871Y-12129443D01*
X19840871Y-12058014D02*
X19955157Y-12058014D01*
X19883728Y-11958014D02*
X19883728Y-12215157D01*
X19898014Y-12243729D01*
X19926586Y-12258014D01*
X19955157Y-12258014D01*
X20169443Y-12243729D02*
X20140871Y-12258014D01*
X20083728Y-12258014D01*
X20055157Y-12243729D01*
X20040871Y-12215157D01*
X20040871Y-12100871D01*
X20055157Y-12072300D01*
X20083728Y-12058014D01*
X20140871Y-12058014D01*
X20169443Y-12072300D01*
X20183728Y-12100871D01*
X20183728Y-12129443D01*
X20040871Y-12158014D01*
X20440871Y-12258014D02*
X20440871Y-11958014D01*
X20440871Y-12243729D02*
X20412300Y-12258014D01*
X20355157Y-12258014D01*
X20326586Y-12243729D01*
X20312300Y-12229443D01*
X20298014Y-12200871D01*
X20298014Y-12115157D01*
X20312300Y-12086586D01*
X20326586Y-12072300D01*
X20355157Y-12058014D01*
X20412300Y-12058014D01*
X20440871Y-12072300D01*
X20555157Y-12372300D02*
X20569443Y-12358014D01*
X20598014Y-12315157D01*
X20612300Y-12286586D01*
X20626586Y-12243729D01*
X20640871Y-12172300D01*
X20640871Y-12115157D01*
X20626586Y-12043729D01*
X20612300Y-12000871D01*
X20598014Y-11972300D01*
X20569443Y-11929443D01*
X20555157Y-11915157D01*
X10747300Y-12343300D02*
X11097300Y-12693300D01*
X11097300Y-12343300D02*
X10747300Y-12693300D01*
X11097300Y-12518300D02*
G75*
G03X11097300Y-12518300I-175000J0D01*
G01*
X11355157Y-12354014D02*
X11540871Y-12354014D01*
X11440871Y-12468300D01*
X11483728Y-12468300D01*
X11512300Y-12482586D01*
X11526586Y-12496871D01*
X11540871Y-12525443D01*
X11540871Y-12596871D01*
X11526586Y-12625443D01*
X11512300Y-12639729D01*
X11483728Y-12654014D01*
X11398014Y-12654014D01*
X11369443Y-12639729D01*
X11355157Y-12625443D01*
X11669443Y-12625443D02*
X11683728Y-12639729D01*
X11669443Y-12654014D01*
X11655157Y-12639729D01*
X11669443Y-12625443D01*
X11669443Y-12654014D01*
X11955157Y-12354014D02*
X11812300Y-12354014D01*
X11798014Y-12496871D01*
X11812300Y-12482586D01*
X11840871Y-12468300D01*
X11912300Y-12468300D01*
X11940871Y-12482586D01*
X11955157Y-12496871D01*
X11969443Y-12525443D01*
X11969443Y-12596871D01*
X11955157Y-12625443D01*
X11940871Y-12639729D01*
X11912300Y-12654014D01*
X11840871Y-12654014D01*
X11812300Y-12639729D01*
X11798014Y-12625443D01*
X12155157Y-12354014D02*
X12183728Y-12354014D01*
X12212300Y-12368300D01*
X12226586Y-12382586D01*
X12240871Y-12411157D01*
X12255157Y-12468300D01*
X12255157Y-12539729D01*
X12240871Y-12596871D01*
X12226586Y-12625443D01*
X12212300Y-12639729D01*
X12183728Y-12654014D01*
X12155157Y-12654014D01*
X12126586Y-12639729D01*
X12112300Y-12625443D01*
X12098014Y-12596871D01*
X12083728Y-12539729D01*
X12083728Y-12468300D01*
X12098014Y-12411157D01*
X12112300Y-12382586D01*
X12126586Y-12368300D01*
X12155157Y-12354014D01*
X12383728Y-12654014D02*
X12383728Y-12454014D01*
X12383728Y-12482586D02*
X12398014Y-12468300D01*
X12426586Y-12454014D01*
X12469443Y-12454014D01*
X12498014Y-12468300D01*
X12512300Y-12496871D01*
X12512300Y-12654014D01*
X12512300Y-12496871D02*
X12526586Y-12468300D01*
X12555157Y-12454014D01*
X12598014Y-12454014D01*
X12626586Y-12468300D01*
X12640871Y-12496871D01*
X12640871Y-12654014D01*
X12783728Y-12654014D02*
X12783728Y-12454014D01*
X12783728Y-12482586D02*
X12798014Y-12468300D01*
X12826586Y-12454014D01*
X12869443Y-12454014D01*
X12898014Y-12468300D01*
X12912300Y-12496871D01*
X12912300Y-12654014D01*
X12912300Y-12496871D02*
X12926586Y-12468300D01*
X12955157Y-12454014D01*
X12998014Y-12454014D01*
X13026586Y-12468300D01*
X13040871Y-12496871D01*
X13040871Y-12654014D01*
X13626586Y-12339729D02*
X13369443Y-12725443D01*
X14012300Y-12354014D02*
X14040871Y-12354014D01*
X14069443Y-12368300D01*
X14083728Y-12382586D01*
X14098014Y-12411157D01*
X14112300Y-12468300D01*
X14112300Y-12539729D01*
X14098014Y-12596871D01*
X14083728Y-12625443D01*
X14069443Y-12639729D01*
X14040871Y-12654014D01*
X14012300Y-12654014D01*
X13983728Y-12639729D01*
X13969443Y-12625443D01*
X13955157Y-12596871D01*
X13940871Y-12539729D01*
X13940871Y-12468300D01*
X13955157Y-12411157D01*
X13969443Y-12382586D01*
X13983728Y-12368300D01*
X14012300Y-12354014D01*
X14240871Y-12625443D02*
X14255157Y-12639729D01*
X14240871Y-12654014D01*
X14226586Y-12639729D01*
X14240871Y-12625443D01*
X14240871Y-12654014D01*
X14540871Y-12654014D02*
X14369443Y-12654014D01*
X14455157Y-12654014D02*
X14455157Y-12354014D01*
X14426586Y-12396871D01*
X14398014Y-12425443D01*
X14369443Y-12439729D01*
X14640871Y-12354014D02*
X14826586Y-12354014D01*
X14726586Y-12468300D01*
X14769443Y-12468300D01*
X14798014Y-12482586D01*
X14812300Y-12496871D01*
X14826586Y-12525443D01*
X14826586Y-12596871D01*
X14812300Y-12625443D01*
X14798014Y-12639729D01*
X14769443Y-12654014D01*
X14683728Y-12654014D01*
X14655157Y-12639729D01*
X14640871Y-12625443D01*
X14998014Y-12482586D02*
X14969443Y-12468300D01*
X14955157Y-12454014D01*
X14940871Y-12425443D01*
X14940871Y-12411157D01*
X14955157Y-12382586D01*
X14969443Y-12368300D01*
X14998014Y-12354014D01*
X15055157Y-12354014D01*
X15083728Y-12368300D01*
X15098014Y-12382586D01*
X15112300Y-12411157D01*
X15112300Y-12425443D01*
X15098014Y-12454014D01*
X15083728Y-12468300D01*
X15055157Y-12482586D01*
X14998014Y-12482586D01*
X14969443Y-12496871D01*
X14955157Y-12511157D01*
X14940871Y-12539729D01*
X14940871Y-12596871D01*
X14955157Y-12625443D01*
X14969443Y-12639729D01*
X14998014Y-12654014D01*
X15055157Y-12654014D01*
X15083728Y-12639729D01*
X15098014Y-12625443D01*
X15112300Y-12596871D01*
X15112300Y-12539729D01*
X15098014Y-12511157D01*
X15083728Y-12496871D01*
X15055157Y-12482586D01*
X15226586Y-12354014D02*
X15226586Y-12411157D01*
X15340871Y-12354014D02*
X15340871Y-12411157D01*
X15783728Y-12768300D02*
X15769443Y-12754014D01*
X15740871Y-12711157D01*
X15726586Y-12682586D01*
X15712300Y-12639729D01*
X15698014Y-12568300D01*
X15698014Y-12511157D01*
X15712300Y-12439729D01*
X15726586Y-12396871D01*
X15740871Y-12368300D01*
X15769443Y-12325443D01*
X15783728Y-12311157D01*
X16055157Y-12654014D02*
X15883728Y-12654014D01*
X15969443Y-12654014D02*
X15969443Y-12354014D01*
X15940871Y-12396871D01*
X15912300Y-12425443D01*
X15883728Y-12439729D01*
X16412300Y-12654014D02*
X16412300Y-12354014D01*
X16540871Y-12654014D02*
X16540871Y-12496871D01*
X16526586Y-12468300D01*
X16498014Y-12454014D01*
X16455157Y-12454014D01*
X16426586Y-12468300D01*
X16412300Y-12482586D01*
X16726586Y-12654014D02*
X16698014Y-12639729D01*
X16683728Y-12625443D01*
X16669443Y-12596871D01*
X16669443Y-12511157D01*
X16683728Y-12482586D01*
X16698014Y-12468300D01*
X16726586Y-12454014D01*
X16769443Y-12454014D01*
X16798014Y-12468300D01*
X16812300Y-12482586D01*
X16826586Y-12511157D01*
X16826586Y-12596871D01*
X16812300Y-12625443D01*
X16798014Y-12639729D01*
X16769443Y-12654014D01*
X16726586Y-12654014D01*
X16998014Y-12654014D02*
X16969443Y-12639729D01*
X16955157Y-12611157D01*
X16955157Y-12354014D01*
X17226586Y-12639729D02*
X17198014Y-12654014D01*
X17140871Y-12654014D01*
X17112300Y-12639729D01*
X17098014Y-12611157D01*
X17098014Y-12496871D01*
X17112300Y-12468300D01*
X17140871Y-12454014D01*
X17198014Y-12454014D01*
X17226586Y-12468300D01*
X17240871Y-12496871D01*
X17240871Y-12525443D01*
X17098014Y-12554014D01*
X17340871Y-12768300D02*
X17355157Y-12754014D01*
X17383728Y-12711157D01*
X17398014Y-12682586D01*
X17412300Y-12639729D01*
X17426586Y-12568300D01*
X17426586Y-12511157D01*
X17412300Y-12439729D01*
X17398014Y-12396871D01*
X17383728Y-12368300D01*
X17355157Y-12325443D01*
X17340871Y-12311157D01*
X17883728Y-12768300D02*
X17869443Y-12754014D01*
X17840871Y-12711157D01*
X17826586Y-12682586D01*
X17812300Y-12639729D01*
X17798014Y-12568300D01*
X17798014Y-12511157D01*
X17812300Y-12439729D01*
X17826586Y-12396871D01*
X17840871Y-12368300D01*
X17869443Y-12325443D01*
X17883728Y-12311157D01*
X17998014Y-12454014D02*
X17998014Y-12654014D01*
X17998014Y-12482586D02*
X18012300Y-12468300D01*
X18040871Y-12454014D01*
X18083728Y-12454014D01*
X18112300Y-12468300D01*
X18126586Y-12496871D01*
X18126586Y-12654014D01*
X18312300Y-12654014D02*
X18283728Y-12639729D01*
X18269443Y-12625443D01*
X18255157Y-12596871D01*
X18255157Y-12511157D01*
X18269443Y-12482586D01*
X18283728Y-12468300D01*
X18312300Y-12454014D01*
X18355157Y-12454014D01*
X18383728Y-12468300D01*
X18398014Y-12482586D01*
X18412300Y-12511157D01*
X18412300Y-12596871D01*
X18398014Y-12625443D01*
X18383728Y-12639729D01*
X18355157Y-12654014D01*
X18312300Y-12654014D01*
X18498014Y-12454014D02*
X18612300Y-12454014D01*
X18540871Y-12354014D02*
X18540871Y-12611157D01*
X18555157Y-12639729D01*
X18583728Y-12654014D01*
X18612300Y-12654014D01*
X18940871Y-12454014D02*
X18940871Y-12754014D01*
X18940871Y-12468300D02*
X18969443Y-12454014D01*
X19026586Y-12454014D01*
X19055157Y-12468300D01*
X19069443Y-12482586D01*
X19083728Y-12511157D01*
X19083728Y-12596871D01*
X19069443Y-12625443D01*
X19055157Y-12639729D01*
X19026586Y-12654014D01*
X18969443Y-12654014D01*
X18940871Y-12639729D01*
X19255157Y-12654014D02*
X19226586Y-12639729D01*
X19212300Y-12611157D01*
X19212300Y-12354014D01*
X19498014Y-12654014D02*
X19498014Y-12496871D01*
X19483728Y-12468300D01*
X19455157Y-12454014D01*
X19398014Y-12454014D01*
X19369443Y-12468300D01*
X19498014Y-12639729D02*
X19469443Y-12654014D01*
X19398014Y-12654014D01*
X19369443Y-12639729D01*
X19355157Y-12611157D01*
X19355157Y-12582586D01*
X19369443Y-12554014D01*
X19398014Y-12539729D01*
X19469443Y-12539729D01*
X19498014Y-12525443D01*
X19598014Y-12454014D02*
X19712300Y-12454014D01*
X19640871Y-12354014D02*
X19640871Y-12611157D01*
X19655157Y-12639729D01*
X19683728Y-12654014D01*
X19712300Y-12654014D01*
X19926586Y-12639729D02*
X19898014Y-12654014D01*
X19840871Y-12654014D01*
X19812300Y-12639729D01*
X19798014Y-12611157D01*
X19798014Y-12496871D01*
X19812300Y-12468300D01*
X19840871Y-12454014D01*
X19898014Y-12454014D01*
X19926586Y-12468300D01*
X19940871Y-12496871D01*
X19940871Y-12525443D01*
X19798014Y-12554014D01*
X20198014Y-12654014D02*
X20198014Y-12354014D01*
X20198014Y-12639729D02*
X20169443Y-12654014D01*
X20112300Y-12654014D01*
X20083728Y-12639729D01*
X20069443Y-12625443D01*
X20055157Y-12596871D01*
X20055157Y-12511157D01*
X20069443Y-12482586D01*
X20083728Y-12468300D01*
X20112300Y-12454014D01*
X20169443Y-12454014D01*
X20198014Y-12468300D01*
X20312300Y-12768300D02*
X20326586Y-12754014D01*
X20355157Y-12711157D01*
X20369443Y-12682586D01*
X20383728Y-12639729D01*
X20398014Y-12568300D01*
X20398014Y-12511157D01*
X20383728Y-12439729D01*
X20369443Y-12396871D01*
X20355157Y-12368300D01*
X20326586Y-12325443D01*
X20312300Y-12311157D01*
M02*
