G04 #@! TF.GenerationSoftware,KiCad,Pcbnew,(5.1.2)-2*
G04 #@! TF.CreationDate,2019-08-11T20:23:21+03:00*
G04 #@! TF.ProjectId,Clever_Light,436c6576-6572-45f4-9c69-6768742e6b69,rev?*
G04 #@! TF.SameCoordinates,Original*
G04 #@! TF.FileFunction,Copper,L2,Bot*
G04 #@! TF.FilePolarity,Positive*
%FSLAX46Y46*%
G04 Gerber Fmt 4.6, Leading zero omitted, Abs format (unit mm)*
G04 Created by KiCad (PCBNEW (5.1.2)-2) date 2019-08-11 20:23:21*
%MOMM*%
%LPD*%
G04 APERTURE LIST*
%ADD10C,0.100000*%
%ADD11C,1.425000*%
%ADD12C,1.525000*%
%ADD13O,1.905000X2.000000*%
%ADD14R,1.905000X2.000000*%
%ADD15C,1.400000*%
%ADD16O,2.400000X1.600000*%
%ADD17R,2.400000X1.600000*%
%ADD18R,1.500000X1.780000*%
%ADD19O,1.727200X1.727200*%
%ADD20R,1.727200X1.727200*%
%ADD21C,2.600000*%
%ADD22R,2.600000X2.600000*%
%ADD23C,0.300000*%
%ADD24C,2.000000*%
%ADD25C,0.254000*%
G04 APERTURE END LIST*
D10*
G36*
X118430504Y-60340204D02*
G01*
X118454773Y-60343804D01*
X118478571Y-60349765D01*
X118501671Y-60358030D01*
X118523849Y-60368520D01*
X118544893Y-60381133D01*
X118564598Y-60395747D01*
X118582777Y-60412223D01*
X118599253Y-60430402D01*
X118613867Y-60450107D01*
X118626480Y-60471151D01*
X118636970Y-60493329D01*
X118645235Y-60516429D01*
X118651196Y-60540227D01*
X118654796Y-60564496D01*
X118656000Y-60589000D01*
X118656000Y-61839000D01*
X118654796Y-61863504D01*
X118651196Y-61887773D01*
X118645235Y-61911571D01*
X118636970Y-61934671D01*
X118626480Y-61956849D01*
X118613867Y-61977893D01*
X118599253Y-61997598D01*
X118582777Y-62015777D01*
X118564598Y-62032253D01*
X118544893Y-62046867D01*
X118523849Y-62059480D01*
X118501671Y-62069970D01*
X118478571Y-62078235D01*
X118454773Y-62084196D01*
X118430504Y-62087796D01*
X118406000Y-62089000D01*
X117481000Y-62089000D01*
X117456496Y-62087796D01*
X117432227Y-62084196D01*
X117408429Y-62078235D01*
X117385329Y-62069970D01*
X117363151Y-62059480D01*
X117342107Y-62046867D01*
X117322402Y-62032253D01*
X117304223Y-62015777D01*
X117287747Y-61997598D01*
X117273133Y-61977893D01*
X117260520Y-61956849D01*
X117250030Y-61934671D01*
X117241765Y-61911571D01*
X117235804Y-61887773D01*
X117232204Y-61863504D01*
X117231000Y-61839000D01*
X117231000Y-60589000D01*
X117232204Y-60564496D01*
X117235804Y-60540227D01*
X117241765Y-60516429D01*
X117250030Y-60493329D01*
X117260520Y-60471151D01*
X117273133Y-60450107D01*
X117287747Y-60430402D01*
X117304223Y-60412223D01*
X117322402Y-60395747D01*
X117342107Y-60381133D01*
X117363151Y-60368520D01*
X117385329Y-60358030D01*
X117408429Y-60349765D01*
X117432227Y-60343804D01*
X117456496Y-60340204D01*
X117481000Y-60339000D01*
X118406000Y-60339000D01*
X118430504Y-60340204D01*
X118430504Y-60340204D01*
G37*
D11*
X117943500Y-61214000D03*
D10*
G36*
X115455504Y-60340204D02*
G01*
X115479773Y-60343804D01*
X115503571Y-60349765D01*
X115526671Y-60358030D01*
X115548849Y-60368520D01*
X115569893Y-60381133D01*
X115589598Y-60395747D01*
X115607777Y-60412223D01*
X115624253Y-60430402D01*
X115638867Y-60450107D01*
X115651480Y-60471151D01*
X115661970Y-60493329D01*
X115670235Y-60516429D01*
X115676196Y-60540227D01*
X115679796Y-60564496D01*
X115681000Y-60589000D01*
X115681000Y-61839000D01*
X115679796Y-61863504D01*
X115676196Y-61887773D01*
X115670235Y-61911571D01*
X115661970Y-61934671D01*
X115651480Y-61956849D01*
X115638867Y-61977893D01*
X115624253Y-61997598D01*
X115607777Y-62015777D01*
X115589598Y-62032253D01*
X115569893Y-62046867D01*
X115548849Y-62059480D01*
X115526671Y-62069970D01*
X115503571Y-62078235D01*
X115479773Y-62084196D01*
X115455504Y-62087796D01*
X115431000Y-62089000D01*
X114506000Y-62089000D01*
X114481496Y-62087796D01*
X114457227Y-62084196D01*
X114433429Y-62078235D01*
X114410329Y-62069970D01*
X114388151Y-62059480D01*
X114367107Y-62046867D01*
X114347402Y-62032253D01*
X114329223Y-62015777D01*
X114312747Y-61997598D01*
X114298133Y-61977893D01*
X114285520Y-61956849D01*
X114275030Y-61934671D01*
X114266765Y-61911571D01*
X114260804Y-61887773D01*
X114257204Y-61863504D01*
X114256000Y-61839000D01*
X114256000Y-60589000D01*
X114257204Y-60564496D01*
X114260804Y-60540227D01*
X114266765Y-60516429D01*
X114275030Y-60493329D01*
X114285520Y-60471151D01*
X114298133Y-60450107D01*
X114312747Y-60430402D01*
X114329223Y-60412223D01*
X114347402Y-60395747D01*
X114367107Y-60381133D01*
X114388151Y-60368520D01*
X114410329Y-60358030D01*
X114433429Y-60349765D01*
X114457227Y-60343804D01*
X114481496Y-60340204D01*
X114506000Y-60339000D01*
X115431000Y-60339000D01*
X115455504Y-60340204D01*
X115455504Y-60340204D01*
G37*
D11*
X114968500Y-61214000D03*
D10*
G36*
X131459504Y-59958204D02*
G01*
X131483773Y-59961804D01*
X131507571Y-59967765D01*
X131530671Y-59976030D01*
X131552849Y-59986520D01*
X131573893Y-59999133D01*
X131593598Y-60013747D01*
X131611777Y-60030223D01*
X131628253Y-60048402D01*
X131642867Y-60068107D01*
X131655480Y-60089151D01*
X131665970Y-60111329D01*
X131674235Y-60134429D01*
X131680196Y-60158227D01*
X131683796Y-60182496D01*
X131685000Y-60207000D01*
X131685000Y-61132000D01*
X131683796Y-61156504D01*
X131680196Y-61180773D01*
X131674235Y-61204571D01*
X131665970Y-61227671D01*
X131655480Y-61249849D01*
X131642867Y-61270893D01*
X131628253Y-61290598D01*
X131611777Y-61308777D01*
X131593598Y-61325253D01*
X131573893Y-61339867D01*
X131552849Y-61352480D01*
X131530671Y-61362970D01*
X131507571Y-61371235D01*
X131483773Y-61377196D01*
X131459504Y-61380796D01*
X131435000Y-61382000D01*
X130185000Y-61382000D01*
X130160496Y-61380796D01*
X130136227Y-61377196D01*
X130112429Y-61371235D01*
X130089329Y-61362970D01*
X130067151Y-61352480D01*
X130046107Y-61339867D01*
X130026402Y-61325253D01*
X130008223Y-61308777D01*
X129991747Y-61290598D01*
X129977133Y-61270893D01*
X129964520Y-61249849D01*
X129954030Y-61227671D01*
X129945765Y-61204571D01*
X129939804Y-61180773D01*
X129936204Y-61156504D01*
X129935000Y-61132000D01*
X129935000Y-60207000D01*
X129936204Y-60182496D01*
X129939804Y-60158227D01*
X129945765Y-60134429D01*
X129954030Y-60111329D01*
X129964520Y-60089151D01*
X129977133Y-60068107D01*
X129991747Y-60048402D01*
X130008223Y-60030223D01*
X130026402Y-60013747D01*
X130046107Y-59999133D01*
X130067151Y-59986520D01*
X130089329Y-59976030D01*
X130112429Y-59967765D01*
X130136227Y-59961804D01*
X130160496Y-59958204D01*
X130185000Y-59957000D01*
X131435000Y-59957000D01*
X131459504Y-59958204D01*
X131459504Y-59958204D01*
G37*
D11*
X130810000Y-60669500D03*
D10*
G36*
X131459504Y-56983204D02*
G01*
X131483773Y-56986804D01*
X131507571Y-56992765D01*
X131530671Y-57001030D01*
X131552849Y-57011520D01*
X131573893Y-57024133D01*
X131593598Y-57038747D01*
X131611777Y-57055223D01*
X131628253Y-57073402D01*
X131642867Y-57093107D01*
X131655480Y-57114151D01*
X131665970Y-57136329D01*
X131674235Y-57159429D01*
X131680196Y-57183227D01*
X131683796Y-57207496D01*
X131685000Y-57232000D01*
X131685000Y-58157000D01*
X131683796Y-58181504D01*
X131680196Y-58205773D01*
X131674235Y-58229571D01*
X131665970Y-58252671D01*
X131655480Y-58274849D01*
X131642867Y-58295893D01*
X131628253Y-58315598D01*
X131611777Y-58333777D01*
X131593598Y-58350253D01*
X131573893Y-58364867D01*
X131552849Y-58377480D01*
X131530671Y-58387970D01*
X131507571Y-58396235D01*
X131483773Y-58402196D01*
X131459504Y-58405796D01*
X131435000Y-58407000D01*
X130185000Y-58407000D01*
X130160496Y-58405796D01*
X130136227Y-58402196D01*
X130112429Y-58396235D01*
X130089329Y-58387970D01*
X130067151Y-58377480D01*
X130046107Y-58364867D01*
X130026402Y-58350253D01*
X130008223Y-58333777D01*
X129991747Y-58315598D01*
X129977133Y-58295893D01*
X129964520Y-58274849D01*
X129954030Y-58252671D01*
X129945765Y-58229571D01*
X129939804Y-58205773D01*
X129936204Y-58181504D01*
X129935000Y-58157000D01*
X129935000Y-57232000D01*
X129936204Y-57207496D01*
X129939804Y-57183227D01*
X129945765Y-57159429D01*
X129954030Y-57136329D01*
X129964520Y-57114151D01*
X129977133Y-57093107D01*
X129991747Y-57073402D01*
X130008223Y-57055223D01*
X130026402Y-57038747D01*
X130046107Y-57024133D01*
X130067151Y-57011520D01*
X130089329Y-57001030D01*
X130112429Y-56992765D01*
X130136227Y-56986804D01*
X130160496Y-56983204D01*
X130185000Y-56982000D01*
X131435000Y-56982000D01*
X131459504Y-56983204D01*
X131459504Y-56983204D01*
G37*
D11*
X130810000Y-57694500D03*
D10*
G36*
X148171505Y-58524204D02*
G01*
X148195773Y-58527804D01*
X148219572Y-58533765D01*
X148242671Y-58542030D01*
X148264850Y-58552520D01*
X148285893Y-58565132D01*
X148305599Y-58579747D01*
X148323777Y-58596223D01*
X148340253Y-58614401D01*
X148354868Y-58634107D01*
X148367480Y-58655150D01*
X148377970Y-58677329D01*
X148386235Y-58700428D01*
X148392196Y-58724227D01*
X148395796Y-58748495D01*
X148397000Y-58772999D01*
X148397000Y-61623001D01*
X148395796Y-61647505D01*
X148392196Y-61671773D01*
X148386235Y-61695572D01*
X148377970Y-61718671D01*
X148367480Y-61740850D01*
X148354868Y-61761893D01*
X148340253Y-61781599D01*
X148323777Y-61799777D01*
X148305599Y-61816253D01*
X148285893Y-61830868D01*
X148264850Y-61843480D01*
X148242671Y-61853970D01*
X148219572Y-61862235D01*
X148195773Y-61868196D01*
X148171505Y-61871796D01*
X148147001Y-61873000D01*
X147121999Y-61873000D01*
X147097495Y-61871796D01*
X147073227Y-61868196D01*
X147049428Y-61862235D01*
X147026329Y-61853970D01*
X147004150Y-61843480D01*
X146983107Y-61830868D01*
X146963401Y-61816253D01*
X146945223Y-61799777D01*
X146928747Y-61781599D01*
X146914132Y-61761893D01*
X146901520Y-61740850D01*
X146891030Y-61718671D01*
X146882765Y-61695572D01*
X146876804Y-61671773D01*
X146873204Y-61647505D01*
X146872000Y-61623001D01*
X146872000Y-58772999D01*
X146873204Y-58748495D01*
X146876804Y-58724227D01*
X146882765Y-58700428D01*
X146891030Y-58677329D01*
X146901520Y-58655150D01*
X146914132Y-58634107D01*
X146928747Y-58614401D01*
X146945223Y-58596223D01*
X146963401Y-58579747D01*
X146983107Y-58565132D01*
X147004150Y-58552520D01*
X147026329Y-58542030D01*
X147049428Y-58533765D01*
X147073227Y-58527804D01*
X147097495Y-58524204D01*
X147121999Y-58523000D01*
X148147001Y-58523000D01*
X148171505Y-58524204D01*
X148171505Y-58524204D01*
G37*
D12*
X147634500Y-60198000D03*
D10*
G36*
X154146505Y-58524204D02*
G01*
X154170773Y-58527804D01*
X154194572Y-58533765D01*
X154217671Y-58542030D01*
X154239850Y-58552520D01*
X154260893Y-58565132D01*
X154280599Y-58579747D01*
X154298777Y-58596223D01*
X154315253Y-58614401D01*
X154329868Y-58634107D01*
X154342480Y-58655150D01*
X154352970Y-58677329D01*
X154361235Y-58700428D01*
X154367196Y-58724227D01*
X154370796Y-58748495D01*
X154372000Y-58772999D01*
X154372000Y-61623001D01*
X154370796Y-61647505D01*
X154367196Y-61671773D01*
X154361235Y-61695572D01*
X154352970Y-61718671D01*
X154342480Y-61740850D01*
X154329868Y-61761893D01*
X154315253Y-61781599D01*
X154298777Y-61799777D01*
X154280599Y-61816253D01*
X154260893Y-61830868D01*
X154239850Y-61843480D01*
X154217671Y-61853970D01*
X154194572Y-61862235D01*
X154170773Y-61868196D01*
X154146505Y-61871796D01*
X154122001Y-61873000D01*
X153096999Y-61873000D01*
X153072495Y-61871796D01*
X153048227Y-61868196D01*
X153024428Y-61862235D01*
X153001329Y-61853970D01*
X152979150Y-61843480D01*
X152958107Y-61830868D01*
X152938401Y-61816253D01*
X152920223Y-61799777D01*
X152903747Y-61781599D01*
X152889132Y-61761893D01*
X152876520Y-61740850D01*
X152866030Y-61718671D01*
X152857765Y-61695572D01*
X152851804Y-61671773D01*
X152848204Y-61647505D01*
X152847000Y-61623001D01*
X152847000Y-58772999D01*
X152848204Y-58748495D01*
X152851804Y-58724227D01*
X152857765Y-58700428D01*
X152866030Y-58677329D01*
X152876520Y-58655150D01*
X152889132Y-58634107D01*
X152903747Y-58614401D01*
X152920223Y-58596223D01*
X152938401Y-58579747D01*
X152958107Y-58565132D01*
X152979150Y-58552520D01*
X153001329Y-58542030D01*
X153024428Y-58533765D01*
X153048227Y-58527804D01*
X153072495Y-58524204D01*
X153096999Y-58523000D01*
X154122001Y-58523000D01*
X154146505Y-58524204D01*
X154146505Y-58524204D01*
G37*
D12*
X153609500Y-60198000D03*
D10*
G36*
X141567505Y-80622204D02*
G01*
X141591773Y-80625804D01*
X141615572Y-80631765D01*
X141638671Y-80640030D01*
X141660850Y-80650520D01*
X141681893Y-80663132D01*
X141701599Y-80677747D01*
X141719777Y-80694223D01*
X141736253Y-80712401D01*
X141750868Y-80732107D01*
X141763480Y-80753150D01*
X141773970Y-80775329D01*
X141782235Y-80798428D01*
X141788196Y-80822227D01*
X141791796Y-80846495D01*
X141793000Y-80870999D01*
X141793000Y-83721001D01*
X141791796Y-83745505D01*
X141788196Y-83769773D01*
X141782235Y-83793572D01*
X141773970Y-83816671D01*
X141763480Y-83838850D01*
X141750868Y-83859893D01*
X141736253Y-83879599D01*
X141719777Y-83897777D01*
X141701599Y-83914253D01*
X141681893Y-83928868D01*
X141660850Y-83941480D01*
X141638671Y-83951970D01*
X141615572Y-83960235D01*
X141591773Y-83966196D01*
X141567505Y-83969796D01*
X141543001Y-83971000D01*
X140517999Y-83971000D01*
X140493495Y-83969796D01*
X140469227Y-83966196D01*
X140445428Y-83960235D01*
X140422329Y-83951970D01*
X140400150Y-83941480D01*
X140379107Y-83928868D01*
X140359401Y-83914253D01*
X140341223Y-83897777D01*
X140324747Y-83879599D01*
X140310132Y-83859893D01*
X140297520Y-83838850D01*
X140287030Y-83816671D01*
X140278765Y-83793572D01*
X140272804Y-83769773D01*
X140269204Y-83745505D01*
X140268000Y-83721001D01*
X140268000Y-80870999D01*
X140269204Y-80846495D01*
X140272804Y-80822227D01*
X140278765Y-80798428D01*
X140287030Y-80775329D01*
X140297520Y-80753150D01*
X140310132Y-80732107D01*
X140324747Y-80712401D01*
X140341223Y-80694223D01*
X140359401Y-80677747D01*
X140379107Y-80663132D01*
X140400150Y-80650520D01*
X140422329Y-80640030D01*
X140445428Y-80631765D01*
X140469227Y-80625804D01*
X140493495Y-80622204D01*
X140517999Y-80621000D01*
X141543001Y-80621000D01*
X141567505Y-80622204D01*
X141567505Y-80622204D01*
G37*
D12*
X141030500Y-82296000D03*
D10*
G36*
X147542505Y-80622204D02*
G01*
X147566773Y-80625804D01*
X147590572Y-80631765D01*
X147613671Y-80640030D01*
X147635850Y-80650520D01*
X147656893Y-80663132D01*
X147676599Y-80677747D01*
X147694777Y-80694223D01*
X147711253Y-80712401D01*
X147725868Y-80732107D01*
X147738480Y-80753150D01*
X147748970Y-80775329D01*
X147757235Y-80798428D01*
X147763196Y-80822227D01*
X147766796Y-80846495D01*
X147768000Y-80870999D01*
X147768000Y-83721001D01*
X147766796Y-83745505D01*
X147763196Y-83769773D01*
X147757235Y-83793572D01*
X147748970Y-83816671D01*
X147738480Y-83838850D01*
X147725868Y-83859893D01*
X147711253Y-83879599D01*
X147694777Y-83897777D01*
X147676599Y-83914253D01*
X147656893Y-83928868D01*
X147635850Y-83941480D01*
X147613671Y-83951970D01*
X147590572Y-83960235D01*
X147566773Y-83966196D01*
X147542505Y-83969796D01*
X147518001Y-83971000D01*
X146492999Y-83971000D01*
X146468495Y-83969796D01*
X146444227Y-83966196D01*
X146420428Y-83960235D01*
X146397329Y-83951970D01*
X146375150Y-83941480D01*
X146354107Y-83928868D01*
X146334401Y-83914253D01*
X146316223Y-83897777D01*
X146299747Y-83879599D01*
X146285132Y-83859893D01*
X146272520Y-83838850D01*
X146262030Y-83816671D01*
X146253765Y-83793572D01*
X146247804Y-83769773D01*
X146244204Y-83745505D01*
X146243000Y-83721001D01*
X146243000Y-80870999D01*
X146244204Y-80846495D01*
X146247804Y-80822227D01*
X146253765Y-80798428D01*
X146262030Y-80775329D01*
X146272520Y-80753150D01*
X146285132Y-80732107D01*
X146299747Y-80712401D01*
X146316223Y-80694223D01*
X146334401Y-80677747D01*
X146354107Y-80663132D01*
X146375150Y-80650520D01*
X146397329Y-80640030D01*
X146420428Y-80631765D01*
X146444227Y-80625804D01*
X146468495Y-80622204D01*
X146492999Y-80621000D01*
X147518001Y-80621000D01*
X147542505Y-80622204D01*
X147542505Y-80622204D01*
G37*
D12*
X147005500Y-82296000D03*
D13*
X148590000Y-65786000D03*
X151130000Y-65786000D03*
D14*
X153670000Y-65786000D03*
D15*
X122682000Y-73660000D03*
X130302000Y-73660000D03*
X122682000Y-71120000D03*
X130302000Y-71120000D03*
D16*
X137160000Y-78740000D03*
X127000000Y-83820000D03*
X137160000Y-81280000D03*
X127000000Y-81280000D03*
X137160000Y-83820000D03*
D17*
X127000000Y-78740000D03*
D18*
X137861000Y-66294000D03*
X128331000Y-63754000D03*
X137861000Y-63754000D03*
X128331000Y-66294000D03*
D19*
X117856000Y-83820000D03*
X115316000Y-83820000D03*
X117856000Y-81280000D03*
X115316000Y-81280000D03*
X117856000Y-78740000D03*
X115316000Y-78740000D03*
X117856000Y-76200000D03*
X115316000Y-76200000D03*
X117856000Y-73660000D03*
X115316000Y-73660000D03*
X117856000Y-71120000D03*
X115316000Y-71120000D03*
X117856000Y-68580000D03*
D20*
X115316000Y-68580000D03*
D21*
X135810000Y-52832000D03*
D22*
X130810000Y-52832000D03*
D21*
X124380000Y-52832000D03*
D22*
X119380000Y-52832000D03*
D21*
X153670000Y-75866000D03*
D22*
X153670000Y-70866000D03*
D21*
X153670000Y-87296000D03*
D22*
X153670000Y-82296000D03*
D23*
X134366000Y-83820000D02*
X137160000Y-83820000D01*
X133350000Y-82804000D02*
X134366000Y-83820000D01*
X133350000Y-74676000D02*
X133350000Y-82804000D01*
X148590000Y-65786000D02*
X142240000Y-65786000D01*
X142240000Y-65786000D02*
X133350000Y-74676000D01*
X147634500Y-64830500D02*
X148590000Y-65786000D01*
X147634500Y-60198000D02*
X147634500Y-64830500D01*
D24*
X147005500Y-80521000D02*
X147005500Y-82296000D01*
X147005500Y-71180500D02*
X147005500Y-80521000D01*
X151042510Y-67143490D02*
X147005500Y-71180500D01*
X151130000Y-65786000D02*
X151042510Y-65873490D01*
X151042510Y-65873490D02*
X151042510Y-67143490D01*
X147005500Y-82296000D02*
X153670000Y-82296000D01*
X154940000Y-69596000D02*
X153670000Y-70866000D01*
X153670000Y-65786000D02*
X154940000Y-67056000D01*
X154940000Y-67056000D02*
X154940000Y-69596000D01*
X153670000Y-60258500D02*
X153670000Y-65786000D01*
X153609500Y-60198000D02*
X153670000Y-60258500D01*
D23*
X119077314Y-76200000D02*
X117856000Y-76200000D01*
X123952000Y-76200000D02*
X119077314Y-76200000D01*
X125222000Y-74930000D02*
X123952000Y-76200000D01*
X124380000Y-52832000D02*
X125222000Y-53674000D01*
X125222000Y-53674000D02*
X125222000Y-74930000D01*
X117856000Y-61301500D02*
X117943500Y-61214000D01*
X117856000Y-68580000D02*
X117856000Y-61301500D01*
X119380000Y-59777500D02*
X117943500Y-61214000D01*
X119380000Y-52832000D02*
X119380000Y-59777500D01*
X130810000Y-54432000D02*
X130810000Y-58244500D01*
X130810000Y-52832000D02*
X130810000Y-54432000D01*
X136811000Y-63754000D02*
X137861000Y-63754000D01*
X135810000Y-62753000D02*
X136811000Y-63754000D01*
X135810000Y-52832000D02*
X135810000Y-62753000D01*
D24*
X153750000Y-87376000D02*
X153670000Y-87296000D01*
X155956000Y-87376000D02*
X153750000Y-87376000D01*
X157734000Y-85598000D02*
X155956000Y-87376000D01*
X157734000Y-77470000D02*
X157734000Y-85598000D01*
X153670000Y-75866000D02*
X156130000Y-75866000D01*
X156130000Y-75866000D02*
X157734000Y-77470000D01*
D23*
X119077314Y-73660000D02*
X122682000Y-73660000D01*
X117856000Y-73660000D02*
X119077314Y-73660000D01*
X117856000Y-71120000D02*
X122682000Y-71120000D01*
X136811000Y-66294000D02*
X137861000Y-66294000D01*
X136397000Y-66294000D02*
X136811000Y-66294000D01*
X130810000Y-60707000D02*
X136397000Y-66294000D01*
X130810000Y-60119500D02*
X130810000Y-60707000D01*
X128331000Y-69149000D02*
X130302000Y-71120000D01*
X128331000Y-66294000D02*
X128331000Y-69149000D01*
X130302000Y-74649949D02*
X130302000Y-73660000D01*
X130302000Y-76938000D02*
X130302000Y-74649949D01*
X128500000Y-78740000D02*
X130302000Y-76938000D01*
X127000000Y-78740000D02*
X128500000Y-78740000D01*
X141030500Y-79562500D02*
X141030500Y-82296000D01*
X137160000Y-78740000D02*
X140208000Y-78740000D01*
X140208000Y-78740000D02*
X141030500Y-79562500D01*
D25*
G36*
X139573000Y-64516000D02*
G01*
X139575440Y-64540776D01*
X139582667Y-64564601D01*
X139594403Y-64586557D01*
X139607156Y-64602654D01*
X140918978Y-66008178D01*
X132827570Y-74099587D01*
X132797920Y-74123920D01*
X132748203Y-74184501D01*
X132700823Y-74242234D01*
X132689968Y-74262543D01*
X132628673Y-74377217D01*
X132584243Y-74523682D01*
X132575566Y-74611783D01*
X132569241Y-74676000D01*
X132573000Y-74714163D01*
X132573001Y-82765827D01*
X132569241Y-82804000D01*
X132584244Y-82956318D01*
X132628673Y-83102783D01*
X132700823Y-83237766D01*
X132749899Y-83297565D01*
X132797921Y-83356080D01*
X132827565Y-83380408D01*
X133789592Y-84342436D01*
X133813920Y-84372080D01*
X133843564Y-84396408D01*
X133843565Y-84396409D01*
X133932233Y-84469177D01*
X134053592Y-84534045D01*
X134067216Y-84541327D01*
X134213681Y-84585757D01*
X134327834Y-84597000D01*
X134327836Y-84597000D01*
X134366000Y-84600759D01*
X134404163Y-84597000D01*
X135557257Y-84597000D01*
X135567752Y-84616634D01*
X135746077Y-84833923D01*
X135963366Y-85012248D01*
X136211269Y-85144755D01*
X136480259Y-85226352D01*
X136689902Y-85247000D01*
X137630098Y-85247000D01*
X137839741Y-85226352D01*
X138108731Y-85144755D01*
X138356634Y-85012248D01*
X138573923Y-84833923D01*
X138752248Y-84616634D01*
X138884755Y-84368731D01*
X138966352Y-84099741D01*
X138993904Y-83820000D01*
X138966352Y-83540259D01*
X138884755Y-83271269D01*
X138752248Y-83023366D01*
X138573923Y-82806077D01*
X138356634Y-82627752D01*
X138211170Y-82550000D01*
X138356634Y-82472248D01*
X138573923Y-82293923D01*
X138752248Y-82076634D01*
X138884755Y-81828731D01*
X138966352Y-81559741D01*
X138993904Y-81280000D01*
X138966352Y-81000259D01*
X138884755Y-80731269D01*
X138752248Y-80483366D01*
X138573923Y-80266077D01*
X138356634Y-80087752D01*
X138211170Y-80010000D01*
X138356634Y-79932248D01*
X138573923Y-79753923D01*
X138752248Y-79536634D01*
X138762743Y-79517000D01*
X139886157Y-79517000D01*
X140253500Y-79884344D01*
X140253500Y-80036031D01*
X140181225Y-80057955D01*
X140029079Y-80139279D01*
X139895722Y-80248722D01*
X139786279Y-80382079D01*
X139704955Y-80534225D01*
X139654877Y-80699313D01*
X139637967Y-80870999D01*
X139637967Y-83721001D01*
X139654877Y-83892687D01*
X139704955Y-84057775D01*
X139786279Y-84209921D01*
X139895722Y-84343278D01*
X140029079Y-84452721D01*
X140181225Y-84534045D01*
X140346313Y-84584123D01*
X140517999Y-84601033D01*
X141543001Y-84601033D01*
X141714687Y-84584123D01*
X141879775Y-84534045D01*
X142031921Y-84452721D01*
X142165278Y-84343278D01*
X142274721Y-84209921D01*
X142356045Y-84057775D01*
X142406123Y-83892687D01*
X142423033Y-83721001D01*
X142423033Y-80870999D01*
X142406123Y-80699313D01*
X142356045Y-80534225D01*
X142274721Y-80382079D01*
X142165278Y-80248722D01*
X142031921Y-80139279D01*
X141879775Y-80057955D01*
X141807500Y-80036031D01*
X141807500Y-79600663D01*
X141811259Y-79562500D01*
X141807148Y-79520759D01*
X141796257Y-79410181D01*
X141751827Y-79263716D01*
X141726695Y-79216699D01*
X141679678Y-79128734D01*
X141606909Y-79040065D01*
X141606908Y-79040064D01*
X141582580Y-79010420D01*
X141552937Y-78986093D01*
X140784412Y-78217569D01*
X140760080Y-78187920D01*
X140641766Y-78090823D01*
X140506784Y-78018673D01*
X140360319Y-77974243D01*
X140246166Y-77963000D01*
X140246163Y-77963000D01*
X140208000Y-77959241D01*
X140169837Y-77963000D01*
X138762743Y-77963000D01*
X138752248Y-77943366D01*
X138573923Y-77726077D01*
X138356634Y-77547752D01*
X138108731Y-77415245D01*
X137839741Y-77333648D01*
X137630098Y-77313000D01*
X136689902Y-77313000D01*
X136480259Y-77333648D01*
X136211269Y-77415245D01*
X135963366Y-77547752D01*
X135746077Y-77726077D01*
X135567752Y-77943366D01*
X135435245Y-78191269D01*
X135353648Y-78460259D01*
X135326096Y-78740000D01*
X135353648Y-79019741D01*
X135435245Y-79288731D01*
X135567752Y-79536634D01*
X135746077Y-79753923D01*
X135963366Y-79932248D01*
X136108830Y-80010000D01*
X135963366Y-80087752D01*
X135746077Y-80266077D01*
X135567752Y-80483366D01*
X135435245Y-80731269D01*
X135353648Y-81000259D01*
X135326096Y-81280000D01*
X135353648Y-81559741D01*
X135435245Y-81828731D01*
X135567752Y-82076634D01*
X135746077Y-82293923D01*
X135963366Y-82472248D01*
X136108830Y-82550000D01*
X135963366Y-82627752D01*
X135746077Y-82806077D01*
X135567752Y-83023366D01*
X135557257Y-83043000D01*
X134687844Y-83043000D01*
X134127000Y-82482157D01*
X134127000Y-74997843D01*
X141979931Y-67144913D01*
X143129000Y-68376058D01*
X143129000Y-84074000D01*
X143131440Y-84098776D01*
X143138667Y-84122601D01*
X143156496Y-84152917D01*
X148998496Y-91518917D01*
X149015804Y-91536813D01*
X149036270Y-91550989D01*
X149059109Y-91560899D01*
X149083443Y-91566163D01*
X149098000Y-91567000D01*
X157081428Y-91567000D01*
X156841364Y-91926281D01*
X156635797Y-92422563D01*
X156531000Y-92949414D01*
X156531000Y-93486586D01*
X156635797Y-94013437D01*
X156841364Y-94509719D01*
X157139801Y-94956361D01*
X157289440Y-95106000D01*
X115506560Y-95106000D01*
X115656199Y-94956361D01*
X115954636Y-94509719D01*
X116160203Y-94013437D01*
X116265000Y-93486586D01*
X116265000Y-92949414D01*
X116160203Y-92422563D01*
X115954636Y-91926281D01*
X115656199Y-91479639D01*
X115276361Y-91099801D01*
X114829719Y-90801364D01*
X114333437Y-90595797D01*
X113806586Y-90491000D01*
X113269414Y-90491000D01*
X112742563Y-90595797D01*
X112246281Y-90801364D01*
X111799639Y-91099801D01*
X111650000Y-91249440D01*
X111650000Y-71120000D01*
X113818188Y-71120000D01*
X113846968Y-71412209D01*
X113932202Y-71693188D01*
X114070615Y-71952140D01*
X114256887Y-72179113D01*
X114483860Y-72365385D01*
X114529911Y-72390000D01*
X114483860Y-72414615D01*
X114256887Y-72600887D01*
X114070615Y-72827860D01*
X113932202Y-73086812D01*
X113846968Y-73367791D01*
X113818188Y-73660000D01*
X113846968Y-73952209D01*
X113932202Y-74233188D01*
X114070615Y-74492140D01*
X114256887Y-74719113D01*
X114483860Y-74905385D01*
X114529911Y-74930000D01*
X114483860Y-74954615D01*
X114256887Y-75140887D01*
X114070615Y-75367860D01*
X113932202Y-75626812D01*
X113846968Y-75907791D01*
X113818188Y-76200000D01*
X113846968Y-76492209D01*
X113932202Y-76773188D01*
X114070615Y-77032140D01*
X114256887Y-77259113D01*
X114483860Y-77445385D01*
X114529911Y-77470000D01*
X114483860Y-77494615D01*
X114256887Y-77680887D01*
X114070615Y-77907860D01*
X113932202Y-78166812D01*
X113846968Y-78447791D01*
X113818188Y-78740000D01*
X113846968Y-79032209D01*
X113932202Y-79313188D01*
X114070615Y-79572140D01*
X114256887Y-79799113D01*
X114483860Y-79985385D01*
X114529911Y-80010000D01*
X114483860Y-80034615D01*
X114256887Y-80220887D01*
X114070615Y-80447860D01*
X113932202Y-80706812D01*
X113846968Y-80987791D01*
X113818188Y-81280000D01*
X113846968Y-81572209D01*
X113932202Y-81853188D01*
X114070615Y-82112140D01*
X114256887Y-82339113D01*
X114483860Y-82525385D01*
X114529911Y-82550000D01*
X114483860Y-82574615D01*
X114256887Y-82760887D01*
X114070615Y-82987860D01*
X113932202Y-83246812D01*
X113846968Y-83527791D01*
X113818188Y-83820000D01*
X113846968Y-84112209D01*
X113932202Y-84393188D01*
X114070615Y-84652140D01*
X114256887Y-84879113D01*
X114483860Y-85065385D01*
X114742812Y-85203798D01*
X115023791Y-85289032D01*
X115242775Y-85310600D01*
X115389225Y-85310600D01*
X115608209Y-85289032D01*
X115889188Y-85203798D01*
X116148140Y-85065385D01*
X116375113Y-84879113D01*
X116561385Y-84652140D01*
X116584183Y-84609489D01*
X116749146Y-84830293D01*
X116967512Y-85026817D01*
X117220022Y-85176964D01*
X117496973Y-85274963D01*
X117729000Y-85154464D01*
X117729000Y-83947000D01*
X117983000Y-83947000D01*
X117983000Y-85154464D01*
X118215027Y-85274963D01*
X118491978Y-85176964D01*
X118744488Y-85026817D01*
X118962854Y-84830293D01*
X119138684Y-84594944D01*
X119265222Y-84329814D01*
X119310958Y-84179026D01*
X119189817Y-83947000D01*
X117983000Y-83947000D01*
X117729000Y-83947000D01*
X117709000Y-83947000D01*
X117709000Y-83820000D01*
X125166096Y-83820000D01*
X125193648Y-84099741D01*
X125275245Y-84368731D01*
X125407752Y-84616634D01*
X125586077Y-84833923D01*
X125803366Y-85012248D01*
X126051269Y-85144755D01*
X126320259Y-85226352D01*
X126529902Y-85247000D01*
X127470098Y-85247000D01*
X127679741Y-85226352D01*
X127948731Y-85144755D01*
X128196634Y-85012248D01*
X128413923Y-84833923D01*
X128592248Y-84616634D01*
X128724755Y-84368731D01*
X128806352Y-84099741D01*
X128833904Y-83820000D01*
X128806352Y-83540259D01*
X128724755Y-83271269D01*
X128592248Y-83023366D01*
X128413923Y-82806077D01*
X128196634Y-82627752D01*
X128065396Y-82557604D01*
X128066483Y-82557166D01*
X128302839Y-82402601D01*
X128504500Y-82204895D01*
X128663715Y-81971646D01*
X128774367Y-81711818D01*
X128791904Y-81629039D01*
X128669915Y-81407000D01*
X127127000Y-81407000D01*
X127127000Y-81427000D01*
X126873000Y-81427000D01*
X126873000Y-81407000D01*
X125330085Y-81407000D01*
X125208096Y-81629039D01*
X125225633Y-81711818D01*
X125336285Y-81971646D01*
X125495500Y-82204895D01*
X125697161Y-82402601D01*
X125933517Y-82557166D01*
X125934604Y-82557604D01*
X125803366Y-82627752D01*
X125586077Y-82806077D01*
X125407752Y-83023366D01*
X125275245Y-83271269D01*
X125193648Y-83540259D01*
X125166096Y-83820000D01*
X117709000Y-83820000D01*
X117709000Y-83693000D01*
X117729000Y-83693000D01*
X117729000Y-81407000D01*
X117983000Y-81407000D01*
X117983000Y-83693000D01*
X119189817Y-83693000D01*
X119310958Y-83460974D01*
X119265222Y-83310186D01*
X119138684Y-83045056D01*
X118962854Y-82809707D01*
X118744488Y-82613183D01*
X118638230Y-82550000D01*
X118744488Y-82486817D01*
X118962854Y-82290293D01*
X119138684Y-82054944D01*
X119265222Y-81789814D01*
X119310958Y-81639026D01*
X119189817Y-81407000D01*
X117983000Y-81407000D01*
X117729000Y-81407000D01*
X117709000Y-81407000D01*
X117709000Y-81153000D01*
X117729000Y-81153000D01*
X117729000Y-78867000D01*
X117983000Y-78867000D01*
X117983000Y-81153000D01*
X119189817Y-81153000D01*
X119310958Y-80920974D01*
X119265222Y-80770186D01*
X119138684Y-80505056D01*
X118962854Y-80269707D01*
X118744488Y-80073183D01*
X118638230Y-80010000D01*
X118744488Y-79946817D01*
X118962854Y-79750293D01*
X119138684Y-79514944D01*
X119265222Y-79249814D01*
X119310958Y-79099026D01*
X119189817Y-78867000D01*
X117983000Y-78867000D01*
X117729000Y-78867000D01*
X117709000Y-78867000D01*
X117709000Y-78613000D01*
X117729000Y-78613000D01*
X117729000Y-78593000D01*
X117983000Y-78593000D01*
X117983000Y-78613000D01*
X119189817Y-78613000D01*
X119310958Y-78380974D01*
X119265222Y-78230186D01*
X119138684Y-77965056D01*
X119119965Y-77940000D01*
X125169967Y-77940000D01*
X125169967Y-79540000D01*
X125182073Y-79662913D01*
X125217925Y-79781103D01*
X125276147Y-79890028D01*
X125354499Y-79985501D01*
X125449972Y-80063853D01*
X125558897Y-80122075D01*
X125677087Y-80157927D01*
X125694839Y-80159675D01*
X125495500Y-80355105D01*
X125336285Y-80588354D01*
X125225633Y-80848182D01*
X125208096Y-80930961D01*
X125330085Y-81153000D01*
X126873000Y-81153000D01*
X126873000Y-81133000D01*
X127127000Y-81133000D01*
X127127000Y-81153000D01*
X128669915Y-81153000D01*
X128791904Y-80930961D01*
X128774367Y-80848182D01*
X128663715Y-80588354D01*
X128504500Y-80355105D01*
X128305161Y-80159675D01*
X128322913Y-80157927D01*
X128441103Y-80122075D01*
X128550028Y-80063853D01*
X128645501Y-79985501D01*
X128723853Y-79890028D01*
X128782075Y-79781103D01*
X128817927Y-79662913D01*
X128830033Y-79540000D01*
X128830033Y-79444624D01*
X128933766Y-79389177D01*
X129052080Y-79292080D01*
X129076412Y-79262431D01*
X130824437Y-77514407D01*
X130854080Y-77490080D01*
X130914755Y-77416147D01*
X130951177Y-77371767D01*
X131005055Y-77270968D01*
X131023327Y-77236784D01*
X131067757Y-77090319D01*
X131079000Y-76976166D01*
X131079000Y-76976164D01*
X131082759Y-76938000D01*
X131079000Y-76899837D01*
X131079000Y-74736794D01*
X131147913Y-74690748D01*
X131332748Y-74505913D01*
X131477972Y-74288570D01*
X131578004Y-74047072D01*
X131629000Y-73790698D01*
X131629000Y-73529302D01*
X131578004Y-73272928D01*
X131477972Y-73031430D01*
X131332748Y-72814087D01*
X131147913Y-72629252D01*
X130930570Y-72484028D01*
X130703567Y-72390000D01*
X130930570Y-72295972D01*
X131147913Y-72150748D01*
X131332748Y-71965913D01*
X131477972Y-71748570D01*
X131578004Y-71507072D01*
X131629000Y-71250698D01*
X131629000Y-70989302D01*
X131578004Y-70732928D01*
X131477972Y-70491430D01*
X131332748Y-70274087D01*
X131147913Y-70089252D01*
X130930570Y-69944028D01*
X130689072Y-69843996D01*
X130432698Y-69793000D01*
X130171302Y-69793000D01*
X130090013Y-69809169D01*
X129108000Y-68827157D01*
X129108000Y-67811374D01*
X129203913Y-67801927D01*
X129322103Y-67766075D01*
X129431028Y-67707853D01*
X129526501Y-67629501D01*
X129604853Y-67534028D01*
X129663075Y-67425103D01*
X129698927Y-67306913D01*
X129711033Y-67184000D01*
X129711033Y-65404000D01*
X129698927Y-65281087D01*
X129663075Y-65162897D01*
X129604853Y-65053972D01*
X129585430Y-65030305D01*
X129611537Y-64998494D01*
X129670502Y-64888180D01*
X129706812Y-64768482D01*
X129719072Y-64644000D01*
X129716000Y-64039750D01*
X129557250Y-63881000D01*
X128458000Y-63881000D01*
X128458000Y-63901000D01*
X128204000Y-63901000D01*
X128204000Y-63881000D01*
X127104750Y-63881000D01*
X126946000Y-64039750D01*
X126942928Y-64644000D01*
X126955188Y-64768482D01*
X126991498Y-64888180D01*
X127050463Y-64998494D01*
X127076570Y-65030305D01*
X127057147Y-65053972D01*
X126998925Y-65162897D01*
X126963073Y-65281087D01*
X126950967Y-65404000D01*
X126950967Y-67184000D01*
X126963073Y-67306913D01*
X126998925Y-67425103D01*
X127057147Y-67534028D01*
X127135499Y-67629501D01*
X127230972Y-67707853D01*
X127339897Y-67766075D01*
X127458087Y-67801927D01*
X127554001Y-67811374D01*
X127554001Y-69110827D01*
X127550241Y-69149000D01*
X127562854Y-69277053D01*
X127565244Y-69301319D01*
X127578721Y-69345748D01*
X127609673Y-69447783D01*
X127681823Y-69582766D01*
X127720095Y-69629400D01*
X127778921Y-69701080D01*
X127808565Y-69725408D01*
X128991169Y-70908013D01*
X128975000Y-70989302D01*
X128975000Y-71250698D01*
X129025996Y-71507072D01*
X129126028Y-71748570D01*
X129271252Y-71965913D01*
X129456087Y-72150748D01*
X129673430Y-72295972D01*
X129900433Y-72390000D01*
X129673430Y-72484028D01*
X129456087Y-72629252D01*
X129271252Y-72814087D01*
X129126028Y-73031430D01*
X129025996Y-73272928D01*
X128975000Y-73529302D01*
X128975000Y-73790698D01*
X129025996Y-74047072D01*
X129126028Y-74288570D01*
X129271252Y-74505913D01*
X129456087Y-74690748D01*
X129525001Y-74736795D01*
X129525000Y-76616156D01*
X128646022Y-77495134D01*
X128645501Y-77494499D01*
X128550028Y-77416147D01*
X128441103Y-77357925D01*
X128322913Y-77322073D01*
X128200000Y-77309967D01*
X125800000Y-77309967D01*
X125677087Y-77322073D01*
X125558897Y-77357925D01*
X125449972Y-77416147D01*
X125354499Y-77494499D01*
X125276147Y-77589972D01*
X125217925Y-77698897D01*
X125182073Y-77817087D01*
X125169967Y-77940000D01*
X119119965Y-77940000D01*
X118962854Y-77729707D01*
X118744488Y-77533183D01*
X118640057Y-77471086D01*
X118688140Y-77445385D01*
X118915113Y-77259113D01*
X119101385Y-77032140D01*
X119130858Y-76977000D01*
X123913837Y-76977000D01*
X123952000Y-76980759D01*
X123990163Y-76977000D01*
X123990166Y-76977000D01*
X124104319Y-76965757D01*
X124250784Y-76921327D01*
X124385766Y-76849177D01*
X124504080Y-76752080D01*
X124528412Y-76722431D01*
X125744436Y-75506408D01*
X125774080Y-75482080D01*
X125807173Y-75441756D01*
X125871177Y-75363767D01*
X125943327Y-75228784D01*
X125951443Y-75202029D01*
X125987757Y-75082319D01*
X125999000Y-74968166D01*
X125999000Y-74968157D01*
X126002758Y-74930001D01*
X125999000Y-74891845D01*
X125999000Y-62864000D01*
X126942928Y-62864000D01*
X126946000Y-63468250D01*
X127104750Y-63627000D01*
X128204000Y-63627000D01*
X128204000Y-62387750D01*
X128458000Y-62387750D01*
X128458000Y-63627000D01*
X129557250Y-63627000D01*
X129716000Y-63468250D01*
X129719072Y-62864000D01*
X129706812Y-62739518D01*
X129670502Y-62619820D01*
X129611537Y-62509506D01*
X129532185Y-62412815D01*
X129435494Y-62333463D01*
X129325180Y-62274498D01*
X129205482Y-62238188D01*
X129081000Y-62225928D01*
X128616750Y-62229000D01*
X128458000Y-62387750D01*
X128204000Y-62387750D01*
X128045250Y-62229000D01*
X127581000Y-62225928D01*
X127456518Y-62238188D01*
X127336820Y-62274498D01*
X127226506Y-62333463D01*
X127129815Y-62412815D01*
X127050463Y-62509506D01*
X126991498Y-62619820D01*
X126955188Y-62739518D01*
X126942928Y-62864000D01*
X125999000Y-62864000D01*
X125999000Y-60207000D01*
X129304967Y-60207000D01*
X129304967Y-61132000D01*
X129321877Y-61303686D01*
X129371956Y-61468774D01*
X129453279Y-61620920D01*
X129562723Y-61754277D01*
X129696080Y-61863721D01*
X129848226Y-61945044D01*
X130013314Y-61995123D01*
X130185000Y-62012033D01*
X131016190Y-62012033D01*
X135820592Y-66816436D01*
X135844920Y-66846080D01*
X135874564Y-66870408D01*
X135874565Y-66870409D01*
X135963233Y-66943177D01*
X135986810Y-66955779D01*
X136098216Y-67015327D01*
X136244681Y-67059757D01*
X136358834Y-67071000D01*
X136358843Y-67071000D01*
X136396999Y-67074758D01*
X136435155Y-67071000D01*
X136480967Y-67071000D01*
X136480967Y-67184000D01*
X136493073Y-67306913D01*
X136528925Y-67425103D01*
X136587147Y-67534028D01*
X136665499Y-67629501D01*
X136760972Y-67707853D01*
X136869897Y-67766075D01*
X136988087Y-67801927D01*
X137111000Y-67814033D01*
X138611000Y-67814033D01*
X138733913Y-67801927D01*
X138852103Y-67766075D01*
X138961028Y-67707853D01*
X139056501Y-67629501D01*
X139134853Y-67534028D01*
X139193075Y-67425103D01*
X139228927Y-67306913D01*
X139241033Y-67184000D01*
X139241033Y-65404000D01*
X139228927Y-65281087D01*
X139193075Y-65162897D01*
X139134853Y-65053972D01*
X139110256Y-65024000D01*
X139134853Y-64994028D01*
X139193075Y-64885103D01*
X139228927Y-64766913D01*
X139241033Y-64644000D01*
X139241033Y-62864000D01*
X139228927Y-62741087D01*
X139193075Y-62622897D01*
X139134853Y-62513972D01*
X139056501Y-62418499D01*
X138961028Y-62340147D01*
X138852103Y-62281925D01*
X138733913Y-62246073D01*
X138611000Y-62233967D01*
X137111000Y-62233967D01*
X136988087Y-62246073D01*
X136869897Y-62281925D01*
X136760972Y-62340147D01*
X136665499Y-62418499D01*
X136624410Y-62468567D01*
X136587000Y-62431157D01*
X136587000Y-54595926D01*
X136722777Y-54539685D01*
X137038391Y-54328799D01*
X137306799Y-54060391D01*
X137517685Y-53744777D01*
X137662947Y-53394085D01*
X137737000Y-53021793D01*
X137737000Y-52642207D01*
X137662947Y-52269915D01*
X137517685Y-51919223D01*
X137306799Y-51603609D01*
X137038391Y-51335201D01*
X136722777Y-51124315D01*
X136372085Y-50979053D01*
X135999793Y-50905000D01*
X135620207Y-50905000D01*
X135247915Y-50979053D01*
X134897223Y-51124315D01*
X134581609Y-51335201D01*
X134313201Y-51603609D01*
X134102315Y-51919223D01*
X133957053Y-52269915D01*
X133883000Y-52642207D01*
X133883000Y-53021793D01*
X133957053Y-53394085D01*
X134102315Y-53744777D01*
X134313201Y-54060391D01*
X134581609Y-54328799D01*
X134897223Y-54539685D01*
X135033000Y-54595926D01*
X135033001Y-62714827D01*
X135029241Y-62753000D01*
X135044244Y-62905318D01*
X135088673Y-63051783D01*
X135160823Y-63186766D01*
X135173260Y-63201920D01*
X135257921Y-63305080D01*
X135287565Y-63329408D01*
X136234592Y-64276436D01*
X136258920Y-64306080D01*
X136288564Y-64330408D01*
X136288565Y-64330409D01*
X136377233Y-64403177D01*
X136406537Y-64418840D01*
X136480967Y-64458624D01*
X136480967Y-64644000D01*
X136493073Y-64766913D01*
X136528925Y-64885103D01*
X136587147Y-64994028D01*
X136611744Y-65024000D01*
X136587147Y-65053972D01*
X136528925Y-65162897D01*
X136493073Y-65281087D01*
X136492164Y-65290320D01*
X132315033Y-61113190D01*
X132315033Y-60207000D01*
X132298123Y-60035314D01*
X132248044Y-59870226D01*
X132166721Y-59718080D01*
X132057277Y-59584723D01*
X131923920Y-59475279D01*
X131771774Y-59393956D01*
X131606686Y-59343877D01*
X131435000Y-59326967D01*
X130185000Y-59326967D01*
X130013314Y-59343877D01*
X129848226Y-59393956D01*
X129696080Y-59475279D01*
X129562723Y-59584723D01*
X129453279Y-59718080D01*
X129371956Y-59870226D01*
X129321877Y-60035314D01*
X129304967Y-60207000D01*
X125999000Y-60207000D01*
X125999000Y-53877504D01*
X126087685Y-53744777D01*
X126232947Y-53394085D01*
X126307000Y-53021793D01*
X126307000Y-52642207D01*
X126232947Y-52269915D01*
X126087685Y-51919223D01*
X125876799Y-51603609D01*
X125805190Y-51532000D01*
X128879967Y-51532000D01*
X128879967Y-54132000D01*
X128892073Y-54254913D01*
X128927925Y-54373103D01*
X128986147Y-54482028D01*
X129064499Y-54577501D01*
X129159972Y-54655853D01*
X129268897Y-54714075D01*
X129387087Y-54749927D01*
X129510000Y-54762033D01*
X130033000Y-54762033D01*
X130033001Y-56366938D01*
X130013314Y-56368877D01*
X129848226Y-56418956D01*
X129696080Y-56500279D01*
X129562723Y-56609723D01*
X129453279Y-56743080D01*
X129371956Y-56895226D01*
X129321877Y-57060314D01*
X129304967Y-57232000D01*
X129304967Y-58157000D01*
X129321877Y-58328686D01*
X129371956Y-58493774D01*
X129453279Y-58645920D01*
X129562723Y-58779277D01*
X129696080Y-58888721D01*
X129848226Y-58970044D01*
X130013314Y-59020123D01*
X130185000Y-59037033D01*
X131435000Y-59037033D01*
X131606686Y-59020123D01*
X131771774Y-58970044D01*
X131923920Y-58888721D01*
X132057277Y-58779277D01*
X132166721Y-58645920D01*
X132248044Y-58493774D01*
X132298123Y-58328686D01*
X132315033Y-58157000D01*
X132315033Y-57232000D01*
X132298123Y-57060314D01*
X132248044Y-56895226D01*
X132166721Y-56743080D01*
X132057277Y-56609723D01*
X131923920Y-56500279D01*
X131771774Y-56418956D01*
X131606686Y-56368877D01*
X131587000Y-56366938D01*
X131587000Y-54762033D01*
X132110000Y-54762033D01*
X132232913Y-54749927D01*
X132351103Y-54714075D01*
X132460028Y-54655853D01*
X132555501Y-54577501D01*
X132633853Y-54482028D01*
X132692075Y-54373103D01*
X132727927Y-54254913D01*
X132740033Y-54132000D01*
X132740033Y-51532000D01*
X132727927Y-51409087D01*
X132692075Y-51290897D01*
X132633853Y-51181972D01*
X132555501Y-51086499D01*
X132460028Y-51008147D01*
X132351103Y-50949925D01*
X132232913Y-50914073D01*
X132110000Y-50901967D01*
X129510000Y-50901967D01*
X129387087Y-50914073D01*
X129268897Y-50949925D01*
X129159972Y-51008147D01*
X129064499Y-51086499D01*
X128986147Y-51181972D01*
X128927925Y-51290897D01*
X128892073Y-51409087D01*
X128879967Y-51532000D01*
X125805190Y-51532000D01*
X125608391Y-51335201D01*
X125292777Y-51124315D01*
X124942085Y-50979053D01*
X124569793Y-50905000D01*
X124190207Y-50905000D01*
X123817915Y-50979053D01*
X123467223Y-51124315D01*
X123151609Y-51335201D01*
X122883201Y-51603609D01*
X122672315Y-51919223D01*
X122527053Y-52269915D01*
X122453000Y-52642207D01*
X122453000Y-53021793D01*
X122527053Y-53394085D01*
X122672315Y-53744777D01*
X122883201Y-54060391D01*
X123151609Y-54328799D01*
X123467223Y-54539685D01*
X123817915Y-54684947D01*
X124190207Y-54759000D01*
X124445000Y-54759000D01*
X124445001Y-74608155D01*
X123630157Y-75423000D01*
X119130858Y-75423000D01*
X119101385Y-75367860D01*
X118915113Y-75140887D01*
X118688140Y-74954615D01*
X118642089Y-74930000D01*
X118688140Y-74905385D01*
X118915113Y-74719113D01*
X119101385Y-74492140D01*
X119130858Y-74437000D01*
X121605206Y-74437000D01*
X121651252Y-74505913D01*
X121836087Y-74690748D01*
X122053430Y-74835972D01*
X122294928Y-74936004D01*
X122551302Y-74987000D01*
X122812698Y-74987000D01*
X123069072Y-74936004D01*
X123310570Y-74835972D01*
X123527913Y-74690748D01*
X123712748Y-74505913D01*
X123857972Y-74288570D01*
X123958004Y-74047072D01*
X124009000Y-73790698D01*
X124009000Y-73529302D01*
X123958004Y-73272928D01*
X123857972Y-73031430D01*
X123712748Y-72814087D01*
X123527913Y-72629252D01*
X123310570Y-72484028D01*
X123083567Y-72390000D01*
X123310570Y-72295972D01*
X123527913Y-72150748D01*
X123712748Y-71965913D01*
X123857972Y-71748570D01*
X123958004Y-71507072D01*
X124009000Y-71250698D01*
X124009000Y-70989302D01*
X123958004Y-70732928D01*
X123857972Y-70491430D01*
X123712748Y-70274087D01*
X123527913Y-70089252D01*
X123310570Y-69944028D01*
X123069072Y-69843996D01*
X122812698Y-69793000D01*
X122551302Y-69793000D01*
X122294928Y-69843996D01*
X122053430Y-69944028D01*
X121836087Y-70089252D01*
X121651252Y-70274087D01*
X121605206Y-70343000D01*
X119130858Y-70343000D01*
X119101385Y-70287860D01*
X118915113Y-70060887D01*
X118688140Y-69874615D01*
X118642089Y-69850000D01*
X118688140Y-69825385D01*
X118915113Y-69639113D01*
X119101385Y-69412140D01*
X119239798Y-69153188D01*
X119325032Y-68872209D01*
X119353812Y-68580000D01*
X119325032Y-68287791D01*
X119239798Y-68006812D01*
X119101385Y-67747860D01*
X118915113Y-67520887D01*
X118688140Y-67334615D01*
X118633000Y-67305142D01*
X118633000Y-62685344D01*
X118742774Y-62652044D01*
X118894920Y-62570721D01*
X119028277Y-62461277D01*
X119137721Y-62327920D01*
X119219044Y-62175774D01*
X119269123Y-62010686D01*
X119286033Y-61839000D01*
X119286033Y-60970311D01*
X119902436Y-60353908D01*
X119932080Y-60329580D01*
X119978322Y-60273234D01*
X120029177Y-60211267D01*
X120072299Y-60130591D01*
X120101327Y-60076284D01*
X120145757Y-59929819D01*
X120157000Y-59815666D01*
X120157000Y-59815664D01*
X120160759Y-59777500D01*
X120157000Y-59739337D01*
X120157000Y-54762033D01*
X120680000Y-54762033D01*
X120802913Y-54749927D01*
X120921103Y-54714075D01*
X121030028Y-54655853D01*
X121125501Y-54577501D01*
X121203853Y-54482028D01*
X121262075Y-54373103D01*
X121297927Y-54254913D01*
X121310033Y-54132000D01*
X121310033Y-51532000D01*
X121297927Y-51409087D01*
X121262075Y-51290897D01*
X121203853Y-51181972D01*
X121125501Y-51086499D01*
X121030028Y-51008147D01*
X120921103Y-50949925D01*
X120802913Y-50914073D01*
X120680000Y-50901967D01*
X118080000Y-50901967D01*
X117957087Y-50914073D01*
X117838897Y-50949925D01*
X117729972Y-51008147D01*
X117634499Y-51086499D01*
X117556147Y-51181972D01*
X117497925Y-51290897D01*
X117462073Y-51409087D01*
X117449967Y-51532000D01*
X117449967Y-54132000D01*
X117462073Y-54254913D01*
X117497925Y-54373103D01*
X117556147Y-54482028D01*
X117634499Y-54577501D01*
X117729972Y-54655853D01*
X117838897Y-54714075D01*
X117957087Y-54749927D01*
X118080000Y-54762033D01*
X118603000Y-54762033D01*
X118603001Y-59455655D01*
X118349689Y-59708967D01*
X117481000Y-59708967D01*
X117309314Y-59725877D01*
X117144226Y-59775956D01*
X116992080Y-59857279D01*
X116858723Y-59966723D01*
X116749279Y-60100080D01*
X116667956Y-60252226D01*
X116617877Y-60417314D01*
X116600967Y-60589000D01*
X116600967Y-61839000D01*
X116617877Y-62010686D01*
X116667956Y-62175774D01*
X116749279Y-62327920D01*
X116858723Y-62461277D01*
X116992080Y-62570721D01*
X117079001Y-62617181D01*
X117079000Y-67305142D01*
X117023860Y-67334615D01*
X116796887Y-67520887D01*
X116781275Y-67539910D01*
X116761675Y-67475297D01*
X116703453Y-67366372D01*
X116625101Y-67270899D01*
X116529628Y-67192547D01*
X116420703Y-67134325D01*
X116302513Y-67098473D01*
X116179600Y-67086367D01*
X114452400Y-67086367D01*
X114329487Y-67098473D01*
X114211297Y-67134325D01*
X114102372Y-67192547D01*
X114006899Y-67270899D01*
X113928547Y-67366372D01*
X113870325Y-67475297D01*
X113834473Y-67593487D01*
X113822367Y-67716400D01*
X113822367Y-69443600D01*
X113834473Y-69566513D01*
X113870325Y-69684703D01*
X113928547Y-69793628D01*
X114006899Y-69889101D01*
X114102372Y-69967453D01*
X114211297Y-70025675D01*
X114275910Y-70045275D01*
X114256887Y-70060887D01*
X114070615Y-70287860D01*
X113932202Y-70546812D01*
X113846968Y-70827791D01*
X113818188Y-71120000D01*
X111650000Y-71120000D01*
X111650000Y-62089000D01*
X113617928Y-62089000D01*
X113630188Y-62213482D01*
X113666498Y-62333180D01*
X113725463Y-62443494D01*
X113804815Y-62540185D01*
X113901506Y-62619537D01*
X114011820Y-62678502D01*
X114131518Y-62714812D01*
X114256000Y-62727072D01*
X114682750Y-62724000D01*
X114841500Y-62565250D01*
X114841500Y-61341000D01*
X115095500Y-61341000D01*
X115095500Y-62565250D01*
X115254250Y-62724000D01*
X115681000Y-62727072D01*
X115805482Y-62714812D01*
X115925180Y-62678502D01*
X116035494Y-62619537D01*
X116132185Y-62540185D01*
X116211537Y-62443494D01*
X116270502Y-62333180D01*
X116306812Y-62213482D01*
X116319072Y-62089000D01*
X116316000Y-61499750D01*
X116157250Y-61341000D01*
X115095500Y-61341000D01*
X114841500Y-61341000D01*
X113779750Y-61341000D01*
X113621000Y-61499750D01*
X113617928Y-62089000D01*
X111650000Y-62089000D01*
X111650000Y-60339000D01*
X113617928Y-60339000D01*
X113621000Y-60928250D01*
X113779750Y-61087000D01*
X114841500Y-61087000D01*
X114841500Y-59862750D01*
X115095500Y-59862750D01*
X115095500Y-61087000D01*
X116157250Y-61087000D01*
X116316000Y-60928250D01*
X116319072Y-60339000D01*
X116306812Y-60214518D01*
X116270502Y-60094820D01*
X116211537Y-59984506D01*
X116132185Y-59887815D01*
X116035494Y-59808463D01*
X115925180Y-59749498D01*
X115805482Y-59713188D01*
X115681000Y-59700928D01*
X115254250Y-59704000D01*
X115095500Y-59862750D01*
X114841500Y-59862750D01*
X114682750Y-59704000D01*
X114256000Y-59700928D01*
X114131518Y-59713188D01*
X114011820Y-59749498D01*
X113901506Y-59808463D01*
X113804815Y-59887815D01*
X113725463Y-59984506D01*
X113666498Y-60094820D01*
X113630188Y-60214518D01*
X113617928Y-60339000D01*
X111650000Y-60339000D01*
X111650000Y-49466560D01*
X111799639Y-49616199D01*
X112246281Y-49914636D01*
X112742563Y-50120203D01*
X113269414Y-50225000D01*
X113806586Y-50225000D01*
X114333437Y-50120203D01*
X114829719Y-49914636D01*
X115276361Y-49616199D01*
X115656199Y-49236361D01*
X115954636Y-48789719D01*
X116160203Y-48293437D01*
X116265000Y-47766586D01*
X116265000Y-47229414D01*
X116160203Y-46702563D01*
X115954636Y-46206281D01*
X115656199Y-45759639D01*
X115506560Y-45610000D01*
X139573000Y-45610000D01*
X139573000Y-64516000D01*
X139573000Y-64516000D01*
G37*
X139573000Y-64516000D02*
X139575440Y-64540776D01*
X139582667Y-64564601D01*
X139594403Y-64586557D01*
X139607156Y-64602654D01*
X140918978Y-66008178D01*
X132827570Y-74099587D01*
X132797920Y-74123920D01*
X132748203Y-74184501D01*
X132700823Y-74242234D01*
X132689968Y-74262543D01*
X132628673Y-74377217D01*
X132584243Y-74523682D01*
X132575566Y-74611783D01*
X132569241Y-74676000D01*
X132573000Y-74714163D01*
X132573001Y-82765827D01*
X132569241Y-82804000D01*
X132584244Y-82956318D01*
X132628673Y-83102783D01*
X132700823Y-83237766D01*
X132749899Y-83297565D01*
X132797921Y-83356080D01*
X132827565Y-83380408D01*
X133789592Y-84342436D01*
X133813920Y-84372080D01*
X133843564Y-84396408D01*
X133843565Y-84396409D01*
X133932233Y-84469177D01*
X134053592Y-84534045D01*
X134067216Y-84541327D01*
X134213681Y-84585757D01*
X134327834Y-84597000D01*
X134327836Y-84597000D01*
X134366000Y-84600759D01*
X134404163Y-84597000D01*
X135557257Y-84597000D01*
X135567752Y-84616634D01*
X135746077Y-84833923D01*
X135963366Y-85012248D01*
X136211269Y-85144755D01*
X136480259Y-85226352D01*
X136689902Y-85247000D01*
X137630098Y-85247000D01*
X137839741Y-85226352D01*
X138108731Y-85144755D01*
X138356634Y-85012248D01*
X138573923Y-84833923D01*
X138752248Y-84616634D01*
X138884755Y-84368731D01*
X138966352Y-84099741D01*
X138993904Y-83820000D01*
X138966352Y-83540259D01*
X138884755Y-83271269D01*
X138752248Y-83023366D01*
X138573923Y-82806077D01*
X138356634Y-82627752D01*
X138211170Y-82550000D01*
X138356634Y-82472248D01*
X138573923Y-82293923D01*
X138752248Y-82076634D01*
X138884755Y-81828731D01*
X138966352Y-81559741D01*
X138993904Y-81280000D01*
X138966352Y-81000259D01*
X138884755Y-80731269D01*
X138752248Y-80483366D01*
X138573923Y-80266077D01*
X138356634Y-80087752D01*
X138211170Y-80010000D01*
X138356634Y-79932248D01*
X138573923Y-79753923D01*
X138752248Y-79536634D01*
X138762743Y-79517000D01*
X139886157Y-79517000D01*
X140253500Y-79884344D01*
X140253500Y-80036031D01*
X140181225Y-80057955D01*
X140029079Y-80139279D01*
X139895722Y-80248722D01*
X139786279Y-80382079D01*
X139704955Y-80534225D01*
X139654877Y-80699313D01*
X139637967Y-80870999D01*
X139637967Y-83721001D01*
X139654877Y-83892687D01*
X139704955Y-84057775D01*
X139786279Y-84209921D01*
X139895722Y-84343278D01*
X140029079Y-84452721D01*
X140181225Y-84534045D01*
X140346313Y-84584123D01*
X140517999Y-84601033D01*
X141543001Y-84601033D01*
X141714687Y-84584123D01*
X141879775Y-84534045D01*
X142031921Y-84452721D01*
X142165278Y-84343278D01*
X142274721Y-84209921D01*
X142356045Y-84057775D01*
X142406123Y-83892687D01*
X142423033Y-83721001D01*
X142423033Y-80870999D01*
X142406123Y-80699313D01*
X142356045Y-80534225D01*
X142274721Y-80382079D01*
X142165278Y-80248722D01*
X142031921Y-80139279D01*
X141879775Y-80057955D01*
X141807500Y-80036031D01*
X141807500Y-79600663D01*
X141811259Y-79562500D01*
X141807148Y-79520759D01*
X141796257Y-79410181D01*
X141751827Y-79263716D01*
X141726695Y-79216699D01*
X141679678Y-79128734D01*
X141606909Y-79040065D01*
X141606908Y-79040064D01*
X141582580Y-79010420D01*
X141552937Y-78986093D01*
X140784412Y-78217569D01*
X140760080Y-78187920D01*
X140641766Y-78090823D01*
X140506784Y-78018673D01*
X140360319Y-77974243D01*
X140246166Y-77963000D01*
X140246163Y-77963000D01*
X140208000Y-77959241D01*
X140169837Y-77963000D01*
X138762743Y-77963000D01*
X138752248Y-77943366D01*
X138573923Y-77726077D01*
X138356634Y-77547752D01*
X138108731Y-77415245D01*
X137839741Y-77333648D01*
X137630098Y-77313000D01*
X136689902Y-77313000D01*
X136480259Y-77333648D01*
X136211269Y-77415245D01*
X135963366Y-77547752D01*
X135746077Y-77726077D01*
X135567752Y-77943366D01*
X135435245Y-78191269D01*
X135353648Y-78460259D01*
X135326096Y-78740000D01*
X135353648Y-79019741D01*
X135435245Y-79288731D01*
X135567752Y-79536634D01*
X135746077Y-79753923D01*
X135963366Y-79932248D01*
X136108830Y-80010000D01*
X135963366Y-80087752D01*
X135746077Y-80266077D01*
X135567752Y-80483366D01*
X135435245Y-80731269D01*
X135353648Y-81000259D01*
X135326096Y-81280000D01*
X135353648Y-81559741D01*
X135435245Y-81828731D01*
X135567752Y-82076634D01*
X135746077Y-82293923D01*
X135963366Y-82472248D01*
X136108830Y-82550000D01*
X135963366Y-82627752D01*
X135746077Y-82806077D01*
X135567752Y-83023366D01*
X135557257Y-83043000D01*
X134687844Y-83043000D01*
X134127000Y-82482157D01*
X134127000Y-74997843D01*
X141979931Y-67144913D01*
X143129000Y-68376058D01*
X143129000Y-84074000D01*
X143131440Y-84098776D01*
X143138667Y-84122601D01*
X143156496Y-84152917D01*
X148998496Y-91518917D01*
X149015804Y-91536813D01*
X149036270Y-91550989D01*
X149059109Y-91560899D01*
X149083443Y-91566163D01*
X149098000Y-91567000D01*
X157081428Y-91567000D01*
X156841364Y-91926281D01*
X156635797Y-92422563D01*
X156531000Y-92949414D01*
X156531000Y-93486586D01*
X156635797Y-94013437D01*
X156841364Y-94509719D01*
X157139801Y-94956361D01*
X157289440Y-95106000D01*
X115506560Y-95106000D01*
X115656199Y-94956361D01*
X115954636Y-94509719D01*
X116160203Y-94013437D01*
X116265000Y-93486586D01*
X116265000Y-92949414D01*
X116160203Y-92422563D01*
X115954636Y-91926281D01*
X115656199Y-91479639D01*
X115276361Y-91099801D01*
X114829719Y-90801364D01*
X114333437Y-90595797D01*
X113806586Y-90491000D01*
X113269414Y-90491000D01*
X112742563Y-90595797D01*
X112246281Y-90801364D01*
X111799639Y-91099801D01*
X111650000Y-91249440D01*
X111650000Y-71120000D01*
X113818188Y-71120000D01*
X113846968Y-71412209D01*
X113932202Y-71693188D01*
X114070615Y-71952140D01*
X114256887Y-72179113D01*
X114483860Y-72365385D01*
X114529911Y-72390000D01*
X114483860Y-72414615D01*
X114256887Y-72600887D01*
X114070615Y-72827860D01*
X113932202Y-73086812D01*
X113846968Y-73367791D01*
X113818188Y-73660000D01*
X113846968Y-73952209D01*
X113932202Y-74233188D01*
X114070615Y-74492140D01*
X114256887Y-74719113D01*
X114483860Y-74905385D01*
X114529911Y-74930000D01*
X114483860Y-74954615D01*
X114256887Y-75140887D01*
X114070615Y-75367860D01*
X113932202Y-75626812D01*
X113846968Y-75907791D01*
X113818188Y-76200000D01*
X113846968Y-76492209D01*
X113932202Y-76773188D01*
X114070615Y-77032140D01*
X114256887Y-77259113D01*
X114483860Y-77445385D01*
X114529911Y-77470000D01*
X114483860Y-77494615D01*
X114256887Y-77680887D01*
X114070615Y-77907860D01*
X113932202Y-78166812D01*
X113846968Y-78447791D01*
X113818188Y-78740000D01*
X113846968Y-79032209D01*
X113932202Y-79313188D01*
X114070615Y-79572140D01*
X114256887Y-79799113D01*
X114483860Y-79985385D01*
X114529911Y-80010000D01*
X114483860Y-80034615D01*
X114256887Y-80220887D01*
X114070615Y-80447860D01*
X113932202Y-80706812D01*
X113846968Y-80987791D01*
X113818188Y-81280000D01*
X113846968Y-81572209D01*
X113932202Y-81853188D01*
X114070615Y-82112140D01*
X114256887Y-82339113D01*
X114483860Y-82525385D01*
X114529911Y-82550000D01*
X114483860Y-82574615D01*
X114256887Y-82760887D01*
X114070615Y-82987860D01*
X113932202Y-83246812D01*
X113846968Y-83527791D01*
X113818188Y-83820000D01*
X113846968Y-84112209D01*
X113932202Y-84393188D01*
X114070615Y-84652140D01*
X114256887Y-84879113D01*
X114483860Y-85065385D01*
X114742812Y-85203798D01*
X115023791Y-85289032D01*
X115242775Y-85310600D01*
X115389225Y-85310600D01*
X115608209Y-85289032D01*
X115889188Y-85203798D01*
X116148140Y-85065385D01*
X116375113Y-84879113D01*
X116561385Y-84652140D01*
X116584183Y-84609489D01*
X116749146Y-84830293D01*
X116967512Y-85026817D01*
X117220022Y-85176964D01*
X117496973Y-85274963D01*
X117729000Y-85154464D01*
X117729000Y-83947000D01*
X117983000Y-83947000D01*
X117983000Y-85154464D01*
X118215027Y-85274963D01*
X118491978Y-85176964D01*
X118744488Y-85026817D01*
X118962854Y-84830293D01*
X119138684Y-84594944D01*
X119265222Y-84329814D01*
X119310958Y-84179026D01*
X119189817Y-83947000D01*
X117983000Y-83947000D01*
X117729000Y-83947000D01*
X117709000Y-83947000D01*
X117709000Y-83820000D01*
X125166096Y-83820000D01*
X125193648Y-84099741D01*
X125275245Y-84368731D01*
X125407752Y-84616634D01*
X125586077Y-84833923D01*
X125803366Y-85012248D01*
X126051269Y-85144755D01*
X126320259Y-85226352D01*
X126529902Y-85247000D01*
X127470098Y-85247000D01*
X127679741Y-85226352D01*
X127948731Y-85144755D01*
X128196634Y-85012248D01*
X128413923Y-84833923D01*
X128592248Y-84616634D01*
X128724755Y-84368731D01*
X128806352Y-84099741D01*
X128833904Y-83820000D01*
X128806352Y-83540259D01*
X128724755Y-83271269D01*
X128592248Y-83023366D01*
X128413923Y-82806077D01*
X128196634Y-82627752D01*
X128065396Y-82557604D01*
X128066483Y-82557166D01*
X128302839Y-82402601D01*
X128504500Y-82204895D01*
X128663715Y-81971646D01*
X128774367Y-81711818D01*
X128791904Y-81629039D01*
X128669915Y-81407000D01*
X127127000Y-81407000D01*
X127127000Y-81427000D01*
X126873000Y-81427000D01*
X126873000Y-81407000D01*
X125330085Y-81407000D01*
X125208096Y-81629039D01*
X125225633Y-81711818D01*
X125336285Y-81971646D01*
X125495500Y-82204895D01*
X125697161Y-82402601D01*
X125933517Y-82557166D01*
X125934604Y-82557604D01*
X125803366Y-82627752D01*
X125586077Y-82806077D01*
X125407752Y-83023366D01*
X125275245Y-83271269D01*
X125193648Y-83540259D01*
X125166096Y-83820000D01*
X117709000Y-83820000D01*
X117709000Y-83693000D01*
X117729000Y-83693000D01*
X117729000Y-81407000D01*
X117983000Y-81407000D01*
X117983000Y-83693000D01*
X119189817Y-83693000D01*
X119310958Y-83460974D01*
X119265222Y-83310186D01*
X119138684Y-83045056D01*
X118962854Y-82809707D01*
X118744488Y-82613183D01*
X118638230Y-82550000D01*
X118744488Y-82486817D01*
X118962854Y-82290293D01*
X119138684Y-82054944D01*
X119265222Y-81789814D01*
X119310958Y-81639026D01*
X119189817Y-81407000D01*
X117983000Y-81407000D01*
X117729000Y-81407000D01*
X117709000Y-81407000D01*
X117709000Y-81153000D01*
X117729000Y-81153000D01*
X117729000Y-78867000D01*
X117983000Y-78867000D01*
X117983000Y-81153000D01*
X119189817Y-81153000D01*
X119310958Y-80920974D01*
X119265222Y-80770186D01*
X119138684Y-80505056D01*
X118962854Y-80269707D01*
X118744488Y-80073183D01*
X118638230Y-80010000D01*
X118744488Y-79946817D01*
X118962854Y-79750293D01*
X119138684Y-79514944D01*
X119265222Y-79249814D01*
X119310958Y-79099026D01*
X119189817Y-78867000D01*
X117983000Y-78867000D01*
X117729000Y-78867000D01*
X117709000Y-78867000D01*
X117709000Y-78613000D01*
X117729000Y-78613000D01*
X117729000Y-78593000D01*
X117983000Y-78593000D01*
X117983000Y-78613000D01*
X119189817Y-78613000D01*
X119310958Y-78380974D01*
X119265222Y-78230186D01*
X119138684Y-77965056D01*
X119119965Y-77940000D01*
X125169967Y-77940000D01*
X125169967Y-79540000D01*
X125182073Y-79662913D01*
X125217925Y-79781103D01*
X125276147Y-79890028D01*
X125354499Y-79985501D01*
X125449972Y-80063853D01*
X125558897Y-80122075D01*
X125677087Y-80157927D01*
X125694839Y-80159675D01*
X125495500Y-80355105D01*
X125336285Y-80588354D01*
X125225633Y-80848182D01*
X125208096Y-80930961D01*
X125330085Y-81153000D01*
X126873000Y-81153000D01*
X126873000Y-81133000D01*
X127127000Y-81133000D01*
X127127000Y-81153000D01*
X128669915Y-81153000D01*
X128791904Y-80930961D01*
X128774367Y-80848182D01*
X128663715Y-80588354D01*
X128504500Y-80355105D01*
X128305161Y-80159675D01*
X128322913Y-80157927D01*
X128441103Y-80122075D01*
X128550028Y-80063853D01*
X128645501Y-79985501D01*
X128723853Y-79890028D01*
X128782075Y-79781103D01*
X128817927Y-79662913D01*
X128830033Y-79540000D01*
X128830033Y-79444624D01*
X128933766Y-79389177D01*
X129052080Y-79292080D01*
X129076412Y-79262431D01*
X130824437Y-77514407D01*
X130854080Y-77490080D01*
X130914755Y-77416147D01*
X130951177Y-77371767D01*
X131005055Y-77270968D01*
X131023327Y-77236784D01*
X131067757Y-77090319D01*
X131079000Y-76976166D01*
X131079000Y-76976164D01*
X131082759Y-76938000D01*
X131079000Y-76899837D01*
X131079000Y-74736794D01*
X131147913Y-74690748D01*
X131332748Y-74505913D01*
X131477972Y-74288570D01*
X131578004Y-74047072D01*
X131629000Y-73790698D01*
X131629000Y-73529302D01*
X131578004Y-73272928D01*
X131477972Y-73031430D01*
X131332748Y-72814087D01*
X131147913Y-72629252D01*
X130930570Y-72484028D01*
X130703567Y-72390000D01*
X130930570Y-72295972D01*
X131147913Y-72150748D01*
X131332748Y-71965913D01*
X131477972Y-71748570D01*
X131578004Y-71507072D01*
X131629000Y-71250698D01*
X131629000Y-70989302D01*
X131578004Y-70732928D01*
X131477972Y-70491430D01*
X131332748Y-70274087D01*
X131147913Y-70089252D01*
X130930570Y-69944028D01*
X130689072Y-69843996D01*
X130432698Y-69793000D01*
X130171302Y-69793000D01*
X130090013Y-69809169D01*
X129108000Y-68827157D01*
X129108000Y-67811374D01*
X129203913Y-67801927D01*
X129322103Y-67766075D01*
X129431028Y-67707853D01*
X129526501Y-67629501D01*
X129604853Y-67534028D01*
X129663075Y-67425103D01*
X129698927Y-67306913D01*
X129711033Y-67184000D01*
X129711033Y-65404000D01*
X129698927Y-65281087D01*
X129663075Y-65162897D01*
X129604853Y-65053972D01*
X129585430Y-65030305D01*
X129611537Y-64998494D01*
X129670502Y-64888180D01*
X129706812Y-64768482D01*
X129719072Y-64644000D01*
X129716000Y-64039750D01*
X129557250Y-63881000D01*
X128458000Y-63881000D01*
X128458000Y-63901000D01*
X128204000Y-63901000D01*
X128204000Y-63881000D01*
X127104750Y-63881000D01*
X126946000Y-64039750D01*
X126942928Y-64644000D01*
X126955188Y-64768482D01*
X126991498Y-64888180D01*
X127050463Y-64998494D01*
X127076570Y-65030305D01*
X127057147Y-65053972D01*
X126998925Y-65162897D01*
X126963073Y-65281087D01*
X126950967Y-65404000D01*
X126950967Y-67184000D01*
X126963073Y-67306913D01*
X126998925Y-67425103D01*
X127057147Y-67534028D01*
X127135499Y-67629501D01*
X127230972Y-67707853D01*
X127339897Y-67766075D01*
X127458087Y-67801927D01*
X127554001Y-67811374D01*
X127554001Y-69110827D01*
X127550241Y-69149000D01*
X127562854Y-69277053D01*
X127565244Y-69301319D01*
X127578721Y-69345748D01*
X127609673Y-69447783D01*
X127681823Y-69582766D01*
X127720095Y-69629400D01*
X127778921Y-69701080D01*
X127808565Y-69725408D01*
X128991169Y-70908013D01*
X128975000Y-70989302D01*
X128975000Y-71250698D01*
X129025996Y-71507072D01*
X129126028Y-71748570D01*
X129271252Y-71965913D01*
X129456087Y-72150748D01*
X129673430Y-72295972D01*
X129900433Y-72390000D01*
X129673430Y-72484028D01*
X129456087Y-72629252D01*
X129271252Y-72814087D01*
X129126028Y-73031430D01*
X129025996Y-73272928D01*
X128975000Y-73529302D01*
X128975000Y-73790698D01*
X129025996Y-74047072D01*
X129126028Y-74288570D01*
X129271252Y-74505913D01*
X129456087Y-74690748D01*
X129525001Y-74736795D01*
X129525000Y-76616156D01*
X128646022Y-77495134D01*
X128645501Y-77494499D01*
X128550028Y-77416147D01*
X128441103Y-77357925D01*
X128322913Y-77322073D01*
X128200000Y-77309967D01*
X125800000Y-77309967D01*
X125677087Y-77322073D01*
X125558897Y-77357925D01*
X125449972Y-77416147D01*
X125354499Y-77494499D01*
X125276147Y-77589972D01*
X125217925Y-77698897D01*
X125182073Y-77817087D01*
X125169967Y-77940000D01*
X119119965Y-77940000D01*
X118962854Y-77729707D01*
X118744488Y-77533183D01*
X118640057Y-77471086D01*
X118688140Y-77445385D01*
X118915113Y-77259113D01*
X119101385Y-77032140D01*
X119130858Y-76977000D01*
X123913837Y-76977000D01*
X123952000Y-76980759D01*
X123990163Y-76977000D01*
X123990166Y-76977000D01*
X124104319Y-76965757D01*
X124250784Y-76921327D01*
X124385766Y-76849177D01*
X124504080Y-76752080D01*
X124528412Y-76722431D01*
X125744436Y-75506408D01*
X125774080Y-75482080D01*
X125807173Y-75441756D01*
X125871177Y-75363767D01*
X125943327Y-75228784D01*
X125951443Y-75202029D01*
X125987757Y-75082319D01*
X125999000Y-74968166D01*
X125999000Y-74968157D01*
X126002758Y-74930001D01*
X125999000Y-74891845D01*
X125999000Y-62864000D01*
X126942928Y-62864000D01*
X126946000Y-63468250D01*
X127104750Y-63627000D01*
X128204000Y-63627000D01*
X128204000Y-62387750D01*
X128458000Y-62387750D01*
X128458000Y-63627000D01*
X129557250Y-63627000D01*
X129716000Y-63468250D01*
X129719072Y-62864000D01*
X129706812Y-62739518D01*
X129670502Y-62619820D01*
X129611537Y-62509506D01*
X129532185Y-62412815D01*
X129435494Y-62333463D01*
X129325180Y-62274498D01*
X129205482Y-62238188D01*
X129081000Y-62225928D01*
X128616750Y-62229000D01*
X128458000Y-62387750D01*
X128204000Y-62387750D01*
X128045250Y-62229000D01*
X127581000Y-62225928D01*
X127456518Y-62238188D01*
X127336820Y-62274498D01*
X127226506Y-62333463D01*
X127129815Y-62412815D01*
X127050463Y-62509506D01*
X126991498Y-62619820D01*
X126955188Y-62739518D01*
X126942928Y-62864000D01*
X125999000Y-62864000D01*
X125999000Y-60207000D01*
X129304967Y-60207000D01*
X129304967Y-61132000D01*
X129321877Y-61303686D01*
X129371956Y-61468774D01*
X129453279Y-61620920D01*
X129562723Y-61754277D01*
X129696080Y-61863721D01*
X129848226Y-61945044D01*
X130013314Y-61995123D01*
X130185000Y-62012033D01*
X131016190Y-62012033D01*
X135820592Y-66816436D01*
X135844920Y-66846080D01*
X135874564Y-66870408D01*
X135874565Y-66870409D01*
X135963233Y-66943177D01*
X135986810Y-66955779D01*
X136098216Y-67015327D01*
X136244681Y-67059757D01*
X136358834Y-67071000D01*
X136358843Y-67071000D01*
X136396999Y-67074758D01*
X136435155Y-67071000D01*
X136480967Y-67071000D01*
X136480967Y-67184000D01*
X136493073Y-67306913D01*
X136528925Y-67425103D01*
X136587147Y-67534028D01*
X136665499Y-67629501D01*
X136760972Y-67707853D01*
X136869897Y-67766075D01*
X136988087Y-67801927D01*
X137111000Y-67814033D01*
X138611000Y-67814033D01*
X138733913Y-67801927D01*
X138852103Y-67766075D01*
X138961028Y-67707853D01*
X139056501Y-67629501D01*
X139134853Y-67534028D01*
X139193075Y-67425103D01*
X139228927Y-67306913D01*
X139241033Y-67184000D01*
X139241033Y-65404000D01*
X139228927Y-65281087D01*
X139193075Y-65162897D01*
X139134853Y-65053972D01*
X139110256Y-65024000D01*
X139134853Y-64994028D01*
X139193075Y-64885103D01*
X139228927Y-64766913D01*
X139241033Y-64644000D01*
X139241033Y-62864000D01*
X139228927Y-62741087D01*
X139193075Y-62622897D01*
X139134853Y-62513972D01*
X139056501Y-62418499D01*
X138961028Y-62340147D01*
X138852103Y-62281925D01*
X138733913Y-62246073D01*
X138611000Y-62233967D01*
X137111000Y-62233967D01*
X136988087Y-62246073D01*
X136869897Y-62281925D01*
X136760972Y-62340147D01*
X136665499Y-62418499D01*
X136624410Y-62468567D01*
X136587000Y-62431157D01*
X136587000Y-54595926D01*
X136722777Y-54539685D01*
X137038391Y-54328799D01*
X137306799Y-54060391D01*
X137517685Y-53744777D01*
X137662947Y-53394085D01*
X137737000Y-53021793D01*
X137737000Y-52642207D01*
X137662947Y-52269915D01*
X137517685Y-51919223D01*
X137306799Y-51603609D01*
X137038391Y-51335201D01*
X136722777Y-51124315D01*
X136372085Y-50979053D01*
X135999793Y-50905000D01*
X135620207Y-50905000D01*
X135247915Y-50979053D01*
X134897223Y-51124315D01*
X134581609Y-51335201D01*
X134313201Y-51603609D01*
X134102315Y-51919223D01*
X133957053Y-52269915D01*
X133883000Y-52642207D01*
X133883000Y-53021793D01*
X133957053Y-53394085D01*
X134102315Y-53744777D01*
X134313201Y-54060391D01*
X134581609Y-54328799D01*
X134897223Y-54539685D01*
X135033000Y-54595926D01*
X135033001Y-62714827D01*
X135029241Y-62753000D01*
X135044244Y-62905318D01*
X135088673Y-63051783D01*
X135160823Y-63186766D01*
X135173260Y-63201920D01*
X135257921Y-63305080D01*
X135287565Y-63329408D01*
X136234592Y-64276436D01*
X136258920Y-64306080D01*
X136288564Y-64330408D01*
X136288565Y-64330409D01*
X136377233Y-64403177D01*
X136406537Y-64418840D01*
X136480967Y-64458624D01*
X136480967Y-64644000D01*
X136493073Y-64766913D01*
X136528925Y-64885103D01*
X136587147Y-64994028D01*
X136611744Y-65024000D01*
X136587147Y-65053972D01*
X136528925Y-65162897D01*
X136493073Y-65281087D01*
X136492164Y-65290320D01*
X132315033Y-61113190D01*
X132315033Y-60207000D01*
X132298123Y-60035314D01*
X132248044Y-59870226D01*
X132166721Y-59718080D01*
X132057277Y-59584723D01*
X131923920Y-59475279D01*
X131771774Y-59393956D01*
X131606686Y-59343877D01*
X131435000Y-59326967D01*
X130185000Y-59326967D01*
X130013314Y-59343877D01*
X129848226Y-59393956D01*
X129696080Y-59475279D01*
X129562723Y-59584723D01*
X129453279Y-59718080D01*
X129371956Y-59870226D01*
X129321877Y-60035314D01*
X129304967Y-60207000D01*
X125999000Y-60207000D01*
X125999000Y-53877504D01*
X126087685Y-53744777D01*
X126232947Y-53394085D01*
X126307000Y-53021793D01*
X126307000Y-52642207D01*
X126232947Y-52269915D01*
X126087685Y-51919223D01*
X125876799Y-51603609D01*
X125805190Y-51532000D01*
X128879967Y-51532000D01*
X128879967Y-54132000D01*
X128892073Y-54254913D01*
X128927925Y-54373103D01*
X128986147Y-54482028D01*
X129064499Y-54577501D01*
X129159972Y-54655853D01*
X129268897Y-54714075D01*
X129387087Y-54749927D01*
X129510000Y-54762033D01*
X130033000Y-54762033D01*
X130033001Y-56366938D01*
X130013314Y-56368877D01*
X129848226Y-56418956D01*
X129696080Y-56500279D01*
X129562723Y-56609723D01*
X129453279Y-56743080D01*
X129371956Y-56895226D01*
X129321877Y-57060314D01*
X129304967Y-57232000D01*
X129304967Y-58157000D01*
X129321877Y-58328686D01*
X129371956Y-58493774D01*
X129453279Y-58645920D01*
X129562723Y-58779277D01*
X129696080Y-58888721D01*
X129848226Y-58970044D01*
X130013314Y-59020123D01*
X130185000Y-59037033D01*
X131435000Y-59037033D01*
X131606686Y-59020123D01*
X131771774Y-58970044D01*
X131923920Y-58888721D01*
X132057277Y-58779277D01*
X132166721Y-58645920D01*
X132248044Y-58493774D01*
X132298123Y-58328686D01*
X132315033Y-58157000D01*
X132315033Y-57232000D01*
X132298123Y-57060314D01*
X132248044Y-56895226D01*
X132166721Y-56743080D01*
X132057277Y-56609723D01*
X131923920Y-56500279D01*
X131771774Y-56418956D01*
X131606686Y-56368877D01*
X131587000Y-56366938D01*
X131587000Y-54762033D01*
X132110000Y-54762033D01*
X132232913Y-54749927D01*
X132351103Y-54714075D01*
X132460028Y-54655853D01*
X132555501Y-54577501D01*
X132633853Y-54482028D01*
X132692075Y-54373103D01*
X132727927Y-54254913D01*
X132740033Y-54132000D01*
X132740033Y-51532000D01*
X132727927Y-51409087D01*
X132692075Y-51290897D01*
X132633853Y-51181972D01*
X132555501Y-51086499D01*
X132460028Y-51008147D01*
X132351103Y-50949925D01*
X132232913Y-50914073D01*
X132110000Y-50901967D01*
X129510000Y-50901967D01*
X129387087Y-50914073D01*
X129268897Y-50949925D01*
X129159972Y-51008147D01*
X129064499Y-51086499D01*
X128986147Y-51181972D01*
X128927925Y-51290897D01*
X128892073Y-51409087D01*
X128879967Y-51532000D01*
X125805190Y-51532000D01*
X125608391Y-51335201D01*
X125292777Y-51124315D01*
X124942085Y-50979053D01*
X124569793Y-50905000D01*
X124190207Y-50905000D01*
X123817915Y-50979053D01*
X123467223Y-51124315D01*
X123151609Y-51335201D01*
X122883201Y-51603609D01*
X122672315Y-51919223D01*
X122527053Y-52269915D01*
X122453000Y-52642207D01*
X122453000Y-53021793D01*
X122527053Y-53394085D01*
X122672315Y-53744777D01*
X122883201Y-54060391D01*
X123151609Y-54328799D01*
X123467223Y-54539685D01*
X123817915Y-54684947D01*
X124190207Y-54759000D01*
X124445000Y-54759000D01*
X124445001Y-74608155D01*
X123630157Y-75423000D01*
X119130858Y-75423000D01*
X119101385Y-75367860D01*
X118915113Y-75140887D01*
X118688140Y-74954615D01*
X118642089Y-74930000D01*
X118688140Y-74905385D01*
X118915113Y-74719113D01*
X119101385Y-74492140D01*
X119130858Y-74437000D01*
X121605206Y-74437000D01*
X121651252Y-74505913D01*
X121836087Y-74690748D01*
X122053430Y-74835972D01*
X122294928Y-74936004D01*
X122551302Y-74987000D01*
X122812698Y-74987000D01*
X123069072Y-74936004D01*
X123310570Y-74835972D01*
X123527913Y-74690748D01*
X123712748Y-74505913D01*
X123857972Y-74288570D01*
X123958004Y-74047072D01*
X124009000Y-73790698D01*
X124009000Y-73529302D01*
X123958004Y-73272928D01*
X123857972Y-73031430D01*
X123712748Y-72814087D01*
X123527913Y-72629252D01*
X123310570Y-72484028D01*
X123083567Y-72390000D01*
X123310570Y-72295972D01*
X123527913Y-72150748D01*
X123712748Y-71965913D01*
X123857972Y-71748570D01*
X123958004Y-71507072D01*
X124009000Y-71250698D01*
X124009000Y-70989302D01*
X123958004Y-70732928D01*
X123857972Y-70491430D01*
X123712748Y-70274087D01*
X123527913Y-70089252D01*
X123310570Y-69944028D01*
X123069072Y-69843996D01*
X122812698Y-69793000D01*
X122551302Y-69793000D01*
X122294928Y-69843996D01*
X122053430Y-69944028D01*
X121836087Y-70089252D01*
X121651252Y-70274087D01*
X121605206Y-70343000D01*
X119130858Y-70343000D01*
X119101385Y-70287860D01*
X118915113Y-70060887D01*
X118688140Y-69874615D01*
X118642089Y-69850000D01*
X118688140Y-69825385D01*
X118915113Y-69639113D01*
X119101385Y-69412140D01*
X119239798Y-69153188D01*
X119325032Y-68872209D01*
X119353812Y-68580000D01*
X119325032Y-68287791D01*
X119239798Y-68006812D01*
X119101385Y-67747860D01*
X118915113Y-67520887D01*
X118688140Y-67334615D01*
X118633000Y-67305142D01*
X118633000Y-62685344D01*
X118742774Y-62652044D01*
X118894920Y-62570721D01*
X119028277Y-62461277D01*
X119137721Y-62327920D01*
X119219044Y-62175774D01*
X119269123Y-62010686D01*
X119286033Y-61839000D01*
X119286033Y-60970311D01*
X119902436Y-60353908D01*
X119932080Y-60329580D01*
X119978322Y-60273234D01*
X120029177Y-60211267D01*
X120072299Y-60130591D01*
X120101327Y-60076284D01*
X120145757Y-59929819D01*
X120157000Y-59815666D01*
X120157000Y-59815664D01*
X120160759Y-59777500D01*
X120157000Y-59739337D01*
X120157000Y-54762033D01*
X120680000Y-54762033D01*
X120802913Y-54749927D01*
X120921103Y-54714075D01*
X121030028Y-54655853D01*
X121125501Y-54577501D01*
X121203853Y-54482028D01*
X121262075Y-54373103D01*
X121297927Y-54254913D01*
X121310033Y-54132000D01*
X121310033Y-51532000D01*
X121297927Y-51409087D01*
X121262075Y-51290897D01*
X121203853Y-51181972D01*
X121125501Y-51086499D01*
X121030028Y-51008147D01*
X120921103Y-50949925D01*
X120802913Y-50914073D01*
X120680000Y-50901967D01*
X118080000Y-50901967D01*
X117957087Y-50914073D01*
X117838897Y-50949925D01*
X117729972Y-51008147D01*
X117634499Y-51086499D01*
X117556147Y-51181972D01*
X117497925Y-51290897D01*
X117462073Y-51409087D01*
X117449967Y-51532000D01*
X117449967Y-54132000D01*
X117462073Y-54254913D01*
X117497925Y-54373103D01*
X117556147Y-54482028D01*
X117634499Y-54577501D01*
X117729972Y-54655853D01*
X117838897Y-54714075D01*
X117957087Y-54749927D01*
X118080000Y-54762033D01*
X118603000Y-54762033D01*
X118603001Y-59455655D01*
X118349689Y-59708967D01*
X117481000Y-59708967D01*
X117309314Y-59725877D01*
X117144226Y-59775956D01*
X116992080Y-59857279D01*
X116858723Y-59966723D01*
X116749279Y-60100080D01*
X116667956Y-60252226D01*
X116617877Y-60417314D01*
X116600967Y-60589000D01*
X116600967Y-61839000D01*
X116617877Y-62010686D01*
X116667956Y-62175774D01*
X116749279Y-62327920D01*
X116858723Y-62461277D01*
X116992080Y-62570721D01*
X117079001Y-62617181D01*
X117079000Y-67305142D01*
X117023860Y-67334615D01*
X116796887Y-67520887D01*
X116781275Y-67539910D01*
X116761675Y-67475297D01*
X116703453Y-67366372D01*
X116625101Y-67270899D01*
X116529628Y-67192547D01*
X116420703Y-67134325D01*
X116302513Y-67098473D01*
X116179600Y-67086367D01*
X114452400Y-67086367D01*
X114329487Y-67098473D01*
X114211297Y-67134325D01*
X114102372Y-67192547D01*
X114006899Y-67270899D01*
X113928547Y-67366372D01*
X113870325Y-67475297D01*
X113834473Y-67593487D01*
X113822367Y-67716400D01*
X113822367Y-69443600D01*
X113834473Y-69566513D01*
X113870325Y-69684703D01*
X113928547Y-69793628D01*
X114006899Y-69889101D01*
X114102372Y-69967453D01*
X114211297Y-70025675D01*
X114275910Y-70045275D01*
X114256887Y-70060887D01*
X114070615Y-70287860D01*
X113932202Y-70546812D01*
X113846968Y-70827791D01*
X113818188Y-71120000D01*
X111650000Y-71120000D01*
X111650000Y-62089000D01*
X113617928Y-62089000D01*
X113630188Y-62213482D01*
X113666498Y-62333180D01*
X113725463Y-62443494D01*
X113804815Y-62540185D01*
X113901506Y-62619537D01*
X114011820Y-62678502D01*
X114131518Y-62714812D01*
X114256000Y-62727072D01*
X114682750Y-62724000D01*
X114841500Y-62565250D01*
X114841500Y-61341000D01*
X115095500Y-61341000D01*
X115095500Y-62565250D01*
X115254250Y-62724000D01*
X115681000Y-62727072D01*
X115805482Y-62714812D01*
X115925180Y-62678502D01*
X116035494Y-62619537D01*
X116132185Y-62540185D01*
X116211537Y-62443494D01*
X116270502Y-62333180D01*
X116306812Y-62213482D01*
X116319072Y-62089000D01*
X116316000Y-61499750D01*
X116157250Y-61341000D01*
X115095500Y-61341000D01*
X114841500Y-61341000D01*
X113779750Y-61341000D01*
X113621000Y-61499750D01*
X113617928Y-62089000D01*
X111650000Y-62089000D01*
X111650000Y-60339000D01*
X113617928Y-60339000D01*
X113621000Y-60928250D01*
X113779750Y-61087000D01*
X114841500Y-61087000D01*
X114841500Y-59862750D01*
X115095500Y-59862750D01*
X115095500Y-61087000D01*
X116157250Y-61087000D01*
X116316000Y-60928250D01*
X116319072Y-60339000D01*
X116306812Y-60214518D01*
X116270502Y-60094820D01*
X116211537Y-59984506D01*
X116132185Y-59887815D01*
X116035494Y-59808463D01*
X115925180Y-59749498D01*
X115805482Y-59713188D01*
X115681000Y-59700928D01*
X115254250Y-59704000D01*
X115095500Y-59862750D01*
X114841500Y-59862750D01*
X114682750Y-59704000D01*
X114256000Y-59700928D01*
X114131518Y-59713188D01*
X114011820Y-59749498D01*
X113901506Y-59808463D01*
X113804815Y-59887815D01*
X113725463Y-59984506D01*
X113666498Y-60094820D01*
X113630188Y-60214518D01*
X113617928Y-60339000D01*
X111650000Y-60339000D01*
X111650000Y-49466560D01*
X111799639Y-49616199D01*
X112246281Y-49914636D01*
X112742563Y-50120203D01*
X113269414Y-50225000D01*
X113806586Y-50225000D01*
X114333437Y-50120203D01*
X114829719Y-49914636D01*
X115276361Y-49616199D01*
X115656199Y-49236361D01*
X115954636Y-48789719D01*
X116160203Y-48293437D01*
X116265000Y-47766586D01*
X116265000Y-47229414D01*
X116160203Y-46702563D01*
X115954636Y-46206281D01*
X115656199Y-45759639D01*
X115506560Y-45610000D01*
X139573000Y-45610000D01*
X139573000Y-64516000D01*
G36*
X157139801Y-45759639D02*
G01*
X156841364Y-46206281D01*
X156635797Y-46702563D01*
X156531000Y-47229414D01*
X156531000Y-47766586D01*
X156635797Y-48293437D01*
X156841364Y-48789719D01*
X157139801Y-49236361D01*
X157519639Y-49616199D01*
X157966281Y-49914636D01*
X158462563Y-50120203D01*
X158989414Y-50225000D01*
X159526586Y-50225000D01*
X160053437Y-50120203D01*
X160549719Y-49914636D01*
X160996361Y-49616199D01*
X161163000Y-49449560D01*
X161163000Y-65913000D01*
X158033980Y-65913000D01*
X156591000Y-64710517D01*
X156591000Y-58420000D01*
X156588560Y-58395224D01*
X156581333Y-58371399D01*
X156569597Y-58349443D01*
X156553803Y-58330197D01*
X155029803Y-56806197D01*
X155010557Y-56790403D01*
X154988601Y-56778667D01*
X154964776Y-56771440D01*
X154940000Y-56769000D01*
X146558000Y-56769000D01*
X146533224Y-56771440D01*
X146509399Y-56778667D01*
X146487443Y-56790403D01*
X146468197Y-56806197D01*
X144944197Y-58330197D01*
X144928403Y-58349443D01*
X144916667Y-58371399D01*
X144909440Y-58395224D01*
X144907000Y-58420000D01*
X144907000Y-64582979D01*
X142805013Y-64641367D01*
X141351000Y-62945019D01*
X141351000Y-49126000D01*
X149042951Y-49126000D01*
X149083053Y-49533163D01*
X149201818Y-49924679D01*
X149394682Y-50285502D01*
X149654233Y-50601767D01*
X149970498Y-50861318D01*
X150331321Y-51054182D01*
X150722837Y-51172947D01*
X151027971Y-51203000D01*
X151232029Y-51203000D01*
X151537163Y-51172947D01*
X151928679Y-51054182D01*
X152289502Y-50861318D01*
X152605767Y-50601767D01*
X152865318Y-50285502D01*
X153058182Y-49924679D01*
X153176947Y-49533163D01*
X153217049Y-49126000D01*
X153176947Y-48718837D01*
X153058182Y-48327321D01*
X152865318Y-47966498D01*
X152605767Y-47650233D01*
X152289502Y-47390682D01*
X151928679Y-47197818D01*
X151537163Y-47079053D01*
X151232029Y-47049000D01*
X151027971Y-47049000D01*
X150722837Y-47079053D01*
X150331321Y-47197818D01*
X149970498Y-47390682D01*
X149654233Y-47650233D01*
X149394682Y-47966498D01*
X149201818Y-48327321D01*
X149083053Y-48718837D01*
X149042951Y-49126000D01*
X141351000Y-49126000D01*
X141351000Y-45593000D01*
X157306440Y-45593000D01*
X157139801Y-45759639D01*
X157139801Y-45759639D01*
G37*
X157139801Y-45759639D02*
X156841364Y-46206281D01*
X156635797Y-46702563D01*
X156531000Y-47229414D01*
X156531000Y-47766586D01*
X156635797Y-48293437D01*
X156841364Y-48789719D01*
X157139801Y-49236361D01*
X157519639Y-49616199D01*
X157966281Y-49914636D01*
X158462563Y-50120203D01*
X158989414Y-50225000D01*
X159526586Y-50225000D01*
X160053437Y-50120203D01*
X160549719Y-49914636D01*
X160996361Y-49616199D01*
X161163000Y-49449560D01*
X161163000Y-65913000D01*
X158033980Y-65913000D01*
X156591000Y-64710517D01*
X156591000Y-58420000D01*
X156588560Y-58395224D01*
X156581333Y-58371399D01*
X156569597Y-58349443D01*
X156553803Y-58330197D01*
X155029803Y-56806197D01*
X155010557Y-56790403D01*
X154988601Y-56778667D01*
X154964776Y-56771440D01*
X154940000Y-56769000D01*
X146558000Y-56769000D01*
X146533224Y-56771440D01*
X146509399Y-56778667D01*
X146487443Y-56790403D01*
X146468197Y-56806197D01*
X144944197Y-58330197D01*
X144928403Y-58349443D01*
X144916667Y-58371399D01*
X144909440Y-58395224D01*
X144907000Y-58420000D01*
X144907000Y-64582979D01*
X142805013Y-64641367D01*
X141351000Y-62945019D01*
X141351000Y-49126000D01*
X149042951Y-49126000D01*
X149083053Y-49533163D01*
X149201818Y-49924679D01*
X149394682Y-50285502D01*
X149654233Y-50601767D01*
X149970498Y-50861318D01*
X150331321Y-51054182D01*
X150722837Y-51172947D01*
X151027971Y-51203000D01*
X151232029Y-51203000D01*
X151537163Y-51172947D01*
X151928679Y-51054182D01*
X152289502Y-50861318D01*
X152605767Y-50601767D01*
X152865318Y-50285502D01*
X153058182Y-49924679D01*
X153176947Y-49533163D01*
X153217049Y-49126000D01*
X153176947Y-48718837D01*
X153058182Y-48327321D01*
X152865318Y-47966498D01*
X152605767Y-47650233D01*
X152289502Y-47390682D01*
X151928679Y-47197818D01*
X151537163Y-47079053D01*
X151232029Y-47049000D01*
X151027971Y-47049000D01*
X150722837Y-47079053D01*
X150331321Y-47197818D01*
X149970498Y-47390682D01*
X149654233Y-47650233D01*
X149394682Y-47966498D01*
X149201818Y-48327321D01*
X149083053Y-48718837D01*
X149042951Y-49126000D01*
X141351000Y-49126000D01*
X141351000Y-45593000D01*
X157306440Y-45593000D01*
X157139801Y-45759639D01*
M02*
