M48
; DRILL file {KiCad (5.1.2)-2} date 11.08.2019 20:23:38
; FORMAT={-:-/ absolute / metric / decimal}
; #@! TF.CreationDate,2019-08-11T20:23:38+03:00
; #@! TF.GenerationSoftware,Kicad,Pcbnew,(5.1.2)-2
FMAT,2
METRIC
T1C0.800
T2C1.016
T3C1.100
T4C1.300
T5C2.200
T6C3.500
%
G90
G05
T1
X122.682Y-71.12
X130.302Y-71.12
X127.0Y-78.74
X127.0Y-81.28
X127.0Y-83.82
X137.16Y-78.74
X137.16Y-81.28
X137.16Y-83.82
X122.682Y-73.66
X130.302Y-73.66
T2
X115.316Y-68.58
X115.316Y-71.12
X115.316Y-73.66
X115.316Y-76.2
X115.316Y-78.74
X115.316Y-81.28
X115.316Y-83.82
X117.856Y-68.58
X117.856Y-71.12
X117.856Y-73.66
X117.856Y-76.2
X117.856Y-78.74
X117.856Y-81.28
X117.856Y-83.82
T3
X148.59Y-65.786
X151.13Y-65.786
X153.67Y-65.786
T4
X153.67Y-82.296
X153.67Y-87.296
X119.38Y-52.832
X124.38Y-52.832
X153.67Y-70.866
X153.67Y-75.866
X130.81Y-52.832
X135.81Y-52.832
T5
X159.258Y-93.218
X113.538Y-93.218
X159.258Y-47.498
X113.538Y-47.498
T6
X151.13Y-49.126
T0
M30
