M48
METRIC
T1C0.800
T2C1.016
T3C1.100
T4C2.200
T5C3.500
%
G90
G05
T1
X9.525Y15.24
X9.525Y5.08
X12.065Y15.24
X12.065Y5.08
X14.605Y15.24
X14.605Y5.08
T2
X1.524Y23.876
X1.524Y21.336
X1.524Y18.796
X1.524Y16.256
X1.524Y13.716
X1.524Y11.176
X1.524Y8.636
X4.064Y23.876
X4.064Y21.336
X4.064Y18.796
X4.064Y16.256
X4.064Y13.716
X4.064Y11.176
X4.064Y8.636
T3
X2.286Y38.1
X2.286Y33.1
X10.24Y43.688
X15.24Y43.688
X25.527Y44.45
X25.527Y39.45
X25.527Y7.112
X25.527Y2.112
X22.987Y31.877
X25.527Y31.877
X28.067Y31.877
T4
X0.0Y0.0
X0.0Y45.72
T5
X25.527Y15.217
T0
M30
