G04 #@! TF.GenerationSoftware,KiCad,Pcbnew,5.1.4*
G04 #@! TF.CreationDate,2019-08-17T15:24:35+03:00*
G04 #@! TF.ProjectId,Clever_Light,436c6576-6572-45f4-9c69-6768742e6b69,rev?*
G04 #@! TF.SameCoordinates,PX6c473d0PY58e64d0*
G04 #@! TF.FileFunction,Copper,L2,Bot*
G04 #@! TF.FilePolarity,Positive*
%FSLAX46Y46*%
G04 Gerber Fmt 4.6, Leading zero omitted, Abs format (unit mm)*
G04 Created by KiCad (PCBNEW 5.1.4) date 2019-08-17 15:24:35*
%MOMM*%
%LPD*%
G04 APERTURE LIST*
%ADD10C,0.100000*%
%ADD11C,1.525000*%
%ADD12O,1.600000X2.400000*%
%ADD13R,1.600000X2.400000*%
%ADD14R,1.780000X1.500000*%
%ADD15O,1.727200X1.727200*%
%ADD16R,1.727200X1.727200*%
%ADD17R,1.905000X2.000000*%
%ADD18O,1.905000X2.000000*%
%ADD19R,2.500000X2.500000*%
%ADD20C,2.500000*%
%ADD21R,1.250000X1.750000*%
%ADD22C,0.350000*%
%ADD23C,2.000000*%
G04 APERTURE END LIST*
D10*
G36*
X16599505Y37233796D02*
G01*
X16623773Y37230196D01*
X16647572Y37224235D01*
X16670671Y37215970D01*
X16692850Y37205480D01*
X16713893Y37192868D01*
X16733599Y37178253D01*
X16751777Y37161777D01*
X16768253Y37143599D01*
X16782868Y37123893D01*
X16795480Y37102850D01*
X16805970Y37080671D01*
X16814235Y37057572D01*
X16820196Y37033773D01*
X16823796Y37009505D01*
X16825000Y36985001D01*
X16825000Y34134999D01*
X16823796Y34110495D01*
X16820196Y34086227D01*
X16814235Y34062428D01*
X16805970Y34039329D01*
X16795480Y34017150D01*
X16782868Y33996107D01*
X16768253Y33976401D01*
X16751777Y33958223D01*
X16733599Y33941747D01*
X16713893Y33927132D01*
X16692850Y33914520D01*
X16670671Y33904030D01*
X16647572Y33895765D01*
X16623773Y33889804D01*
X16599505Y33886204D01*
X16575001Y33885000D01*
X15549999Y33885000D01*
X15525495Y33886204D01*
X15501227Y33889804D01*
X15477428Y33895765D01*
X15454329Y33904030D01*
X15432150Y33914520D01*
X15411107Y33927132D01*
X15391401Y33941747D01*
X15373223Y33958223D01*
X15356747Y33976401D01*
X15342132Y33996107D01*
X15329520Y34017150D01*
X15319030Y34039329D01*
X15310765Y34062428D01*
X15304804Y34086227D01*
X15301204Y34110495D01*
X15300000Y34134999D01*
X15300000Y36985001D01*
X15301204Y37009505D01*
X15304804Y37033773D01*
X15310765Y37057572D01*
X15319030Y37080671D01*
X15329520Y37102850D01*
X15342132Y37123893D01*
X15356747Y37143599D01*
X15373223Y37161777D01*
X15391401Y37178253D01*
X15411107Y37192868D01*
X15432150Y37205480D01*
X15454329Y37215970D01*
X15477428Y37224235D01*
X15501227Y37230196D01*
X15525495Y37233796D01*
X15549999Y37235000D01*
X16575001Y37235000D01*
X16599505Y37233796D01*
X16599505Y37233796D01*
G37*
D11*
X16062500Y35560000D03*
D10*
G36*
X22574505Y37233796D02*
G01*
X22598773Y37230196D01*
X22622572Y37224235D01*
X22645671Y37215970D01*
X22667850Y37205480D01*
X22688893Y37192868D01*
X22708599Y37178253D01*
X22726777Y37161777D01*
X22743253Y37143599D01*
X22757868Y37123893D01*
X22770480Y37102850D01*
X22780970Y37080671D01*
X22789235Y37057572D01*
X22795196Y37033773D01*
X22798796Y37009505D01*
X22800000Y36985001D01*
X22800000Y34134999D01*
X22798796Y34110495D01*
X22795196Y34086227D01*
X22789235Y34062428D01*
X22780970Y34039329D01*
X22770480Y34017150D01*
X22757868Y33996107D01*
X22743253Y33976401D01*
X22726777Y33958223D01*
X22708599Y33941747D01*
X22688893Y33927132D01*
X22667850Y33914520D01*
X22645671Y33904030D01*
X22622572Y33895765D01*
X22598773Y33889804D01*
X22574505Y33886204D01*
X22550001Y33885000D01*
X21524999Y33885000D01*
X21500495Y33886204D01*
X21476227Y33889804D01*
X21452428Y33895765D01*
X21429329Y33904030D01*
X21407150Y33914520D01*
X21386107Y33927132D01*
X21366401Y33941747D01*
X21348223Y33958223D01*
X21331747Y33976401D01*
X21317132Y33996107D01*
X21304520Y34017150D01*
X21294030Y34039329D01*
X21285765Y34062428D01*
X21279804Y34086227D01*
X21276204Y34110495D01*
X21275000Y34134999D01*
X21275000Y36985001D01*
X21276204Y37009505D01*
X21279804Y37033773D01*
X21285765Y37057572D01*
X21294030Y37080671D01*
X21304520Y37102850D01*
X21317132Y37123893D01*
X21331747Y37143599D01*
X21348223Y37161777D01*
X21366401Y37178253D01*
X21386107Y37192868D01*
X21407150Y37205480D01*
X21429329Y37215970D01*
X21452428Y37224235D01*
X21476227Y37230196D01*
X21500495Y37233796D01*
X21524999Y37235000D01*
X22550001Y37235000D01*
X22574505Y37233796D01*
X22574505Y37233796D01*
G37*
D11*
X22037500Y35560000D03*
D10*
G36*
X16091505Y2816796D02*
G01*
X16115773Y2813196D01*
X16139572Y2807235D01*
X16162671Y2798970D01*
X16184850Y2788480D01*
X16205893Y2775868D01*
X16225599Y2761253D01*
X16243777Y2744777D01*
X16260253Y2726599D01*
X16274868Y2706893D01*
X16287480Y2685850D01*
X16297970Y2663671D01*
X16306235Y2640572D01*
X16312196Y2616773D01*
X16315796Y2592505D01*
X16317000Y2568001D01*
X16317000Y-282001D01*
X16315796Y-306505D01*
X16312196Y-330773D01*
X16306235Y-354572D01*
X16297970Y-377671D01*
X16287480Y-399850D01*
X16274868Y-420893D01*
X16260253Y-440599D01*
X16243777Y-458777D01*
X16225599Y-475253D01*
X16205893Y-489868D01*
X16184850Y-502480D01*
X16162671Y-512970D01*
X16139572Y-521235D01*
X16115773Y-527196D01*
X16091505Y-530796D01*
X16067001Y-532000D01*
X15041999Y-532000D01*
X15017495Y-530796D01*
X14993227Y-527196D01*
X14969428Y-521235D01*
X14946329Y-512970D01*
X14924150Y-502480D01*
X14903107Y-489868D01*
X14883401Y-475253D01*
X14865223Y-458777D01*
X14848747Y-440599D01*
X14834132Y-420893D01*
X14821520Y-399850D01*
X14811030Y-377671D01*
X14802765Y-354572D01*
X14796804Y-330773D01*
X14793204Y-306505D01*
X14792000Y-282001D01*
X14792000Y2568001D01*
X14793204Y2592505D01*
X14796804Y2616773D01*
X14802765Y2640572D01*
X14811030Y2663671D01*
X14821520Y2685850D01*
X14834132Y2706893D01*
X14848747Y2726599D01*
X14865223Y2744777D01*
X14883401Y2761253D01*
X14903107Y2775868D01*
X14924150Y2788480D01*
X14946329Y2798970D01*
X14969428Y2807235D01*
X14993227Y2813196D01*
X15017495Y2816796D01*
X15041999Y2818000D01*
X16067001Y2818000D01*
X16091505Y2816796D01*
X16091505Y2816796D01*
G37*
D11*
X15554500Y1143000D03*
D10*
G36*
X22066505Y2816796D02*
G01*
X22090773Y2813196D01*
X22114572Y2807235D01*
X22137671Y2798970D01*
X22159850Y2788480D01*
X22180893Y2775868D01*
X22200599Y2761253D01*
X22218777Y2744777D01*
X22235253Y2726599D01*
X22249868Y2706893D01*
X22262480Y2685850D01*
X22272970Y2663671D01*
X22281235Y2640572D01*
X22287196Y2616773D01*
X22290796Y2592505D01*
X22292000Y2568001D01*
X22292000Y-282001D01*
X22290796Y-306505D01*
X22287196Y-330773D01*
X22281235Y-354572D01*
X22272970Y-377671D01*
X22262480Y-399850D01*
X22249868Y-420893D01*
X22235253Y-440599D01*
X22218777Y-458777D01*
X22200599Y-475253D01*
X22180893Y-489868D01*
X22159850Y-502480D01*
X22137671Y-512970D01*
X22114572Y-521235D01*
X22090773Y-527196D01*
X22066505Y-530796D01*
X22042001Y-532000D01*
X21016999Y-532000D01*
X20992495Y-530796D01*
X20968227Y-527196D01*
X20944428Y-521235D01*
X20921329Y-512970D01*
X20899150Y-502480D01*
X20878107Y-489868D01*
X20858401Y-475253D01*
X20840223Y-458777D01*
X20823747Y-440599D01*
X20809132Y-420893D01*
X20796520Y-399850D01*
X20786030Y-377671D01*
X20777765Y-354572D01*
X20771804Y-330773D01*
X20768204Y-306505D01*
X20767000Y-282001D01*
X20767000Y2568001D01*
X20768204Y2592505D01*
X20771804Y2616773D01*
X20777765Y2640572D01*
X20786030Y2663671D01*
X20796520Y2685850D01*
X20809132Y2706893D01*
X20823747Y2726599D01*
X20840223Y2744777D01*
X20858401Y2761253D01*
X20878107Y2775868D01*
X20899150Y2788480D01*
X20921329Y2798970D01*
X20944428Y2807235D01*
X20968227Y2813196D01*
X20992495Y2816796D01*
X21016999Y2818000D01*
X22042001Y2818000D01*
X22066505Y2816796D01*
X22066505Y2816796D01*
G37*
D11*
X21529500Y1143000D03*
D12*
X14605000Y5080000D03*
X9525000Y15240000D03*
X12065000Y5080000D03*
X12065000Y15240000D03*
X9525000Y5080000D03*
D13*
X14605000Y15240000D03*
D14*
X10414000Y39817000D03*
X7874000Y30287000D03*
X7874000Y39817000D03*
X10414000Y30287000D03*
D15*
X4064000Y8636000D03*
X1524000Y8636000D03*
X4064000Y11176000D03*
X1524000Y11176000D03*
X4064000Y13716000D03*
X1524000Y13716000D03*
X4064000Y16256000D03*
X1524000Y16256000D03*
X4064000Y18796000D03*
X1524000Y18796000D03*
X4064000Y21336000D03*
X1524000Y21336000D03*
X4064000Y23876000D03*
D16*
X1524000Y23876000D03*
D17*
X28067000Y31877000D03*
D18*
X25527000Y31877000D03*
X22987000Y31877000D03*
D19*
X2286000Y38100000D03*
D20*
X2286000Y33100000D03*
X10240000Y43688000D03*
D19*
X15240000Y43688000D03*
X25527000Y7112000D03*
D20*
X25527000Y2112000D03*
X25527000Y39450000D03*
D19*
X25527000Y44450000D03*
D21*
X7617000Y24130000D03*
X10417000Y24130000D03*
X16386000Y39751000D03*
X13586000Y39751000D03*
X10163000Y18796000D03*
X7363000Y18796000D03*
X3432000Y27940000D03*
X632000Y27940000D03*
D22*
X17145000Y31877000D02*
X17145000Y13100000D01*
X16062500Y35560000D02*
X16129000Y35493500D01*
X9525000Y5480000D02*
X9525000Y5080000D01*
X17145000Y13100000D02*
X9525000Y5480000D01*
X16129000Y32893000D02*
X17145000Y31877000D01*
X16129000Y35493500D02*
X16129000Y32893000D01*
X22987000Y31877000D02*
X17145000Y31877000D01*
D23*
X21529500Y3114500D02*
X25527000Y7112000D01*
X21529500Y1143000D02*
X21529500Y3114500D01*
X23495000Y7112000D02*
X25527000Y7112000D01*
X20574000Y10033000D02*
X23495000Y7112000D01*
X20574000Y25933985D02*
X20574000Y10033000D01*
X25527000Y31877000D02*
X25527000Y30886985D01*
X25527000Y30886985D02*
X20574000Y25933985D01*
X23535000Y35687000D02*
X22672500Y35687000D01*
X25266690Y35687000D02*
X23535000Y35687000D01*
X28067000Y32886690D02*
X25266690Y35687000D01*
X28067000Y31877000D02*
X28067000Y32886690D01*
X22037500Y40960500D02*
X22037500Y35560000D01*
X25527000Y44450000D02*
X22037500Y40960500D01*
D22*
X7556002Y16256000D02*
X8852999Y17552997D01*
X4064000Y16256000D02*
X7556002Y16256000D01*
X2286000Y32004000D02*
X2286000Y33100000D01*
X8852999Y17552997D02*
X8852999Y20219001D01*
X8927001Y20293003D02*
X8927001Y25362999D01*
X8852999Y20219001D02*
X8927001Y20293003D01*
X8927001Y25362999D02*
X2286000Y32004000D01*
X4064000Y23876000D02*
X4064000Y25400000D01*
X3432000Y26032000D02*
X3432000Y27940000D01*
X4064000Y25400000D02*
X3432000Y26032000D01*
X2286000Y36500000D02*
X2286000Y38100000D01*
X350999Y34564999D02*
X2286000Y36500000D01*
X350999Y32171199D02*
X350999Y34564999D01*
X3432000Y29090198D02*
X350999Y32171199D01*
X3432000Y27940000D02*
X3432000Y29090198D01*
X16386000Y42542000D02*
X15240000Y43688000D01*
X16386000Y39751000D02*
X16386000Y42542000D01*
X7874000Y41322000D02*
X10240000Y43688000D01*
X7874000Y39817000D02*
X7874000Y41322000D01*
D23*
X26776999Y3361999D02*
X25527000Y2112000D01*
X31242000Y7827000D02*
X26776999Y3361999D01*
X25527000Y39450000D02*
X31242000Y33735000D01*
X31242000Y33735000D02*
X31242000Y7827000D01*
D22*
X4064000Y18796000D02*
X7363000Y18796000D01*
X6858000Y24130000D02*
X7617000Y24130000D01*
X4064000Y21336000D02*
X6858000Y24130000D01*
X13520000Y39817000D02*
X13586000Y39751000D01*
X10414000Y39817000D02*
X13520000Y39817000D01*
X10414000Y24133000D02*
X10417000Y24130000D01*
X10414000Y30287000D02*
X10414000Y24133000D01*
X14605000Y15640000D02*
X14605000Y15240000D01*
X11449000Y18796000D02*
X14605000Y15640000D01*
X10163000Y18796000D02*
X11449000Y18796000D01*
X15554500Y3495500D02*
X15554500Y1143000D01*
X14605000Y5080000D02*
X14605000Y4445000D01*
X14605000Y4445000D02*
X15554500Y3495500D01*
G36*
X17224000Y42742092D02*
G01*
X17184381Y42872701D01*
X17178314Y42884051D01*
X17178314Y44938000D01*
X17165088Y45072283D01*
X17125919Y45201406D01*
X17062312Y45320407D01*
X16976711Y45424711D01*
X16872407Y45510312D01*
X16753406Y45573919D01*
X16624283Y45613088D01*
X16490000Y45626314D01*
X13990000Y45626314D01*
X13855717Y45613088D01*
X13726594Y45573919D01*
X13607593Y45510312D01*
X13503289Y45424711D01*
X13417688Y45320407D01*
X13354081Y45201406D01*
X13314912Y45072283D01*
X13301686Y44938000D01*
X13301686Y42438000D01*
X13314912Y42303717D01*
X13354081Y42174594D01*
X13417688Y42055593D01*
X13503289Y41951289D01*
X13607593Y41865688D01*
X13726594Y41802081D01*
X13855717Y41762912D01*
X13990000Y41749686D01*
X15526001Y41749686D01*
X15526001Y41270536D01*
X15497594Y41261919D01*
X15378593Y41198312D01*
X15274289Y41112711D01*
X15188688Y41008407D01*
X15125081Y40889406D01*
X15085912Y40760283D01*
X15072686Y40626000D01*
X15072686Y38876000D01*
X15085912Y38741717D01*
X15125081Y38612594D01*
X15188688Y38493593D01*
X15274289Y38389289D01*
X15378593Y38303688D01*
X15497594Y38240081D01*
X15626717Y38200912D01*
X15761000Y38187686D01*
X17011000Y38187686D01*
X17145283Y38200912D01*
X17224000Y38224791D01*
X17224000Y37660378D01*
X17096300Y37765180D01*
X16934078Y37851889D01*
X16758057Y37905285D01*
X16575001Y37923314D01*
X15549999Y37923314D01*
X15366943Y37905285D01*
X15190922Y37851889D01*
X15028700Y37765180D01*
X14886512Y37648488D01*
X14769820Y37506300D01*
X14683111Y37344078D01*
X14629715Y37168057D01*
X14611686Y36985001D01*
X14611686Y34134999D01*
X14629715Y33951943D01*
X14683111Y33775922D01*
X14769820Y33613700D01*
X14886512Y33471512D01*
X15028700Y33354820D01*
X15190922Y33268111D01*
X15269001Y33244426D01*
X15269001Y32935248D01*
X15264840Y32893000D01*
X15281444Y32724411D01*
X15330620Y32562300D01*
X15410477Y32412898D01*
X15474653Y32334700D01*
X15517947Y32281946D01*
X15550760Y32255017D01*
X16285000Y31520776D01*
X16285001Y13456225D01*
X9776219Y6947442D01*
X9525000Y6972185D01*
X9233890Y6943513D01*
X8953967Y6858599D01*
X8695987Y6720706D01*
X8469866Y6535134D01*
X8284294Y6309014D01*
X8146401Y6051034D01*
X8061487Y5771111D01*
X8040000Y5552950D01*
X8040000Y4607051D01*
X8061487Y4388890D01*
X8146401Y4108967D01*
X8284294Y3850987D01*
X8469866Y3624866D01*
X8695986Y3439294D01*
X8953966Y3301401D01*
X9233889Y3216487D01*
X9525000Y3187815D01*
X9816110Y3216487D01*
X10096033Y3301401D01*
X10354013Y3439294D01*
X10580134Y3624866D01*
X10765706Y3850986D01*
X10795000Y3905792D01*
X10824294Y3850987D01*
X11009866Y3624866D01*
X11235986Y3439294D01*
X11493966Y3301401D01*
X11773889Y3216487D01*
X12065000Y3187815D01*
X12356110Y3216487D01*
X12636033Y3301401D01*
X12894013Y3439294D01*
X13120134Y3624866D01*
X13305706Y3850986D01*
X13335000Y3905792D01*
X13364294Y3850987D01*
X13549866Y3624866D01*
X13775986Y3439294D01*
X14033966Y3301401D01*
X14313889Y3216487D01*
X14362289Y3211720D01*
X14261820Y3089300D01*
X14175111Y2927078D01*
X14121715Y2751057D01*
X14103686Y2568001D01*
X14103686Y-282001D01*
X14121715Y-465057D01*
X14175111Y-641078D01*
X14261820Y-803300D01*
X14378512Y-945488D01*
X14520700Y-1062180D01*
X14682922Y-1148889D01*
X14858943Y-1202285D01*
X15041999Y-1220314D01*
X16067001Y-1220314D01*
X16250057Y-1202285D01*
X16426078Y-1148889D01*
X16588300Y-1062180D01*
X16730488Y-945488D01*
X16847180Y-803300D01*
X16933889Y-641078D01*
X16987285Y-465057D01*
X17005314Y-282001D01*
X17005314Y2568001D01*
X16987285Y2751057D01*
X16933889Y2927078D01*
X16847180Y3089300D01*
X16730488Y3231488D01*
X16588300Y3348180D01*
X16426078Y3434889D01*
X16414500Y3438401D01*
X16414500Y3453254D01*
X16418661Y3495500D01*
X16402056Y3664090D01*
X16352881Y3826199D01*
X16352881Y3826200D01*
X16273024Y3975602D01*
X16165554Y4106554D01*
X16132742Y4133482D01*
X16024017Y4242207D01*
X16068513Y4388889D01*
X16090000Y4607050D01*
X16090000Y5552949D01*
X16068513Y5771111D01*
X15983599Y6051034D01*
X15845706Y6309014D01*
X15660134Y6535134D01*
X15434014Y6720706D01*
X15176034Y6858599D01*
X14896111Y6943513D01*
X14605000Y6972185D01*
X14313890Y6943513D01*
X14033967Y6858599D01*
X13775987Y6720706D01*
X13549866Y6535134D01*
X13364294Y6309014D01*
X13335000Y6254209D01*
X13305706Y6309014D01*
X13120134Y6535134D01*
X12894014Y6720706D01*
X12636034Y6858599D01*
X12356111Y6943513D01*
X12218309Y6957085D01*
X17224000Y11962776D01*
X17224000Y-2040000D01*
X1884442Y-2040000D01*
X2155483Y-1768959D01*
X2459173Y-1314455D01*
X2668358Y-809438D01*
X2775000Y-273314D01*
X2775000Y273314D01*
X2668358Y809438D01*
X2459173Y1314455D01*
X2155483Y1768959D01*
X1768959Y2155483D01*
X1314455Y2459173D01*
X809438Y2668358D01*
X273314Y2775000D01*
X-273314Y2775000D01*
X-809438Y2668358D01*
X-1314455Y2459173D01*
X-1768959Y2155483D01*
X-2040000Y1884442D01*
X-2040000Y27065000D01*
X-681314Y27065000D01*
X-668088Y26930717D01*
X-628919Y26801594D01*
X-565312Y26682593D01*
X-479711Y26578289D01*
X-375407Y26492688D01*
X-256406Y26429081D01*
X-127283Y26389912D01*
X7000Y26376686D01*
X385750Y26380000D01*
X557000Y26551250D01*
X557000Y27865000D01*
X707000Y27865000D01*
X707000Y26551250D01*
X878250Y26380000D01*
X1257000Y26376686D01*
X1391283Y26389912D01*
X1520406Y26429081D01*
X1639407Y26492688D01*
X1743711Y26578289D01*
X1829312Y26682593D01*
X1892919Y26801594D01*
X1932088Y26930717D01*
X1945314Y27065000D01*
X1942000Y27693750D01*
X1770750Y27865000D01*
X707000Y27865000D01*
X557000Y27865000D01*
X-506750Y27865000D01*
X-678000Y27693750D01*
X-681314Y27065000D01*
X-2040000Y27065000D01*
X-2040000Y28815000D01*
X-681314Y28815000D01*
X-678000Y28186250D01*
X-506750Y28015000D01*
X557000Y28015000D01*
X557000Y29328750D01*
X707000Y29328750D01*
X707000Y28015000D01*
X1770750Y28015000D01*
X1942000Y28186250D01*
X1945314Y28815000D01*
X1932088Y28949283D01*
X1892919Y29078406D01*
X1829312Y29197407D01*
X1743711Y29301711D01*
X1639407Y29387312D01*
X1520406Y29450919D01*
X1391283Y29490088D01*
X1257000Y29503314D01*
X878250Y29500000D01*
X707000Y29328750D01*
X557000Y29328750D01*
X385750Y29500000D01*
X7000Y29503314D01*
X-127283Y29490088D01*
X-256406Y29450919D01*
X-375407Y29387312D01*
X-479711Y29301711D01*
X-565312Y29197407D01*
X-628919Y29078406D01*
X-668088Y28949283D01*
X-681314Y28815000D01*
X-2040000Y28815000D01*
X-2040000Y34564999D01*
X-513161Y34564999D01*
X-509000Y34522751D01*
X-509001Y32213438D01*
X-513161Y32171199D01*
X-509001Y32128960D01*
X-509001Y32128954D01*
X-496557Y32002611D01*
X-447382Y31840500D01*
X-367525Y31691098D01*
X-260055Y31560145D01*
X-227236Y31533211D01*
X2190757Y29115218D01*
X2171081Y29078406D01*
X2131912Y28949283D01*
X2118686Y28815000D01*
X2118686Y27065000D01*
X2131912Y26930717D01*
X2171081Y26801594D01*
X2234688Y26682593D01*
X2320289Y26578289D01*
X2424593Y26492688D01*
X2543594Y26429081D01*
X2572000Y26420464D01*
X2572000Y26074239D01*
X2567840Y26032000D01*
X2572000Y25989761D01*
X2572000Y25989755D01*
X2584444Y25863412D01*
X2633619Y25701301D01*
X2713476Y25551899D01*
X2820946Y25420946D01*
X2853764Y25394013D01*
X3132721Y25115056D01*
X3015186Y25018597D01*
X2959912Y25122007D01*
X2874311Y25226311D01*
X2770007Y25311912D01*
X2651006Y25375519D01*
X2521883Y25414688D01*
X2387600Y25427914D01*
X660400Y25427914D01*
X526117Y25414688D01*
X396994Y25375519D01*
X277993Y25311912D01*
X173689Y25226311D01*
X88088Y25122007D01*
X24481Y25003006D01*
X-14688Y24873883D01*
X-27914Y24739600D01*
X-27914Y23012400D01*
X-14688Y22878117D01*
X24481Y22748994D01*
X88088Y22629993D01*
X173689Y22525689D01*
X277993Y22440088D01*
X381403Y22384814D01*
X230156Y22200519D01*
X86358Y21931491D01*
X-2193Y21639579D01*
X-32093Y21336000D01*
X-2193Y21032421D01*
X86358Y20740509D01*
X230156Y20471481D01*
X423676Y20235676D01*
X630427Y20066000D01*
X423676Y19896324D01*
X230156Y19660519D01*
X86358Y19391491D01*
X-2193Y19099579D01*
X-32093Y18796000D01*
X-2193Y18492421D01*
X86358Y18200509D01*
X230156Y17931481D01*
X423676Y17695676D01*
X630427Y17526000D01*
X423676Y17356324D01*
X230156Y17120519D01*
X86358Y16851491D01*
X-2193Y16559579D01*
X-32093Y16256000D01*
X-2193Y15952421D01*
X86358Y15660509D01*
X230156Y15391481D01*
X423676Y15155676D01*
X630427Y14986000D01*
X423676Y14816324D01*
X230156Y14580519D01*
X86358Y14311491D01*
X-2193Y14019579D01*
X-32093Y13716000D01*
X-2193Y13412421D01*
X86358Y13120509D01*
X230156Y12851481D01*
X423676Y12615676D01*
X630427Y12446000D01*
X423676Y12276324D01*
X230156Y12040519D01*
X86358Y11771491D01*
X-2193Y11479579D01*
X-32093Y11176000D01*
X-2193Y10872421D01*
X86358Y10580509D01*
X230156Y10311481D01*
X423676Y10075676D01*
X630427Y9906000D01*
X423676Y9736324D01*
X230156Y9500519D01*
X86358Y9231491D01*
X-2193Y8939579D01*
X-32093Y8636000D01*
X-2193Y8332421D01*
X86358Y8040509D01*
X230156Y7771481D01*
X423676Y7535676D01*
X659481Y7342156D01*
X928509Y7198358D01*
X1220421Y7109807D01*
X1447922Y7087400D01*
X1600078Y7087400D01*
X1827579Y7109807D01*
X2119491Y7198358D01*
X2388519Y7342156D01*
X2624324Y7535676D01*
X2799472Y7749095D01*
X2958967Y7551070D01*
X3191859Y7356335D01*
X3458267Y7210777D01*
X3747953Y7119990D01*
X3989000Y7260464D01*
X3989000Y8561000D01*
X4139000Y8561000D01*
X4139000Y7260464D01*
X4380047Y7119990D01*
X4669733Y7210777D01*
X4936141Y7356335D01*
X5169033Y7551070D01*
X5359459Y7787498D01*
X5500102Y8056533D01*
X5580007Y8319953D01*
X5439307Y8561000D01*
X4139000Y8561000D01*
X3989000Y8561000D01*
X3969000Y8561000D01*
X3969000Y8711000D01*
X3989000Y8711000D01*
X3989000Y11101000D01*
X4139000Y11101000D01*
X4139000Y8711000D01*
X5439307Y8711000D01*
X5580007Y8952047D01*
X5500102Y9215467D01*
X5359459Y9484502D01*
X5169033Y9720930D01*
X4947700Y9906000D01*
X5169033Y10091070D01*
X5359459Y10327498D01*
X5500102Y10596533D01*
X5580007Y10859953D01*
X5439307Y11101000D01*
X4139000Y11101000D01*
X3989000Y11101000D01*
X3969000Y11101000D01*
X3969000Y11251000D01*
X3989000Y11251000D01*
X3989000Y13641000D01*
X4139000Y13641000D01*
X4139000Y11251000D01*
X5439307Y11251000D01*
X5580007Y11492047D01*
X5500102Y11755467D01*
X5359459Y12024502D01*
X5169033Y12260930D01*
X4947700Y12446000D01*
X5169033Y12631070D01*
X5359459Y12867498D01*
X5500102Y13136533D01*
X5580007Y13399953D01*
X5439307Y13641000D01*
X4139000Y13641000D01*
X3989000Y13641000D01*
X3969000Y13641000D01*
X3969000Y13791000D01*
X3989000Y13791000D01*
X3989000Y13811000D01*
X4139000Y13811000D01*
X4139000Y13791000D01*
X5439307Y13791000D01*
X5580007Y14032047D01*
X5500102Y14295467D01*
X5359459Y14564502D01*
X5169033Y14800930D01*
X4952590Y14981911D01*
X5164324Y15155676D01*
X5357844Y15391481D01*
X5360259Y15396000D01*
X7513763Y15396000D01*
X7556002Y15391840D01*
X7598241Y15396000D01*
X7598248Y15396000D01*
X7724591Y15408444D01*
X7886702Y15457619D01*
X8036104Y15537476D01*
X8040000Y15540673D01*
X8040000Y14767051D01*
X8061487Y14548890D01*
X8146401Y14268967D01*
X8284294Y14010987D01*
X8469866Y13784866D01*
X8695986Y13599294D01*
X8953966Y13461401D01*
X9233889Y13376487D01*
X9525000Y13347815D01*
X9816110Y13376487D01*
X10096033Y13461401D01*
X10354013Y13599294D01*
X10580134Y13784866D01*
X10765706Y14010986D01*
X10799184Y14073620D01*
X10871936Y13952618D01*
X11067980Y13736914D01*
X11302339Y13563601D01*
X11566006Y13439339D01*
X11758915Y13386887D01*
X11990000Y13528393D01*
X11990000Y15165000D01*
X11970000Y15165000D01*
X11970000Y15315000D01*
X11990000Y15315000D01*
X11990000Y15335000D01*
X12140000Y15335000D01*
X12140000Y15315000D01*
X12160000Y15315000D01*
X12160000Y15165000D01*
X12140000Y15165000D01*
X12140000Y13528393D01*
X12371085Y13386887D01*
X12563994Y13439339D01*
X12827661Y13563601D01*
X13062020Y13736914D01*
X13151314Y13835163D01*
X13169081Y13776594D01*
X13232688Y13657593D01*
X13318289Y13553289D01*
X13422593Y13467688D01*
X13541594Y13404081D01*
X13670717Y13364912D01*
X13805000Y13351686D01*
X15405000Y13351686D01*
X15539283Y13364912D01*
X15668406Y13404081D01*
X15787407Y13467688D01*
X15891711Y13553289D01*
X15977312Y13657593D01*
X16040919Y13776594D01*
X16080088Y13905717D01*
X16093314Y14040000D01*
X16093314Y16440000D01*
X16080088Y16574283D01*
X16040919Y16703406D01*
X15977312Y16822407D01*
X15891711Y16926711D01*
X15787407Y17012312D01*
X15668406Y17075919D01*
X15539283Y17115088D01*
X15405000Y17128314D01*
X14332910Y17128314D01*
X12086988Y19374235D01*
X12060054Y19407054D01*
X11929102Y19514524D01*
X11779700Y19594381D01*
X11617589Y19643556D01*
X11491246Y19656000D01*
X11491239Y19656000D01*
X11476314Y19657470D01*
X11476314Y19671000D01*
X11463088Y19805283D01*
X11423919Y19934406D01*
X11360312Y20053407D01*
X11274711Y20157711D01*
X11170407Y20243312D01*
X11051406Y20306919D01*
X10922283Y20346088D01*
X10788000Y20359314D01*
X9787001Y20359314D01*
X9787001Y22567178D01*
X9792000Y22566686D01*
X11042000Y22566686D01*
X11176283Y22579912D01*
X11305406Y22619081D01*
X11424407Y22682688D01*
X11528711Y22768289D01*
X11614312Y22872593D01*
X11677919Y22991594D01*
X11717088Y23120717D01*
X11730314Y23255000D01*
X11730314Y25005000D01*
X11717088Y25139283D01*
X11677919Y25268406D01*
X11614312Y25387407D01*
X11528711Y25491711D01*
X11424407Y25577312D01*
X11305406Y25640919D01*
X11274000Y25650446D01*
X11274000Y28848686D01*
X11304000Y28848686D01*
X11438283Y28861912D01*
X11567406Y28901081D01*
X11686407Y28964688D01*
X11790711Y29050289D01*
X11876312Y29154593D01*
X11939919Y29273594D01*
X11979088Y29402717D01*
X11992314Y29537000D01*
X11992314Y31037000D01*
X11979088Y31171283D01*
X11939919Y31300406D01*
X11876312Y31419407D01*
X11790711Y31523711D01*
X11686407Y31609312D01*
X11567406Y31672919D01*
X11438283Y31712088D01*
X11304000Y31725314D01*
X9524000Y31725314D01*
X9389717Y31712088D01*
X9260594Y31672919D01*
X9144000Y31610599D01*
X9027406Y31672919D01*
X8898283Y31712088D01*
X8764000Y31725314D01*
X8120250Y31722000D01*
X7949000Y31550750D01*
X7949000Y30362000D01*
X7969000Y30362000D01*
X7969000Y30212000D01*
X7949000Y30212000D01*
X7949000Y29023250D01*
X8120250Y28852000D01*
X8764000Y28848686D01*
X8898283Y28861912D01*
X9027406Y28901081D01*
X9144000Y28963401D01*
X9260594Y28901081D01*
X9389717Y28861912D01*
X9524000Y28848686D01*
X9554000Y28848686D01*
X9554001Y25954623D01*
X9538055Y25974053D01*
X9505242Y26000982D01*
X5969224Y29537000D01*
X6295686Y29537000D01*
X6308912Y29402717D01*
X6348081Y29273594D01*
X6411688Y29154593D01*
X6497289Y29050289D01*
X6601593Y28964688D01*
X6720594Y28901081D01*
X6849717Y28861912D01*
X6984000Y28848686D01*
X7627750Y28852000D01*
X7799000Y29023250D01*
X7799000Y30212000D01*
X6470250Y30212000D01*
X6299000Y30040750D01*
X6295686Y29537000D01*
X5969224Y29537000D01*
X4469224Y31037000D01*
X6295686Y31037000D01*
X6299000Y30533250D01*
X6470250Y30362000D01*
X7799000Y30362000D01*
X7799000Y31550750D01*
X7627750Y31722000D01*
X6984000Y31725314D01*
X6849717Y31712088D01*
X6720594Y31672919D01*
X6601593Y31609312D01*
X6497289Y31523711D01*
X6411688Y31419407D01*
X6348081Y31300406D01*
X6308912Y31171283D01*
X6295686Y31037000D01*
X4469224Y31037000D01*
X3714364Y31791860D01*
X3789013Y31866509D01*
X4000775Y32183434D01*
X4146639Y32535581D01*
X4221000Y32909419D01*
X4221000Y33290581D01*
X4146639Y33664419D01*
X4000775Y34016566D01*
X3789013Y34333491D01*
X3519491Y34603013D01*
X3202566Y34814775D01*
X2850419Y34960639D01*
X2476581Y35035000D01*
X2095419Y35035000D01*
X2022773Y35020550D01*
X2864242Y35862018D01*
X2897054Y35888946D01*
X3004524Y36019898D01*
X3056564Y36117259D01*
X3080312Y36161686D01*
X3536000Y36161686D01*
X3670283Y36174912D01*
X3799406Y36214081D01*
X3918407Y36277688D01*
X4022711Y36363289D01*
X4108312Y36467593D01*
X4171919Y36586594D01*
X4211088Y36715717D01*
X4224314Y36850000D01*
X4224314Y39350000D01*
X4211088Y39484283D01*
X4171919Y39613406D01*
X4108312Y39732407D01*
X4022711Y39836711D01*
X3918407Y39922312D01*
X3799406Y39985919D01*
X3670283Y40025088D01*
X3536000Y40038314D01*
X1036000Y40038314D01*
X901717Y40025088D01*
X772594Y39985919D01*
X653593Y39922312D01*
X549289Y39836711D01*
X463688Y39732407D01*
X400081Y39613406D01*
X360912Y39484283D01*
X347686Y39350000D01*
X347686Y36850000D01*
X360912Y36715717D01*
X400081Y36586594D01*
X463688Y36467593D01*
X549289Y36363289D01*
X653593Y36277688D01*
X772594Y36214081D01*
X781236Y36211459D01*
X-227241Y35202982D01*
X-260054Y35176053D01*
X-286983Y35143240D01*
X-286985Y35143238D01*
X-367524Y35045101D01*
X-447381Y34895699D01*
X-496557Y34733588D01*
X-513161Y34564999D01*
X-2040000Y34564999D01*
X-2040000Y40567000D01*
X6295686Y40567000D01*
X6295686Y39067000D01*
X6308912Y38932717D01*
X6348081Y38803594D01*
X6411688Y38684593D01*
X6497289Y38580289D01*
X6601593Y38494688D01*
X6720594Y38431081D01*
X6849717Y38391912D01*
X6984000Y38378686D01*
X8764000Y38378686D01*
X8898283Y38391912D01*
X9027406Y38431081D01*
X9144000Y38493401D01*
X9260594Y38431081D01*
X9389717Y38391912D01*
X9524000Y38378686D01*
X11304000Y38378686D01*
X11438283Y38391912D01*
X11567406Y38431081D01*
X11686407Y38494688D01*
X11790711Y38580289D01*
X11876312Y38684593D01*
X11939919Y38803594D01*
X11979088Y38932717D01*
X11981480Y38957000D01*
X12272686Y38957000D01*
X12272686Y38876000D01*
X12285912Y38741717D01*
X12325081Y38612594D01*
X12388688Y38493593D01*
X12474289Y38389289D01*
X12578593Y38303688D01*
X12697594Y38240081D01*
X12826717Y38200912D01*
X12961000Y38187686D01*
X14211000Y38187686D01*
X14345283Y38200912D01*
X14474406Y38240081D01*
X14593407Y38303688D01*
X14697711Y38389289D01*
X14783312Y38493593D01*
X14846919Y38612594D01*
X14886088Y38741717D01*
X14899314Y38876000D01*
X14899314Y40626000D01*
X14886088Y40760283D01*
X14846919Y40889406D01*
X14783312Y41008407D01*
X14697711Y41112711D01*
X14593407Y41198312D01*
X14474406Y41261919D01*
X14345283Y41301088D01*
X14211000Y41314314D01*
X12961000Y41314314D01*
X12826717Y41301088D01*
X12697594Y41261919D01*
X12578593Y41198312D01*
X12474289Y41112711D01*
X12388688Y41008407D01*
X12325081Y40889406D01*
X12285912Y40760283D01*
X12277709Y40677000D01*
X11981480Y40677000D01*
X11979088Y40701283D01*
X11939919Y40830406D01*
X11876312Y40949407D01*
X11790711Y41053711D01*
X11686407Y41139312D01*
X11567406Y41202919D01*
X11438283Y41242088D01*
X11304000Y41255314D01*
X9524000Y41255314D01*
X9389717Y41242088D01*
X9260594Y41202919D01*
X9144000Y41140599D01*
X9027406Y41202919D01*
X8984237Y41216014D01*
X9619015Y41850791D01*
X9675581Y41827361D01*
X10049419Y41753000D01*
X10430581Y41753000D01*
X10804419Y41827361D01*
X11156566Y41973225D01*
X11473491Y42184987D01*
X11743013Y42454509D01*
X11954775Y42771434D01*
X12100639Y43123581D01*
X12175000Y43497419D01*
X12175000Y43878581D01*
X12100639Y44252419D01*
X11954775Y44604566D01*
X11743013Y44921491D01*
X11473491Y45191013D01*
X11156566Y45402775D01*
X10804419Y45548639D01*
X10430581Y45623000D01*
X10049419Y45623000D01*
X9675581Y45548639D01*
X9323434Y45402775D01*
X9006509Y45191013D01*
X8736987Y44921491D01*
X8525225Y44604566D01*
X8379361Y44252419D01*
X8305000Y43878581D01*
X8305000Y43497419D01*
X8379361Y43123581D01*
X8402791Y43067015D01*
X7295760Y41959983D01*
X7262947Y41933054D01*
X7236018Y41900241D01*
X7236016Y41900239D01*
X7155477Y41802102D01*
X7075620Y41652700D01*
X7026444Y41490589D01*
X7009840Y41322000D01*
X7014001Y41279752D01*
X7014001Y41255314D01*
X6984000Y41255314D01*
X6849717Y41242088D01*
X6720594Y41202919D01*
X6601593Y41139312D01*
X6497289Y41053711D01*
X6411688Y40949407D01*
X6348081Y40830406D01*
X6308912Y40701283D01*
X6295686Y40567000D01*
X-2040000Y40567000D01*
X-2040000Y43835558D01*
X-1768959Y43564517D01*
X-1314455Y43260827D01*
X-809438Y43051642D01*
X-273314Y42945000D01*
X273314Y42945000D01*
X809438Y43051642D01*
X1314455Y43260827D01*
X1768959Y43564517D01*
X2155483Y43951041D01*
X2459173Y44405545D01*
X2668358Y44910562D01*
X2775000Y45446686D01*
X2775000Y45993314D01*
X2668358Y46529438D01*
X2459173Y47034455D01*
X2155483Y47488959D01*
X1884442Y47760000D01*
X17224000Y47760000D01*
X17224000Y42742092D01*
X17224000Y42742092D01*
G37*
X17224000Y42742092D02*
X17184381Y42872701D01*
X17178314Y42884051D01*
X17178314Y44938000D01*
X17165088Y45072283D01*
X17125919Y45201406D01*
X17062312Y45320407D01*
X16976711Y45424711D01*
X16872407Y45510312D01*
X16753406Y45573919D01*
X16624283Y45613088D01*
X16490000Y45626314D01*
X13990000Y45626314D01*
X13855717Y45613088D01*
X13726594Y45573919D01*
X13607593Y45510312D01*
X13503289Y45424711D01*
X13417688Y45320407D01*
X13354081Y45201406D01*
X13314912Y45072283D01*
X13301686Y44938000D01*
X13301686Y42438000D01*
X13314912Y42303717D01*
X13354081Y42174594D01*
X13417688Y42055593D01*
X13503289Y41951289D01*
X13607593Y41865688D01*
X13726594Y41802081D01*
X13855717Y41762912D01*
X13990000Y41749686D01*
X15526001Y41749686D01*
X15526001Y41270536D01*
X15497594Y41261919D01*
X15378593Y41198312D01*
X15274289Y41112711D01*
X15188688Y41008407D01*
X15125081Y40889406D01*
X15085912Y40760283D01*
X15072686Y40626000D01*
X15072686Y38876000D01*
X15085912Y38741717D01*
X15125081Y38612594D01*
X15188688Y38493593D01*
X15274289Y38389289D01*
X15378593Y38303688D01*
X15497594Y38240081D01*
X15626717Y38200912D01*
X15761000Y38187686D01*
X17011000Y38187686D01*
X17145283Y38200912D01*
X17224000Y38224791D01*
X17224000Y37660378D01*
X17096300Y37765180D01*
X16934078Y37851889D01*
X16758057Y37905285D01*
X16575001Y37923314D01*
X15549999Y37923314D01*
X15366943Y37905285D01*
X15190922Y37851889D01*
X15028700Y37765180D01*
X14886512Y37648488D01*
X14769820Y37506300D01*
X14683111Y37344078D01*
X14629715Y37168057D01*
X14611686Y36985001D01*
X14611686Y34134999D01*
X14629715Y33951943D01*
X14683111Y33775922D01*
X14769820Y33613700D01*
X14886512Y33471512D01*
X15028700Y33354820D01*
X15190922Y33268111D01*
X15269001Y33244426D01*
X15269001Y32935248D01*
X15264840Y32893000D01*
X15281444Y32724411D01*
X15330620Y32562300D01*
X15410477Y32412898D01*
X15474653Y32334700D01*
X15517947Y32281946D01*
X15550760Y32255017D01*
X16285000Y31520776D01*
X16285001Y13456225D01*
X9776219Y6947442D01*
X9525000Y6972185D01*
X9233890Y6943513D01*
X8953967Y6858599D01*
X8695987Y6720706D01*
X8469866Y6535134D01*
X8284294Y6309014D01*
X8146401Y6051034D01*
X8061487Y5771111D01*
X8040000Y5552950D01*
X8040000Y4607051D01*
X8061487Y4388890D01*
X8146401Y4108967D01*
X8284294Y3850987D01*
X8469866Y3624866D01*
X8695986Y3439294D01*
X8953966Y3301401D01*
X9233889Y3216487D01*
X9525000Y3187815D01*
X9816110Y3216487D01*
X10096033Y3301401D01*
X10354013Y3439294D01*
X10580134Y3624866D01*
X10765706Y3850986D01*
X10795000Y3905792D01*
X10824294Y3850987D01*
X11009866Y3624866D01*
X11235986Y3439294D01*
X11493966Y3301401D01*
X11773889Y3216487D01*
X12065000Y3187815D01*
X12356110Y3216487D01*
X12636033Y3301401D01*
X12894013Y3439294D01*
X13120134Y3624866D01*
X13305706Y3850986D01*
X13335000Y3905792D01*
X13364294Y3850987D01*
X13549866Y3624866D01*
X13775986Y3439294D01*
X14033966Y3301401D01*
X14313889Y3216487D01*
X14362289Y3211720D01*
X14261820Y3089300D01*
X14175111Y2927078D01*
X14121715Y2751057D01*
X14103686Y2568001D01*
X14103686Y-282001D01*
X14121715Y-465057D01*
X14175111Y-641078D01*
X14261820Y-803300D01*
X14378512Y-945488D01*
X14520700Y-1062180D01*
X14682922Y-1148889D01*
X14858943Y-1202285D01*
X15041999Y-1220314D01*
X16067001Y-1220314D01*
X16250057Y-1202285D01*
X16426078Y-1148889D01*
X16588300Y-1062180D01*
X16730488Y-945488D01*
X16847180Y-803300D01*
X16933889Y-641078D01*
X16987285Y-465057D01*
X17005314Y-282001D01*
X17005314Y2568001D01*
X16987285Y2751057D01*
X16933889Y2927078D01*
X16847180Y3089300D01*
X16730488Y3231488D01*
X16588300Y3348180D01*
X16426078Y3434889D01*
X16414500Y3438401D01*
X16414500Y3453254D01*
X16418661Y3495500D01*
X16402056Y3664090D01*
X16352881Y3826199D01*
X16352881Y3826200D01*
X16273024Y3975602D01*
X16165554Y4106554D01*
X16132742Y4133482D01*
X16024017Y4242207D01*
X16068513Y4388889D01*
X16090000Y4607050D01*
X16090000Y5552949D01*
X16068513Y5771111D01*
X15983599Y6051034D01*
X15845706Y6309014D01*
X15660134Y6535134D01*
X15434014Y6720706D01*
X15176034Y6858599D01*
X14896111Y6943513D01*
X14605000Y6972185D01*
X14313890Y6943513D01*
X14033967Y6858599D01*
X13775987Y6720706D01*
X13549866Y6535134D01*
X13364294Y6309014D01*
X13335000Y6254209D01*
X13305706Y6309014D01*
X13120134Y6535134D01*
X12894014Y6720706D01*
X12636034Y6858599D01*
X12356111Y6943513D01*
X12218309Y6957085D01*
X17224000Y11962776D01*
X17224000Y-2040000D01*
X1884442Y-2040000D01*
X2155483Y-1768959D01*
X2459173Y-1314455D01*
X2668358Y-809438D01*
X2775000Y-273314D01*
X2775000Y273314D01*
X2668358Y809438D01*
X2459173Y1314455D01*
X2155483Y1768959D01*
X1768959Y2155483D01*
X1314455Y2459173D01*
X809438Y2668358D01*
X273314Y2775000D01*
X-273314Y2775000D01*
X-809438Y2668358D01*
X-1314455Y2459173D01*
X-1768959Y2155483D01*
X-2040000Y1884442D01*
X-2040000Y27065000D01*
X-681314Y27065000D01*
X-668088Y26930717D01*
X-628919Y26801594D01*
X-565312Y26682593D01*
X-479711Y26578289D01*
X-375407Y26492688D01*
X-256406Y26429081D01*
X-127283Y26389912D01*
X7000Y26376686D01*
X385750Y26380000D01*
X557000Y26551250D01*
X557000Y27865000D01*
X707000Y27865000D01*
X707000Y26551250D01*
X878250Y26380000D01*
X1257000Y26376686D01*
X1391283Y26389912D01*
X1520406Y26429081D01*
X1639407Y26492688D01*
X1743711Y26578289D01*
X1829312Y26682593D01*
X1892919Y26801594D01*
X1932088Y26930717D01*
X1945314Y27065000D01*
X1942000Y27693750D01*
X1770750Y27865000D01*
X707000Y27865000D01*
X557000Y27865000D01*
X-506750Y27865000D01*
X-678000Y27693750D01*
X-681314Y27065000D01*
X-2040000Y27065000D01*
X-2040000Y28815000D01*
X-681314Y28815000D01*
X-678000Y28186250D01*
X-506750Y28015000D01*
X557000Y28015000D01*
X557000Y29328750D01*
X707000Y29328750D01*
X707000Y28015000D01*
X1770750Y28015000D01*
X1942000Y28186250D01*
X1945314Y28815000D01*
X1932088Y28949283D01*
X1892919Y29078406D01*
X1829312Y29197407D01*
X1743711Y29301711D01*
X1639407Y29387312D01*
X1520406Y29450919D01*
X1391283Y29490088D01*
X1257000Y29503314D01*
X878250Y29500000D01*
X707000Y29328750D01*
X557000Y29328750D01*
X385750Y29500000D01*
X7000Y29503314D01*
X-127283Y29490088D01*
X-256406Y29450919D01*
X-375407Y29387312D01*
X-479711Y29301711D01*
X-565312Y29197407D01*
X-628919Y29078406D01*
X-668088Y28949283D01*
X-681314Y28815000D01*
X-2040000Y28815000D01*
X-2040000Y34564999D01*
X-513161Y34564999D01*
X-509000Y34522751D01*
X-509001Y32213438D01*
X-513161Y32171199D01*
X-509001Y32128960D01*
X-509001Y32128954D01*
X-496557Y32002611D01*
X-447382Y31840500D01*
X-367525Y31691098D01*
X-260055Y31560145D01*
X-227236Y31533211D01*
X2190757Y29115218D01*
X2171081Y29078406D01*
X2131912Y28949283D01*
X2118686Y28815000D01*
X2118686Y27065000D01*
X2131912Y26930717D01*
X2171081Y26801594D01*
X2234688Y26682593D01*
X2320289Y26578289D01*
X2424593Y26492688D01*
X2543594Y26429081D01*
X2572000Y26420464D01*
X2572000Y26074239D01*
X2567840Y26032000D01*
X2572000Y25989761D01*
X2572000Y25989755D01*
X2584444Y25863412D01*
X2633619Y25701301D01*
X2713476Y25551899D01*
X2820946Y25420946D01*
X2853764Y25394013D01*
X3132721Y25115056D01*
X3015186Y25018597D01*
X2959912Y25122007D01*
X2874311Y25226311D01*
X2770007Y25311912D01*
X2651006Y25375519D01*
X2521883Y25414688D01*
X2387600Y25427914D01*
X660400Y25427914D01*
X526117Y25414688D01*
X396994Y25375519D01*
X277993Y25311912D01*
X173689Y25226311D01*
X88088Y25122007D01*
X24481Y25003006D01*
X-14688Y24873883D01*
X-27914Y24739600D01*
X-27914Y23012400D01*
X-14688Y22878117D01*
X24481Y22748994D01*
X88088Y22629993D01*
X173689Y22525689D01*
X277993Y22440088D01*
X381403Y22384814D01*
X230156Y22200519D01*
X86358Y21931491D01*
X-2193Y21639579D01*
X-32093Y21336000D01*
X-2193Y21032421D01*
X86358Y20740509D01*
X230156Y20471481D01*
X423676Y20235676D01*
X630427Y20066000D01*
X423676Y19896324D01*
X230156Y19660519D01*
X86358Y19391491D01*
X-2193Y19099579D01*
X-32093Y18796000D01*
X-2193Y18492421D01*
X86358Y18200509D01*
X230156Y17931481D01*
X423676Y17695676D01*
X630427Y17526000D01*
X423676Y17356324D01*
X230156Y17120519D01*
X86358Y16851491D01*
X-2193Y16559579D01*
X-32093Y16256000D01*
X-2193Y15952421D01*
X86358Y15660509D01*
X230156Y15391481D01*
X423676Y15155676D01*
X630427Y14986000D01*
X423676Y14816324D01*
X230156Y14580519D01*
X86358Y14311491D01*
X-2193Y14019579D01*
X-32093Y13716000D01*
X-2193Y13412421D01*
X86358Y13120509D01*
X230156Y12851481D01*
X423676Y12615676D01*
X630427Y12446000D01*
X423676Y12276324D01*
X230156Y12040519D01*
X86358Y11771491D01*
X-2193Y11479579D01*
X-32093Y11176000D01*
X-2193Y10872421D01*
X86358Y10580509D01*
X230156Y10311481D01*
X423676Y10075676D01*
X630427Y9906000D01*
X423676Y9736324D01*
X230156Y9500519D01*
X86358Y9231491D01*
X-2193Y8939579D01*
X-32093Y8636000D01*
X-2193Y8332421D01*
X86358Y8040509D01*
X230156Y7771481D01*
X423676Y7535676D01*
X659481Y7342156D01*
X928509Y7198358D01*
X1220421Y7109807D01*
X1447922Y7087400D01*
X1600078Y7087400D01*
X1827579Y7109807D01*
X2119491Y7198358D01*
X2388519Y7342156D01*
X2624324Y7535676D01*
X2799472Y7749095D01*
X2958967Y7551070D01*
X3191859Y7356335D01*
X3458267Y7210777D01*
X3747953Y7119990D01*
X3989000Y7260464D01*
X3989000Y8561000D01*
X4139000Y8561000D01*
X4139000Y7260464D01*
X4380047Y7119990D01*
X4669733Y7210777D01*
X4936141Y7356335D01*
X5169033Y7551070D01*
X5359459Y7787498D01*
X5500102Y8056533D01*
X5580007Y8319953D01*
X5439307Y8561000D01*
X4139000Y8561000D01*
X3989000Y8561000D01*
X3969000Y8561000D01*
X3969000Y8711000D01*
X3989000Y8711000D01*
X3989000Y11101000D01*
X4139000Y11101000D01*
X4139000Y8711000D01*
X5439307Y8711000D01*
X5580007Y8952047D01*
X5500102Y9215467D01*
X5359459Y9484502D01*
X5169033Y9720930D01*
X4947700Y9906000D01*
X5169033Y10091070D01*
X5359459Y10327498D01*
X5500102Y10596533D01*
X5580007Y10859953D01*
X5439307Y11101000D01*
X4139000Y11101000D01*
X3989000Y11101000D01*
X3969000Y11101000D01*
X3969000Y11251000D01*
X3989000Y11251000D01*
X3989000Y13641000D01*
X4139000Y13641000D01*
X4139000Y11251000D01*
X5439307Y11251000D01*
X5580007Y11492047D01*
X5500102Y11755467D01*
X5359459Y12024502D01*
X5169033Y12260930D01*
X4947700Y12446000D01*
X5169033Y12631070D01*
X5359459Y12867498D01*
X5500102Y13136533D01*
X5580007Y13399953D01*
X5439307Y13641000D01*
X4139000Y13641000D01*
X3989000Y13641000D01*
X3969000Y13641000D01*
X3969000Y13791000D01*
X3989000Y13791000D01*
X3989000Y13811000D01*
X4139000Y13811000D01*
X4139000Y13791000D01*
X5439307Y13791000D01*
X5580007Y14032047D01*
X5500102Y14295467D01*
X5359459Y14564502D01*
X5169033Y14800930D01*
X4952590Y14981911D01*
X5164324Y15155676D01*
X5357844Y15391481D01*
X5360259Y15396000D01*
X7513763Y15396000D01*
X7556002Y15391840D01*
X7598241Y15396000D01*
X7598248Y15396000D01*
X7724591Y15408444D01*
X7886702Y15457619D01*
X8036104Y15537476D01*
X8040000Y15540673D01*
X8040000Y14767051D01*
X8061487Y14548890D01*
X8146401Y14268967D01*
X8284294Y14010987D01*
X8469866Y13784866D01*
X8695986Y13599294D01*
X8953966Y13461401D01*
X9233889Y13376487D01*
X9525000Y13347815D01*
X9816110Y13376487D01*
X10096033Y13461401D01*
X10354013Y13599294D01*
X10580134Y13784866D01*
X10765706Y14010986D01*
X10799184Y14073620D01*
X10871936Y13952618D01*
X11067980Y13736914D01*
X11302339Y13563601D01*
X11566006Y13439339D01*
X11758915Y13386887D01*
X11990000Y13528393D01*
X11990000Y15165000D01*
X11970000Y15165000D01*
X11970000Y15315000D01*
X11990000Y15315000D01*
X11990000Y15335000D01*
X12140000Y15335000D01*
X12140000Y15315000D01*
X12160000Y15315000D01*
X12160000Y15165000D01*
X12140000Y15165000D01*
X12140000Y13528393D01*
X12371085Y13386887D01*
X12563994Y13439339D01*
X12827661Y13563601D01*
X13062020Y13736914D01*
X13151314Y13835163D01*
X13169081Y13776594D01*
X13232688Y13657593D01*
X13318289Y13553289D01*
X13422593Y13467688D01*
X13541594Y13404081D01*
X13670717Y13364912D01*
X13805000Y13351686D01*
X15405000Y13351686D01*
X15539283Y13364912D01*
X15668406Y13404081D01*
X15787407Y13467688D01*
X15891711Y13553289D01*
X15977312Y13657593D01*
X16040919Y13776594D01*
X16080088Y13905717D01*
X16093314Y14040000D01*
X16093314Y16440000D01*
X16080088Y16574283D01*
X16040919Y16703406D01*
X15977312Y16822407D01*
X15891711Y16926711D01*
X15787407Y17012312D01*
X15668406Y17075919D01*
X15539283Y17115088D01*
X15405000Y17128314D01*
X14332910Y17128314D01*
X12086988Y19374235D01*
X12060054Y19407054D01*
X11929102Y19514524D01*
X11779700Y19594381D01*
X11617589Y19643556D01*
X11491246Y19656000D01*
X11491239Y19656000D01*
X11476314Y19657470D01*
X11476314Y19671000D01*
X11463088Y19805283D01*
X11423919Y19934406D01*
X11360312Y20053407D01*
X11274711Y20157711D01*
X11170407Y20243312D01*
X11051406Y20306919D01*
X10922283Y20346088D01*
X10788000Y20359314D01*
X9787001Y20359314D01*
X9787001Y22567178D01*
X9792000Y22566686D01*
X11042000Y22566686D01*
X11176283Y22579912D01*
X11305406Y22619081D01*
X11424407Y22682688D01*
X11528711Y22768289D01*
X11614312Y22872593D01*
X11677919Y22991594D01*
X11717088Y23120717D01*
X11730314Y23255000D01*
X11730314Y25005000D01*
X11717088Y25139283D01*
X11677919Y25268406D01*
X11614312Y25387407D01*
X11528711Y25491711D01*
X11424407Y25577312D01*
X11305406Y25640919D01*
X11274000Y25650446D01*
X11274000Y28848686D01*
X11304000Y28848686D01*
X11438283Y28861912D01*
X11567406Y28901081D01*
X11686407Y28964688D01*
X11790711Y29050289D01*
X11876312Y29154593D01*
X11939919Y29273594D01*
X11979088Y29402717D01*
X11992314Y29537000D01*
X11992314Y31037000D01*
X11979088Y31171283D01*
X11939919Y31300406D01*
X11876312Y31419407D01*
X11790711Y31523711D01*
X11686407Y31609312D01*
X11567406Y31672919D01*
X11438283Y31712088D01*
X11304000Y31725314D01*
X9524000Y31725314D01*
X9389717Y31712088D01*
X9260594Y31672919D01*
X9144000Y31610599D01*
X9027406Y31672919D01*
X8898283Y31712088D01*
X8764000Y31725314D01*
X8120250Y31722000D01*
X7949000Y31550750D01*
X7949000Y30362000D01*
X7969000Y30362000D01*
X7969000Y30212000D01*
X7949000Y30212000D01*
X7949000Y29023250D01*
X8120250Y28852000D01*
X8764000Y28848686D01*
X8898283Y28861912D01*
X9027406Y28901081D01*
X9144000Y28963401D01*
X9260594Y28901081D01*
X9389717Y28861912D01*
X9524000Y28848686D01*
X9554000Y28848686D01*
X9554001Y25954623D01*
X9538055Y25974053D01*
X9505242Y26000982D01*
X5969224Y29537000D01*
X6295686Y29537000D01*
X6308912Y29402717D01*
X6348081Y29273594D01*
X6411688Y29154593D01*
X6497289Y29050289D01*
X6601593Y28964688D01*
X6720594Y28901081D01*
X6849717Y28861912D01*
X6984000Y28848686D01*
X7627750Y28852000D01*
X7799000Y29023250D01*
X7799000Y30212000D01*
X6470250Y30212000D01*
X6299000Y30040750D01*
X6295686Y29537000D01*
X5969224Y29537000D01*
X4469224Y31037000D01*
X6295686Y31037000D01*
X6299000Y30533250D01*
X6470250Y30362000D01*
X7799000Y30362000D01*
X7799000Y31550750D01*
X7627750Y31722000D01*
X6984000Y31725314D01*
X6849717Y31712088D01*
X6720594Y31672919D01*
X6601593Y31609312D01*
X6497289Y31523711D01*
X6411688Y31419407D01*
X6348081Y31300406D01*
X6308912Y31171283D01*
X6295686Y31037000D01*
X4469224Y31037000D01*
X3714364Y31791860D01*
X3789013Y31866509D01*
X4000775Y32183434D01*
X4146639Y32535581D01*
X4221000Y32909419D01*
X4221000Y33290581D01*
X4146639Y33664419D01*
X4000775Y34016566D01*
X3789013Y34333491D01*
X3519491Y34603013D01*
X3202566Y34814775D01*
X2850419Y34960639D01*
X2476581Y35035000D01*
X2095419Y35035000D01*
X2022773Y35020550D01*
X2864242Y35862018D01*
X2897054Y35888946D01*
X3004524Y36019898D01*
X3056564Y36117259D01*
X3080312Y36161686D01*
X3536000Y36161686D01*
X3670283Y36174912D01*
X3799406Y36214081D01*
X3918407Y36277688D01*
X4022711Y36363289D01*
X4108312Y36467593D01*
X4171919Y36586594D01*
X4211088Y36715717D01*
X4224314Y36850000D01*
X4224314Y39350000D01*
X4211088Y39484283D01*
X4171919Y39613406D01*
X4108312Y39732407D01*
X4022711Y39836711D01*
X3918407Y39922312D01*
X3799406Y39985919D01*
X3670283Y40025088D01*
X3536000Y40038314D01*
X1036000Y40038314D01*
X901717Y40025088D01*
X772594Y39985919D01*
X653593Y39922312D01*
X549289Y39836711D01*
X463688Y39732407D01*
X400081Y39613406D01*
X360912Y39484283D01*
X347686Y39350000D01*
X347686Y36850000D01*
X360912Y36715717D01*
X400081Y36586594D01*
X463688Y36467593D01*
X549289Y36363289D01*
X653593Y36277688D01*
X772594Y36214081D01*
X781236Y36211459D01*
X-227241Y35202982D01*
X-260054Y35176053D01*
X-286983Y35143240D01*
X-286985Y35143238D01*
X-367524Y35045101D01*
X-447381Y34895699D01*
X-496557Y34733588D01*
X-513161Y34564999D01*
X-2040000Y34564999D01*
X-2040000Y40567000D01*
X6295686Y40567000D01*
X6295686Y39067000D01*
X6308912Y38932717D01*
X6348081Y38803594D01*
X6411688Y38684593D01*
X6497289Y38580289D01*
X6601593Y38494688D01*
X6720594Y38431081D01*
X6849717Y38391912D01*
X6984000Y38378686D01*
X8764000Y38378686D01*
X8898283Y38391912D01*
X9027406Y38431081D01*
X9144000Y38493401D01*
X9260594Y38431081D01*
X9389717Y38391912D01*
X9524000Y38378686D01*
X11304000Y38378686D01*
X11438283Y38391912D01*
X11567406Y38431081D01*
X11686407Y38494688D01*
X11790711Y38580289D01*
X11876312Y38684593D01*
X11939919Y38803594D01*
X11979088Y38932717D01*
X11981480Y38957000D01*
X12272686Y38957000D01*
X12272686Y38876000D01*
X12285912Y38741717D01*
X12325081Y38612594D01*
X12388688Y38493593D01*
X12474289Y38389289D01*
X12578593Y38303688D01*
X12697594Y38240081D01*
X12826717Y38200912D01*
X12961000Y38187686D01*
X14211000Y38187686D01*
X14345283Y38200912D01*
X14474406Y38240081D01*
X14593407Y38303688D01*
X14697711Y38389289D01*
X14783312Y38493593D01*
X14846919Y38612594D01*
X14886088Y38741717D01*
X14899314Y38876000D01*
X14899314Y40626000D01*
X14886088Y40760283D01*
X14846919Y40889406D01*
X14783312Y41008407D01*
X14697711Y41112711D01*
X14593407Y41198312D01*
X14474406Y41261919D01*
X14345283Y41301088D01*
X14211000Y41314314D01*
X12961000Y41314314D01*
X12826717Y41301088D01*
X12697594Y41261919D01*
X12578593Y41198312D01*
X12474289Y41112711D01*
X12388688Y41008407D01*
X12325081Y40889406D01*
X12285912Y40760283D01*
X12277709Y40677000D01*
X11981480Y40677000D01*
X11979088Y40701283D01*
X11939919Y40830406D01*
X11876312Y40949407D01*
X11790711Y41053711D01*
X11686407Y41139312D01*
X11567406Y41202919D01*
X11438283Y41242088D01*
X11304000Y41255314D01*
X9524000Y41255314D01*
X9389717Y41242088D01*
X9260594Y41202919D01*
X9144000Y41140599D01*
X9027406Y41202919D01*
X8984237Y41216014D01*
X9619015Y41850791D01*
X9675581Y41827361D01*
X10049419Y41753000D01*
X10430581Y41753000D01*
X10804419Y41827361D01*
X11156566Y41973225D01*
X11473491Y42184987D01*
X11743013Y42454509D01*
X11954775Y42771434D01*
X12100639Y43123581D01*
X12175000Y43497419D01*
X12175000Y43878581D01*
X12100639Y44252419D01*
X11954775Y44604566D01*
X11743013Y44921491D01*
X11473491Y45191013D01*
X11156566Y45402775D01*
X10804419Y45548639D01*
X10430581Y45623000D01*
X10049419Y45623000D01*
X9675581Y45548639D01*
X9323434Y45402775D01*
X9006509Y45191013D01*
X8736987Y44921491D01*
X8525225Y44604566D01*
X8379361Y44252419D01*
X8305000Y43878581D01*
X8305000Y43497419D01*
X8379361Y43123581D01*
X8402791Y43067015D01*
X7295760Y41959983D01*
X7262947Y41933054D01*
X7236018Y41900241D01*
X7236016Y41900239D01*
X7155477Y41802102D01*
X7075620Y41652700D01*
X7026444Y41490589D01*
X7009840Y41322000D01*
X7014001Y41279752D01*
X7014001Y41255314D01*
X6984000Y41255314D01*
X6849717Y41242088D01*
X6720594Y41202919D01*
X6601593Y41139312D01*
X6497289Y41053711D01*
X6411688Y40949407D01*
X6348081Y40830406D01*
X6308912Y40701283D01*
X6295686Y40567000D01*
X-2040000Y40567000D01*
X-2040000Y43835558D01*
X-1768959Y43564517D01*
X-1314455Y43260827D01*
X-809438Y43051642D01*
X-273314Y42945000D01*
X273314Y42945000D01*
X809438Y43051642D01*
X1314455Y43260827D01*
X1768959Y43564517D01*
X2155483Y43951041D01*
X2459173Y44405545D01*
X2668358Y44910562D01*
X2775000Y45446686D01*
X2775000Y45993314D01*
X2668358Y46529438D01*
X2459173Y47034455D01*
X2155483Y47488959D01*
X1884442Y47760000D01*
X17224000Y47760000D01*
X17224000Y42742092D01*
G36*
X29035000Y10208000D02*
G01*
X23560753Y10208000D01*
X22654000Y11001409D01*
X22654000Y15217000D01*
X23391719Y15217000D01*
X23432748Y14800427D01*
X23554258Y14399863D01*
X23751579Y14030701D01*
X24017128Y13707128D01*
X24340701Y13441579D01*
X24709863Y13244258D01*
X25110427Y13122748D01*
X25422616Y13092000D01*
X25631384Y13092000D01*
X25943573Y13122748D01*
X26344137Y13244258D01*
X26713299Y13441579D01*
X27036872Y13707128D01*
X27302421Y14030701D01*
X27499742Y14399863D01*
X27621252Y14800427D01*
X27662281Y15217000D01*
X27621252Y15633573D01*
X27499742Y16034137D01*
X27302421Y16403299D01*
X27036872Y16726872D01*
X26713299Y16992421D01*
X26344137Y17189742D01*
X25943573Y17311252D01*
X25631384Y17342000D01*
X25422616Y17342000D01*
X25110427Y17311252D01*
X24709863Y17189742D01*
X24340701Y16992421D01*
X24017128Y16726872D01*
X23751579Y16403299D01*
X23554258Y16034137D01*
X23432748Y15633573D01*
X23391719Y15217000D01*
X22654000Y15217000D01*
X22654000Y24689727D01*
X27374733Y29162000D01*
X29035000Y29162000D01*
X29035000Y10208000D01*
X29035000Y10208000D01*
G37*
X29035000Y10208000D02*
X23560753Y10208000D01*
X22654000Y11001409D01*
X22654000Y15217000D01*
X23391719Y15217000D01*
X23432748Y14800427D01*
X23554258Y14399863D01*
X23751579Y14030701D01*
X24017128Y13707128D01*
X24340701Y13441579D01*
X24709863Y13244258D01*
X25110427Y13122748D01*
X25422616Y13092000D01*
X25631384Y13092000D01*
X25943573Y13122748D01*
X26344137Y13244258D01*
X26713299Y13441579D01*
X27036872Y13707128D01*
X27302421Y14030701D01*
X27499742Y14399863D01*
X27621252Y14800427D01*
X27662281Y15217000D01*
X27621252Y15633573D01*
X27499742Y16034137D01*
X27302421Y16403299D01*
X27036872Y16726872D01*
X26713299Y16992421D01*
X26344137Y17189742D01*
X25943573Y17311252D01*
X25631384Y17342000D01*
X25422616Y17342000D01*
X25110427Y17311252D01*
X24709863Y17189742D01*
X24340701Y16992421D01*
X24017128Y16726872D01*
X23751579Y16403299D01*
X23554258Y16034137D01*
X23432748Y15633573D01*
X23391719Y15217000D01*
X22654000Y15217000D01*
X22654000Y24689727D01*
X27374733Y29162000D01*
X29035000Y29162000D01*
X29035000Y10208000D01*
M02*
