G04 #@! TF.GenerationSoftware,KiCad,Pcbnew,(5.1.2)-2*
G04 #@! TF.CreationDate,2019-08-12T18:41:55+03:00*
G04 #@! TF.ProjectId,Clever_Light,436c6576-6572-45f4-9c69-6768742e6b69,rev?*
G04 #@! TF.SameCoordinates,Original*
G04 #@! TF.FileFunction,Other,Fab,Bot*
%FSLAX46Y46*%
G04 Gerber Fmt 4.6, Leading zero omitted, Abs format (unit mm)*
G04 Created by KiCad (PCBNEW (5.1.2)-2) date 2019-08-12 18:41:55*
%MOMM*%
%LPD*%
G04 APERTURE LIST*
%ADD10C,0.100000*%
%ADD11C,0.150000*%
%ADD12C,0.300000*%
%ADD13C,0.400000*%
%ADD14C,0.120000*%
G04 APERTURE END LIST*
D10*
D11*
X177002200Y-166007200D02*
X177002200Y-198007200D01*
X285002200Y-198007200D01*
X285002200Y-166007200D01*
X177002200Y-166007200D01*
D10*
D11*
X10000000Y-10000000D02*
X10000000Y-200007200D01*
X287002200Y-200007200D01*
X287002200Y-10000000D01*
X10000000Y-10000000D01*
D10*
D11*
X12000000Y-12000000D02*
X12000000Y-198007200D01*
X285002200Y-198007200D01*
X285002200Y-12000000D01*
X12000000Y-12000000D01*
D10*
D11*
X60000000Y-12000000D02*
X60000000Y-10000000D01*
D10*
D11*
X110000000Y-12000000D02*
X110000000Y-10000000D01*
D10*
D11*
X160000000Y-12000000D02*
X160000000Y-10000000D01*
D10*
D11*
X210000000Y-12000000D02*
X210000000Y-10000000D01*
D10*
D11*
X260000000Y-12000000D02*
X260000000Y-10000000D01*
D10*
D11*
X36065476Y-11588095D02*
X35322619Y-11588095D01*
X35694047Y-11588095D02*
X35694047Y-10288095D01*
X35570238Y-10473809D01*
X35446428Y-10597619D01*
X35322619Y-10659523D01*
D10*
D11*
X85322619Y-10411904D02*
X85384523Y-10350000D01*
X85508333Y-10288095D01*
X85817857Y-10288095D01*
X85941666Y-10350000D01*
X86003571Y-10411904D01*
X86065476Y-10535714D01*
X86065476Y-10659523D01*
X86003571Y-10845238D01*
X85260714Y-11588095D01*
X86065476Y-11588095D01*
D10*
D11*
X135260714Y-10288095D02*
X136065476Y-10288095D01*
X135632142Y-10783333D01*
X135817857Y-10783333D01*
X135941666Y-10845238D01*
X136003571Y-10907142D01*
X136065476Y-11030952D01*
X136065476Y-11340476D01*
X136003571Y-11464285D01*
X135941666Y-11526190D01*
X135817857Y-11588095D01*
X135446428Y-11588095D01*
X135322619Y-11526190D01*
X135260714Y-11464285D01*
D10*
D11*
X185941666Y-10721428D02*
X185941666Y-11588095D01*
X185632142Y-10226190D02*
X185322619Y-11154761D01*
X186127380Y-11154761D01*
D10*
D11*
X236003571Y-10288095D02*
X235384523Y-10288095D01*
X235322619Y-10907142D01*
X235384523Y-10845238D01*
X235508333Y-10783333D01*
X235817857Y-10783333D01*
X235941666Y-10845238D01*
X236003571Y-10907142D01*
X236065476Y-11030952D01*
X236065476Y-11340476D01*
X236003571Y-11464285D01*
X235941666Y-11526190D01*
X235817857Y-11588095D01*
X235508333Y-11588095D01*
X235384523Y-11526190D01*
X235322619Y-11464285D01*
D10*
D11*
X285941666Y-10288095D02*
X285694047Y-10288095D01*
X285570238Y-10350000D01*
X285508333Y-10411904D01*
X285384523Y-10597619D01*
X285322619Y-10845238D01*
X285322619Y-11340476D01*
X285384523Y-11464285D01*
X285446428Y-11526190D01*
X285570238Y-11588095D01*
X285817857Y-11588095D01*
X285941666Y-11526190D01*
X286003571Y-11464285D01*
X286065476Y-11340476D01*
X286065476Y-11030952D01*
X286003571Y-10907142D01*
X285941666Y-10845238D01*
X285817857Y-10783333D01*
X285570238Y-10783333D01*
X285446428Y-10845238D01*
X285384523Y-10907142D01*
X285322619Y-11030952D01*
D10*
D11*
X60000000Y-198007200D02*
X60000000Y-200007200D01*
D10*
D11*
X110000000Y-198007200D02*
X110000000Y-200007200D01*
D10*
D11*
X160000000Y-198007200D02*
X160000000Y-200007200D01*
D10*
D11*
X210000000Y-198007200D02*
X210000000Y-200007200D01*
D10*
D11*
X260000000Y-198007200D02*
X260000000Y-200007200D01*
D10*
D11*
X36065476Y-199595295D02*
X35322619Y-199595295D01*
X35694047Y-199595295D02*
X35694047Y-198295295D01*
X35570238Y-198481009D01*
X35446428Y-198604819D01*
X35322619Y-198666723D01*
D10*
D11*
X85322619Y-198419104D02*
X85384523Y-198357200D01*
X85508333Y-198295295D01*
X85817857Y-198295295D01*
X85941666Y-198357200D01*
X86003571Y-198419104D01*
X86065476Y-198542914D01*
X86065476Y-198666723D01*
X86003571Y-198852438D01*
X85260714Y-199595295D01*
X86065476Y-199595295D01*
D10*
D11*
X135260714Y-198295295D02*
X136065476Y-198295295D01*
X135632142Y-198790533D01*
X135817857Y-198790533D01*
X135941666Y-198852438D01*
X136003571Y-198914342D01*
X136065476Y-199038152D01*
X136065476Y-199347676D01*
X136003571Y-199471485D01*
X135941666Y-199533390D01*
X135817857Y-199595295D01*
X135446428Y-199595295D01*
X135322619Y-199533390D01*
X135260714Y-199471485D01*
D10*
D11*
X185941666Y-198728628D02*
X185941666Y-199595295D01*
X185632142Y-198233390D02*
X185322619Y-199161961D01*
X186127380Y-199161961D01*
D10*
D11*
X236003571Y-198295295D02*
X235384523Y-198295295D01*
X235322619Y-198914342D01*
X235384523Y-198852438D01*
X235508333Y-198790533D01*
X235817857Y-198790533D01*
X235941666Y-198852438D01*
X236003571Y-198914342D01*
X236065476Y-199038152D01*
X236065476Y-199347676D01*
X236003571Y-199471485D01*
X235941666Y-199533390D01*
X235817857Y-199595295D01*
X235508333Y-199595295D01*
X235384523Y-199533390D01*
X235322619Y-199471485D01*
D10*
D11*
X285941666Y-198295295D02*
X285694047Y-198295295D01*
X285570238Y-198357200D01*
X285508333Y-198419104D01*
X285384523Y-198604819D01*
X285322619Y-198852438D01*
X285322619Y-199347676D01*
X285384523Y-199471485D01*
X285446428Y-199533390D01*
X285570238Y-199595295D01*
X285817857Y-199595295D01*
X285941666Y-199533390D01*
X286003571Y-199471485D01*
X286065476Y-199347676D01*
X286065476Y-199038152D01*
X286003571Y-198914342D01*
X285941666Y-198852438D01*
X285817857Y-198790533D01*
X285570238Y-198790533D01*
X285446428Y-198852438D01*
X285384523Y-198914342D01*
X285322619Y-199038152D01*
D10*
D11*
X10000000Y-60000000D02*
X12000000Y-60000000D01*
D10*
D11*
X10000000Y-110000000D02*
X12000000Y-110000000D01*
D10*
D11*
X10000000Y-160000000D02*
X12000000Y-160000000D01*
D10*
D11*
X10690476Y-35216666D02*
X11309523Y-35216666D01*
X10566666Y-35588095D02*
X11000000Y-34288095D01*
X11433333Y-35588095D01*
D10*
D11*
X11092857Y-84907142D02*
X11278571Y-84969047D01*
X11340476Y-85030952D01*
X11402380Y-85154761D01*
X11402380Y-85340476D01*
X11340476Y-85464285D01*
X11278571Y-85526190D01*
X11154761Y-85588095D01*
X10659523Y-85588095D01*
X10659523Y-84288095D01*
X11092857Y-84288095D01*
X11216666Y-84350000D01*
X11278571Y-84411904D01*
X11340476Y-84535714D01*
X11340476Y-84659523D01*
X11278571Y-84783333D01*
X11216666Y-84845238D01*
X11092857Y-84907142D01*
X10659523Y-84907142D01*
D10*
D11*
X11402380Y-135464285D02*
X11340476Y-135526190D01*
X11154761Y-135588095D01*
X11030952Y-135588095D01*
X10845238Y-135526190D01*
X10721428Y-135402380D01*
X10659523Y-135278571D01*
X10597619Y-135030952D01*
X10597619Y-134845238D01*
X10659523Y-134597619D01*
X10721428Y-134473809D01*
X10845238Y-134350000D01*
X11030952Y-134288095D01*
X11154761Y-134288095D01*
X11340476Y-134350000D01*
X11402380Y-134411904D01*
D10*
D11*
X10659523Y-185588095D02*
X10659523Y-184288095D01*
X10969047Y-184288095D01*
X11154761Y-184350000D01*
X11278571Y-184473809D01*
X11340476Y-184597619D01*
X11402380Y-184845238D01*
X11402380Y-185030952D01*
X11340476Y-185278571D01*
X11278571Y-185402380D01*
X11154761Y-185526190D01*
X10969047Y-185588095D01*
X10659523Y-185588095D01*
D10*
D11*
X287002200Y-60000000D02*
X285002200Y-60000000D01*
D10*
D11*
X287002200Y-110000000D02*
X285002200Y-110000000D01*
D10*
D11*
X287002200Y-160000000D02*
X285002200Y-160000000D01*
D10*
D11*
X285692676Y-35216666D02*
X286311723Y-35216666D01*
X285568866Y-35588095D02*
X286002200Y-34288095D01*
X286435533Y-35588095D01*
D10*
D11*
X286095057Y-84907142D02*
X286280771Y-84969047D01*
X286342676Y-85030952D01*
X286404580Y-85154761D01*
X286404580Y-85340476D01*
X286342676Y-85464285D01*
X286280771Y-85526190D01*
X286156961Y-85588095D01*
X285661723Y-85588095D01*
X285661723Y-84288095D01*
X286095057Y-84288095D01*
X286218866Y-84350000D01*
X286280771Y-84411904D01*
X286342676Y-84535714D01*
X286342676Y-84659523D01*
X286280771Y-84783333D01*
X286218866Y-84845238D01*
X286095057Y-84907142D01*
X285661723Y-84907142D01*
D10*
D11*
X286404580Y-135464285D02*
X286342676Y-135526190D01*
X286156961Y-135588095D01*
X286033152Y-135588095D01*
X285847438Y-135526190D01*
X285723628Y-135402380D01*
X285661723Y-135278571D01*
X285599819Y-135030952D01*
X285599819Y-134845238D01*
X285661723Y-134597619D01*
X285723628Y-134473809D01*
X285847438Y-134350000D01*
X286033152Y-134288095D01*
X286156961Y-134288095D01*
X286342676Y-134350000D01*
X286404580Y-134411904D01*
D10*
D11*
X285661723Y-185588095D02*
X285661723Y-184288095D01*
X285971247Y-184288095D01*
X286156961Y-184350000D01*
X286280771Y-184473809D01*
X286342676Y-184597619D01*
X286404580Y-184845238D01*
X286404580Y-185030952D01*
X286342676Y-185278571D01*
X286280771Y-185402380D01*
X286156961Y-185526190D01*
X285971247Y-185588095D01*
X285661723Y-185588095D01*
D10*
D11*
X200434342Y-193785771D02*
X200434342Y-192285771D01*
X200791485Y-192285771D01*
X201005771Y-192357200D01*
X201148628Y-192500057D01*
X201220057Y-192642914D01*
X201291485Y-192928628D01*
X201291485Y-193142914D01*
X201220057Y-193428628D01*
X201148628Y-193571485D01*
X201005771Y-193714342D01*
X200791485Y-193785771D01*
X200434342Y-193785771D01*
X202577200Y-193785771D02*
X202577200Y-193000057D01*
X202505771Y-192857200D01*
X202362914Y-192785771D01*
X202077200Y-192785771D01*
X201934342Y-192857200D01*
X202577200Y-193714342D02*
X202434342Y-193785771D01*
X202077200Y-193785771D01*
X201934342Y-193714342D01*
X201862914Y-193571485D01*
X201862914Y-193428628D01*
X201934342Y-193285771D01*
X202077200Y-193214342D01*
X202434342Y-193214342D01*
X202577200Y-193142914D01*
X203077200Y-192785771D02*
X203648628Y-192785771D01*
X203291485Y-192285771D02*
X203291485Y-193571485D01*
X203362914Y-193714342D01*
X203505771Y-193785771D01*
X203648628Y-193785771D01*
X204720057Y-193714342D02*
X204577200Y-193785771D01*
X204291485Y-193785771D01*
X204148628Y-193714342D01*
X204077200Y-193571485D01*
X204077200Y-193000057D01*
X204148628Y-192857200D01*
X204291485Y-192785771D01*
X204577200Y-192785771D01*
X204720057Y-192857200D01*
X204791485Y-193000057D01*
X204791485Y-193142914D01*
X204077200Y-193285771D01*
X205434342Y-193642914D02*
X205505771Y-193714342D01*
X205434342Y-193785771D01*
X205362914Y-193714342D01*
X205434342Y-193642914D01*
X205434342Y-193785771D01*
X205434342Y-192857200D02*
X205505771Y-192928628D01*
X205434342Y-193000057D01*
X205362914Y-192928628D01*
X205434342Y-192857200D01*
X205434342Y-193000057D01*
D10*
D11*
X177002200Y-194507200D02*
X285002200Y-194507200D01*
D10*
D11*
X178434342Y-196585771D02*
X178434342Y-195085771D01*
X179291485Y-196585771D02*
X178648628Y-195728628D01*
X179291485Y-195085771D02*
X178434342Y-195942914D01*
X179934342Y-196585771D02*
X179934342Y-195585771D01*
X179934342Y-195085771D02*
X179862914Y-195157200D01*
X179934342Y-195228628D01*
X180005771Y-195157200D01*
X179934342Y-195085771D01*
X179934342Y-195228628D01*
X181505771Y-196442914D02*
X181434342Y-196514342D01*
X181220057Y-196585771D01*
X181077200Y-196585771D01*
X180862914Y-196514342D01*
X180720057Y-196371485D01*
X180648628Y-196228628D01*
X180577200Y-195942914D01*
X180577200Y-195728628D01*
X180648628Y-195442914D01*
X180720057Y-195300057D01*
X180862914Y-195157200D01*
X181077200Y-195085771D01*
X181220057Y-195085771D01*
X181434342Y-195157200D01*
X181505771Y-195228628D01*
X182791485Y-196585771D02*
X182791485Y-195800057D01*
X182720057Y-195657200D01*
X182577200Y-195585771D01*
X182291485Y-195585771D01*
X182148628Y-195657200D01*
X182791485Y-196514342D02*
X182648628Y-196585771D01*
X182291485Y-196585771D01*
X182148628Y-196514342D01*
X182077200Y-196371485D01*
X182077200Y-196228628D01*
X182148628Y-196085771D01*
X182291485Y-196014342D01*
X182648628Y-196014342D01*
X182791485Y-195942914D01*
X184148628Y-196585771D02*
X184148628Y-195085771D01*
X184148628Y-196514342D02*
X184005771Y-196585771D01*
X183720057Y-196585771D01*
X183577200Y-196514342D01*
X183505771Y-196442914D01*
X183434342Y-196300057D01*
X183434342Y-195871485D01*
X183505771Y-195728628D01*
X183577200Y-195657200D01*
X183720057Y-195585771D01*
X184005771Y-195585771D01*
X184148628Y-195657200D01*
X186005771Y-195800057D02*
X186505771Y-195800057D01*
X186720057Y-196585771D02*
X186005771Y-196585771D01*
X186005771Y-195085771D01*
X186720057Y-195085771D01*
X187362914Y-196442914D02*
X187434342Y-196514342D01*
X187362914Y-196585771D01*
X187291485Y-196514342D01*
X187362914Y-196442914D01*
X187362914Y-196585771D01*
X188077200Y-196585771D02*
X188077200Y-195085771D01*
X188434342Y-195085771D01*
X188648628Y-195157200D01*
X188791485Y-195300057D01*
X188862914Y-195442914D01*
X188934342Y-195728628D01*
X188934342Y-195942914D01*
X188862914Y-196228628D01*
X188791485Y-196371485D01*
X188648628Y-196514342D01*
X188434342Y-196585771D01*
X188077200Y-196585771D01*
X189577200Y-196442914D02*
X189648628Y-196514342D01*
X189577200Y-196585771D01*
X189505771Y-196514342D01*
X189577200Y-196442914D01*
X189577200Y-196585771D01*
X190220057Y-196157200D02*
X190934342Y-196157200D01*
X190077200Y-196585771D02*
X190577200Y-195085771D01*
X191077200Y-196585771D01*
X191577200Y-196442914D02*
X191648628Y-196514342D01*
X191577200Y-196585771D01*
X191505771Y-196514342D01*
X191577200Y-196442914D01*
X191577200Y-196585771D01*
X194577200Y-196585771D02*
X194577200Y-195085771D01*
X194720057Y-196014342D02*
X195148628Y-196585771D01*
X195148628Y-195585771D02*
X194577200Y-196157200D01*
X195791485Y-196585771D02*
X195791485Y-195585771D01*
X195791485Y-195085771D02*
X195720057Y-195157200D01*
X195791485Y-195228628D01*
X195862914Y-195157200D01*
X195791485Y-195085771D01*
X195791485Y-195228628D01*
X197148628Y-196514342D02*
X197005771Y-196585771D01*
X196720057Y-196585771D01*
X196577200Y-196514342D01*
X196505771Y-196442914D01*
X196434342Y-196300057D01*
X196434342Y-195871485D01*
X196505771Y-195728628D01*
X196577200Y-195657200D01*
X196720057Y-195585771D01*
X197005771Y-195585771D01*
X197148628Y-195657200D01*
X198434342Y-196585771D02*
X198434342Y-195800057D01*
X198362914Y-195657200D01*
X198220057Y-195585771D01*
X197934342Y-195585771D01*
X197791485Y-195657200D01*
X198434342Y-196514342D02*
X198291485Y-196585771D01*
X197934342Y-196585771D01*
X197791485Y-196514342D01*
X197720057Y-196371485D01*
X197720057Y-196228628D01*
X197791485Y-196085771D01*
X197934342Y-196014342D01*
X198291485Y-196014342D01*
X198434342Y-195942914D01*
X199791485Y-196585771D02*
X199791485Y-195085771D01*
X199791485Y-196514342D02*
X199648628Y-196585771D01*
X199362914Y-196585771D01*
X199220057Y-196514342D01*
X199148628Y-196442914D01*
X199077200Y-196300057D01*
X199077200Y-195871485D01*
X199148628Y-195728628D01*
X199220057Y-195657200D01*
X199362914Y-195585771D01*
X199648628Y-195585771D01*
X199791485Y-195657200D01*
X202077200Y-197157200D02*
X202005771Y-197085771D01*
X201862914Y-196871485D01*
X201791485Y-196728628D01*
X201720057Y-196514342D01*
X201648628Y-196157200D01*
X201648628Y-195871485D01*
X201720057Y-195514342D01*
X201791485Y-195300057D01*
X201862914Y-195157200D01*
X202005771Y-194942914D01*
X202077200Y-194871485D01*
X203362914Y-195085771D02*
X202648628Y-195085771D01*
X202577200Y-195800057D01*
X202648628Y-195728628D01*
X202791485Y-195657200D01*
X203148628Y-195657200D01*
X203291485Y-195728628D01*
X203362914Y-195800057D01*
X203434342Y-195942914D01*
X203434342Y-196300057D01*
X203362914Y-196442914D01*
X203291485Y-196514342D01*
X203148628Y-196585771D01*
X202791485Y-196585771D01*
X202648628Y-196514342D01*
X202577200Y-196442914D01*
X204077200Y-196442914D02*
X204148628Y-196514342D01*
X204077200Y-196585771D01*
X204005771Y-196514342D01*
X204077200Y-196442914D01*
X204077200Y-196585771D01*
X205577200Y-196585771D02*
X204720057Y-196585771D01*
X205148628Y-196585771D02*
X205148628Y-195085771D01*
X205005771Y-195300057D01*
X204862914Y-195442914D01*
X204720057Y-195514342D01*
X206220057Y-196442914D02*
X206291485Y-196514342D01*
X206220057Y-196585771D01*
X206148628Y-196514342D01*
X206220057Y-196442914D01*
X206220057Y-196585771D01*
X206862914Y-195228628D02*
X206934342Y-195157200D01*
X207077200Y-195085771D01*
X207434342Y-195085771D01*
X207577200Y-195157200D01*
X207648628Y-195228628D01*
X207720057Y-195371485D01*
X207720057Y-195514342D01*
X207648628Y-195728628D01*
X206791485Y-196585771D01*
X207720057Y-196585771D01*
X208220057Y-197157200D02*
X208291485Y-197085771D01*
X208434342Y-196871485D01*
X208505771Y-196728628D01*
X208577200Y-196514342D01*
X208648628Y-196157200D01*
X208648628Y-195871485D01*
X208577200Y-195514342D01*
X208505771Y-195300057D01*
X208434342Y-195157200D01*
X208291485Y-194942914D01*
X208220057Y-194871485D01*
X209362914Y-196014342D02*
X210505771Y-196014342D01*
X211148628Y-195228628D02*
X211220057Y-195157200D01*
X211362914Y-195085771D01*
X211720057Y-195085771D01*
X211862914Y-195157200D01*
X211934342Y-195228628D01*
X212005771Y-195371485D01*
X212005771Y-195514342D01*
X211934342Y-195728628D01*
X211077200Y-196585771D01*
X212005771Y-196585771D01*
D10*
D11*
X177002200Y-191507200D02*
X285002200Y-191507200D01*
D10*
D12*
X264411485Y-193785771D02*
X263911485Y-193071485D01*
X263554342Y-193785771D02*
X263554342Y-192285771D01*
X264125771Y-192285771D01*
X264268628Y-192357200D01*
X264340057Y-192428628D01*
X264411485Y-192571485D01*
X264411485Y-192785771D01*
X264340057Y-192928628D01*
X264268628Y-193000057D01*
X264125771Y-193071485D01*
X263554342Y-193071485D01*
X265625771Y-193714342D02*
X265482914Y-193785771D01*
X265197200Y-193785771D01*
X265054342Y-193714342D01*
X264982914Y-193571485D01*
X264982914Y-193000057D01*
X265054342Y-192857200D01*
X265197200Y-192785771D01*
X265482914Y-192785771D01*
X265625771Y-192857200D01*
X265697200Y-193000057D01*
X265697200Y-193142914D01*
X264982914Y-193285771D01*
X266197200Y-192785771D02*
X266554342Y-193785771D01*
X266911485Y-192785771D01*
X267482914Y-193642914D02*
X267554342Y-193714342D01*
X267482914Y-193785771D01*
X267411485Y-193714342D01*
X267482914Y-193642914D01*
X267482914Y-193785771D01*
X267482914Y-192857200D02*
X267554342Y-192928628D01*
X267482914Y-193000057D01*
X267411485Y-192928628D01*
X267482914Y-192857200D01*
X267482914Y-193000057D01*
D10*
D11*
X178362914Y-193714342D02*
X178577200Y-193785771D01*
X178934342Y-193785771D01*
X179077200Y-193714342D01*
X179148628Y-193642914D01*
X179220057Y-193500057D01*
X179220057Y-193357200D01*
X179148628Y-193214342D01*
X179077200Y-193142914D01*
X178934342Y-193071485D01*
X178648628Y-193000057D01*
X178505771Y-192928628D01*
X178434342Y-192857200D01*
X178362914Y-192714342D01*
X178362914Y-192571485D01*
X178434342Y-192428628D01*
X178505771Y-192357200D01*
X178648628Y-192285771D01*
X179005771Y-192285771D01*
X179220057Y-192357200D01*
X179862914Y-193785771D02*
X179862914Y-192785771D01*
X179862914Y-192285771D02*
X179791485Y-192357200D01*
X179862914Y-192428628D01*
X179934342Y-192357200D01*
X179862914Y-192285771D01*
X179862914Y-192428628D01*
X180434342Y-192785771D02*
X181220057Y-192785771D01*
X180434342Y-193785771D01*
X181220057Y-193785771D01*
X182362914Y-193714342D02*
X182220057Y-193785771D01*
X181934342Y-193785771D01*
X181791485Y-193714342D01*
X181720057Y-193571485D01*
X181720057Y-193000057D01*
X181791485Y-192857200D01*
X181934342Y-192785771D01*
X182220057Y-192785771D01*
X182362914Y-192857200D01*
X182434342Y-193000057D01*
X182434342Y-193142914D01*
X181720057Y-193285771D01*
X183077200Y-193642914D02*
X183148628Y-193714342D01*
X183077200Y-193785771D01*
X183005771Y-193714342D01*
X183077200Y-193642914D01*
X183077200Y-193785771D01*
X183077200Y-192857200D02*
X183148628Y-192928628D01*
X183077200Y-193000057D01*
X183005771Y-192928628D01*
X183077200Y-192857200D01*
X183077200Y-193000057D01*
X184862914Y-193357200D02*
X185577200Y-193357200D01*
X184720057Y-193785771D02*
X185220057Y-192285771D01*
X185720057Y-193785771D01*
X186862914Y-192785771D02*
X186862914Y-193785771D01*
X186505771Y-192214342D02*
X186148628Y-193285771D01*
X187077200Y-193285771D01*
D10*
D11*
X263434342Y-196585771D02*
X263434342Y-195085771D01*
X264791485Y-196585771D02*
X264791485Y-195085771D01*
X264791485Y-196514342D02*
X264648628Y-196585771D01*
X264362914Y-196585771D01*
X264220057Y-196514342D01*
X264148628Y-196442914D01*
X264077200Y-196300057D01*
X264077200Y-195871485D01*
X264148628Y-195728628D01*
X264220057Y-195657200D01*
X264362914Y-195585771D01*
X264648628Y-195585771D01*
X264791485Y-195657200D01*
X265505771Y-196442914D02*
X265577200Y-196514342D01*
X265505771Y-196585771D01*
X265434342Y-196514342D01*
X265505771Y-196442914D01*
X265505771Y-196585771D01*
X265505771Y-195657200D02*
X265577200Y-195728628D01*
X265505771Y-195800057D01*
X265434342Y-195728628D01*
X265505771Y-195657200D01*
X265505771Y-195800057D01*
X268148628Y-196585771D02*
X267291485Y-196585771D01*
X267720057Y-196585771D02*
X267720057Y-195085771D01*
X267577200Y-195300057D01*
X267434342Y-195442914D01*
X267291485Y-195514342D01*
X269862914Y-195014342D02*
X268577200Y-196942914D01*
X271148628Y-196585771D02*
X270291485Y-196585771D01*
X270720057Y-196585771D02*
X270720057Y-195085771D01*
X270577200Y-195300057D01*
X270434342Y-195442914D01*
X270291485Y-195514342D01*
D10*
D11*
X177002200Y-187507200D02*
X285002200Y-187507200D01*
D10*
D13*
X178714580Y-188211961D02*
X179857438Y-188211961D01*
X179036009Y-190211961D02*
X179286009Y-188211961D01*
X180274104Y-190211961D02*
X180440771Y-188878628D01*
X180524104Y-188211961D02*
X180416961Y-188307200D01*
X180500295Y-188402438D01*
X180607438Y-188307200D01*
X180524104Y-188211961D01*
X180500295Y-188402438D01*
X181107438Y-188878628D02*
X181869342Y-188878628D01*
X181476485Y-188211961D02*
X181262200Y-189926247D01*
X181333628Y-190116723D01*
X181512200Y-190211961D01*
X181702676Y-190211961D01*
X182655057Y-190211961D02*
X182476485Y-190116723D01*
X182405057Y-189926247D01*
X182619342Y-188211961D01*
X184190771Y-190116723D02*
X183988390Y-190211961D01*
X183607438Y-190211961D01*
X183428866Y-190116723D01*
X183357438Y-189926247D01*
X183452676Y-189164342D01*
X183571723Y-188973866D01*
X183774104Y-188878628D01*
X184155057Y-188878628D01*
X184333628Y-188973866D01*
X184405057Y-189164342D01*
X184381247Y-189354819D01*
X183405057Y-189545295D01*
X185155057Y-190021485D02*
X185238390Y-190116723D01*
X185131247Y-190211961D01*
X185047914Y-190116723D01*
X185155057Y-190021485D01*
X185131247Y-190211961D01*
X185286009Y-188973866D02*
X185369342Y-189069104D01*
X185262200Y-189164342D01*
X185178866Y-189069104D01*
X185286009Y-188973866D01*
X185262200Y-189164342D01*
D10*
D11*
X178934342Y-185600057D02*
X178434342Y-185600057D01*
X178434342Y-186385771D02*
X178434342Y-184885771D01*
X179148628Y-184885771D01*
X179720057Y-186385771D02*
X179720057Y-185385771D01*
X179720057Y-184885771D02*
X179648628Y-184957200D01*
X179720057Y-185028628D01*
X179791485Y-184957200D01*
X179720057Y-184885771D01*
X179720057Y-185028628D01*
X180648628Y-186385771D02*
X180505771Y-186314342D01*
X180434342Y-186171485D01*
X180434342Y-184885771D01*
X181791485Y-186314342D02*
X181648628Y-186385771D01*
X181362914Y-186385771D01*
X181220057Y-186314342D01*
X181148628Y-186171485D01*
X181148628Y-185600057D01*
X181220057Y-185457200D01*
X181362914Y-185385771D01*
X181648628Y-185385771D01*
X181791485Y-185457200D01*
X181862914Y-185600057D01*
X181862914Y-185742914D01*
X181148628Y-185885771D01*
X182505771Y-186242914D02*
X182577200Y-186314342D01*
X182505771Y-186385771D01*
X182434342Y-186314342D01*
X182505771Y-186242914D01*
X182505771Y-186385771D01*
X182505771Y-185457200D02*
X182577200Y-185528628D01*
X182505771Y-185600057D01*
X182434342Y-185528628D01*
X182505771Y-185457200D01*
X182505771Y-185600057D01*
X185220057Y-186242914D02*
X185148628Y-186314342D01*
X184934342Y-186385771D01*
X184791485Y-186385771D01*
X184577200Y-186314342D01*
X184434342Y-186171485D01*
X184362914Y-186028628D01*
X184291485Y-185742914D01*
X184291485Y-185528628D01*
X184362914Y-185242914D01*
X184434342Y-185100057D01*
X184577200Y-184957200D01*
X184791485Y-184885771D01*
X184934342Y-184885771D01*
X185148628Y-184957200D01*
X185220057Y-185028628D01*
X186077200Y-186385771D02*
X185934342Y-186314342D01*
X185862914Y-186171485D01*
X185862914Y-184885771D01*
X187220057Y-186314342D02*
X187077200Y-186385771D01*
X186791485Y-186385771D01*
X186648628Y-186314342D01*
X186577200Y-186171485D01*
X186577200Y-185600057D01*
X186648628Y-185457200D01*
X186791485Y-185385771D01*
X187077200Y-185385771D01*
X187220057Y-185457200D01*
X187291485Y-185600057D01*
X187291485Y-185742914D01*
X186577200Y-185885771D01*
X187791485Y-185385771D02*
X188148628Y-186385771D01*
X188505771Y-185385771D01*
X189648628Y-186314342D02*
X189505771Y-186385771D01*
X189220057Y-186385771D01*
X189077200Y-186314342D01*
X189005771Y-186171485D01*
X189005771Y-185600057D01*
X189077200Y-185457200D01*
X189220057Y-185385771D01*
X189505771Y-185385771D01*
X189648628Y-185457200D01*
X189720057Y-185600057D01*
X189720057Y-185742914D01*
X189005771Y-185885771D01*
X190362914Y-186385771D02*
X190362914Y-185385771D01*
X190362914Y-185671485D02*
X190434342Y-185528628D01*
X190505771Y-185457200D01*
X190648628Y-185385771D01*
X190791485Y-185385771D01*
X190934342Y-186528628D02*
X192077200Y-186528628D01*
X193148628Y-186385771D02*
X192434342Y-186385771D01*
X192434342Y-184885771D01*
X193648628Y-186385771D02*
X193648628Y-185385771D01*
X193648628Y-184885771D02*
X193577200Y-184957200D01*
X193648628Y-185028628D01*
X193720057Y-184957200D01*
X193648628Y-184885771D01*
X193648628Y-185028628D01*
X195005771Y-185385771D02*
X195005771Y-186600057D01*
X194934342Y-186742914D01*
X194862914Y-186814342D01*
X194720057Y-186885771D01*
X194505771Y-186885771D01*
X194362914Y-186814342D01*
X195005771Y-186314342D02*
X194862914Y-186385771D01*
X194577200Y-186385771D01*
X194434342Y-186314342D01*
X194362914Y-186242914D01*
X194291485Y-186100057D01*
X194291485Y-185671485D01*
X194362914Y-185528628D01*
X194434342Y-185457200D01*
X194577200Y-185385771D01*
X194862914Y-185385771D01*
X195005771Y-185457200D01*
X195720057Y-186385771D02*
X195720057Y-184885771D01*
X196362914Y-186385771D02*
X196362914Y-185600057D01*
X196291485Y-185457200D01*
X196148628Y-185385771D01*
X195934342Y-185385771D01*
X195791485Y-185457200D01*
X195720057Y-185528628D01*
X196862914Y-185385771D02*
X197434342Y-185385771D01*
X197077200Y-184885771D02*
X197077200Y-186171485D01*
X197148628Y-186314342D01*
X197291485Y-186385771D01*
X197434342Y-186385771D01*
X197934342Y-186242914D02*
X198005771Y-186314342D01*
X197934342Y-186385771D01*
X197862914Y-186314342D01*
X197934342Y-186242914D01*
X197934342Y-186385771D01*
X198648628Y-186385771D02*
X198648628Y-184885771D01*
X198791485Y-185814342D02*
X199220057Y-186385771D01*
X199220057Y-185385771D02*
X198648628Y-185957200D01*
X199862914Y-186385771D02*
X199862914Y-185385771D01*
X199862914Y-184885771D02*
X199791485Y-184957200D01*
X199862914Y-185028628D01*
X199934342Y-184957200D01*
X199862914Y-184885771D01*
X199862914Y-185028628D01*
X201220057Y-186314342D02*
X201077200Y-186385771D01*
X200791485Y-186385771D01*
X200648628Y-186314342D01*
X200577200Y-186242914D01*
X200505771Y-186100057D01*
X200505771Y-185671485D01*
X200577200Y-185528628D01*
X200648628Y-185457200D01*
X200791485Y-185385771D01*
X201077200Y-185385771D01*
X201220057Y-185457200D01*
X202505771Y-186385771D02*
X202505771Y-185600057D01*
X202434342Y-185457200D01*
X202291485Y-185385771D01*
X202005771Y-185385771D01*
X201862914Y-185457200D01*
X202505771Y-186314342D02*
X202362914Y-186385771D01*
X202005771Y-186385771D01*
X201862914Y-186314342D01*
X201791485Y-186171485D01*
X201791485Y-186028628D01*
X201862914Y-185885771D01*
X202005771Y-185814342D01*
X202362914Y-185814342D01*
X202505771Y-185742914D01*
X203862914Y-186385771D02*
X203862914Y-184885771D01*
X203862914Y-186314342D02*
X203720057Y-186385771D01*
X203434342Y-186385771D01*
X203291485Y-186314342D01*
X203220057Y-186242914D01*
X203148628Y-186100057D01*
X203148628Y-185671485D01*
X203220057Y-185528628D01*
X203291485Y-185457200D01*
X203434342Y-185385771D01*
X203720057Y-185385771D01*
X203862914Y-185457200D01*
X204220057Y-186528628D02*
X205362914Y-186528628D01*
X205720057Y-185385771D02*
X205720057Y-186885771D01*
X205720057Y-185457200D02*
X205862914Y-185385771D01*
X206148628Y-185385771D01*
X206291485Y-185457200D01*
X206362914Y-185528628D01*
X206434342Y-185671485D01*
X206434342Y-186100057D01*
X206362914Y-186242914D01*
X206291485Y-186314342D01*
X206148628Y-186385771D01*
X205862914Y-186385771D01*
X205720057Y-186314342D01*
X207720057Y-186314342D02*
X207577200Y-186385771D01*
X207291485Y-186385771D01*
X207148628Y-186314342D01*
X207077200Y-186242914D01*
X207005771Y-186100057D01*
X207005771Y-185671485D01*
X207077200Y-185528628D01*
X207148628Y-185457200D01*
X207291485Y-185385771D01*
X207577200Y-185385771D01*
X207720057Y-185457200D01*
X208362914Y-186385771D02*
X208362914Y-184885771D01*
X208362914Y-185457200D02*
X208505771Y-185385771D01*
X208791485Y-185385771D01*
X208934342Y-185457200D01*
X209005771Y-185528628D01*
X209077200Y-185671485D01*
X209077200Y-186100057D01*
X209005771Y-186242914D01*
X208934342Y-186314342D01*
X208791485Y-186385771D01*
X208505771Y-186385771D01*
X208362914Y-186314342D01*
D10*
D11*
X177002200Y-181507200D02*
X285002200Y-181507200D01*
D10*
D11*
X178362914Y-183614342D02*
X178577200Y-183685771D01*
X178934342Y-183685771D01*
X179077200Y-183614342D01*
X179148628Y-183542914D01*
X179220057Y-183400057D01*
X179220057Y-183257200D01*
X179148628Y-183114342D01*
X179077200Y-183042914D01*
X178934342Y-182971485D01*
X178648628Y-182900057D01*
X178505771Y-182828628D01*
X178434342Y-182757200D01*
X178362914Y-182614342D01*
X178362914Y-182471485D01*
X178434342Y-182328628D01*
X178505771Y-182257200D01*
X178648628Y-182185771D01*
X179005771Y-182185771D01*
X179220057Y-182257200D01*
X179862914Y-183685771D02*
X179862914Y-182185771D01*
X180505771Y-183685771D02*
X180505771Y-182900057D01*
X180434342Y-182757200D01*
X180291485Y-182685771D01*
X180077200Y-182685771D01*
X179934342Y-182757200D01*
X179862914Y-182828628D01*
X181791485Y-183614342D02*
X181648628Y-183685771D01*
X181362914Y-183685771D01*
X181220057Y-183614342D01*
X181148628Y-183471485D01*
X181148628Y-182900057D01*
X181220057Y-182757200D01*
X181362914Y-182685771D01*
X181648628Y-182685771D01*
X181791485Y-182757200D01*
X181862914Y-182900057D01*
X181862914Y-183042914D01*
X181148628Y-183185771D01*
X183077200Y-183614342D02*
X182934342Y-183685771D01*
X182648628Y-183685771D01*
X182505771Y-183614342D01*
X182434342Y-183471485D01*
X182434342Y-182900057D01*
X182505771Y-182757200D01*
X182648628Y-182685771D01*
X182934342Y-182685771D01*
X183077200Y-182757200D01*
X183148628Y-182900057D01*
X183148628Y-183042914D01*
X182434342Y-183185771D01*
X183577200Y-182685771D02*
X184148628Y-182685771D01*
X183791485Y-182185771D02*
X183791485Y-183471485D01*
X183862914Y-183614342D01*
X184005771Y-183685771D01*
X184148628Y-183685771D01*
X184648628Y-183542914D02*
X184720057Y-183614342D01*
X184648628Y-183685771D01*
X184577200Y-183614342D01*
X184648628Y-183542914D01*
X184648628Y-183685771D01*
X184648628Y-182757200D02*
X184720057Y-182828628D01*
X184648628Y-182900057D01*
X184577200Y-182828628D01*
X184648628Y-182757200D01*
X184648628Y-182900057D01*
D10*
D11*
X197002200Y-191507200D02*
X197002200Y-194507200D01*
D10*
D11*
X261002200Y-191507200D02*
X261002200Y-198007200D01*
D10*
X118056000Y-60414000D02*
X114856000Y-60414000D01*
X118056000Y-62014000D02*
X118056000Y-60414000D01*
X114856000Y-62014000D02*
X118056000Y-62014000D01*
X114856000Y-60414000D02*
X114856000Y-62014000D01*
X131610000Y-60782000D02*
X131610000Y-57582000D01*
X130010000Y-60782000D02*
X131610000Y-60782000D01*
X130010000Y-57582000D02*
X130010000Y-60782000D01*
X131610000Y-57582000D02*
X130010000Y-57582000D01*
X147472000Y-61798000D02*
X153772000Y-61798000D01*
X147472000Y-58598000D02*
X147472000Y-61798000D01*
X153772000Y-58598000D02*
X147472000Y-58598000D01*
X153772000Y-61798000D02*
X153772000Y-58598000D01*
X140868000Y-83896000D02*
X147168000Y-83896000D01*
X140868000Y-80696000D02*
X140868000Y-83896000D01*
X147168000Y-80696000D02*
X140868000Y-80696000D01*
X147168000Y-83896000D02*
X147168000Y-80696000D01*
X129921000Y-66564000D02*
X130921000Y-67564000D01*
X129921000Y-62484000D02*
X129921000Y-66564000D01*
X136271000Y-62484000D02*
X129921000Y-62484000D01*
X136271000Y-67564000D02*
X136271000Y-62484000D01*
X130921000Y-67564000D02*
X136271000Y-67564000D01*
D11*
X117384571Y-59179714D02*
X117384571Y-59846380D01*
X117622666Y-58798761D02*
X117860761Y-59513047D01*
X117241714Y-59513047D01*
X116860761Y-59751142D02*
X116813142Y-59798761D01*
X116860761Y-59846380D01*
X116908380Y-59798761D01*
X116860761Y-59751142D01*
X116860761Y-59846380D01*
X116479809Y-58846380D02*
X115813142Y-58846380D01*
X116241714Y-59846380D01*
X115432190Y-59846380D02*
X115432190Y-58846380D01*
X115336952Y-59465428D02*
X115051238Y-59846380D01*
X115051238Y-59179714D02*
X115432190Y-59560666D01*
D14*
X116589333Y-61575904D02*
X116856000Y-61194952D01*
X117046476Y-61575904D02*
X117046476Y-60775904D01*
X116741714Y-60775904D01*
X116665523Y-60814000D01*
X116627428Y-60852095D01*
X116589333Y-60928285D01*
X116589333Y-61042571D01*
X116627428Y-61118761D01*
X116665523Y-61156857D01*
X116741714Y-61194952D01*
X117046476Y-61194952D01*
X115903619Y-60775904D02*
X116056000Y-60775904D01*
X116132190Y-60814000D01*
X116170285Y-60852095D01*
X116246476Y-60966380D01*
X116284571Y-61118761D01*
X116284571Y-61423523D01*
X116246476Y-61499714D01*
X116208380Y-61537809D01*
X116132190Y-61575904D01*
X115979809Y-61575904D01*
X115903619Y-61537809D01*
X115865523Y-61499714D01*
X115827428Y-61423523D01*
X115827428Y-61233047D01*
X115865523Y-61156857D01*
X115903619Y-61118761D01*
X115979809Y-61080666D01*
X116132190Y-61080666D01*
X116208380Y-61118761D01*
X116246476Y-61156857D01*
X116284571Y-61233047D01*
D11*
X132415714Y-58253428D02*
X133082380Y-58253428D01*
X132034761Y-58015333D02*
X132749047Y-57777238D01*
X132749047Y-58396285D01*
X132987142Y-58777238D02*
X133034761Y-58824857D01*
X133082380Y-58777238D01*
X133034761Y-58729619D01*
X132987142Y-58777238D01*
X133082380Y-58777238D01*
X132082380Y-59158190D02*
X132082380Y-59824857D01*
X133082380Y-59396285D01*
X133082380Y-60205809D02*
X132082380Y-60205809D01*
X132701428Y-60301047D02*
X133082380Y-60586761D01*
X132415714Y-60586761D02*
X132796666Y-60205809D01*
D14*
X131171904Y-59048666D02*
X130790952Y-58782000D01*
X131171904Y-58591523D02*
X130371904Y-58591523D01*
X130371904Y-58896285D01*
X130410000Y-58972476D01*
X130448095Y-59010571D01*
X130524285Y-59048666D01*
X130638571Y-59048666D01*
X130714761Y-59010571D01*
X130752857Y-58972476D01*
X130790952Y-58896285D01*
X130790952Y-58591523D01*
X130448095Y-59353428D02*
X130410000Y-59391523D01*
X130371904Y-59467714D01*
X130371904Y-59658190D01*
X130410000Y-59734380D01*
X130448095Y-59772476D01*
X130524285Y-59810571D01*
X130600476Y-59810571D01*
X130714761Y-59772476D01*
X131171904Y-59315333D01*
X131171904Y-59810571D01*
D11*
X151907714Y-62270380D02*
X151288666Y-62270380D01*
X151622000Y-62651333D01*
X151479142Y-62651333D01*
X151383904Y-62698952D01*
X151336285Y-62746571D01*
X151288666Y-62841809D01*
X151288666Y-63079904D01*
X151336285Y-63175142D01*
X151383904Y-63222761D01*
X151479142Y-63270380D01*
X151764857Y-63270380D01*
X151860095Y-63222761D01*
X151907714Y-63175142D01*
X150431523Y-62270380D02*
X150622000Y-62270380D01*
X150717238Y-62318000D01*
X150764857Y-62365619D01*
X150860095Y-62508476D01*
X150907714Y-62698952D01*
X150907714Y-63079904D01*
X150860095Y-63175142D01*
X150812476Y-63222761D01*
X150717238Y-63270380D01*
X150526761Y-63270380D01*
X150431523Y-63222761D01*
X150383904Y-63175142D01*
X150336285Y-63079904D01*
X150336285Y-62841809D01*
X150383904Y-62746571D01*
X150431523Y-62698952D01*
X150526761Y-62651333D01*
X150717238Y-62651333D01*
X150812476Y-62698952D01*
X150860095Y-62746571D01*
X150907714Y-62841809D01*
X149717238Y-62270380D02*
X149622000Y-62270380D01*
X149526761Y-62318000D01*
X149479142Y-62365619D01*
X149431523Y-62460857D01*
X149383904Y-62651333D01*
X149383904Y-62889428D01*
X149431523Y-63079904D01*
X149479142Y-63175142D01*
X149526761Y-63222761D01*
X149622000Y-63270380D01*
X149717238Y-63270380D01*
X149812476Y-63222761D01*
X149860095Y-63175142D01*
X149907714Y-63079904D01*
X149955333Y-62889428D01*
X149955333Y-62651333D01*
X149907714Y-62460857D01*
X149860095Y-62365619D01*
X149812476Y-62318000D01*
X149717238Y-62270380D01*
X150788666Y-60650380D02*
X151122000Y-60174190D01*
X151360095Y-60650380D02*
X151360095Y-59650380D01*
X150979142Y-59650380D01*
X150883904Y-59698000D01*
X150836285Y-59745619D01*
X150788666Y-59840857D01*
X150788666Y-59983714D01*
X150836285Y-60078952D01*
X150883904Y-60126571D01*
X150979142Y-60174190D01*
X151360095Y-60174190D01*
X149883904Y-59650380D02*
X150360095Y-59650380D01*
X150407714Y-60126571D01*
X150360095Y-60078952D01*
X150264857Y-60031333D01*
X150026761Y-60031333D01*
X149931523Y-60078952D01*
X149883904Y-60126571D01*
X149836285Y-60221809D01*
X149836285Y-60459904D01*
X149883904Y-60555142D01*
X149931523Y-60602761D01*
X150026761Y-60650380D01*
X150264857Y-60650380D01*
X150360095Y-60602761D01*
X150407714Y-60555142D01*
X145303714Y-84368380D02*
X144684666Y-84368380D01*
X145018000Y-84749333D01*
X144875142Y-84749333D01*
X144779904Y-84796952D01*
X144732285Y-84844571D01*
X144684666Y-84939809D01*
X144684666Y-85177904D01*
X144732285Y-85273142D01*
X144779904Y-85320761D01*
X144875142Y-85368380D01*
X145160857Y-85368380D01*
X145256095Y-85320761D01*
X145303714Y-85273142D01*
X143827523Y-84368380D02*
X144018000Y-84368380D01*
X144113238Y-84416000D01*
X144160857Y-84463619D01*
X144256095Y-84606476D01*
X144303714Y-84796952D01*
X144303714Y-85177904D01*
X144256095Y-85273142D01*
X144208476Y-85320761D01*
X144113238Y-85368380D01*
X143922761Y-85368380D01*
X143827523Y-85320761D01*
X143779904Y-85273142D01*
X143732285Y-85177904D01*
X143732285Y-84939809D01*
X143779904Y-84844571D01*
X143827523Y-84796952D01*
X143922761Y-84749333D01*
X144113238Y-84749333D01*
X144208476Y-84796952D01*
X144256095Y-84844571D01*
X144303714Y-84939809D01*
X143113238Y-84368380D02*
X143018000Y-84368380D01*
X142922761Y-84416000D01*
X142875142Y-84463619D01*
X142827523Y-84558857D01*
X142779904Y-84749333D01*
X142779904Y-84987428D01*
X142827523Y-85177904D01*
X142875142Y-85273142D01*
X142922761Y-85320761D01*
X143018000Y-85368380D01*
X143113238Y-85368380D01*
X143208476Y-85320761D01*
X143256095Y-85273142D01*
X143303714Y-85177904D01*
X143351333Y-84987428D01*
X143351333Y-84749333D01*
X143303714Y-84558857D01*
X143256095Y-84463619D01*
X143208476Y-84416000D01*
X143113238Y-84368380D01*
X144184666Y-82748380D02*
X144518000Y-82272190D01*
X144756095Y-82748380D02*
X144756095Y-81748380D01*
X144375142Y-81748380D01*
X144279904Y-81796000D01*
X144232285Y-81843619D01*
X144184666Y-81938857D01*
X144184666Y-82081714D01*
X144232285Y-82176952D01*
X144279904Y-82224571D01*
X144375142Y-82272190D01*
X144756095Y-82272190D01*
X143327523Y-82081714D02*
X143327523Y-82748380D01*
X143565619Y-81700761D02*
X143803714Y-82415047D01*
X143184666Y-82415047D01*
X137715047Y-61828761D02*
X137572190Y-61876380D01*
X137334095Y-61876380D01*
X137238857Y-61828761D01*
X137191238Y-61781142D01*
X137143619Y-61685904D01*
X137143619Y-61590666D01*
X137191238Y-61495428D01*
X137238857Y-61447809D01*
X137334095Y-61400190D01*
X137524571Y-61352571D01*
X137619809Y-61304952D01*
X137667428Y-61257333D01*
X137715047Y-61162095D01*
X137715047Y-61066857D01*
X137667428Y-60971619D01*
X137619809Y-60924000D01*
X137524571Y-60876380D01*
X137286476Y-60876380D01*
X137143619Y-60924000D01*
X136381714Y-61352571D02*
X136715047Y-61352571D01*
X136715047Y-61876380D02*
X136715047Y-60876380D01*
X136238857Y-60876380D01*
X135857904Y-61876380D02*
X135857904Y-60876380D01*
X135857904Y-61352571D02*
X135286476Y-61352571D01*
X135286476Y-61876380D02*
X135286476Y-60876380D01*
X134381714Y-60876380D02*
X134572190Y-60876380D01*
X134667428Y-60924000D01*
X134715047Y-60971619D01*
X134810285Y-61114476D01*
X134857904Y-61304952D01*
X134857904Y-61685904D01*
X134810285Y-61781142D01*
X134762666Y-61828761D01*
X134667428Y-61876380D01*
X134476952Y-61876380D01*
X134381714Y-61828761D01*
X134334095Y-61781142D01*
X134286476Y-61685904D01*
X134286476Y-61447809D01*
X134334095Y-61352571D01*
X134381714Y-61304952D01*
X134476952Y-61257333D01*
X134667428Y-61257333D01*
X134762666Y-61304952D01*
X134810285Y-61352571D01*
X134857904Y-61447809D01*
X133334095Y-61876380D02*
X133905523Y-61876380D01*
X133619809Y-61876380D02*
X133619809Y-60876380D01*
X133715047Y-61019238D01*
X133810285Y-61114476D01*
X133905523Y-61162095D01*
X132429333Y-60876380D02*
X132905523Y-60876380D01*
X132953142Y-61352571D01*
X132905523Y-61304952D01*
X132810285Y-61257333D01*
X132572190Y-61257333D01*
X132476952Y-61304952D01*
X132429333Y-61352571D01*
X132381714Y-61447809D01*
X132381714Y-61685904D01*
X132429333Y-61781142D01*
X132476952Y-61828761D01*
X132572190Y-61876380D01*
X132810285Y-61876380D01*
X132905523Y-61828761D01*
X132953142Y-61781142D01*
X131524571Y-60876380D02*
X131715047Y-60876380D01*
X131810285Y-60924000D01*
X131857904Y-60971619D01*
X131953142Y-61114476D01*
X132000761Y-61304952D01*
X132000761Y-61685904D01*
X131953142Y-61781142D01*
X131905523Y-61828761D01*
X131810285Y-61876380D01*
X131619809Y-61876380D01*
X131524571Y-61828761D01*
X131476952Y-61781142D01*
X131429333Y-61685904D01*
X131429333Y-61447809D01*
X131476952Y-61352571D01*
X131524571Y-61304952D01*
X131619809Y-61257333D01*
X131810285Y-61257333D01*
X131905523Y-61304952D01*
X131953142Y-61352571D01*
X132000761Y-61447809D01*
X131000761Y-61495428D02*
X130238857Y-61495428D01*
X129857904Y-60876380D02*
X129238857Y-60876380D01*
X129572190Y-61257333D01*
X129429333Y-61257333D01*
X129334095Y-61304952D01*
X129286476Y-61352571D01*
X129238857Y-61447809D01*
X129238857Y-61685904D01*
X129286476Y-61781142D01*
X129334095Y-61828761D01*
X129429333Y-61876380D01*
X129715047Y-61876380D01*
X129810285Y-61828761D01*
X129857904Y-61781142D01*
X128953142Y-60876380D02*
X128381714Y-60876380D01*
X128667428Y-61876380D02*
X128667428Y-60876380D01*
X133191238Y-65571619D02*
X133286476Y-65524000D01*
X133381714Y-65428761D01*
X133524571Y-65285904D01*
X133619809Y-65238285D01*
X133715047Y-65238285D01*
X133667428Y-65476380D02*
X133762666Y-65428761D01*
X133857904Y-65333523D01*
X133905523Y-65143047D01*
X133905523Y-64809714D01*
X133857904Y-64619238D01*
X133762666Y-64524000D01*
X133667428Y-64476380D01*
X133476952Y-64476380D01*
X133381714Y-64524000D01*
X133286476Y-64619238D01*
X133238857Y-64809714D01*
X133238857Y-65143047D01*
X133286476Y-65333523D01*
X133381714Y-65428761D01*
X133476952Y-65476380D01*
X133667428Y-65476380D01*
X132286476Y-65476380D02*
X132857904Y-65476380D01*
X132572190Y-65476380D02*
X132572190Y-64476380D01*
X132667428Y-64619238D01*
X132762666Y-64714476D01*
X132857904Y-64762095D01*
M02*
