G04 #@! TF.GenerationSoftware,KiCad,Pcbnew,(5.1.2)-2*
G04 #@! TF.CreationDate,2019-08-12T18:41:55+03:00*
G04 #@! TF.ProjectId,Clever_Light,436c6576-6572-45f4-9c69-6768742e6b69,rev?*
G04 #@! TF.SameCoordinates,Original*
G04 #@! TF.FileFunction,Other,Fab,Top*
%FSLAX46Y46*%
G04 Gerber Fmt 4.6, Leading zero omitted, Abs format (unit mm)*
G04 Created by KiCad (PCBNEW (5.1.2)-2) date 2019-08-12 18:41:55*
%MOMM*%
%LPD*%
G04 APERTURE LIST*
%ADD10C,0.100000*%
%ADD11C,0.150000*%
%ADD12C,0.300000*%
%ADD13C,0.400000*%
%ADD14C,0.108000*%
G04 APERTURE END LIST*
D10*
D11*
X177002200Y-166007200D02*
X177002200Y-198007200D01*
X285002200Y-198007200D01*
X285002200Y-166007200D01*
X177002200Y-166007200D01*
D10*
D11*
X10000000Y-10000000D02*
X10000000Y-200007200D01*
X287002200Y-200007200D01*
X287002200Y-10000000D01*
X10000000Y-10000000D01*
D10*
D11*
X12000000Y-12000000D02*
X12000000Y-198007200D01*
X285002200Y-198007200D01*
X285002200Y-12000000D01*
X12000000Y-12000000D01*
D10*
D11*
X60000000Y-12000000D02*
X60000000Y-10000000D01*
D10*
D11*
X110000000Y-12000000D02*
X110000000Y-10000000D01*
D10*
D11*
X160000000Y-12000000D02*
X160000000Y-10000000D01*
D10*
D11*
X210000000Y-12000000D02*
X210000000Y-10000000D01*
D10*
D11*
X260000000Y-12000000D02*
X260000000Y-10000000D01*
D10*
D11*
X36065476Y-11588095D02*
X35322619Y-11588095D01*
X35694047Y-11588095D02*
X35694047Y-10288095D01*
X35570238Y-10473809D01*
X35446428Y-10597619D01*
X35322619Y-10659523D01*
D10*
D11*
X85322619Y-10411904D02*
X85384523Y-10350000D01*
X85508333Y-10288095D01*
X85817857Y-10288095D01*
X85941666Y-10350000D01*
X86003571Y-10411904D01*
X86065476Y-10535714D01*
X86065476Y-10659523D01*
X86003571Y-10845238D01*
X85260714Y-11588095D01*
X86065476Y-11588095D01*
D10*
D11*
X135260714Y-10288095D02*
X136065476Y-10288095D01*
X135632142Y-10783333D01*
X135817857Y-10783333D01*
X135941666Y-10845238D01*
X136003571Y-10907142D01*
X136065476Y-11030952D01*
X136065476Y-11340476D01*
X136003571Y-11464285D01*
X135941666Y-11526190D01*
X135817857Y-11588095D01*
X135446428Y-11588095D01*
X135322619Y-11526190D01*
X135260714Y-11464285D01*
D10*
D11*
X185941666Y-10721428D02*
X185941666Y-11588095D01*
X185632142Y-10226190D02*
X185322619Y-11154761D01*
X186127380Y-11154761D01*
D10*
D11*
X236003571Y-10288095D02*
X235384523Y-10288095D01*
X235322619Y-10907142D01*
X235384523Y-10845238D01*
X235508333Y-10783333D01*
X235817857Y-10783333D01*
X235941666Y-10845238D01*
X236003571Y-10907142D01*
X236065476Y-11030952D01*
X236065476Y-11340476D01*
X236003571Y-11464285D01*
X235941666Y-11526190D01*
X235817857Y-11588095D01*
X235508333Y-11588095D01*
X235384523Y-11526190D01*
X235322619Y-11464285D01*
D10*
D11*
X285941666Y-10288095D02*
X285694047Y-10288095D01*
X285570238Y-10350000D01*
X285508333Y-10411904D01*
X285384523Y-10597619D01*
X285322619Y-10845238D01*
X285322619Y-11340476D01*
X285384523Y-11464285D01*
X285446428Y-11526190D01*
X285570238Y-11588095D01*
X285817857Y-11588095D01*
X285941666Y-11526190D01*
X286003571Y-11464285D01*
X286065476Y-11340476D01*
X286065476Y-11030952D01*
X286003571Y-10907142D01*
X285941666Y-10845238D01*
X285817857Y-10783333D01*
X285570238Y-10783333D01*
X285446428Y-10845238D01*
X285384523Y-10907142D01*
X285322619Y-11030952D01*
D10*
D11*
X60000000Y-198007200D02*
X60000000Y-200007200D01*
D10*
D11*
X110000000Y-198007200D02*
X110000000Y-200007200D01*
D10*
D11*
X160000000Y-198007200D02*
X160000000Y-200007200D01*
D10*
D11*
X210000000Y-198007200D02*
X210000000Y-200007200D01*
D10*
D11*
X260000000Y-198007200D02*
X260000000Y-200007200D01*
D10*
D11*
X36065476Y-199595295D02*
X35322619Y-199595295D01*
X35694047Y-199595295D02*
X35694047Y-198295295D01*
X35570238Y-198481009D01*
X35446428Y-198604819D01*
X35322619Y-198666723D01*
D10*
D11*
X85322619Y-198419104D02*
X85384523Y-198357200D01*
X85508333Y-198295295D01*
X85817857Y-198295295D01*
X85941666Y-198357200D01*
X86003571Y-198419104D01*
X86065476Y-198542914D01*
X86065476Y-198666723D01*
X86003571Y-198852438D01*
X85260714Y-199595295D01*
X86065476Y-199595295D01*
D10*
D11*
X135260714Y-198295295D02*
X136065476Y-198295295D01*
X135632142Y-198790533D01*
X135817857Y-198790533D01*
X135941666Y-198852438D01*
X136003571Y-198914342D01*
X136065476Y-199038152D01*
X136065476Y-199347676D01*
X136003571Y-199471485D01*
X135941666Y-199533390D01*
X135817857Y-199595295D01*
X135446428Y-199595295D01*
X135322619Y-199533390D01*
X135260714Y-199471485D01*
D10*
D11*
X185941666Y-198728628D02*
X185941666Y-199595295D01*
X185632142Y-198233390D02*
X185322619Y-199161961D01*
X186127380Y-199161961D01*
D10*
D11*
X236003571Y-198295295D02*
X235384523Y-198295295D01*
X235322619Y-198914342D01*
X235384523Y-198852438D01*
X235508333Y-198790533D01*
X235817857Y-198790533D01*
X235941666Y-198852438D01*
X236003571Y-198914342D01*
X236065476Y-199038152D01*
X236065476Y-199347676D01*
X236003571Y-199471485D01*
X235941666Y-199533390D01*
X235817857Y-199595295D01*
X235508333Y-199595295D01*
X235384523Y-199533390D01*
X235322619Y-199471485D01*
D10*
D11*
X285941666Y-198295295D02*
X285694047Y-198295295D01*
X285570238Y-198357200D01*
X285508333Y-198419104D01*
X285384523Y-198604819D01*
X285322619Y-198852438D01*
X285322619Y-199347676D01*
X285384523Y-199471485D01*
X285446428Y-199533390D01*
X285570238Y-199595295D01*
X285817857Y-199595295D01*
X285941666Y-199533390D01*
X286003571Y-199471485D01*
X286065476Y-199347676D01*
X286065476Y-199038152D01*
X286003571Y-198914342D01*
X285941666Y-198852438D01*
X285817857Y-198790533D01*
X285570238Y-198790533D01*
X285446428Y-198852438D01*
X285384523Y-198914342D01*
X285322619Y-199038152D01*
D10*
D11*
X10000000Y-60000000D02*
X12000000Y-60000000D01*
D10*
D11*
X10000000Y-110000000D02*
X12000000Y-110000000D01*
D10*
D11*
X10000000Y-160000000D02*
X12000000Y-160000000D01*
D10*
D11*
X10690476Y-35216666D02*
X11309523Y-35216666D01*
X10566666Y-35588095D02*
X11000000Y-34288095D01*
X11433333Y-35588095D01*
D10*
D11*
X11092857Y-84907142D02*
X11278571Y-84969047D01*
X11340476Y-85030952D01*
X11402380Y-85154761D01*
X11402380Y-85340476D01*
X11340476Y-85464285D01*
X11278571Y-85526190D01*
X11154761Y-85588095D01*
X10659523Y-85588095D01*
X10659523Y-84288095D01*
X11092857Y-84288095D01*
X11216666Y-84350000D01*
X11278571Y-84411904D01*
X11340476Y-84535714D01*
X11340476Y-84659523D01*
X11278571Y-84783333D01*
X11216666Y-84845238D01*
X11092857Y-84907142D01*
X10659523Y-84907142D01*
D10*
D11*
X11402380Y-135464285D02*
X11340476Y-135526190D01*
X11154761Y-135588095D01*
X11030952Y-135588095D01*
X10845238Y-135526190D01*
X10721428Y-135402380D01*
X10659523Y-135278571D01*
X10597619Y-135030952D01*
X10597619Y-134845238D01*
X10659523Y-134597619D01*
X10721428Y-134473809D01*
X10845238Y-134350000D01*
X11030952Y-134288095D01*
X11154761Y-134288095D01*
X11340476Y-134350000D01*
X11402380Y-134411904D01*
D10*
D11*
X10659523Y-185588095D02*
X10659523Y-184288095D01*
X10969047Y-184288095D01*
X11154761Y-184350000D01*
X11278571Y-184473809D01*
X11340476Y-184597619D01*
X11402380Y-184845238D01*
X11402380Y-185030952D01*
X11340476Y-185278571D01*
X11278571Y-185402380D01*
X11154761Y-185526190D01*
X10969047Y-185588095D01*
X10659523Y-185588095D01*
D10*
D11*
X287002200Y-60000000D02*
X285002200Y-60000000D01*
D10*
D11*
X287002200Y-110000000D02*
X285002200Y-110000000D01*
D10*
D11*
X287002200Y-160000000D02*
X285002200Y-160000000D01*
D10*
D11*
X285692676Y-35216666D02*
X286311723Y-35216666D01*
X285568866Y-35588095D02*
X286002200Y-34288095D01*
X286435533Y-35588095D01*
D10*
D11*
X286095057Y-84907142D02*
X286280771Y-84969047D01*
X286342676Y-85030952D01*
X286404580Y-85154761D01*
X286404580Y-85340476D01*
X286342676Y-85464285D01*
X286280771Y-85526190D01*
X286156961Y-85588095D01*
X285661723Y-85588095D01*
X285661723Y-84288095D01*
X286095057Y-84288095D01*
X286218866Y-84350000D01*
X286280771Y-84411904D01*
X286342676Y-84535714D01*
X286342676Y-84659523D01*
X286280771Y-84783333D01*
X286218866Y-84845238D01*
X286095057Y-84907142D01*
X285661723Y-84907142D01*
D10*
D11*
X286404580Y-135464285D02*
X286342676Y-135526190D01*
X286156961Y-135588095D01*
X286033152Y-135588095D01*
X285847438Y-135526190D01*
X285723628Y-135402380D01*
X285661723Y-135278571D01*
X285599819Y-135030952D01*
X285599819Y-134845238D01*
X285661723Y-134597619D01*
X285723628Y-134473809D01*
X285847438Y-134350000D01*
X286033152Y-134288095D01*
X286156961Y-134288095D01*
X286342676Y-134350000D01*
X286404580Y-134411904D01*
D10*
D11*
X285661723Y-185588095D02*
X285661723Y-184288095D01*
X285971247Y-184288095D01*
X286156961Y-184350000D01*
X286280771Y-184473809D01*
X286342676Y-184597619D01*
X286404580Y-184845238D01*
X286404580Y-185030952D01*
X286342676Y-185278571D01*
X286280771Y-185402380D01*
X286156961Y-185526190D01*
X285971247Y-185588095D01*
X285661723Y-185588095D01*
D10*
D11*
X200434342Y-193785771D02*
X200434342Y-192285771D01*
X200791485Y-192285771D01*
X201005771Y-192357200D01*
X201148628Y-192500057D01*
X201220057Y-192642914D01*
X201291485Y-192928628D01*
X201291485Y-193142914D01*
X201220057Y-193428628D01*
X201148628Y-193571485D01*
X201005771Y-193714342D01*
X200791485Y-193785771D01*
X200434342Y-193785771D01*
X202577200Y-193785771D02*
X202577200Y-193000057D01*
X202505771Y-192857200D01*
X202362914Y-192785771D01*
X202077200Y-192785771D01*
X201934342Y-192857200D01*
X202577200Y-193714342D02*
X202434342Y-193785771D01*
X202077200Y-193785771D01*
X201934342Y-193714342D01*
X201862914Y-193571485D01*
X201862914Y-193428628D01*
X201934342Y-193285771D01*
X202077200Y-193214342D01*
X202434342Y-193214342D01*
X202577200Y-193142914D01*
X203077200Y-192785771D02*
X203648628Y-192785771D01*
X203291485Y-192285771D02*
X203291485Y-193571485D01*
X203362914Y-193714342D01*
X203505771Y-193785771D01*
X203648628Y-193785771D01*
X204720057Y-193714342D02*
X204577200Y-193785771D01*
X204291485Y-193785771D01*
X204148628Y-193714342D01*
X204077200Y-193571485D01*
X204077200Y-193000057D01*
X204148628Y-192857200D01*
X204291485Y-192785771D01*
X204577200Y-192785771D01*
X204720057Y-192857200D01*
X204791485Y-193000057D01*
X204791485Y-193142914D01*
X204077200Y-193285771D01*
X205434342Y-193642914D02*
X205505771Y-193714342D01*
X205434342Y-193785771D01*
X205362914Y-193714342D01*
X205434342Y-193642914D01*
X205434342Y-193785771D01*
X205434342Y-192857200D02*
X205505771Y-192928628D01*
X205434342Y-193000057D01*
X205362914Y-192928628D01*
X205434342Y-192857200D01*
X205434342Y-193000057D01*
D10*
D11*
X177002200Y-194507200D02*
X285002200Y-194507200D01*
D10*
D11*
X178434342Y-196585771D02*
X178434342Y-195085771D01*
X179291485Y-196585771D02*
X178648628Y-195728628D01*
X179291485Y-195085771D02*
X178434342Y-195942914D01*
X179934342Y-196585771D02*
X179934342Y-195585771D01*
X179934342Y-195085771D02*
X179862914Y-195157200D01*
X179934342Y-195228628D01*
X180005771Y-195157200D01*
X179934342Y-195085771D01*
X179934342Y-195228628D01*
X181505771Y-196442914D02*
X181434342Y-196514342D01*
X181220057Y-196585771D01*
X181077200Y-196585771D01*
X180862914Y-196514342D01*
X180720057Y-196371485D01*
X180648628Y-196228628D01*
X180577200Y-195942914D01*
X180577200Y-195728628D01*
X180648628Y-195442914D01*
X180720057Y-195300057D01*
X180862914Y-195157200D01*
X181077200Y-195085771D01*
X181220057Y-195085771D01*
X181434342Y-195157200D01*
X181505771Y-195228628D01*
X182791485Y-196585771D02*
X182791485Y-195800057D01*
X182720057Y-195657200D01*
X182577200Y-195585771D01*
X182291485Y-195585771D01*
X182148628Y-195657200D01*
X182791485Y-196514342D02*
X182648628Y-196585771D01*
X182291485Y-196585771D01*
X182148628Y-196514342D01*
X182077200Y-196371485D01*
X182077200Y-196228628D01*
X182148628Y-196085771D01*
X182291485Y-196014342D01*
X182648628Y-196014342D01*
X182791485Y-195942914D01*
X184148628Y-196585771D02*
X184148628Y-195085771D01*
X184148628Y-196514342D02*
X184005771Y-196585771D01*
X183720057Y-196585771D01*
X183577200Y-196514342D01*
X183505771Y-196442914D01*
X183434342Y-196300057D01*
X183434342Y-195871485D01*
X183505771Y-195728628D01*
X183577200Y-195657200D01*
X183720057Y-195585771D01*
X184005771Y-195585771D01*
X184148628Y-195657200D01*
X186005771Y-195800057D02*
X186505771Y-195800057D01*
X186720057Y-196585771D02*
X186005771Y-196585771D01*
X186005771Y-195085771D01*
X186720057Y-195085771D01*
X187362914Y-196442914D02*
X187434342Y-196514342D01*
X187362914Y-196585771D01*
X187291485Y-196514342D01*
X187362914Y-196442914D01*
X187362914Y-196585771D01*
X188077200Y-196585771D02*
X188077200Y-195085771D01*
X188434342Y-195085771D01*
X188648628Y-195157200D01*
X188791485Y-195300057D01*
X188862914Y-195442914D01*
X188934342Y-195728628D01*
X188934342Y-195942914D01*
X188862914Y-196228628D01*
X188791485Y-196371485D01*
X188648628Y-196514342D01*
X188434342Y-196585771D01*
X188077200Y-196585771D01*
X189577200Y-196442914D02*
X189648628Y-196514342D01*
X189577200Y-196585771D01*
X189505771Y-196514342D01*
X189577200Y-196442914D01*
X189577200Y-196585771D01*
X190220057Y-196157200D02*
X190934342Y-196157200D01*
X190077200Y-196585771D02*
X190577200Y-195085771D01*
X191077200Y-196585771D01*
X191577200Y-196442914D02*
X191648628Y-196514342D01*
X191577200Y-196585771D01*
X191505771Y-196514342D01*
X191577200Y-196442914D01*
X191577200Y-196585771D01*
X194577200Y-196585771D02*
X194577200Y-195085771D01*
X194720057Y-196014342D02*
X195148628Y-196585771D01*
X195148628Y-195585771D02*
X194577200Y-196157200D01*
X195791485Y-196585771D02*
X195791485Y-195585771D01*
X195791485Y-195085771D02*
X195720057Y-195157200D01*
X195791485Y-195228628D01*
X195862914Y-195157200D01*
X195791485Y-195085771D01*
X195791485Y-195228628D01*
X197148628Y-196514342D02*
X197005771Y-196585771D01*
X196720057Y-196585771D01*
X196577200Y-196514342D01*
X196505771Y-196442914D01*
X196434342Y-196300057D01*
X196434342Y-195871485D01*
X196505771Y-195728628D01*
X196577200Y-195657200D01*
X196720057Y-195585771D01*
X197005771Y-195585771D01*
X197148628Y-195657200D01*
X198434342Y-196585771D02*
X198434342Y-195800057D01*
X198362914Y-195657200D01*
X198220057Y-195585771D01*
X197934342Y-195585771D01*
X197791485Y-195657200D01*
X198434342Y-196514342D02*
X198291485Y-196585771D01*
X197934342Y-196585771D01*
X197791485Y-196514342D01*
X197720057Y-196371485D01*
X197720057Y-196228628D01*
X197791485Y-196085771D01*
X197934342Y-196014342D01*
X198291485Y-196014342D01*
X198434342Y-195942914D01*
X199791485Y-196585771D02*
X199791485Y-195085771D01*
X199791485Y-196514342D02*
X199648628Y-196585771D01*
X199362914Y-196585771D01*
X199220057Y-196514342D01*
X199148628Y-196442914D01*
X199077200Y-196300057D01*
X199077200Y-195871485D01*
X199148628Y-195728628D01*
X199220057Y-195657200D01*
X199362914Y-195585771D01*
X199648628Y-195585771D01*
X199791485Y-195657200D01*
X202077200Y-197157200D02*
X202005771Y-197085771D01*
X201862914Y-196871485D01*
X201791485Y-196728628D01*
X201720057Y-196514342D01*
X201648628Y-196157200D01*
X201648628Y-195871485D01*
X201720057Y-195514342D01*
X201791485Y-195300057D01*
X201862914Y-195157200D01*
X202005771Y-194942914D01*
X202077200Y-194871485D01*
X203362914Y-195085771D02*
X202648628Y-195085771D01*
X202577200Y-195800057D01*
X202648628Y-195728628D01*
X202791485Y-195657200D01*
X203148628Y-195657200D01*
X203291485Y-195728628D01*
X203362914Y-195800057D01*
X203434342Y-195942914D01*
X203434342Y-196300057D01*
X203362914Y-196442914D01*
X203291485Y-196514342D01*
X203148628Y-196585771D01*
X202791485Y-196585771D01*
X202648628Y-196514342D01*
X202577200Y-196442914D01*
X204077200Y-196442914D02*
X204148628Y-196514342D01*
X204077200Y-196585771D01*
X204005771Y-196514342D01*
X204077200Y-196442914D01*
X204077200Y-196585771D01*
X205577200Y-196585771D02*
X204720057Y-196585771D01*
X205148628Y-196585771D02*
X205148628Y-195085771D01*
X205005771Y-195300057D01*
X204862914Y-195442914D01*
X204720057Y-195514342D01*
X206220057Y-196442914D02*
X206291485Y-196514342D01*
X206220057Y-196585771D01*
X206148628Y-196514342D01*
X206220057Y-196442914D01*
X206220057Y-196585771D01*
X206862914Y-195228628D02*
X206934342Y-195157200D01*
X207077200Y-195085771D01*
X207434342Y-195085771D01*
X207577200Y-195157200D01*
X207648628Y-195228628D01*
X207720057Y-195371485D01*
X207720057Y-195514342D01*
X207648628Y-195728628D01*
X206791485Y-196585771D01*
X207720057Y-196585771D01*
X208220057Y-197157200D02*
X208291485Y-197085771D01*
X208434342Y-196871485D01*
X208505771Y-196728628D01*
X208577200Y-196514342D01*
X208648628Y-196157200D01*
X208648628Y-195871485D01*
X208577200Y-195514342D01*
X208505771Y-195300057D01*
X208434342Y-195157200D01*
X208291485Y-194942914D01*
X208220057Y-194871485D01*
X209362914Y-196014342D02*
X210505771Y-196014342D01*
X211148628Y-195228628D02*
X211220057Y-195157200D01*
X211362914Y-195085771D01*
X211720057Y-195085771D01*
X211862914Y-195157200D01*
X211934342Y-195228628D01*
X212005771Y-195371485D01*
X212005771Y-195514342D01*
X211934342Y-195728628D01*
X211077200Y-196585771D01*
X212005771Y-196585771D01*
D10*
D11*
X177002200Y-191507200D02*
X285002200Y-191507200D01*
D10*
D12*
X264411485Y-193785771D02*
X263911485Y-193071485D01*
X263554342Y-193785771D02*
X263554342Y-192285771D01*
X264125771Y-192285771D01*
X264268628Y-192357200D01*
X264340057Y-192428628D01*
X264411485Y-192571485D01*
X264411485Y-192785771D01*
X264340057Y-192928628D01*
X264268628Y-193000057D01*
X264125771Y-193071485D01*
X263554342Y-193071485D01*
X265625771Y-193714342D02*
X265482914Y-193785771D01*
X265197200Y-193785771D01*
X265054342Y-193714342D01*
X264982914Y-193571485D01*
X264982914Y-193000057D01*
X265054342Y-192857200D01*
X265197200Y-192785771D01*
X265482914Y-192785771D01*
X265625771Y-192857200D01*
X265697200Y-193000057D01*
X265697200Y-193142914D01*
X264982914Y-193285771D01*
X266197200Y-192785771D02*
X266554342Y-193785771D01*
X266911485Y-192785771D01*
X267482914Y-193642914D02*
X267554342Y-193714342D01*
X267482914Y-193785771D01*
X267411485Y-193714342D01*
X267482914Y-193642914D01*
X267482914Y-193785771D01*
X267482914Y-192857200D02*
X267554342Y-192928628D01*
X267482914Y-193000057D01*
X267411485Y-192928628D01*
X267482914Y-192857200D01*
X267482914Y-193000057D01*
D10*
D11*
X178362914Y-193714342D02*
X178577200Y-193785771D01*
X178934342Y-193785771D01*
X179077200Y-193714342D01*
X179148628Y-193642914D01*
X179220057Y-193500057D01*
X179220057Y-193357200D01*
X179148628Y-193214342D01*
X179077200Y-193142914D01*
X178934342Y-193071485D01*
X178648628Y-193000057D01*
X178505771Y-192928628D01*
X178434342Y-192857200D01*
X178362914Y-192714342D01*
X178362914Y-192571485D01*
X178434342Y-192428628D01*
X178505771Y-192357200D01*
X178648628Y-192285771D01*
X179005771Y-192285771D01*
X179220057Y-192357200D01*
X179862914Y-193785771D02*
X179862914Y-192785771D01*
X179862914Y-192285771D02*
X179791485Y-192357200D01*
X179862914Y-192428628D01*
X179934342Y-192357200D01*
X179862914Y-192285771D01*
X179862914Y-192428628D01*
X180434342Y-192785771D02*
X181220057Y-192785771D01*
X180434342Y-193785771D01*
X181220057Y-193785771D01*
X182362914Y-193714342D02*
X182220057Y-193785771D01*
X181934342Y-193785771D01*
X181791485Y-193714342D01*
X181720057Y-193571485D01*
X181720057Y-193000057D01*
X181791485Y-192857200D01*
X181934342Y-192785771D01*
X182220057Y-192785771D01*
X182362914Y-192857200D01*
X182434342Y-193000057D01*
X182434342Y-193142914D01*
X181720057Y-193285771D01*
X183077200Y-193642914D02*
X183148628Y-193714342D01*
X183077200Y-193785771D01*
X183005771Y-193714342D01*
X183077200Y-193642914D01*
X183077200Y-193785771D01*
X183077200Y-192857200D02*
X183148628Y-192928628D01*
X183077200Y-193000057D01*
X183005771Y-192928628D01*
X183077200Y-192857200D01*
X183077200Y-193000057D01*
X184862914Y-193357200D02*
X185577200Y-193357200D01*
X184720057Y-193785771D02*
X185220057Y-192285771D01*
X185720057Y-193785771D01*
X186862914Y-192785771D02*
X186862914Y-193785771D01*
X186505771Y-192214342D02*
X186148628Y-193285771D01*
X187077200Y-193285771D01*
D10*
D11*
X263434342Y-196585771D02*
X263434342Y-195085771D01*
X264791485Y-196585771D02*
X264791485Y-195085771D01*
X264791485Y-196514342D02*
X264648628Y-196585771D01*
X264362914Y-196585771D01*
X264220057Y-196514342D01*
X264148628Y-196442914D01*
X264077200Y-196300057D01*
X264077200Y-195871485D01*
X264148628Y-195728628D01*
X264220057Y-195657200D01*
X264362914Y-195585771D01*
X264648628Y-195585771D01*
X264791485Y-195657200D01*
X265505771Y-196442914D02*
X265577200Y-196514342D01*
X265505771Y-196585771D01*
X265434342Y-196514342D01*
X265505771Y-196442914D01*
X265505771Y-196585771D01*
X265505771Y-195657200D02*
X265577200Y-195728628D01*
X265505771Y-195800057D01*
X265434342Y-195728628D01*
X265505771Y-195657200D01*
X265505771Y-195800057D01*
X268148628Y-196585771D02*
X267291485Y-196585771D01*
X267720057Y-196585771D02*
X267720057Y-195085771D01*
X267577200Y-195300057D01*
X267434342Y-195442914D01*
X267291485Y-195514342D01*
X269862914Y-195014342D02*
X268577200Y-196942914D01*
X271148628Y-196585771D02*
X270291485Y-196585771D01*
X270720057Y-196585771D02*
X270720057Y-195085771D01*
X270577200Y-195300057D01*
X270434342Y-195442914D01*
X270291485Y-195514342D01*
D10*
D11*
X177002200Y-187507200D02*
X285002200Y-187507200D01*
D10*
D13*
X178714580Y-188211961D02*
X179857438Y-188211961D01*
X179036009Y-190211961D02*
X179286009Y-188211961D01*
X180274104Y-190211961D02*
X180440771Y-188878628D01*
X180524104Y-188211961D02*
X180416961Y-188307200D01*
X180500295Y-188402438D01*
X180607438Y-188307200D01*
X180524104Y-188211961D01*
X180500295Y-188402438D01*
X181107438Y-188878628D02*
X181869342Y-188878628D01*
X181476485Y-188211961D02*
X181262200Y-189926247D01*
X181333628Y-190116723D01*
X181512200Y-190211961D01*
X181702676Y-190211961D01*
X182655057Y-190211961D02*
X182476485Y-190116723D01*
X182405057Y-189926247D01*
X182619342Y-188211961D01*
X184190771Y-190116723D02*
X183988390Y-190211961D01*
X183607438Y-190211961D01*
X183428866Y-190116723D01*
X183357438Y-189926247D01*
X183452676Y-189164342D01*
X183571723Y-188973866D01*
X183774104Y-188878628D01*
X184155057Y-188878628D01*
X184333628Y-188973866D01*
X184405057Y-189164342D01*
X184381247Y-189354819D01*
X183405057Y-189545295D01*
X185155057Y-190021485D02*
X185238390Y-190116723D01*
X185131247Y-190211961D01*
X185047914Y-190116723D01*
X185155057Y-190021485D01*
X185131247Y-190211961D01*
X185286009Y-188973866D02*
X185369342Y-189069104D01*
X185262200Y-189164342D01*
X185178866Y-189069104D01*
X185286009Y-188973866D01*
X185262200Y-189164342D01*
D10*
D11*
X178934342Y-185600057D02*
X178434342Y-185600057D01*
X178434342Y-186385771D02*
X178434342Y-184885771D01*
X179148628Y-184885771D01*
X179720057Y-186385771D02*
X179720057Y-185385771D01*
X179720057Y-184885771D02*
X179648628Y-184957200D01*
X179720057Y-185028628D01*
X179791485Y-184957200D01*
X179720057Y-184885771D01*
X179720057Y-185028628D01*
X180648628Y-186385771D02*
X180505771Y-186314342D01*
X180434342Y-186171485D01*
X180434342Y-184885771D01*
X181791485Y-186314342D02*
X181648628Y-186385771D01*
X181362914Y-186385771D01*
X181220057Y-186314342D01*
X181148628Y-186171485D01*
X181148628Y-185600057D01*
X181220057Y-185457200D01*
X181362914Y-185385771D01*
X181648628Y-185385771D01*
X181791485Y-185457200D01*
X181862914Y-185600057D01*
X181862914Y-185742914D01*
X181148628Y-185885771D01*
X182505771Y-186242914D02*
X182577200Y-186314342D01*
X182505771Y-186385771D01*
X182434342Y-186314342D01*
X182505771Y-186242914D01*
X182505771Y-186385771D01*
X182505771Y-185457200D02*
X182577200Y-185528628D01*
X182505771Y-185600057D01*
X182434342Y-185528628D01*
X182505771Y-185457200D01*
X182505771Y-185600057D01*
X185220057Y-186242914D02*
X185148628Y-186314342D01*
X184934342Y-186385771D01*
X184791485Y-186385771D01*
X184577200Y-186314342D01*
X184434342Y-186171485D01*
X184362914Y-186028628D01*
X184291485Y-185742914D01*
X184291485Y-185528628D01*
X184362914Y-185242914D01*
X184434342Y-185100057D01*
X184577200Y-184957200D01*
X184791485Y-184885771D01*
X184934342Y-184885771D01*
X185148628Y-184957200D01*
X185220057Y-185028628D01*
X186077200Y-186385771D02*
X185934342Y-186314342D01*
X185862914Y-186171485D01*
X185862914Y-184885771D01*
X187220057Y-186314342D02*
X187077200Y-186385771D01*
X186791485Y-186385771D01*
X186648628Y-186314342D01*
X186577200Y-186171485D01*
X186577200Y-185600057D01*
X186648628Y-185457200D01*
X186791485Y-185385771D01*
X187077200Y-185385771D01*
X187220057Y-185457200D01*
X187291485Y-185600057D01*
X187291485Y-185742914D01*
X186577200Y-185885771D01*
X187791485Y-185385771D02*
X188148628Y-186385771D01*
X188505771Y-185385771D01*
X189648628Y-186314342D02*
X189505771Y-186385771D01*
X189220057Y-186385771D01*
X189077200Y-186314342D01*
X189005771Y-186171485D01*
X189005771Y-185600057D01*
X189077200Y-185457200D01*
X189220057Y-185385771D01*
X189505771Y-185385771D01*
X189648628Y-185457200D01*
X189720057Y-185600057D01*
X189720057Y-185742914D01*
X189005771Y-185885771D01*
X190362914Y-186385771D02*
X190362914Y-185385771D01*
X190362914Y-185671485D02*
X190434342Y-185528628D01*
X190505771Y-185457200D01*
X190648628Y-185385771D01*
X190791485Y-185385771D01*
X190934342Y-186528628D02*
X192077200Y-186528628D01*
X193148628Y-186385771D02*
X192434342Y-186385771D01*
X192434342Y-184885771D01*
X193648628Y-186385771D02*
X193648628Y-185385771D01*
X193648628Y-184885771D02*
X193577200Y-184957200D01*
X193648628Y-185028628D01*
X193720057Y-184957200D01*
X193648628Y-184885771D01*
X193648628Y-185028628D01*
X195005771Y-185385771D02*
X195005771Y-186600057D01*
X194934342Y-186742914D01*
X194862914Y-186814342D01*
X194720057Y-186885771D01*
X194505771Y-186885771D01*
X194362914Y-186814342D01*
X195005771Y-186314342D02*
X194862914Y-186385771D01*
X194577200Y-186385771D01*
X194434342Y-186314342D01*
X194362914Y-186242914D01*
X194291485Y-186100057D01*
X194291485Y-185671485D01*
X194362914Y-185528628D01*
X194434342Y-185457200D01*
X194577200Y-185385771D01*
X194862914Y-185385771D01*
X195005771Y-185457200D01*
X195720057Y-186385771D02*
X195720057Y-184885771D01*
X196362914Y-186385771D02*
X196362914Y-185600057D01*
X196291485Y-185457200D01*
X196148628Y-185385771D01*
X195934342Y-185385771D01*
X195791485Y-185457200D01*
X195720057Y-185528628D01*
X196862914Y-185385771D02*
X197434342Y-185385771D01*
X197077200Y-184885771D02*
X197077200Y-186171485D01*
X197148628Y-186314342D01*
X197291485Y-186385771D01*
X197434342Y-186385771D01*
X197934342Y-186242914D02*
X198005771Y-186314342D01*
X197934342Y-186385771D01*
X197862914Y-186314342D01*
X197934342Y-186242914D01*
X197934342Y-186385771D01*
X198648628Y-186385771D02*
X198648628Y-184885771D01*
X198791485Y-185814342D02*
X199220057Y-186385771D01*
X199220057Y-185385771D02*
X198648628Y-185957200D01*
X199862914Y-186385771D02*
X199862914Y-185385771D01*
X199862914Y-184885771D02*
X199791485Y-184957200D01*
X199862914Y-185028628D01*
X199934342Y-184957200D01*
X199862914Y-184885771D01*
X199862914Y-185028628D01*
X201220057Y-186314342D02*
X201077200Y-186385771D01*
X200791485Y-186385771D01*
X200648628Y-186314342D01*
X200577200Y-186242914D01*
X200505771Y-186100057D01*
X200505771Y-185671485D01*
X200577200Y-185528628D01*
X200648628Y-185457200D01*
X200791485Y-185385771D01*
X201077200Y-185385771D01*
X201220057Y-185457200D01*
X202505771Y-186385771D02*
X202505771Y-185600057D01*
X202434342Y-185457200D01*
X202291485Y-185385771D01*
X202005771Y-185385771D01*
X201862914Y-185457200D01*
X202505771Y-186314342D02*
X202362914Y-186385771D01*
X202005771Y-186385771D01*
X201862914Y-186314342D01*
X201791485Y-186171485D01*
X201791485Y-186028628D01*
X201862914Y-185885771D01*
X202005771Y-185814342D01*
X202362914Y-185814342D01*
X202505771Y-185742914D01*
X203862914Y-186385771D02*
X203862914Y-184885771D01*
X203862914Y-186314342D02*
X203720057Y-186385771D01*
X203434342Y-186385771D01*
X203291485Y-186314342D01*
X203220057Y-186242914D01*
X203148628Y-186100057D01*
X203148628Y-185671485D01*
X203220057Y-185528628D01*
X203291485Y-185457200D01*
X203434342Y-185385771D01*
X203720057Y-185385771D01*
X203862914Y-185457200D01*
X204220057Y-186528628D02*
X205362914Y-186528628D01*
X205720057Y-185385771D02*
X205720057Y-186885771D01*
X205720057Y-185457200D02*
X205862914Y-185385771D01*
X206148628Y-185385771D01*
X206291485Y-185457200D01*
X206362914Y-185528628D01*
X206434342Y-185671485D01*
X206434342Y-186100057D01*
X206362914Y-186242914D01*
X206291485Y-186314342D01*
X206148628Y-186385771D01*
X205862914Y-186385771D01*
X205720057Y-186314342D01*
X207720057Y-186314342D02*
X207577200Y-186385771D01*
X207291485Y-186385771D01*
X207148628Y-186314342D01*
X207077200Y-186242914D01*
X207005771Y-186100057D01*
X207005771Y-185671485D01*
X207077200Y-185528628D01*
X207148628Y-185457200D01*
X207291485Y-185385771D01*
X207577200Y-185385771D01*
X207720057Y-185457200D01*
X208362914Y-186385771D02*
X208362914Y-184885771D01*
X208362914Y-185457200D02*
X208505771Y-185385771D01*
X208791485Y-185385771D01*
X208934342Y-185457200D01*
X209005771Y-185528628D01*
X209077200Y-185671485D01*
X209077200Y-186100057D01*
X209005771Y-186242914D01*
X208934342Y-186314342D01*
X208791485Y-186385771D01*
X208505771Y-186385771D01*
X208362914Y-186314342D01*
D10*
D11*
X177002200Y-181507200D02*
X285002200Y-181507200D01*
D10*
D11*
X178362914Y-183614342D02*
X178577200Y-183685771D01*
X178934342Y-183685771D01*
X179077200Y-183614342D01*
X179148628Y-183542914D01*
X179220057Y-183400057D01*
X179220057Y-183257200D01*
X179148628Y-183114342D01*
X179077200Y-183042914D01*
X178934342Y-182971485D01*
X178648628Y-182900057D01*
X178505771Y-182828628D01*
X178434342Y-182757200D01*
X178362914Y-182614342D01*
X178362914Y-182471485D01*
X178434342Y-182328628D01*
X178505771Y-182257200D01*
X178648628Y-182185771D01*
X179005771Y-182185771D01*
X179220057Y-182257200D01*
X179862914Y-183685771D02*
X179862914Y-182185771D01*
X180505771Y-183685771D02*
X180505771Y-182900057D01*
X180434342Y-182757200D01*
X180291485Y-182685771D01*
X180077200Y-182685771D01*
X179934342Y-182757200D01*
X179862914Y-182828628D01*
X181791485Y-183614342D02*
X181648628Y-183685771D01*
X181362914Y-183685771D01*
X181220057Y-183614342D01*
X181148628Y-183471485D01*
X181148628Y-182900057D01*
X181220057Y-182757200D01*
X181362914Y-182685771D01*
X181648628Y-182685771D01*
X181791485Y-182757200D01*
X181862914Y-182900057D01*
X181862914Y-183042914D01*
X181148628Y-183185771D01*
X183077200Y-183614342D02*
X182934342Y-183685771D01*
X182648628Y-183685771D01*
X182505771Y-183614342D01*
X182434342Y-183471485D01*
X182434342Y-182900057D01*
X182505771Y-182757200D01*
X182648628Y-182685771D01*
X182934342Y-182685771D01*
X183077200Y-182757200D01*
X183148628Y-182900057D01*
X183148628Y-183042914D01*
X182434342Y-183185771D01*
X183577200Y-182685771D02*
X184148628Y-182685771D01*
X183791485Y-182185771D02*
X183791485Y-183471485D01*
X183862914Y-183614342D01*
X184005771Y-183685771D01*
X184148628Y-183685771D01*
X184648628Y-183542914D02*
X184720057Y-183614342D01*
X184648628Y-183685771D01*
X184577200Y-183614342D01*
X184648628Y-183542914D01*
X184648628Y-183685771D01*
X184648628Y-182757200D02*
X184720057Y-182828628D01*
X184648628Y-182900057D01*
X184577200Y-182828628D01*
X184648628Y-182757200D01*
X184648628Y-182900057D01*
D10*
D11*
X197002200Y-191507200D02*
X197002200Y-194507200D01*
D10*
D11*
X261002200Y-191507200D02*
X261002200Y-198007200D01*
D10*
X148590000Y-61976000D02*
X148590000Y-65786000D01*
X151130000Y-61976000D02*
X151130000Y-65786000D01*
X153670000Y-61976000D02*
X153670000Y-65786000D01*
X146130000Y-61976000D02*
X156130000Y-61976000D01*
X146130000Y-52726000D02*
X146130000Y-61976000D01*
X156130000Y-52726000D02*
X146130000Y-52726000D01*
X156130000Y-61976000D02*
X156130000Y-52726000D01*
X146130000Y-52726000D02*
X156130000Y-52726000D01*
X146130000Y-46326000D02*
X146130000Y-52726000D01*
X156130000Y-46326000D02*
X146130000Y-46326000D01*
X156130000Y-52726000D02*
X156130000Y-46326000D01*
X152980000Y-49126000D02*
G75*
G03X152980000Y-49126000I-1850000J0D01*
G01*
X122682000Y-73660000D02*
X124692000Y-73660000D01*
X130302000Y-73660000D02*
X128292000Y-73660000D01*
X124692000Y-74460000D02*
X128292000Y-74460000D01*
X124692000Y-72860000D02*
X124692000Y-74460000D01*
X128292000Y-72860000D02*
X124692000Y-72860000D01*
X128292000Y-74460000D02*
X128292000Y-72860000D01*
X122682000Y-71120000D02*
X124692000Y-71120000D01*
X130302000Y-71120000D02*
X128292000Y-71120000D01*
X124692000Y-71920000D02*
X128292000Y-71920000D01*
X124692000Y-70320000D02*
X124692000Y-71920000D01*
X128292000Y-70320000D02*
X124692000Y-70320000D01*
X128292000Y-71920000D02*
X128292000Y-70320000D01*
X128905000Y-78470000D02*
X129905000Y-77470000D01*
X128905000Y-85090000D02*
X128905000Y-78470000D01*
X135255000Y-85090000D02*
X128905000Y-85090000D01*
X135255000Y-77470000D02*
X135255000Y-85090000D01*
X129905000Y-77470000D02*
X135255000Y-77470000D01*
X112161000Y-88920000D02*
X112711000Y-88360000D01*
X112161000Y-63480000D02*
X112711000Y-64020000D01*
X121011000Y-88920000D02*
X120461000Y-88360000D01*
X121011000Y-63480000D02*
X120461000Y-64020000D01*
X120461000Y-88360000D02*
X112711000Y-88360000D01*
X121011000Y-88920000D02*
X112161000Y-88920000D01*
X120461000Y-64020000D02*
X112711000Y-64020000D01*
X121011000Y-63480000D02*
X112161000Y-63480000D01*
X112711000Y-78450000D02*
X112161000Y-78450000D01*
X112711000Y-73950000D02*
X112161000Y-73950000D01*
X112711000Y-78450000D02*
X112711000Y-88360000D01*
X112711000Y-64020000D02*
X112711000Y-73950000D01*
X112161000Y-63480000D02*
X112161000Y-88920000D01*
X120461000Y-64020000D02*
X120461000Y-88360000D01*
X121011000Y-63480000D02*
X121011000Y-88920000D01*
X137083000Y-51315000D02*
X134294000Y-54105000D01*
X137327000Y-51559000D02*
X134538000Y-54349000D01*
X132083000Y-51315000D02*
X129293000Y-54105000D01*
X132327000Y-51559000D02*
X129537000Y-54349000D01*
X128310000Y-56332000D02*
X138310000Y-56332000D01*
X128310000Y-57432000D02*
X138310000Y-57432000D01*
X128310000Y-57432000D02*
X128310000Y-48832000D01*
X128710000Y-57832000D02*
X128310000Y-57432000D01*
X138310000Y-57832000D02*
X128710000Y-57832000D01*
X138310000Y-48832000D02*
X138310000Y-57832000D01*
X128310000Y-48832000D02*
X138310000Y-48832000D01*
X137810000Y-52832000D02*
G75*
G03X137810000Y-52832000I-2000000J0D01*
G01*
X132810000Y-52832000D02*
G75*
G03X132810000Y-52832000I-2000000J0D01*
G01*
X125653000Y-51315000D02*
X122864000Y-54105000D01*
X125897000Y-51559000D02*
X123108000Y-54349000D01*
X120653000Y-51315000D02*
X117863000Y-54105000D01*
X120897000Y-51559000D02*
X118107000Y-54349000D01*
X116880000Y-56332000D02*
X126880000Y-56332000D01*
X116880000Y-57432000D02*
X126880000Y-57432000D01*
X116880000Y-57432000D02*
X116880000Y-48832000D01*
X117280000Y-57832000D02*
X116880000Y-57432000D01*
X126880000Y-57832000D02*
X117280000Y-57832000D01*
X126880000Y-48832000D02*
X126880000Y-57832000D01*
X116880000Y-48832000D02*
X126880000Y-48832000D01*
X126380000Y-52832000D02*
G75*
G03X126380000Y-52832000I-2000000J0D01*
G01*
X121380000Y-52832000D02*
G75*
G03X121380000Y-52832000I-2000000J0D01*
G01*
X155187000Y-77139000D02*
X152397000Y-74350000D01*
X154943000Y-77383000D02*
X152153000Y-74594000D01*
X155187000Y-72139000D02*
X152397000Y-69349000D01*
X154943000Y-72383000D02*
X152153000Y-69593000D01*
X150170000Y-68366000D02*
X150170000Y-78366000D01*
X149070000Y-68366000D02*
X149070000Y-78366000D01*
X149070000Y-68366000D02*
X157670000Y-68366000D01*
X148670000Y-68766000D02*
X149070000Y-68366000D01*
X148670000Y-78366000D02*
X148670000Y-68766000D01*
X157670000Y-78366000D02*
X148670000Y-78366000D01*
X157670000Y-68366000D02*
X157670000Y-78366000D01*
X155670000Y-75866000D02*
G75*
G03X155670000Y-75866000I-2000000J0D01*
G01*
X155670000Y-70866000D02*
G75*
G03X155670000Y-70866000I-2000000J0D01*
G01*
X155187000Y-88569000D02*
X152397000Y-85780000D01*
X154943000Y-88813000D02*
X152153000Y-86024000D01*
X155187000Y-83569000D02*
X152397000Y-80779000D01*
X154943000Y-83813000D02*
X152153000Y-81023000D01*
X150170000Y-79796000D02*
X150170000Y-89796000D01*
X149070000Y-79796000D02*
X149070000Y-89796000D01*
X149070000Y-79796000D02*
X157670000Y-79796000D01*
X148670000Y-80196000D02*
X149070000Y-79796000D01*
X148670000Y-89796000D02*
X148670000Y-80196000D01*
X157670000Y-89796000D02*
X148670000Y-89796000D01*
X157670000Y-79796000D02*
X157670000Y-89796000D01*
X155670000Y-87296000D02*
G75*
G03X155670000Y-87296000I-2000000J0D01*
G01*
X155670000Y-82296000D02*
G75*
G03X155670000Y-82296000I-2000000J0D01*
G01*
D11*
X145344285Y-67714571D02*
X145487142Y-67762190D01*
X145534761Y-67809809D01*
X145582380Y-67905047D01*
X145582380Y-68047904D01*
X145534761Y-68143142D01*
X145487142Y-68190761D01*
X145391904Y-68238380D01*
X145010952Y-68238380D01*
X145010952Y-67238380D01*
X145344285Y-67238380D01*
X145439523Y-67286000D01*
X145487142Y-67333619D01*
X145534761Y-67428857D01*
X145534761Y-67524095D01*
X145487142Y-67619333D01*
X145439523Y-67666952D01*
X145344285Y-67714571D01*
X145010952Y-67714571D01*
X145868095Y-67238380D02*
X146439523Y-67238380D01*
X146153809Y-68238380D02*
X146153809Y-67238380D01*
X146725238Y-67952666D02*
X147201428Y-67952666D01*
X146630000Y-68238380D02*
X146963333Y-67238380D01*
X147296666Y-68238380D01*
X147820476Y-67238380D02*
X147915714Y-67238380D01*
X148010952Y-67286000D01*
X148058571Y-67333619D01*
X148106190Y-67428857D01*
X148153809Y-67619333D01*
X148153809Y-67857428D01*
X148106190Y-68047904D01*
X148058571Y-68143142D01*
X148010952Y-68190761D01*
X147915714Y-68238380D01*
X147820476Y-68238380D01*
X147725238Y-68190761D01*
X147677619Y-68143142D01*
X147630000Y-68047904D01*
X147582380Y-67857428D01*
X147582380Y-67619333D01*
X147630000Y-67428857D01*
X147677619Y-67333619D01*
X147725238Y-67286000D01*
X147820476Y-67238380D01*
X148725238Y-67666952D02*
X148630000Y-67619333D01*
X148582380Y-67571714D01*
X148534761Y-67476476D01*
X148534761Y-67428857D01*
X148582380Y-67333619D01*
X148630000Y-67286000D01*
X148725238Y-67238380D01*
X148915714Y-67238380D01*
X149010952Y-67286000D01*
X149058571Y-67333619D01*
X149106190Y-67428857D01*
X149106190Y-67476476D01*
X149058571Y-67571714D01*
X149010952Y-67619333D01*
X148915714Y-67666952D01*
X148725238Y-67666952D01*
X148630000Y-67714571D01*
X148582380Y-67762190D01*
X148534761Y-67857428D01*
X148534761Y-68047904D01*
X148582380Y-68143142D01*
X148630000Y-68190761D01*
X148725238Y-68238380D01*
X148915714Y-68238380D01*
X149010952Y-68190761D01*
X149058571Y-68143142D01*
X149106190Y-68047904D01*
X149106190Y-67857428D01*
X149058571Y-67762190D01*
X149010952Y-67714571D01*
X148915714Y-67666952D01*
X149534761Y-67857428D02*
X150296666Y-67857428D01*
X151201428Y-67238380D02*
X151010952Y-67238380D01*
X150915714Y-67286000D01*
X150868095Y-67333619D01*
X150772857Y-67476476D01*
X150725238Y-67666952D01*
X150725238Y-68047904D01*
X150772857Y-68143142D01*
X150820476Y-68190761D01*
X150915714Y-68238380D01*
X151106190Y-68238380D01*
X151201428Y-68190761D01*
X151249047Y-68143142D01*
X151296666Y-68047904D01*
X151296666Y-67809809D01*
X151249047Y-67714571D01*
X151201428Y-67666952D01*
X151106190Y-67619333D01*
X150915714Y-67619333D01*
X150820476Y-67666952D01*
X150772857Y-67714571D01*
X150725238Y-67809809D01*
X151915714Y-67238380D02*
X152010952Y-67238380D01*
X152106190Y-67286000D01*
X152153809Y-67333619D01*
X152201428Y-67428857D01*
X152249047Y-67619333D01*
X152249047Y-67857428D01*
X152201428Y-68047904D01*
X152153809Y-68143142D01*
X152106190Y-68190761D01*
X152010952Y-68238380D01*
X151915714Y-68238380D01*
X151820476Y-68190761D01*
X151772857Y-68143142D01*
X151725238Y-68047904D01*
X151677619Y-67857428D01*
X151677619Y-67619333D01*
X151725238Y-67428857D01*
X151772857Y-67333619D01*
X151820476Y-67286000D01*
X151915714Y-67238380D01*
X152868095Y-67238380D02*
X152963333Y-67238380D01*
X153058571Y-67286000D01*
X153106190Y-67333619D01*
X153153809Y-67428857D01*
X153201428Y-67619333D01*
X153201428Y-67857428D01*
X153153809Y-68047904D01*
X153106190Y-68143142D01*
X153058571Y-68190761D01*
X152963333Y-68238380D01*
X152868095Y-68238380D01*
X152772857Y-68190761D01*
X152725238Y-68143142D01*
X152677619Y-68047904D01*
X152630000Y-67857428D01*
X152630000Y-67619333D01*
X152677619Y-67428857D01*
X152725238Y-67333619D01*
X152772857Y-67286000D01*
X152868095Y-67238380D01*
X153582380Y-68190761D02*
X153725238Y-68238380D01*
X153963333Y-68238380D01*
X154058571Y-68190761D01*
X154106190Y-68143142D01*
X154153809Y-68047904D01*
X154153809Y-67952666D01*
X154106190Y-67857428D01*
X154058571Y-67809809D01*
X153963333Y-67762190D01*
X153772857Y-67714571D01*
X153677619Y-67666952D01*
X153630000Y-67619333D01*
X153582380Y-67524095D01*
X153582380Y-67428857D01*
X153630000Y-67333619D01*
X153677619Y-67286000D01*
X153772857Y-67238380D01*
X154010952Y-67238380D01*
X154153809Y-67286000D01*
X154487142Y-67238380D02*
X154725238Y-68238380D01*
X154915714Y-67524095D01*
X155106190Y-68238380D01*
X155344285Y-67238380D01*
X156296666Y-68238380D02*
X155963333Y-67762190D01*
X155725238Y-68238380D02*
X155725238Y-67238380D01*
X156106190Y-67238380D01*
X156201428Y-67286000D01*
X156249047Y-67333619D01*
X156296666Y-67428857D01*
X156296666Y-67571714D01*
X156249047Y-67666952D01*
X156201428Y-67714571D01*
X156106190Y-67762190D01*
X155725238Y-67762190D01*
X157249047Y-67286000D02*
X157153809Y-67238380D01*
X157010952Y-67238380D01*
X156868095Y-67286000D01*
X156772857Y-67381238D01*
X156725238Y-67476476D01*
X156677619Y-67666952D01*
X156677619Y-67809809D01*
X156725238Y-68000285D01*
X156772857Y-68095523D01*
X156868095Y-68190761D01*
X157010952Y-68238380D01*
X157106190Y-68238380D01*
X157249047Y-68190761D01*
X157296666Y-68143142D01*
X157296666Y-67809809D01*
X157106190Y-67809809D01*
X150153809Y-45658380D02*
X150153809Y-44658380D01*
X151201428Y-45563142D02*
X151153809Y-45610761D01*
X151010952Y-45658380D01*
X150915714Y-45658380D01*
X150772857Y-45610761D01*
X150677619Y-45515523D01*
X150630000Y-45420285D01*
X150582380Y-45229809D01*
X150582380Y-45086952D01*
X150630000Y-44896476D01*
X150677619Y-44801238D01*
X150772857Y-44706000D01*
X150915714Y-44658380D01*
X151010952Y-44658380D01*
X151153809Y-44706000D01*
X151201428Y-44753619D01*
X152153809Y-45658380D02*
X151582380Y-45658380D01*
X151868095Y-45658380D02*
X151868095Y-44658380D01*
X151772857Y-44801238D01*
X151677619Y-44896476D01*
X151582380Y-44944095D01*
X125730095Y-71192380D02*
X125539619Y-71192380D01*
X125444380Y-71240000D01*
X125396761Y-71287619D01*
X125301523Y-71430476D01*
X125253904Y-71620952D01*
X125253904Y-72001904D01*
X125301523Y-72097142D01*
X125349142Y-72144761D01*
X125444380Y-72192380D01*
X125634857Y-72192380D01*
X125730095Y-72144761D01*
X125777714Y-72097142D01*
X125825333Y-72001904D01*
X125825333Y-71763809D01*
X125777714Y-71668571D01*
X125730095Y-71620952D01*
X125634857Y-71573333D01*
X125444380Y-71573333D01*
X125349142Y-71620952D01*
X125301523Y-71668571D01*
X125253904Y-71763809D01*
X126396761Y-71620952D02*
X126301523Y-71573333D01*
X126253904Y-71525714D01*
X126206285Y-71430476D01*
X126206285Y-71382857D01*
X126253904Y-71287619D01*
X126301523Y-71240000D01*
X126396761Y-71192380D01*
X126587238Y-71192380D01*
X126682476Y-71240000D01*
X126730095Y-71287619D01*
X126777714Y-71382857D01*
X126777714Y-71430476D01*
X126730095Y-71525714D01*
X126682476Y-71573333D01*
X126587238Y-71620952D01*
X126396761Y-71620952D01*
X126301523Y-71668571D01*
X126253904Y-71716190D01*
X126206285Y-71811428D01*
X126206285Y-72001904D01*
X126253904Y-72097142D01*
X126301523Y-72144761D01*
X126396761Y-72192380D01*
X126587238Y-72192380D01*
X126682476Y-72144761D01*
X126730095Y-72097142D01*
X126777714Y-72001904D01*
X126777714Y-71811428D01*
X126730095Y-71716190D01*
X126682476Y-71668571D01*
X126587238Y-71620952D01*
X127396761Y-71192380D02*
X127492000Y-71192380D01*
X127587238Y-71240000D01*
X127634857Y-71287619D01*
X127682476Y-71382857D01*
X127730095Y-71573333D01*
X127730095Y-71811428D01*
X127682476Y-72001904D01*
X127634857Y-72097142D01*
X127587238Y-72144761D01*
X127492000Y-72192380D01*
X127396761Y-72192380D01*
X127301523Y-72144761D01*
X127253904Y-72097142D01*
X127206285Y-72001904D01*
X127158666Y-71811428D01*
X127158666Y-71573333D01*
X127206285Y-71382857D01*
X127253904Y-71287619D01*
X127301523Y-71240000D01*
X127396761Y-71192380D01*
D14*
X126372000Y-73985714D02*
X126132000Y-73642857D01*
X125960571Y-73985714D02*
X125960571Y-73265714D01*
X126234857Y-73265714D01*
X126303428Y-73300000D01*
X126337714Y-73334285D01*
X126372000Y-73402857D01*
X126372000Y-73505714D01*
X126337714Y-73574285D01*
X126303428Y-73608571D01*
X126234857Y-73642857D01*
X125960571Y-73642857D01*
X126612000Y-73265714D02*
X127057714Y-73265714D01*
X126817714Y-73540000D01*
X126920571Y-73540000D01*
X126989142Y-73574285D01*
X127023428Y-73608571D01*
X127057714Y-73677142D01*
X127057714Y-73848571D01*
X127023428Y-73917142D01*
X126989142Y-73951428D01*
X126920571Y-73985714D01*
X126714857Y-73985714D01*
X126646285Y-73951428D01*
X126612000Y-73917142D01*
D11*
X125087238Y-68747619D02*
X125134857Y-68700000D01*
X125230095Y-68652380D01*
X125468190Y-68652380D01*
X125563428Y-68700000D01*
X125611047Y-68747619D01*
X125658666Y-68842857D01*
X125658666Y-68938095D01*
X125611047Y-69080952D01*
X125039619Y-69652380D01*
X125658666Y-69652380D01*
X126087238Y-69557142D02*
X126134857Y-69604761D01*
X126087238Y-69652380D01*
X126039619Y-69604761D01*
X126087238Y-69557142D01*
X126087238Y-69652380D01*
X126515809Y-68747619D02*
X126563428Y-68700000D01*
X126658666Y-68652380D01*
X126896761Y-68652380D01*
X126992000Y-68700000D01*
X127039619Y-68747619D01*
X127087238Y-68842857D01*
X127087238Y-68938095D01*
X127039619Y-69080952D01*
X126468190Y-69652380D01*
X127087238Y-69652380D01*
X127515809Y-69652380D02*
X127515809Y-68652380D01*
X127611047Y-69271428D02*
X127896761Y-69652380D01*
X127896761Y-68985714D02*
X127515809Y-69366666D01*
D14*
X126372000Y-71445714D02*
X126132000Y-71102857D01*
X125960571Y-71445714D02*
X125960571Y-70725714D01*
X126234857Y-70725714D01*
X126303428Y-70760000D01*
X126337714Y-70794285D01*
X126372000Y-70862857D01*
X126372000Y-70965714D01*
X126337714Y-71034285D01*
X126303428Y-71068571D01*
X126234857Y-71102857D01*
X125960571Y-71102857D01*
X127057714Y-71445714D02*
X126646285Y-71445714D01*
X126852000Y-71445714D02*
X126852000Y-70725714D01*
X126783428Y-70828571D01*
X126714857Y-70897142D01*
X126646285Y-70931428D01*
D11*
X128246666Y-86602380D02*
X128246666Y-85602380D01*
X128580000Y-86316666D01*
X128913333Y-85602380D01*
X128913333Y-86602380D01*
X129580000Y-85602380D02*
X129770476Y-85602380D01*
X129865714Y-85650000D01*
X129960952Y-85745238D01*
X130008571Y-85935714D01*
X130008571Y-86269047D01*
X129960952Y-86459523D01*
X129865714Y-86554761D01*
X129770476Y-86602380D01*
X129580000Y-86602380D01*
X129484761Y-86554761D01*
X129389523Y-86459523D01*
X129341904Y-86269047D01*
X129341904Y-85935714D01*
X129389523Y-85745238D01*
X129484761Y-85650000D01*
X129580000Y-85602380D01*
X131008571Y-86507142D02*
X130960952Y-86554761D01*
X130818095Y-86602380D01*
X130722857Y-86602380D01*
X130580000Y-86554761D01*
X130484761Y-86459523D01*
X130437142Y-86364285D01*
X130389523Y-86173809D01*
X130389523Y-86030952D01*
X130437142Y-85840476D01*
X130484761Y-85745238D01*
X130580000Y-85650000D01*
X130722857Y-85602380D01*
X130818095Y-85602380D01*
X130960952Y-85650000D01*
X131008571Y-85697619D01*
X131341904Y-85602380D02*
X131960952Y-85602380D01*
X131627619Y-85983333D01*
X131770476Y-85983333D01*
X131865714Y-86030952D01*
X131913333Y-86078571D01*
X131960952Y-86173809D01*
X131960952Y-86411904D01*
X131913333Y-86507142D01*
X131865714Y-86554761D01*
X131770476Y-86602380D01*
X131484761Y-86602380D01*
X131389523Y-86554761D01*
X131341904Y-86507142D01*
X132580000Y-85602380D02*
X132675238Y-85602380D01*
X132770476Y-85650000D01*
X132818095Y-85697619D01*
X132865714Y-85792857D01*
X132913333Y-85983333D01*
X132913333Y-86221428D01*
X132865714Y-86411904D01*
X132818095Y-86507142D01*
X132770476Y-86554761D01*
X132675238Y-86602380D01*
X132580000Y-86602380D01*
X132484761Y-86554761D01*
X132437142Y-86507142D01*
X132389523Y-86411904D01*
X132341904Y-86221428D01*
X132341904Y-85983333D01*
X132389523Y-85792857D01*
X132437142Y-85697619D01*
X132484761Y-85650000D01*
X132580000Y-85602380D01*
X133770476Y-85602380D02*
X133580000Y-85602380D01*
X133484761Y-85650000D01*
X133437142Y-85697619D01*
X133341904Y-85840476D01*
X133294285Y-86030952D01*
X133294285Y-86411904D01*
X133341904Y-86507142D01*
X133389523Y-86554761D01*
X133484761Y-86602380D01*
X133675238Y-86602380D01*
X133770476Y-86554761D01*
X133818095Y-86507142D01*
X133865714Y-86411904D01*
X133865714Y-86173809D01*
X133818095Y-86078571D01*
X133770476Y-86030952D01*
X133675238Y-85983333D01*
X133484761Y-85983333D01*
X133389523Y-86030952D01*
X133341904Y-86078571D01*
X133294285Y-86173809D01*
X134199047Y-85602380D02*
X134818095Y-85602380D01*
X134484761Y-85983333D01*
X134627619Y-85983333D01*
X134722857Y-86030952D01*
X134770476Y-86078571D01*
X134818095Y-86173809D01*
X134818095Y-86411904D01*
X134770476Y-86507142D01*
X134722857Y-86554761D01*
X134627619Y-86602380D01*
X134341904Y-86602380D01*
X134246666Y-86554761D01*
X134199047Y-86507142D01*
X135246666Y-86602380D02*
X135246666Y-85602380D01*
X135580000Y-86316666D01*
X135913333Y-85602380D01*
X135913333Y-86602380D01*
X131318095Y-80732380D02*
X131318095Y-81541904D01*
X131365714Y-81637142D01*
X131413333Y-81684761D01*
X131508571Y-81732380D01*
X131699047Y-81732380D01*
X131794285Y-81684761D01*
X131841904Y-81637142D01*
X131889523Y-81541904D01*
X131889523Y-80732380D01*
X132889523Y-81732380D02*
X132318095Y-81732380D01*
X132603809Y-81732380D02*
X132603809Y-80732380D01*
X132508571Y-80875238D01*
X132413333Y-80970476D01*
X132318095Y-81018095D01*
X108943142Y-90781142D02*
X108895523Y-90828761D01*
X108752666Y-90876380D01*
X108657428Y-90876380D01*
X108514571Y-90828761D01*
X108419333Y-90733523D01*
X108371714Y-90638285D01*
X108324095Y-90447809D01*
X108324095Y-90304952D01*
X108371714Y-90114476D01*
X108419333Y-90019238D01*
X108514571Y-89924000D01*
X108657428Y-89876380D01*
X108752666Y-89876380D01*
X108895523Y-89924000D01*
X108943142Y-89971619D01*
X109514571Y-90876380D02*
X109419333Y-90828761D01*
X109371714Y-90781142D01*
X109324095Y-90685904D01*
X109324095Y-90400190D01*
X109371714Y-90304952D01*
X109419333Y-90257333D01*
X109514571Y-90209714D01*
X109657428Y-90209714D01*
X109752666Y-90257333D01*
X109800285Y-90304952D01*
X109847904Y-90400190D01*
X109847904Y-90685904D01*
X109800285Y-90781142D01*
X109752666Y-90828761D01*
X109657428Y-90876380D01*
X109514571Y-90876380D01*
X110276476Y-90209714D02*
X110276476Y-90876380D01*
X110276476Y-90304952D02*
X110324095Y-90257333D01*
X110419333Y-90209714D01*
X110562190Y-90209714D01*
X110657428Y-90257333D01*
X110705047Y-90352571D01*
X110705047Y-90876380D01*
X111181238Y-90209714D02*
X111181238Y-90876380D01*
X111181238Y-90304952D02*
X111228857Y-90257333D01*
X111324095Y-90209714D01*
X111466952Y-90209714D01*
X111562190Y-90257333D01*
X111609809Y-90352571D01*
X111609809Y-90876380D01*
X111847904Y-90971619D02*
X112609809Y-90971619D01*
X113038380Y-89876380D02*
X113133619Y-89876380D01*
X113228857Y-89924000D01*
X113276476Y-89971619D01*
X113324095Y-90066857D01*
X113371714Y-90257333D01*
X113371714Y-90495428D01*
X113324095Y-90685904D01*
X113276476Y-90781142D01*
X113228857Y-90828761D01*
X113133619Y-90876380D01*
X113038380Y-90876380D01*
X112943142Y-90828761D01*
X112895523Y-90781142D01*
X112847904Y-90685904D01*
X112800285Y-90495428D01*
X112800285Y-90257333D01*
X112847904Y-90066857D01*
X112895523Y-89971619D01*
X112943142Y-89924000D01*
X113038380Y-89876380D01*
X113752666Y-89971619D02*
X113800285Y-89924000D01*
X113895523Y-89876380D01*
X114133619Y-89876380D01*
X114228857Y-89924000D01*
X114276476Y-89971619D01*
X114324095Y-90066857D01*
X114324095Y-90162095D01*
X114276476Y-90304952D01*
X113705047Y-90876380D01*
X114324095Y-90876380D01*
X114657428Y-90876380D02*
X115181238Y-90209714D01*
X114657428Y-90209714D02*
X115181238Y-90876380D01*
X115752666Y-89876380D02*
X115847904Y-89876380D01*
X115943142Y-89924000D01*
X115990761Y-89971619D01*
X116038380Y-90066857D01*
X116086000Y-90257333D01*
X116086000Y-90495428D01*
X116038380Y-90685904D01*
X115990761Y-90781142D01*
X115943142Y-90828761D01*
X115847904Y-90876380D01*
X115752666Y-90876380D01*
X115657428Y-90828761D01*
X115609809Y-90781142D01*
X115562190Y-90685904D01*
X115514571Y-90495428D01*
X115514571Y-90257333D01*
X115562190Y-90066857D01*
X115609809Y-89971619D01*
X115657428Y-89924000D01*
X115752666Y-89876380D01*
X116419333Y-89876380D02*
X117086000Y-89876380D01*
X116657428Y-90876380D01*
X117228857Y-90971619D02*
X117990761Y-90971619D01*
X118419333Y-89876380D02*
X118609809Y-89876380D01*
X118705047Y-89924000D01*
X118800285Y-90019238D01*
X118847904Y-90209714D01*
X118847904Y-90543047D01*
X118800285Y-90733523D01*
X118705047Y-90828761D01*
X118609809Y-90876380D01*
X118419333Y-90876380D01*
X118324095Y-90828761D01*
X118228857Y-90733523D01*
X118181238Y-90543047D01*
X118181238Y-90209714D01*
X118228857Y-90019238D01*
X118324095Y-89924000D01*
X118419333Y-89876380D01*
X119705047Y-90876380D02*
X119705047Y-89876380D01*
X119705047Y-90828761D02*
X119609809Y-90876380D01*
X119419333Y-90876380D01*
X119324095Y-90828761D01*
X119276476Y-90781142D01*
X119228857Y-90685904D01*
X119228857Y-90400190D01*
X119276476Y-90304952D01*
X119324095Y-90257333D01*
X119419333Y-90209714D01*
X119609809Y-90209714D01*
X119705047Y-90257333D01*
X120609809Y-90876380D02*
X120609809Y-89876380D01*
X120609809Y-90828761D02*
X120514571Y-90876380D01*
X120324095Y-90876380D01*
X120228857Y-90828761D01*
X120181238Y-90781142D01*
X120133619Y-90685904D01*
X120133619Y-90400190D01*
X120181238Y-90304952D01*
X120228857Y-90257333D01*
X120324095Y-90209714D01*
X120514571Y-90209714D01*
X120609809Y-90257333D01*
X120847904Y-90971619D02*
X121609809Y-90971619D01*
X121847904Y-90352571D02*
X122181238Y-90352571D01*
X122324095Y-90876380D02*
X121847904Y-90876380D01*
X121847904Y-89876380D01*
X122324095Y-89876380D01*
X122657428Y-90209714D02*
X122895523Y-90876380D01*
X123133619Y-90209714D01*
X123895523Y-90828761D02*
X123800285Y-90876380D01*
X123609809Y-90876380D01*
X123514571Y-90828761D01*
X123466952Y-90733523D01*
X123466952Y-90352571D01*
X123514571Y-90257333D01*
X123609809Y-90209714D01*
X123800285Y-90209714D01*
X123895523Y-90257333D01*
X123943142Y-90352571D01*
X123943142Y-90447809D01*
X123466952Y-90543047D01*
X124371714Y-90209714D02*
X124371714Y-90876380D01*
X124371714Y-90304952D02*
X124419333Y-90257333D01*
X124514571Y-90209714D01*
X124657428Y-90209714D01*
X124752666Y-90257333D01*
X124800285Y-90352571D01*
X124800285Y-90876380D01*
X116252666Y-75652380D02*
X116252666Y-76366666D01*
X116205047Y-76509523D01*
X116109809Y-76604761D01*
X115966952Y-76652380D01*
X115871714Y-76652380D01*
X117205047Y-75652380D02*
X116728857Y-75652380D01*
X116681238Y-76128571D01*
X116728857Y-76080952D01*
X116824095Y-76033333D01*
X117062190Y-76033333D01*
X117157428Y-76080952D01*
X117205047Y-76128571D01*
X117252666Y-76223809D01*
X117252666Y-76461904D01*
X117205047Y-76557142D01*
X117157428Y-76604761D01*
X117062190Y-76652380D01*
X116824095Y-76652380D01*
X116728857Y-76604761D01*
X116681238Y-76557142D01*
X125071904Y-59296761D02*
X125214761Y-59344380D01*
X125452857Y-59344380D01*
X125548095Y-59296761D01*
X125595714Y-59249142D01*
X125643333Y-59153904D01*
X125643333Y-59058666D01*
X125595714Y-58963428D01*
X125548095Y-58915809D01*
X125452857Y-58868190D01*
X125262380Y-58820571D01*
X125167142Y-58772952D01*
X125119523Y-58725333D01*
X125071904Y-58630095D01*
X125071904Y-58534857D01*
X125119523Y-58439619D01*
X125167142Y-58392000D01*
X125262380Y-58344380D01*
X125500476Y-58344380D01*
X125643333Y-58392000D01*
X126500476Y-59296761D02*
X126405238Y-59344380D01*
X126214761Y-59344380D01*
X126119523Y-59296761D01*
X126071904Y-59249142D01*
X126024285Y-59153904D01*
X126024285Y-58868190D01*
X126071904Y-58772952D01*
X126119523Y-58725333D01*
X126214761Y-58677714D01*
X126405238Y-58677714D01*
X126500476Y-58725333D01*
X126929047Y-59344380D02*
X126929047Y-58677714D01*
X126929047Y-58868190D02*
X126976666Y-58772952D01*
X127024285Y-58725333D01*
X127119523Y-58677714D01*
X127214761Y-58677714D01*
X127929047Y-59296761D02*
X127833809Y-59344380D01*
X127643333Y-59344380D01*
X127548095Y-59296761D01*
X127500476Y-59201523D01*
X127500476Y-58820571D01*
X127548095Y-58725333D01*
X127643333Y-58677714D01*
X127833809Y-58677714D01*
X127929047Y-58725333D01*
X127976666Y-58820571D01*
X127976666Y-58915809D01*
X127500476Y-59011047D01*
X128310000Y-58677714D02*
X128500476Y-59344380D01*
X128690952Y-58868190D01*
X128881428Y-59344380D01*
X129071904Y-58677714D01*
X129214761Y-59439619D02*
X129976666Y-59439619D01*
X130071904Y-58344380D02*
X130643333Y-58344380D01*
X130357619Y-59344380D02*
X130357619Y-58344380D01*
X131357619Y-59296761D02*
X131262380Y-59344380D01*
X131071904Y-59344380D01*
X130976666Y-59296761D01*
X130929047Y-59201523D01*
X130929047Y-58820571D01*
X130976666Y-58725333D01*
X131071904Y-58677714D01*
X131262380Y-58677714D01*
X131357619Y-58725333D01*
X131405238Y-58820571D01*
X131405238Y-58915809D01*
X130929047Y-59011047D01*
X131833809Y-59344380D02*
X131833809Y-58677714D01*
X131833809Y-58868190D02*
X131881428Y-58772952D01*
X131929047Y-58725333D01*
X132024285Y-58677714D01*
X132119523Y-58677714D01*
X132452857Y-59344380D02*
X132452857Y-58677714D01*
X132452857Y-58772952D02*
X132500476Y-58725333D01*
X132595714Y-58677714D01*
X132738571Y-58677714D01*
X132833809Y-58725333D01*
X132881428Y-58820571D01*
X132881428Y-59344380D01*
X132881428Y-58820571D02*
X132929047Y-58725333D01*
X133024285Y-58677714D01*
X133167142Y-58677714D01*
X133262380Y-58725333D01*
X133310000Y-58820571D01*
X133310000Y-59344380D01*
X133786190Y-59344380D02*
X133786190Y-58677714D01*
X133786190Y-58344380D02*
X133738571Y-58392000D01*
X133786190Y-58439619D01*
X133833809Y-58392000D01*
X133786190Y-58344380D01*
X133786190Y-58439619D01*
X134262380Y-58677714D02*
X134262380Y-59344380D01*
X134262380Y-58772952D02*
X134310000Y-58725333D01*
X134405238Y-58677714D01*
X134548095Y-58677714D01*
X134643333Y-58725333D01*
X134690952Y-58820571D01*
X134690952Y-59344380D01*
X135595714Y-59344380D02*
X135595714Y-58820571D01*
X135548095Y-58725333D01*
X135452857Y-58677714D01*
X135262380Y-58677714D01*
X135167142Y-58725333D01*
X135595714Y-59296761D02*
X135500476Y-59344380D01*
X135262380Y-59344380D01*
X135167142Y-59296761D01*
X135119523Y-59201523D01*
X135119523Y-59106285D01*
X135167142Y-59011047D01*
X135262380Y-58963428D01*
X135500476Y-58963428D01*
X135595714Y-58915809D01*
X136214761Y-59344380D02*
X136119523Y-59296761D01*
X136071904Y-59201523D01*
X136071904Y-58344380D01*
X136357619Y-59439619D02*
X137119523Y-59439619D01*
X137548095Y-58344380D02*
X137643333Y-58344380D01*
X137738571Y-58392000D01*
X137786190Y-58439619D01*
X137833809Y-58534857D01*
X137881428Y-58725333D01*
X137881428Y-58963428D01*
X137833809Y-59153904D01*
X137786190Y-59249142D01*
X137738571Y-59296761D01*
X137643333Y-59344380D01*
X137548095Y-59344380D01*
X137452857Y-59296761D01*
X137405238Y-59249142D01*
X137357619Y-59153904D01*
X137310000Y-58963428D01*
X137310000Y-58725333D01*
X137357619Y-58534857D01*
X137405238Y-58439619D01*
X137452857Y-58392000D01*
X137548095Y-58344380D01*
X138833809Y-59344380D02*
X138262380Y-59344380D01*
X138548095Y-59344380D02*
X138548095Y-58344380D01*
X138452857Y-58487238D01*
X138357619Y-58582476D01*
X138262380Y-58630095D01*
X139167142Y-59344380D02*
X139690952Y-58677714D01*
X139167142Y-58677714D02*
X139690952Y-59344380D01*
X140262380Y-58344380D02*
X140357619Y-58344380D01*
X140452857Y-58392000D01*
X140500476Y-58439619D01*
X140548095Y-58534857D01*
X140595714Y-58725333D01*
X140595714Y-58963428D01*
X140548095Y-59153904D01*
X140500476Y-59249142D01*
X140452857Y-59296761D01*
X140357619Y-59344380D01*
X140262380Y-59344380D01*
X140167142Y-59296761D01*
X140119523Y-59249142D01*
X140071904Y-59153904D01*
X140024285Y-58963428D01*
X140024285Y-58725333D01*
X140071904Y-58534857D01*
X140119523Y-58439619D01*
X140167142Y-58392000D01*
X140262380Y-58344380D01*
X140976666Y-58439619D02*
X141024285Y-58392000D01*
X141119523Y-58344380D01*
X141357619Y-58344380D01*
X141452857Y-58392000D01*
X141500476Y-58439619D01*
X141548095Y-58534857D01*
X141548095Y-58630095D01*
X141500476Y-58772952D01*
X140929047Y-59344380D01*
X141548095Y-59344380D01*
X132976666Y-55184380D02*
X132976666Y-55898666D01*
X132929047Y-56041523D01*
X132833809Y-56136761D01*
X132690952Y-56184380D01*
X132595714Y-56184380D01*
X133405238Y-55279619D02*
X133452857Y-55232000D01*
X133548095Y-55184380D01*
X133786190Y-55184380D01*
X133881428Y-55232000D01*
X133929047Y-55279619D01*
X133976666Y-55374857D01*
X133976666Y-55470095D01*
X133929047Y-55612952D01*
X133357619Y-56184380D01*
X133976666Y-56184380D01*
X113641904Y-59296761D02*
X113784761Y-59344380D01*
X114022857Y-59344380D01*
X114118095Y-59296761D01*
X114165714Y-59249142D01*
X114213333Y-59153904D01*
X114213333Y-59058666D01*
X114165714Y-58963428D01*
X114118095Y-58915809D01*
X114022857Y-58868190D01*
X113832380Y-58820571D01*
X113737142Y-58772952D01*
X113689523Y-58725333D01*
X113641904Y-58630095D01*
X113641904Y-58534857D01*
X113689523Y-58439619D01*
X113737142Y-58392000D01*
X113832380Y-58344380D01*
X114070476Y-58344380D01*
X114213333Y-58392000D01*
X115070476Y-59296761D02*
X114975238Y-59344380D01*
X114784761Y-59344380D01*
X114689523Y-59296761D01*
X114641904Y-59249142D01*
X114594285Y-59153904D01*
X114594285Y-58868190D01*
X114641904Y-58772952D01*
X114689523Y-58725333D01*
X114784761Y-58677714D01*
X114975238Y-58677714D01*
X115070476Y-58725333D01*
X115499047Y-59344380D02*
X115499047Y-58677714D01*
X115499047Y-58868190D02*
X115546666Y-58772952D01*
X115594285Y-58725333D01*
X115689523Y-58677714D01*
X115784761Y-58677714D01*
X116499047Y-59296761D02*
X116403809Y-59344380D01*
X116213333Y-59344380D01*
X116118095Y-59296761D01*
X116070476Y-59201523D01*
X116070476Y-58820571D01*
X116118095Y-58725333D01*
X116213333Y-58677714D01*
X116403809Y-58677714D01*
X116499047Y-58725333D01*
X116546666Y-58820571D01*
X116546666Y-58915809D01*
X116070476Y-59011047D01*
X116880000Y-58677714D02*
X117070476Y-59344380D01*
X117260952Y-58868190D01*
X117451428Y-59344380D01*
X117641904Y-58677714D01*
X117784761Y-59439619D02*
X118546666Y-59439619D01*
X118641904Y-58344380D02*
X119213333Y-58344380D01*
X118927619Y-59344380D02*
X118927619Y-58344380D01*
X119927619Y-59296761D02*
X119832380Y-59344380D01*
X119641904Y-59344380D01*
X119546666Y-59296761D01*
X119499047Y-59201523D01*
X119499047Y-58820571D01*
X119546666Y-58725333D01*
X119641904Y-58677714D01*
X119832380Y-58677714D01*
X119927619Y-58725333D01*
X119975238Y-58820571D01*
X119975238Y-58915809D01*
X119499047Y-59011047D01*
X120403809Y-59344380D02*
X120403809Y-58677714D01*
X120403809Y-58868190D02*
X120451428Y-58772952D01*
X120499047Y-58725333D01*
X120594285Y-58677714D01*
X120689523Y-58677714D01*
X121022857Y-59344380D02*
X121022857Y-58677714D01*
X121022857Y-58772952D02*
X121070476Y-58725333D01*
X121165714Y-58677714D01*
X121308571Y-58677714D01*
X121403809Y-58725333D01*
X121451428Y-58820571D01*
X121451428Y-59344380D01*
X121451428Y-58820571D02*
X121499047Y-58725333D01*
X121594285Y-58677714D01*
X121737142Y-58677714D01*
X121832380Y-58725333D01*
X121880000Y-58820571D01*
X121880000Y-59344380D01*
X122356190Y-59344380D02*
X122356190Y-58677714D01*
X122356190Y-58344380D02*
X122308571Y-58392000D01*
X122356190Y-58439619D01*
X122403809Y-58392000D01*
X122356190Y-58344380D01*
X122356190Y-58439619D01*
X122832380Y-58677714D02*
X122832380Y-59344380D01*
X122832380Y-58772952D02*
X122880000Y-58725333D01*
X122975238Y-58677714D01*
X123118095Y-58677714D01*
X123213333Y-58725333D01*
X123260952Y-58820571D01*
X123260952Y-59344380D01*
X124165714Y-59344380D02*
X124165714Y-58820571D01*
X124118095Y-58725333D01*
X124022857Y-58677714D01*
X123832380Y-58677714D01*
X123737142Y-58725333D01*
X124165714Y-59296761D02*
X124070476Y-59344380D01*
X123832380Y-59344380D01*
X123737142Y-59296761D01*
X123689523Y-59201523D01*
X123689523Y-59106285D01*
X123737142Y-59011047D01*
X123832380Y-58963428D01*
X124070476Y-58963428D01*
X124165714Y-58915809D01*
X124784761Y-59344380D02*
X124689523Y-59296761D01*
X124641904Y-59201523D01*
X124641904Y-58344380D01*
X124927619Y-59439619D02*
X125689523Y-59439619D01*
X126118095Y-58344380D02*
X126213333Y-58344380D01*
X126308571Y-58392000D01*
X126356190Y-58439619D01*
X126403809Y-58534857D01*
X126451428Y-58725333D01*
X126451428Y-58963428D01*
X126403809Y-59153904D01*
X126356190Y-59249142D01*
X126308571Y-59296761D01*
X126213333Y-59344380D01*
X126118095Y-59344380D01*
X126022857Y-59296761D01*
X125975238Y-59249142D01*
X125927619Y-59153904D01*
X125880000Y-58963428D01*
X125880000Y-58725333D01*
X125927619Y-58534857D01*
X125975238Y-58439619D01*
X126022857Y-58392000D01*
X126118095Y-58344380D01*
X127403809Y-59344380D02*
X126832380Y-59344380D01*
X127118095Y-59344380D02*
X127118095Y-58344380D01*
X127022857Y-58487238D01*
X126927619Y-58582476D01*
X126832380Y-58630095D01*
X127737142Y-59344380D02*
X128260952Y-58677714D01*
X127737142Y-58677714D02*
X128260952Y-59344380D01*
X128832380Y-58344380D02*
X128927619Y-58344380D01*
X129022857Y-58392000D01*
X129070476Y-58439619D01*
X129118095Y-58534857D01*
X129165714Y-58725333D01*
X129165714Y-58963428D01*
X129118095Y-59153904D01*
X129070476Y-59249142D01*
X129022857Y-59296761D01*
X128927619Y-59344380D01*
X128832380Y-59344380D01*
X128737142Y-59296761D01*
X128689523Y-59249142D01*
X128641904Y-59153904D01*
X128594285Y-58963428D01*
X128594285Y-58725333D01*
X128641904Y-58534857D01*
X128689523Y-58439619D01*
X128737142Y-58392000D01*
X128832380Y-58344380D01*
X129546666Y-58439619D02*
X129594285Y-58392000D01*
X129689523Y-58344380D01*
X129927619Y-58344380D01*
X130022857Y-58392000D01*
X130070476Y-58439619D01*
X130118095Y-58534857D01*
X130118095Y-58630095D01*
X130070476Y-58772952D01*
X129499047Y-59344380D01*
X130118095Y-59344380D01*
X121546666Y-55184380D02*
X121546666Y-55898666D01*
X121499047Y-56041523D01*
X121403809Y-56136761D01*
X121260952Y-56184380D01*
X121165714Y-56184380D01*
X122546666Y-56184380D02*
X121975238Y-56184380D01*
X122260952Y-56184380D02*
X122260952Y-55184380D01*
X122165714Y-55327238D01*
X122070476Y-55422476D01*
X121975238Y-55470095D01*
X148014761Y-81604095D02*
X148062380Y-81461238D01*
X148062380Y-81223142D01*
X148014761Y-81127904D01*
X147967142Y-81080285D01*
X147871904Y-81032666D01*
X147776666Y-81032666D01*
X147681428Y-81080285D01*
X147633809Y-81127904D01*
X147586190Y-81223142D01*
X147538571Y-81413619D01*
X147490952Y-81508857D01*
X147443333Y-81556476D01*
X147348095Y-81604095D01*
X147252857Y-81604095D01*
X147157619Y-81556476D01*
X147110000Y-81508857D01*
X147062380Y-81413619D01*
X147062380Y-81175523D01*
X147110000Y-81032666D01*
X148014761Y-80175523D02*
X148062380Y-80270761D01*
X148062380Y-80461238D01*
X148014761Y-80556476D01*
X147967142Y-80604095D01*
X147871904Y-80651714D01*
X147586190Y-80651714D01*
X147490952Y-80604095D01*
X147443333Y-80556476D01*
X147395714Y-80461238D01*
X147395714Y-80270761D01*
X147443333Y-80175523D01*
X148062380Y-79746952D02*
X147395714Y-79746952D01*
X147586190Y-79746952D02*
X147490952Y-79699333D01*
X147443333Y-79651714D01*
X147395714Y-79556476D01*
X147395714Y-79461238D01*
X148014761Y-78746952D02*
X148062380Y-78842190D01*
X148062380Y-79032666D01*
X148014761Y-79127904D01*
X147919523Y-79175523D01*
X147538571Y-79175523D01*
X147443333Y-79127904D01*
X147395714Y-79032666D01*
X147395714Y-78842190D01*
X147443333Y-78746952D01*
X147538571Y-78699333D01*
X147633809Y-78699333D01*
X147729047Y-79175523D01*
X147395714Y-78366000D02*
X148062380Y-78175523D01*
X147586190Y-77985047D01*
X148062380Y-77794571D01*
X147395714Y-77604095D01*
X148157619Y-77461238D02*
X148157619Y-76699333D01*
X147062380Y-76604095D02*
X147062380Y-76032666D01*
X148062380Y-76318380D02*
X147062380Y-76318380D01*
X148014761Y-75318380D02*
X148062380Y-75413619D01*
X148062380Y-75604095D01*
X148014761Y-75699333D01*
X147919523Y-75746952D01*
X147538571Y-75746952D01*
X147443333Y-75699333D01*
X147395714Y-75604095D01*
X147395714Y-75413619D01*
X147443333Y-75318380D01*
X147538571Y-75270761D01*
X147633809Y-75270761D01*
X147729047Y-75746952D01*
X148062380Y-74842190D02*
X147395714Y-74842190D01*
X147586190Y-74842190D02*
X147490952Y-74794571D01*
X147443333Y-74746952D01*
X147395714Y-74651714D01*
X147395714Y-74556476D01*
X148062380Y-74223142D02*
X147395714Y-74223142D01*
X147490952Y-74223142D02*
X147443333Y-74175523D01*
X147395714Y-74080285D01*
X147395714Y-73937428D01*
X147443333Y-73842190D01*
X147538571Y-73794571D01*
X148062380Y-73794571D01*
X147538571Y-73794571D02*
X147443333Y-73746952D01*
X147395714Y-73651714D01*
X147395714Y-73508857D01*
X147443333Y-73413619D01*
X147538571Y-73366000D01*
X148062380Y-73366000D01*
X148062380Y-72889809D02*
X147395714Y-72889809D01*
X147062380Y-72889809D02*
X147110000Y-72937428D01*
X147157619Y-72889809D01*
X147110000Y-72842190D01*
X147062380Y-72889809D01*
X147157619Y-72889809D01*
X147395714Y-72413619D02*
X148062380Y-72413619D01*
X147490952Y-72413619D02*
X147443333Y-72366000D01*
X147395714Y-72270761D01*
X147395714Y-72127904D01*
X147443333Y-72032666D01*
X147538571Y-71985047D01*
X148062380Y-71985047D01*
X148062380Y-71080285D02*
X147538571Y-71080285D01*
X147443333Y-71127904D01*
X147395714Y-71223142D01*
X147395714Y-71413619D01*
X147443333Y-71508857D01*
X148014761Y-71080285D02*
X148062380Y-71175523D01*
X148062380Y-71413619D01*
X148014761Y-71508857D01*
X147919523Y-71556476D01*
X147824285Y-71556476D01*
X147729047Y-71508857D01*
X147681428Y-71413619D01*
X147681428Y-71175523D01*
X147633809Y-71080285D01*
X148062380Y-70461238D02*
X148014761Y-70556476D01*
X147919523Y-70604095D01*
X147062380Y-70604095D01*
X148157619Y-70318380D02*
X148157619Y-69556476D01*
X147062380Y-69127904D02*
X147062380Y-69032666D01*
X147110000Y-68937428D01*
X147157619Y-68889809D01*
X147252857Y-68842190D01*
X147443333Y-68794571D01*
X147681428Y-68794571D01*
X147871904Y-68842190D01*
X147967142Y-68889809D01*
X148014761Y-68937428D01*
X148062380Y-69032666D01*
X148062380Y-69127904D01*
X148014761Y-69223142D01*
X147967142Y-69270761D01*
X147871904Y-69318380D01*
X147681428Y-69366000D01*
X147443333Y-69366000D01*
X147252857Y-69318380D01*
X147157619Y-69270761D01*
X147110000Y-69223142D01*
X147062380Y-69127904D01*
X148062380Y-67842190D02*
X148062380Y-68413619D01*
X148062380Y-68127904D02*
X147062380Y-68127904D01*
X147205238Y-68223142D01*
X147300476Y-68318380D01*
X147348095Y-68413619D01*
X148062380Y-67508857D02*
X147395714Y-66985047D01*
X147395714Y-67508857D02*
X148062380Y-66985047D01*
X147062380Y-66413619D02*
X147062380Y-66318380D01*
X147110000Y-66223142D01*
X147157619Y-66175523D01*
X147252857Y-66127904D01*
X147443333Y-66080285D01*
X147681428Y-66080285D01*
X147871904Y-66127904D01*
X147967142Y-66175523D01*
X148014761Y-66223142D01*
X148062380Y-66318380D01*
X148062380Y-66413619D01*
X148014761Y-66508857D01*
X147967142Y-66556476D01*
X147871904Y-66604095D01*
X147681428Y-66651714D01*
X147443333Y-66651714D01*
X147252857Y-66604095D01*
X147157619Y-66556476D01*
X147110000Y-66508857D01*
X147062380Y-66413619D01*
X147157619Y-65699333D02*
X147110000Y-65651714D01*
X147062380Y-65556476D01*
X147062380Y-65318380D01*
X147110000Y-65223142D01*
X147157619Y-65175523D01*
X147252857Y-65127904D01*
X147348095Y-65127904D01*
X147490952Y-65175523D01*
X148062380Y-65746952D01*
X148062380Y-65127904D01*
X150222380Y-73699333D02*
X150936666Y-73699333D01*
X151079523Y-73746952D01*
X151174761Y-73842190D01*
X151222380Y-73985047D01*
X151222380Y-74080285D01*
X150555714Y-72794571D02*
X151222380Y-72794571D01*
X150174761Y-73032666D02*
X150889047Y-73270761D01*
X150889047Y-72651714D01*
X148014761Y-93034095D02*
X148062380Y-92891238D01*
X148062380Y-92653142D01*
X148014761Y-92557904D01*
X147967142Y-92510285D01*
X147871904Y-92462666D01*
X147776666Y-92462666D01*
X147681428Y-92510285D01*
X147633809Y-92557904D01*
X147586190Y-92653142D01*
X147538571Y-92843619D01*
X147490952Y-92938857D01*
X147443333Y-92986476D01*
X147348095Y-93034095D01*
X147252857Y-93034095D01*
X147157619Y-92986476D01*
X147110000Y-92938857D01*
X147062380Y-92843619D01*
X147062380Y-92605523D01*
X147110000Y-92462666D01*
X148014761Y-91605523D02*
X148062380Y-91700761D01*
X148062380Y-91891238D01*
X148014761Y-91986476D01*
X147967142Y-92034095D01*
X147871904Y-92081714D01*
X147586190Y-92081714D01*
X147490952Y-92034095D01*
X147443333Y-91986476D01*
X147395714Y-91891238D01*
X147395714Y-91700761D01*
X147443333Y-91605523D01*
X148062380Y-91176952D02*
X147395714Y-91176952D01*
X147586190Y-91176952D02*
X147490952Y-91129333D01*
X147443333Y-91081714D01*
X147395714Y-90986476D01*
X147395714Y-90891238D01*
X148014761Y-90176952D02*
X148062380Y-90272190D01*
X148062380Y-90462666D01*
X148014761Y-90557904D01*
X147919523Y-90605523D01*
X147538571Y-90605523D01*
X147443333Y-90557904D01*
X147395714Y-90462666D01*
X147395714Y-90272190D01*
X147443333Y-90176952D01*
X147538571Y-90129333D01*
X147633809Y-90129333D01*
X147729047Y-90605523D01*
X147395714Y-89796000D02*
X148062380Y-89605523D01*
X147586190Y-89415047D01*
X148062380Y-89224571D01*
X147395714Y-89034095D01*
X148157619Y-88891238D02*
X148157619Y-88129333D01*
X147062380Y-88034095D02*
X147062380Y-87462666D01*
X148062380Y-87748380D02*
X147062380Y-87748380D01*
X148014761Y-86748380D02*
X148062380Y-86843619D01*
X148062380Y-87034095D01*
X148014761Y-87129333D01*
X147919523Y-87176952D01*
X147538571Y-87176952D01*
X147443333Y-87129333D01*
X147395714Y-87034095D01*
X147395714Y-86843619D01*
X147443333Y-86748380D01*
X147538571Y-86700761D01*
X147633809Y-86700761D01*
X147729047Y-87176952D01*
X148062380Y-86272190D02*
X147395714Y-86272190D01*
X147586190Y-86272190D02*
X147490952Y-86224571D01*
X147443333Y-86176952D01*
X147395714Y-86081714D01*
X147395714Y-85986476D01*
X148062380Y-85653142D02*
X147395714Y-85653142D01*
X147490952Y-85653142D02*
X147443333Y-85605523D01*
X147395714Y-85510285D01*
X147395714Y-85367428D01*
X147443333Y-85272190D01*
X147538571Y-85224571D01*
X148062380Y-85224571D01*
X147538571Y-85224571D02*
X147443333Y-85176952D01*
X147395714Y-85081714D01*
X147395714Y-84938857D01*
X147443333Y-84843619D01*
X147538571Y-84796000D01*
X148062380Y-84796000D01*
X148062380Y-84319809D02*
X147395714Y-84319809D01*
X147062380Y-84319809D02*
X147110000Y-84367428D01*
X147157619Y-84319809D01*
X147110000Y-84272190D01*
X147062380Y-84319809D01*
X147157619Y-84319809D01*
X147395714Y-83843619D02*
X148062380Y-83843619D01*
X147490952Y-83843619D02*
X147443333Y-83796000D01*
X147395714Y-83700761D01*
X147395714Y-83557904D01*
X147443333Y-83462666D01*
X147538571Y-83415047D01*
X148062380Y-83415047D01*
X148062380Y-82510285D02*
X147538571Y-82510285D01*
X147443333Y-82557904D01*
X147395714Y-82653142D01*
X147395714Y-82843619D01*
X147443333Y-82938857D01*
X148014761Y-82510285D02*
X148062380Y-82605523D01*
X148062380Y-82843619D01*
X148014761Y-82938857D01*
X147919523Y-82986476D01*
X147824285Y-82986476D01*
X147729047Y-82938857D01*
X147681428Y-82843619D01*
X147681428Y-82605523D01*
X147633809Y-82510285D01*
X148062380Y-81891238D02*
X148014761Y-81986476D01*
X147919523Y-82034095D01*
X147062380Y-82034095D01*
X148157619Y-81748380D02*
X148157619Y-80986476D01*
X147062380Y-80557904D02*
X147062380Y-80462666D01*
X147110000Y-80367428D01*
X147157619Y-80319809D01*
X147252857Y-80272190D01*
X147443333Y-80224571D01*
X147681428Y-80224571D01*
X147871904Y-80272190D01*
X147967142Y-80319809D01*
X148014761Y-80367428D01*
X148062380Y-80462666D01*
X148062380Y-80557904D01*
X148014761Y-80653142D01*
X147967142Y-80700761D01*
X147871904Y-80748380D01*
X147681428Y-80796000D01*
X147443333Y-80796000D01*
X147252857Y-80748380D01*
X147157619Y-80700761D01*
X147110000Y-80653142D01*
X147062380Y-80557904D01*
X148062380Y-79272190D02*
X148062380Y-79843619D01*
X148062380Y-79557904D02*
X147062380Y-79557904D01*
X147205238Y-79653142D01*
X147300476Y-79748380D01*
X147348095Y-79843619D01*
X148062380Y-78938857D02*
X147395714Y-78415047D01*
X147395714Y-78938857D02*
X148062380Y-78415047D01*
X147062380Y-77843619D02*
X147062380Y-77748380D01*
X147110000Y-77653142D01*
X147157619Y-77605523D01*
X147252857Y-77557904D01*
X147443333Y-77510285D01*
X147681428Y-77510285D01*
X147871904Y-77557904D01*
X147967142Y-77605523D01*
X148014761Y-77653142D01*
X148062380Y-77748380D01*
X148062380Y-77843619D01*
X148014761Y-77938857D01*
X147967142Y-77986476D01*
X147871904Y-78034095D01*
X147681428Y-78081714D01*
X147443333Y-78081714D01*
X147252857Y-78034095D01*
X147157619Y-77986476D01*
X147110000Y-77938857D01*
X147062380Y-77843619D01*
X147157619Y-77129333D02*
X147110000Y-77081714D01*
X147062380Y-76986476D01*
X147062380Y-76748380D01*
X147110000Y-76653142D01*
X147157619Y-76605523D01*
X147252857Y-76557904D01*
X147348095Y-76557904D01*
X147490952Y-76605523D01*
X148062380Y-77176952D01*
X148062380Y-76557904D01*
X150222380Y-85129333D02*
X150936666Y-85129333D01*
X151079523Y-85176952D01*
X151174761Y-85272190D01*
X151222380Y-85415047D01*
X151222380Y-85510285D01*
X150222380Y-84748380D02*
X150222380Y-84129333D01*
X150603333Y-84462666D01*
X150603333Y-84319809D01*
X150650952Y-84224571D01*
X150698571Y-84176952D01*
X150793809Y-84129333D01*
X151031904Y-84129333D01*
X151127142Y-84176952D01*
X151174761Y-84224571D01*
X151222380Y-84319809D01*
X151222380Y-84605523D01*
X151174761Y-84700761D01*
X151127142Y-84748380D01*
M02*
